<!DOCTYPE svg PUBLIC "-//W3C//DTD SVG 20010904//EN" "http://www.w3.org/TR/2001/REC-SVG-20010904/DTD/svg10.dtd">
<svg version="1.0" xmlns="http://www.w3.org/2000/svg" width="140px" height="57px" viewBox="0 0 1400 570" preserveAspectRatio="xMidYMid meet">
<g id="layer101" fill="#a2a2a2" stroke="none">
 <path d="M112 498 c-25 -25 -7 -77 52 -152 20 -26 26 -41 18 -44 -27 -9 -9 -33 49 -65 58 -33 60 -36 40 -47 -14 -7 -21 -19 -19 -32 4 -30 122 -69 203 -67 45 1 80 -6 143 -30 91 -34 122 -38 122 -17 0 8 -36 27 -87 46 -180 67 -232 91 -238 112 -4 11 -5 20 -3 21 1 1 22 12 45 24 l42 23 58 -39 c92 -60 102 -65 110 -46 3 9 -2 32 -11 51 -20 43 -20 44 3 44 10 0 24 6 30 14 9 11 30 13 87 9 63 -4 79 -2 95 13 13 12 38 18 72 19 29 1 71 8 94 16 38 12 55 11 155 -9 62 -11 136 -24 163 -27 73 -8 28 10 -75 30 -47 8 -114 22 -149 30 -59 13 -69 12 -117 -5 -35 -12 -67 -16 -94 -13 -35 5 -44 2 -57 -17 -13 -18 -21 -21 -47 -15 -54 12 -116 8 -134 -8 -24 -22 -59 -11 -78 24 -15 30 -44 40 -44 15 0 -7 7 -19 16 -27 19 -16 67 -109 60 -116 -8 -8 -136 77 -136 90 0 6 14 26 31 43 34 35 41 73 18 101 -31 37 -118 55 -160 33 -33 -18 -25 -71 20 -127 l39 -50 -39 -41 c-21 -23 -42 -42 -47 -42 -5 0 -29 15 -53 33 l-44 32 35 3 c37 4 64 19 33 19 -94 -1 -98 1 -142 60 -47 64 -59 98 -42 125 13 20 2 25 -17 6z m382 -49 c33 -26 34 -68 3 -97 l-23 -22 -29 30 c-16 16 -31 28 -33 25 -3 -3 5 -16 18 -30 13 -14 21 -27 18 -31 -10 -9 -78 87 -78 111 0 30 7 35 55 35 28 0 51 -7 69 -21z m-244 -190 l35 -30 -42 23 c-24 13 -43 26 -43 31 0 14 15 7 50 -24z m205 21 c-3 -5 -16 -15 -28 -21 -22 -12 -22 -12 -3 10 19 21 43 30 31 11z m-155 -55 c0 -3 -2 -5 -5 -5 -3 0 -5 2 -5 5 0 3 2 5 5 5 3 0 5 -2 5 -5z m70 -20 c0 -3 -2 -5 -5 -5 -3 0 -5 2 -5 5 0 3 2 5 5 5 3 0 5 -2 5 -5z m13 -52 l72 -38 -36 -3 c-37 -3 -149 33 -149 48 0 7 27 29 38 30 1 0 35 -17 75 -37z m137 -38 c0 -3 -2 -5 -5 -5 -3 0 -5 2 -5 5 0 3 2 5 5 5 3 0 5 -2 5 -5z m40 -15 c8 -5 11 -10 5 -10 -5 0 -17 5 -25 10 -8 5 -10 10 -5 10 6 0 17 -5 25 -10z m55 -20 c13 -6 15 -9 5 -9 -8 0 -22 4 -30 9 -18 12 -2 12 25 0z m35 -15 c0 -3 -2 -5 -5 -5 -3 0 -5 2 -5 5 0 3 2 5 5 5 3 0 5 -2 5 -5z"/>
 </g>

</svg>