<svg width="348.61000976562497px" height="111.22625732421875px" xmlns="http://www.w3.org/2000/svg" viewBox="75.69499511718752 19.386871337890625 348.61000976562497 111.22625732421875" style="background: rgba(0, 0, 0, 0);" preserveAspectRatio="xMidYMid"><defs><filter id="editing-hole" x="-100%" y="-100%" width="300%" height="300%"><feFlood flood-color="#000000" result="black"></feFlood><feMorphology operator="dilate" radius="2" in="SourceGraphic" result="erode"></feMorphology><feGaussianBlur in="erode" stdDeviation="4" result="blur"></feGaussianBlur><feOffset in="blur" dx="2" dy="2" result="offset"></feOffset><feComposite operator="atop" in="offset" in2="black" result="merge"></feComposite><feComposite operator="in" in="merge" in2="SourceGraphic" result="inner-shadow"></feComposite></filter></defs><g filter="url(#editing-hole)"><g transform="translate(128.40999960899353, 96.86593627929688)"><path d="M19.44-33.12L19.44-33.12Q26.94-33.12 31.62-27.36L31.62-27.36L31.62-27.36Q32.10-26.82 32.10-26.10L32.10-26.10L32.10-26.10Q32.10-25.14 31.08-24.42L31.08-24.42L31.08-24.42Q30.54-24.06 29.94-24.06L29.94-24.06L29.94-24.06Q29.04-24.06 28.20-24.96L28.20-24.96L28.20-24.96Q26.40-26.94 24.24-27.93L24.24-27.93L24.24-27.93Q22.08-28.92 19.44-28.92L19.44-28.92L19.44-28.92Q16.14-28.92 13.56-27.33L13.56-27.33L13.56-27.33Q10.98-25.74 9.57-22.86L9.57-22.86L9.57-22.86Q8.16-19.98 8.16-16.38L8.16-16.38L8.16-16.38Q8.16-12.84 9.66-9.99L9.66-9.99L9.66-9.99Q11.16-7.14 13.86-5.52L13.86-5.52L13.86-5.52Q16.56-3.90 20.04-3.90L20.04-3.90L20.04-3.90Q24.84-3.90 27.78-6.48L27.78-6.48L27.78-6.48Q28.56-7.14 29.40-7.14L29.40-7.14L29.40-7.14Q30.12-7.14 30.72-6.66L30.72-6.66L30.72-6.66Q31.56-5.94 31.56-5.04L31.56-5.04L31.56-5.04Q31.56-4.26 30.96-3.72L30.96-3.72L30.96-3.72Q26.64 0.30 20.04 0.30L20.04 0.30L20.04 0.30Q15.36 0.30 11.64-1.89L11.64-1.89L11.64-1.89Q7.92-4.08 5.79-7.89L5.79-7.89L5.79-7.89Q3.66-11.70 3.66-16.38L3.66-16.38L3.66-16.38Q3.66-21.18 5.70-24.99L5.70-24.99L5.70-24.99Q7.74-28.80 11.34-30.96L11.34-30.96L11.34-30.96Q14.94-33.12 19.44-33.12L19.44-33.12ZM56.10-33.12L56.10-33.12Q60.84-33.12 64.62-30.96L64.62-30.96L64.62-30.96Q68.40-28.80 70.59-24.96L70.59-24.96L70.59-24.96Q72.78-21.12 72.78-16.38L72.78-16.38L72.78-16.38Q72.78-11.64 70.62-7.83L70.62-7.83L70.62-7.83Q68.46-4.02 64.65-1.86L64.65-1.86L64.65-1.86Q60.84 0.30 56.10 0.30L56.10 0.30L56.10 0.30Q51.36 0.30 47.55-1.86L47.55-1.86L47.55-1.86Q43.74-4.02 41.58-7.83L41.58-7.83L41.58-7.83Q39.42-11.64 39.42-16.38L39.42-16.38L39.42-16.38Q39.42-21.12 41.58-24.96L41.58-24.96L41.58-24.96Q43.74-28.80 47.55-30.96L47.55-30.96L47.55-30.96Q51.36-33.12 56.10-33.12L56.10-33.12ZM56.10-28.92L56.10-28.92Q52.68-28.92 49.89-27.30L49.89-27.30L49.89-27.30Q47.10-25.68 45.51-22.83L45.51-22.83L45.51-22.83Q43.92-19.98 43.92-16.38L43.92-16.38L43.92-16.38Q43.92-12.84 45.51-9.99L45.51-9.99L45.51-9.99Q47.10-7.14 49.89-5.52L49.89-5.52L49.89-5.52Q52.68-3.90 56.10-3.90L56.10-3.90L56.10-3.90Q59.58-3.90 62.34-5.52L62.34-5.52L62.34-5.52Q65.10-7.14 66.66-9.99L66.66-9.99L66.66-9.99Q68.22-12.84 68.22-16.38L68.22-16.38L68.22-16.38Q68.22-19.98 66.66-22.83L66.66-22.83L66.66-22.83Q65.10-25.68 62.34-27.30L62.34-27.30L62.34-27.30Q59.58-28.92 56.10-28.92L56.10-28.92ZM97.32-33.18L97.32-33.18Q101.58-33.18 104.97-31.38L104.97-31.38L104.97-31.38Q108.36-29.58 110.28-26.13L110.28-26.13L110.28-26.13Q112.20-22.68 112.20-17.88L112.20-17.88L112.20-2.28L112.20-2.28Q112.20-1.32 111.54-0.66L111.54-0.66L111.54-0.66Q110.88 0 109.92 0L109.92 0L109.92 0Q108.90 0 108.24-0.66L108.24-0.66L108.24-0.66Q107.58-1.32 107.58-2.28L107.58-2.28L107.58-17.88L107.58-17.88Q107.58-23.22 104.61-26.01L104.61-26.01L104.61-26.01Q101.64-28.80 96.84-28.80L96.84-28.80L96.84-28.80Q93.90-28.80 91.53-27.66L91.53-27.66L91.53-27.66Q89.16-26.52 87.78-24.51L87.78-24.51L87.78-24.51Q86.40-22.50 86.40-20.04L86.40-20.04L86.40-2.28L86.40-2.28Q86.40-1.26 85.77-0.63L85.77-0.63L85.77-0.63Q85.14 0 84.12 0L84.12 0L84.12 0Q83.10 0 82.44-0.63L82.44-0.63L82.44-0.63Q81.78-1.26 81.78-2.28L81.78-2.28L81.78-30.48L81.78-30.48Q81.78-31.50 82.44-32.16L82.44-32.16L82.44-32.16Q83.10-32.82 84.12-32.82L84.12-32.82L84.12-32.82Q85.14-32.82 85.77-32.16L85.77-32.16L85.77-32.16Q86.40-31.50 86.40-30.48L86.40-30.48L86.40-28.44L86.40-28.44Q88.38-30.66 91.20-31.92L91.20-31.92L91.20-31.92Q94.02-33.18 97.32-33.18L97.32-33.18ZM136.86-4.62L136.86-4.62Q137.82-4.62 138.42-3.96L138.42-3.96L138.42-3.96Q139.02-3.30 139.02-2.28L139.02-2.28L139.02-2.28Q139.02-1.32 138.30-0.66L138.30-0.66L138.30-0.66Q137.58 0 136.50 0L136.50 0L135.24 0L135.24 0Q132.06 0 129.54-1.53L129.54-1.53L129.54-1.53Q127.02-3.06 125.61-5.67L125.61-5.67L125.61-5.67Q124.20-8.28 124.20-11.58L124.20-11.58L124.20-27.60L120.30-27.60L120.30-27.60Q119.34-27.60 118.77-28.17L118.77-28.17L118.77-28.17Q118.20-28.74 118.20-29.58L118.20-29.58L118.20-29.58Q118.20-30.48 118.77-31.05L118.77-31.05L118.77-31.05Q119.34-31.62 120.30-31.62L120.30-31.62L124.20-31.62L124.20-40.92L124.20-40.92Q124.20-41.94 124.83-42.60L124.83-42.60L124.83-42.60Q125.46-43.26 126.48-43.26L126.48-43.26L126.48-43.26Q127.50-43.26 128.16-42.60L128.16-42.60L128.16-42.60Q128.82-41.94 128.82-40.92L128.82-40.92L128.82-31.62L135.60-31.62L135.60-31.62Q136.56-31.62 137.13-31.05L137.13-31.05L137.13-31.05Q137.70-30.48 137.70-29.58L137.70-29.58L137.70-29.58Q137.70-28.74 137.13-28.17L137.13-28.17L137.13-28.17Q136.56-27.60 135.60-27.60L135.60-27.60L128.82-27.60L128.82-11.58L128.82-11.58Q128.82-8.52 130.62-6.57L130.62-6.57L130.62-6.57Q132.42-4.62 135.24-4.62L135.24-4.62L136.86-4.62ZM161.46-33.12L161.46-33.12Q166.14-33.12 169.95-30.93L169.95-30.93L169.95-30.93Q173.76-28.74 175.95-24.90L175.95-24.90L175.95-24.90Q178.14-21.06 178.14-16.38L178.14-16.38L178.14-2.28L178.14-2.28Q178.14-1.32 177.48-0.66L177.48-0.66L177.48-0.66Q176.82 0 175.80 0L175.80 0L175.80 0Q174.78 0 174.12-0.63L174.12-0.63L174.12-0.63Q173.46-1.26 173.46-2.28L173.46-2.28L173.46-5.88L173.46-5.88Q171.36-3 168.12-1.35L168.12-1.35L168.12-1.35Q164.88 0.30 160.98 0.30L160.98 0.30L160.98 0.30Q156.42 0.30 152.73-1.89L152.73-1.89L152.73-1.89Q149.04-4.08 146.91-7.89L146.91-7.89L146.91-7.89Q144.78-11.70 144.78-16.38L144.78-16.38L144.78-16.38Q144.78-21.06 146.97-24.90L146.97-24.90L146.97-24.90Q149.16-28.74 152.97-30.93L152.97-30.93L152.97-30.93Q156.78-33.12 161.46-33.12L161.46-33.12ZM161.46-3.90L161.46-3.90Q164.88-3.90 167.64-5.52L167.64-5.52L167.64-5.52Q170.40-7.14 171.99-9.99L171.99-9.99L171.99-9.99Q173.58-12.84 173.58-16.38L173.58-16.38L173.58-16.38Q173.58-19.92 171.99-22.77L171.99-22.77L171.99-22.77Q170.40-25.62 167.64-27.27L167.64-27.27L167.64-27.27Q164.88-28.92 161.46-28.92L161.46-28.92L161.46-28.92Q158.04-28.92 155.25-27.27L155.25-27.27L155.25-27.27Q152.46-25.62 150.87-22.77L150.87-22.77L150.87-22.77Q149.28-19.92 149.28-16.38L149.28-16.38L149.28-16.38Q149.28-12.84 150.87-9.99L150.87-9.99L150.87-9.99Q152.46-7.14 155.25-5.52L155.25-5.52L155.25-5.52Q158.04-3.90 161.46-3.90L161.46-3.90ZM201.18-33.12L201.18-33.12Q208.68-33.12 213.36-27.36L213.36-27.36L213.36-27.36Q213.84-26.82 213.84-26.10L213.84-26.10L213.84-26.10Q213.84-25.14 212.82-24.42L212.82-24.42L212.82-24.42Q212.28-24.06 211.68-24.06L211.68-24.06L211.68-24.06Q210.78-24.06 209.94-24.96L209.94-24.96L209.94-24.96Q208.14-26.94 205.98-27.93L205.98-27.93L205.98-27.93Q203.82-28.92 201.18-28.92L201.18-28.92L201.18-28.92Q197.88-28.92 195.30-27.33L195.30-27.33L195.30-27.33Q192.72-25.74 191.31-22.86L191.31-22.86L191.31-22.86Q189.90-19.98 189.90-16.38L189.90-16.38L189.90-16.38Q189.90-12.84 191.40-9.99L191.40-9.99L191.40-9.99Q192.90-7.14 195.60-5.52L195.60-5.52L195.60-5.52Q198.30-3.90 201.78-3.90L201.78-3.90L201.78-3.90Q206.58-3.90 209.52-6.48L209.52-6.48L209.52-6.48Q210.30-7.14 211.14-7.14L211.14-7.14L211.14-7.14Q211.86-7.14 212.46-6.66L212.46-6.66L212.46-6.66Q213.30-5.94 213.30-5.04L213.30-5.04L213.30-5.04Q213.30-4.26 212.70-3.72L212.70-3.72L212.70-3.72Q208.38 0.30 201.78 0.30L201.78 0.30L201.78 0.30Q197.10 0.30 193.38-1.89L193.38-1.89L193.38-1.89Q189.66-4.08 187.53-7.89L187.53-7.89L187.53-7.89Q185.40-11.70 185.40-16.38L185.40-16.38L185.40-16.38Q185.40-21.18 187.44-24.99L187.44-24.99L187.44-24.99Q189.48-28.80 193.08-30.96L193.08-30.96L193.08-30.96Q196.68-33.12 201.18-33.12L201.18-33.12ZM237.36-4.62L237.36-4.62Q238.32-4.62 238.92-3.96L238.92-3.96L238.92-3.96Q239.52-3.30 239.52-2.28L239.52-2.28L239.52-2.28Q239.52-1.32 238.80-0.66L238.80-0.66L238.80-0.66Q238.08 0 237 0L237 0L235.74 0L235.74 0Q232.56 0 230.04-1.53L230.04-1.53L230.04-1.53Q227.52-3.06 226.11-5.67L226.11-5.67L226.11-5.67Q224.70-8.28 224.70-11.58L224.70-11.58L224.70-27.60L220.80-27.60L220.80-27.60Q219.84-27.60 219.27-28.17L219.27-28.17L219.27-28.17Q218.70-28.74 218.70-29.58L218.70-29.58L218.70-29.58Q218.70-30.48 219.27-31.05L219.27-31.05L219.27-31.05Q219.84-31.62 220.80-31.62L220.80-31.62L224.70-31.62L224.70-40.92L224.70-40.92Q224.70-41.94 225.33-42.60L225.33-42.60L225.33-42.60Q225.96-43.26 226.98-43.26L226.98-43.26L226.98-43.26Q228-43.26 228.66-42.60L228.66-42.60L228.66-42.60Q229.32-41.94 229.32-40.92L229.32-40.92L229.32-31.62L236.10-31.62L236.10-31.62Q237.06-31.62 237.63-31.05L237.63-31.05L237.63-31.05Q238.20-30.48 238.20-29.58L238.20-29.58L238.20-29.58Q238.20-28.74 237.63-28.17L237.63-28.17L237.63-28.17Q237.06-27.60 236.10-27.60L236.10-27.60L229.32-27.60L229.32-11.58L229.32-11.58Q229.32-8.52 231.12-6.57L231.12-6.57L231.12-6.57Q232.92-4.62 235.74-4.62L235.74-4.62L237.36-4.62Z" fill="#000000"></path></g></g><style>text {
  font-size: 64px;
  font-family: Arial Black;
  dominant-baseline: central;
  text-anchor: middle;
}</style></svg>