<svg width="335.264990234375px" height="153.21625976562498px" xmlns="http://www.w3.org/2000/svg" viewBox="82.36750488281251 -1.6081298828124915 335.264990234375 153.21625976562498" style="background: rgba(0, 0, 0, 0);" preserveAspectRatio="xMidYMid"><defs><filter id="editing-hole" x="-100%" y="-100%" width="300%" height="300%"><feFlood flood-color="#000000" result="black"></feFlood><feMorphology operator="dilate" radius="2" in="SourceGraphic" result="erode"></feMorphology><feGaussianBlur in="erode" stdDeviation="4" result="blur"></feGaussianBlur><feOffset in="blur" dx="2" dy="2" result="offset"></feOffset><feComposite operator="atop" in="offset" in2="black" result="merge"></feComposite><feComposite operator="in" in="merge" in2="SourceGraphic" result="inner-shadow"></feComposite></filter></defs><g filter="url(#editing-hole)"><g transform="translate(133.29999947547913, 97.65156364440918)"><path d="M3.40-13.02L3.40-13.02L3.40-13.02Q2.84-15.29 2.59-17.58L2.59-17.58L2.59-17.58Q2.34-19.86 2.34-22.72L2.34-22.72L2.34-22.72Q2.34-25.58 2.86-28.73L2.86-28.73L2.86-28.73Q3.37-31.88 4.57-34.85L4.57-34.85L4.57-34.85Q5.77-37.82 7.56-40.02L7.56-40.02L7.56-40.02Q9.35-42.22 12.06-43.55L12.06-43.55L12.06-43.55Q14.77-44.88 17.58-44.88L17.58-44.88L17.58-44.88Q20.39-44.88 22.37-44.17L22.37-44.17L22.37-44.17Q24.35-43.45 25.69-42.30L25.69-42.30L25.69-42.30Q27.04-41.16 28.15-39.77L28.15-39.77L28.15-39.77Q29.27-38.38 29.91-36.97L29.91-36.97L29.91-36.97Q31.26-34.07 31.58-32.58L31.58-32.58L31.76-31.88L31.76-31.85L27.30-30.64L27.30-30.64Q26.84-33.98 26.12-35.52L26.12-35.52L26.12-35.52Q25.40-37.06 24.68-38.04L24.68-38.04L24.68-38.04Q23.96-39.02 23.09-39.70L23.09-39.70L23.09-39.70Q21.01-41.25 18.11-41.25L18.11-41.25L18.11-41.25Q6.68-41.25 6.68-22.24L6.68-22.24L6.68-22.24Q6.68-14.09 9.08-8.94L9.08-8.94L9.08-8.94Q11.81-3.16 18.11-3.16L18.11-3.16L18.11-3.16Q23.26-3.16 26.13-7.21L26.13-7.21L26.13-7.21Q28.13-10.05 28.13-13.56L28.13-13.56L32.40-12.89L32.40-12.89Q32.29-12.57 31.86-11.31L31.86-11.31L31.86-11.31Q31.44-10.05 31.14-9.26L31.14-9.26L31.14-9.26Q30.85-8.47 30.19-7.10L30.19-7.10L30.19-7.10Q29.53-5.74 28.87-4.83L28.87-4.83L28.87-4.83Q28.21-3.93 27.11-2.83L27.11-2.83L27.11-2.83Q26.02-1.73 24.79-1.08L24.79-1.08L24.79-1.08Q21.83 0.47 18.72 0.47L18.72 0.47L18.72 0.47Q15.62 0.47 13.49-0.23L13.49-0.23L13.49-0.23Q11.37-0.94 9.79-2.15L9.79-2.15L9.79-2.15Q8.20-3.37 6.93-5.08L6.93-5.08L6.93-5.08Q5.65-6.80 4.80-8.77L4.80-8.77L4.80-8.77Q3.96-10.75 3.40-13.02ZM39.30-9.42L39.30-9.42L39.30-9.42Q37.97-12.33 37.35-15.51L37.35-15.51L37.35-15.51Q36.74-18.69 36.74-22.06L36.74-22.06L36.74-22.06Q36.74-25.43 37.29-28.62L37.29-28.62L37.29-28.62Q37.85-31.82 39.11-34.80L39.11-34.80L39.11-34.80Q40.37-37.79 42.23-40.00L42.23-40.00L42.23-40.00Q44.09-42.22 46.90-43.55L46.90-43.55L46.90-43.55Q49.72-44.88 53.10-44.88L53.10-44.88L53.10-44.88Q56.48-44.88 59.19-43.52L59.19-43.52L59.19-43.52Q61.90-42.16 63.71-39.92L63.71-39.92L63.71-39.92Q65.51-37.68 66.74-34.69L66.74-34.69L66.74-34.69Q69.05-29.06 69.05-22.03L69.05-22.03L69.05-22.03Q69.05-9.17 62.40-2.93L62.40-2.93L62.40-2.93Q58.80 0.47 53.17 0.47L53.17 0.47L53.17 0.47Q49.92 0.47 47.17-0.83L47.17-0.83L47.17-0.83Q44.41-2.14 42.52-4.32L42.52-4.32L42.52-4.32Q40.63-6.50 39.30-9.42ZM42.73-33.11L42.73-33.11L42.73-33.11Q41.84-30.62 41.46-27.88L41.46-27.88L41.46-27.88Q41.07-25.14 41.07-21.65L41.07-21.65L41.07-21.65Q41.07-18.16 41.76-14.87L41.76-14.87L41.76-14.87Q42.45-11.57 43.84-8.91L43.84-8.91L43.84-8.91Q45.23-6.24 47.62-4.70L47.62-4.70L47.62-4.70Q50.01-3.16 52.90-3.16L52.90-3.16L52.90-3.16Q55.78-3.16 57.85-4.32L57.85-4.32L57.85-4.32Q59.91-5.48 61.17-7.32L61.17-7.32L61.17-7.32Q62.43-9.17 63.25-11.72L63.25-11.72L63.25-11.72Q64.72-16.23 64.72-22.03L64.72-22.03L64.72-22.03Q64.72-31.67 61.17-36.97L61.17-36.97L61.17-36.97Q59.91-38.88 57.86-40.06L57.86-40.06L57.86-40.06Q55.81-41.25 53.17-41.25L53.17-41.25L53.17-41.25Q50.54-41.25 48.44-40.20L48.44-40.20L48.44-40.20Q46.35-39.14 44.99-37.37L44.99-37.37L44.99-37.37Q43.62-35.60 42.73-33.11ZM79.48 0L75.15 0L75.15-44.38L82.06-44.38L99.96-10.58L99.96-44.38L104.30-44.38L104.30 0L100.58 0L79.48-40.08L79.48 0ZM121.44-40.75L108.78-40.75L108.78-44.38L138.43-44.38L138.43-40.75L125.77-40.75L125.77 0L121.44 0L121.44-40.75ZM139.92 0L135.41 0L148.07-44.38L154.39-44.38L167.05 0L162.54 0L158.73-14.00L143.82-14.00L139.92 0ZM151.23-40.69L144.81-17.64L157.71-17.64L151.23-40.69ZM170.54-13.02L170.54-13.02L170.54-13.02Q169.98-15.29 169.73-17.58L169.73-17.58L169.73-17.58Q169.48-19.86 169.48-22.72L169.48-22.72L169.48-22.72Q169.48-25.58 170.00-28.73L170.00-28.73L170.00-28.73Q170.51-31.88 171.71-34.85L171.71-34.85L171.71-34.85Q172.91-37.82 174.70-40.02L174.70-40.02L174.70-40.02Q176.48-42.22 179.19-43.55L179.19-43.55L179.19-43.55Q181.90-44.88 184.72-44.88L184.72-44.88L184.72-44.88Q187.53-44.88 189.51-44.17L189.51-44.17L189.51-44.17Q191.48-43.45 192.83-42.30L192.83-42.30L192.83-42.30Q194.18-41.16 195.29-39.77L195.29-39.77L195.29-39.77Q196.41-38.38 197.05-36.97L197.05-36.97L197.05-36.97Q198.40-34.07 198.72-32.58L198.72-32.58L198.90-31.88L198.90-31.85L194.44-30.64L194.44-30.64Q193.97-33.98 193.26-35.52L193.26-35.52L193.26-35.52Q192.54-37.06 191.82-38.04L191.82-38.04L191.82-38.04Q191.10-39.02 190.22-39.70L190.22-39.70L190.22-39.70Q188.14-41.25 185.24-41.25L185.24-41.25L185.24-41.25Q173.82-41.25 173.82-22.24L173.82-22.24L173.82-22.24Q173.82-14.09 176.22-8.94L176.22-8.94L176.22-8.94Q178.95-3.16 185.24-3.16L185.24-3.16L185.24-3.16Q190.40-3.16 193.27-7.21L193.27-7.21L193.27-7.21Q195.26-10.05 195.26-13.56L195.26-13.56L199.54-12.89L199.54-12.89Q199.42-12.57 199.00-11.31L199.00-11.31L199.00-11.31Q198.57-10.05 198.28-9.26L198.28-9.26L198.28-9.26Q197.99-8.47 197.33-7.10L197.33-7.10L197.33-7.10Q196.67-5.74 196.01-4.83L196.01-4.83L196.01-4.83Q195.35-3.93 194.25-2.83L194.25-2.83L194.25-2.83Q193.15-1.73 191.92-1.08L191.92-1.08L191.92-1.08Q188.96 0.47 185.86 0.47L185.86 0.47L185.86 0.47Q182.75 0.47 180.63-0.23L180.63-0.23L180.63-0.23Q178.51-0.94 176.92-2.15L176.92-2.15L176.92-2.15Q175.34-3.37 174.07-5.08L174.07-5.08L174.07-5.08Q172.79-6.80 171.94-8.77L171.94-8.77L171.94-8.77Q171.09-10.75 170.54-13.02ZM214.07-40.75L201.42-40.75L201.42-44.38L231.06-44.38L231.06-40.75L218.41-40.75L218.41 0L214.07 0L214.07-40.75Z" fill="#000000"></path></g></g><style>text {
  font-size: 64px;
  font-family: Arial Black;
  dominant-baseline: central;
  text-anchor: middle;
}</style></svg>