<svg width="444.40493164062497px" height="111.22625732421875px" xmlns="http://www.w3.org/2000/svg" viewBox="27.797534179687517 19.386871337890625 444.40493164062497 111.22625732421875" style="background: rgba(0, 0, 0, 0);" preserveAspectRatio="xMidYMid"><defs><filter id="editing-hole" x="-100%" y="-100%" width="300%" height="300%"><feFlood flood-color="#000000" result="black"></feFlood><feMorphology operator="dilate" radius="2" in="SourceGraphic" result="erode"></feMorphology><feGaussianBlur in="erode" stdDeviation="4" result="blur"></feGaussianBlur><feOffset in="blur" dx="2" dy="2" result="offset"></feOffset><feComposite operator="atop" in="offset" in2="black" result="merge"></feComposite><feComposite operator="in" in="merge" in2="SourceGraphic" result="inner-shadow"></feComposite></filter></defs><g filter="url(#editing-hole)"><g transform="translate(89.55999875068665, 99.11593627929688)"><path d="M27.06-47.46L27.06-47.46Q31.38-47.46 34.92-46.20L34.92-46.20L34.92-46.20Q38.46-44.94 41.76-42.18L41.76-42.18L41.76-42.18Q42.42-41.70 42.42-40.80L42.42-40.80L42.42-40.80Q42.42-40.32 42.18-39.93L42.18-39.93L42.18-39.93Q41.94-39.54 41.52-39.36L41.52-39.36L41.52-39.36Q41.40-38.94 40.98-38.70L40.98-38.70L40.98-38.70Q40.56-38.46 40.08-38.46L40.08-38.46L40.08-38.46Q39.18-38.46 38.58-39L38.58-39L38.58-39Q36.24-41.10 33.48-42.06L33.48-42.06L33.48-42.06Q30.72-43.02 27.06-43.02L27.06-43.02L27.06-43.02Q22.02-43.02 17.70-40.35L17.70-40.35L17.70-40.35Q13.38-37.68 10.83-33.18L10.83-33.18L10.83-33.18Q8.28-28.68 8.28-23.46L8.28-23.46L8.28-23.46Q8.28-18.12 10.80-13.62L10.80-13.62L10.80-13.62Q13.32-9.12 17.64-6.48L17.64-6.48L17.64-6.48Q21.96-3.84 27.06-3.84L27.06-3.84L27.06-3.84Q33.60-3.84 38.88-8.04L38.88-8.04L38.88-8.04Q39.54-8.52 40.20-8.52L40.20-8.52L40.20-8.52Q41.10-8.52 41.76-7.89L41.76-7.89L41.76-7.89Q42.42-7.26 42.42-6.24L42.42-6.24L42.42-6.24Q42.42-5.28 41.76-4.56L41.76-4.56L41.76-4.56Q36.12 0.60 27.06 0.60L27.06 0.60L27.06 0.60Q20.70 0.60 15.36-2.64L15.36-2.64L15.36-2.64Q10.02-5.88 6.87-11.40L6.87-11.40L6.87-11.40Q3.72-16.92 3.72-23.46L3.72-23.46L3.72-23.46Q3.72-29.94 6.84-35.46L6.84-35.46L6.84-35.46Q9.96-40.98 15.30-44.22L15.30-44.22L15.30-44.22Q20.64-47.46 27.06-47.46L27.06-47.46ZM73.92-47.46L73.92-47.46Q80.70-47.46 86.19-44.34L86.19-44.34L86.19-44.34Q91.68-41.22 94.77-35.76L94.77-35.76L94.77-35.76Q97.86-30.30 97.86-23.46L97.86-23.46L97.86-23.46Q97.86-16.62 94.77-11.13L94.77-11.13L94.77-11.13Q91.68-5.64 86.19-2.52L86.19-2.52L86.19-2.52Q80.70 0.60 73.92 0.60L73.92 0.60L73.92 0.60Q67.08 0.60 61.62-2.52L61.62-2.52L61.62-2.52Q56.16-5.64 53.07-11.13L53.07-11.13L53.07-11.13Q49.98-16.62 49.98-23.46L49.98-23.46L49.98-23.46Q49.98-30.30 53.07-35.76L53.07-35.76L53.07-35.76Q56.16-41.22 61.62-44.34L61.62-44.34L61.62-44.34Q67.08-47.46 73.92-47.46L73.92-47.46ZM73.92-43.02L73.92-43.02Q68.40-43.02 63.99-40.44L63.99-40.44L63.99-40.44Q59.58-37.86 57.06-33.39L57.06-33.39L57.06-33.39Q54.54-28.92 54.54-23.46L54.54-23.46L54.54-23.46Q54.54-17.94 57.06-13.47L57.06-13.47L57.06-13.47Q59.58-9 63.99-6.42L63.99-6.42L63.99-6.42Q68.40-3.84 73.92-3.84L73.92-3.84L73.92-3.84Q79.38-3.84 83.79-6.42L83.79-6.42L83.79-6.42Q88.20-9 90.72-13.47L90.72-13.47L90.72-13.47Q93.24-17.94 93.24-23.46L93.24-23.46L93.24-23.46Q93.24-28.92 90.72-33.39L90.72-33.39L90.72-33.39Q88.20-37.86 83.79-40.44L83.79-40.44L83.79-40.44Q79.38-43.02 73.92-43.02L73.92-43.02ZM140.34-44.52L140.34-44.52Q140.34-45.54 141.03-46.20L141.03-46.20L141.03-46.20Q141.72-46.86 142.68-46.86L142.68-46.86L142.68-46.86Q143.70-46.86 144.36-46.20L144.36-46.20L144.36-46.20Q145.02-45.54 145.02-44.52L145.02-44.52L145.02-2.34L145.02-2.34Q145.02-1.38 144.36-0.69L144.36-0.69L144.36-0.69Q143.70 0 142.68 0L142.68 0L142.68 0Q141.48 0 140.94-0.78L140.94-0.78L112.20-38.46L112.20-2.34L112.20-2.34Q112.20-1.38 111.54-0.69L111.54-0.69L111.54-0.69Q110.88 0 109.86 0L109.86 0L109.86 0Q108.84 0 108.18-0.66L108.18-0.66L108.18-0.66Q107.52-1.32 107.52-2.34L107.52-2.34L107.52-44.52L107.52-44.52Q107.52-45.54 108.18-46.20L108.18-46.20L108.18-46.20Q108.84-46.86 109.86-46.86L109.86-46.86L109.86-46.86Q110.94-46.86 111.66-46.02L111.66-46.02L140.34-8.34L140.34-44.52ZM187.26-46.86L187.26-46.86Q188.22-46.86 188.82-46.26L188.82-46.26L188.82-46.26Q189.42-45.66 189.42-44.70L189.42-44.70L189.42-44.70Q189.42-43.80 188.82-43.20L188.82-43.20L188.82-43.20Q188.22-42.60 187.26-42.60L187.26-42.60L172.98-42.60L172.98-2.34L172.98-2.34Q172.98-1.38 172.32-0.69L172.32-0.69L172.32-0.69Q171.66 0 170.64 0L170.64 0L170.64 0Q169.68 0 168.99-0.69L168.99-0.69L168.99-0.69Q168.30-1.38 168.30-2.34L168.30-2.34L168.30-42.60L154.08-42.60L154.08-42.60Q153.12-42.60 152.52-43.20L152.52-43.20L152.52-43.20Q151.92-43.80 151.92-44.70L151.92-44.70L151.92-44.70Q151.92-45.66 152.52-46.26L152.52-46.26L152.52-46.26Q153.12-46.86 154.08-46.86L154.08-46.86L187.26-46.86ZM231.48-3.30L231.48-3.30Q231.72-2.88 231.72-2.34L231.72-2.34L231.72-2.34Q231.72-1.38 231.03-0.69L231.03-0.69L231.03-0.69Q230.34 0 229.38 0L229.38 0L229.38 0Q227.82 0 227.16-1.44L227.16-1.44L223.14-11.16L199.92-11.16L195.90-1.44L195.90-1.44Q195.42 0 193.74 0L193.74 0L193.74 0Q192.72 0 192.09-0.69L192.09-0.69L192.09-0.69Q191.46-1.38 191.46-2.34L191.46-2.34L191.46-2.34Q191.46-2.94 191.64-3.36L191.64-3.36L209.28-45.24L209.28-45.24Q209.94-46.86 211.56-46.86L211.56-46.86L211.56-46.86Q213.18-46.86 213.78-45.24L213.78-45.24L231.48-3.30ZM201.60-15.18L221.52-15.18L211.56-39.24L201.60-15.18ZM259.56-47.46L259.56-47.46Q263.88-47.46 267.42-46.20L267.42-46.20L267.42-46.20Q270.96-44.94 274.26-42.18L274.26-42.18L274.26-42.18Q274.92-41.70 274.92-40.80L274.92-40.80L274.92-40.80Q274.92-40.32 274.68-39.93L274.68-39.93L274.68-39.93Q274.44-39.54 274.02-39.36L274.02-39.36L274.02-39.36Q273.90-38.94 273.48-38.70L273.48-38.70L273.48-38.70Q273.06-38.46 272.58-38.46L272.58-38.46L272.58-38.46Q271.68-38.46 271.08-39L271.08-39L271.08-39Q268.74-41.10 265.98-42.06L265.98-42.06L265.98-42.06Q263.22-43.02 259.56-43.02L259.56-43.02L259.56-43.02Q254.52-43.02 250.20-40.35L250.20-40.35L250.20-40.35Q245.88-37.68 243.33-33.18L243.33-33.18L243.33-33.18Q240.78-28.68 240.78-23.46L240.78-23.46L240.78-23.46Q240.78-18.12 243.30-13.62L243.30-13.62L243.30-13.62Q245.82-9.12 250.14-6.48L250.14-6.48L250.14-6.48Q254.46-3.84 259.56-3.84L259.56-3.84L259.56-3.84Q266.10-3.84 271.38-8.04L271.38-8.04L271.38-8.04Q272.04-8.52 272.70-8.52L272.70-8.52L272.70-8.52Q273.60-8.52 274.26-7.89L274.26-7.89L274.26-7.89Q274.92-7.26 274.92-6.24L274.92-6.24L274.92-6.24Q274.92-5.28 274.26-4.56L274.26-4.56L274.26-4.56Q268.62 0.60 259.56 0.60L259.56 0.60L259.56 0.60Q253.20 0.60 247.86-2.64L247.86-2.64L247.86-2.64Q242.52-5.88 239.37-11.40L239.37-11.40L239.37-11.40Q236.22-16.92 236.22-23.46L236.22-23.46L236.22-23.46Q236.22-29.94 239.34-35.46L239.34-35.46L239.34-35.46Q242.46-40.98 247.80-44.22L247.80-44.22L247.80-44.22Q253.14-47.46 259.56-47.46L259.56-47.46ZM315-46.86L315-46.86Q315.96-46.86 316.56-46.26L316.56-46.26L316.56-46.26Q317.16-45.66 317.16-44.70L317.16-44.70L317.16-44.70Q317.16-43.80 316.56-43.20L316.56-43.20L316.56-43.20Q315.96-42.60 315-42.60L315-42.60L300.72-42.60L300.72-2.34L300.72-2.34Q300.72-1.38 300.06-0.69L300.06-0.69L300.06-0.69Q299.40 0 298.38 0L298.38 0L298.38 0Q297.42 0 296.73-0.69L296.73-0.69L296.73-0.69Q296.04-1.38 296.04-2.34L296.04-2.34L296.04-42.60L281.82-42.60L281.82-42.60Q280.86-42.60 280.26-43.20L280.26-43.20L280.26-43.20Q279.66-43.80 279.66-44.70L279.66-44.70L279.66-44.70Q279.66-45.66 280.26-46.26L280.26-46.26L280.26-46.26Q280.86-46.86 281.82-46.86L281.82-46.86L315-46.86Z" fill="#000000"></path></g></g><style>text {
  font-size: 64px;
  font-family: Arial Black;
  dominant-baseline: central;
  text-anchor: middle;
}</style></svg>