<svg width="401.98994140625px" height="116.02878417968749px" xmlns="http://www.w3.org/2000/svg" viewBox="49.005029296874994 16.985607910156254 401.98994140625 116.02878417968749" style="background: rgba(0, 0, 0, 0);" preserveAspectRatio="xMidYMid"><defs><filter id="editing-hole" x="-100%" y="-100%" width="300%" height="300%"><feFlood flood-color="#000000" result="black"></feFlood><feMorphology operator="dilate" radius="2" in="SourceGraphic" result="erode"></feMorphology><feGaussianBlur in="erode" stdDeviation="4" result="blur"></feGaussianBlur><feOffset in="blur" dx="2" dy="2" result="offset"></feOffset><feComposite operator="atop" in="offset" in2="black" result="merge"></feComposite><feComposite operator="in" in="merge" in2="SourceGraphic" result="inner-shadow"></feComposite></filter></defs><g filter="url(#editing-hole)"><g transform="translate(108.81999635696411, 96.45031356811523)"><path d="M2.52-21.60L2.52-21.60L2.52-21.60Q2.52-25.44 3.87-29.25L3.87-29.25L3.87-29.25Q5.22-33.06 7.80-36.06L7.80-36.06L7.80-36.06Q10.38-39.06 14.16-40.95L14.16-40.95L14.16-40.95Q17.94-42.84 22.74-42.84L22.74-42.84L22.74-42.84Q28.44-42.84 32.49-40.26L32.49-40.26L32.49-40.26Q36.54-37.68 38.46-33.54L38.46-33.54L35.16-31.50L35.16-31.50Q34.14-33.60 32.67-35.04L32.67-35.04L32.67-35.04Q31.20-36.48 29.52-37.38L29.52-37.38L29.52-37.38Q27.84-38.28 26.04-38.67L26.04-38.67L26.04-38.67Q24.24-39.06 22.50-39.06L22.50-39.06L22.50-39.06Q18.66-39.06 15.72-37.50L15.72-37.50L15.72-37.50Q12.78-35.94 10.77-33.42L10.77-33.42L10.77-33.42Q8.76-30.90 7.74-27.75L7.74-27.75L7.74-27.75Q6.72-24.60 6.72-21.36L6.72-21.36L6.72-21.36Q6.72-17.82 7.95-14.58L7.95-14.58L7.95-14.58Q9.18-11.34 11.31-8.85L11.31-8.85L11.31-8.85Q13.44-6.36 16.35-4.89L16.35-4.89L16.35-4.89Q19.26-3.42 22.68-3.42L22.68-3.42L22.68-3.42Q24.48-3.42 26.37-3.87L26.37-3.87L26.37-3.87Q28.26-4.32 30.03-5.31L30.03-5.31L30.03-5.31Q31.80-6.30 33.30-7.77L33.30-7.77L33.30-7.77Q34.80-9.24 35.82-11.34L35.82-11.34L39.30-9.54L39.30-9.54Q38.28-7.14 36.42-5.31L36.42-5.31L36.42-5.31Q34.56-3.48 32.28-2.22L32.28-2.22L32.28-2.22Q30-0.96 27.45-0.30L27.45-0.30L27.45-0.30Q24.90 0.36 22.44 0.36L22.44 0.36L22.44 0.36Q18.06 0.36 14.40-1.56L14.40-1.56L14.40-1.56Q10.74-3.48 8.10-6.57L8.10-6.57L8.10-6.57Q5.46-9.66 3.99-13.59L3.99-13.59L3.99-13.59Q2.52-17.52 2.52-21.60ZM63.24 0.30L63.24 0.30L63.24 0.30Q58.80 0.30 55.11-1.53L55.11-1.53L55.11-1.53Q51.42-3.36 48.78-6.39L48.78-6.39L48.78-6.39Q46.14-9.42 44.70-13.32L44.70-13.32L44.70-13.32Q43.26-17.22 43.26-21.30L43.26-21.30L43.26-21.30Q43.26-25.56 44.79-29.46L44.79-29.46L44.79-29.46Q46.32-33.36 49.02-36.36L49.02-36.36L49.02-36.36Q51.72-39.36 55.38-41.13L55.38-41.13L55.38-41.13Q59.04-42.90 63.30-42.90L63.30-42.90L63.30-42.90Q67.74-42.90 71.43-41.01L71.43-41.01L71.43-41.01Q75.12-39.12 77.73-36.06L77.73-36.06L77.73-36.06Q80.34-33 81.78-29.13L81.78-29.13L81.78-29.13Q83.22-25.26 83.22-21.24L83.22-21.24L83.22-21.24Q83.22-16.98 81.69-13.08L81.69-13.08L81.69-13.08Q80.16-9.18 77.49-6.21L77.49-6.21L77.49-6.21Q74.82-3.24 71.16-1.47L71.16-1.47L71.16-1.47Q67.50 0.30 63.24 0.30ZM47.46-21.30L47.46-21.30L47.46-21.30Q47.46-17.82 48.60-14.61L48.60-14.61L48.60-14.61Q49.74-11.40 51.84-8.91L51.84-8.91L51.84-8.91Q53.94-6.42 56.82-4.95L56.82-4.95L56.82-4.95Q59.70-3.48 63.24-3.48L63.24-3.48L63.24-3.48Q66.84-3.48 69.78-5.04L69.78-5.04L69.78-5.04Q72.72-6.60 74.76-9.12L74.76-9.12L74.76-9.12Q76.80-11.64 77.91-14.82L77.91-14.82L77.91-14.82Q79.02-18 79.02-21.30L79.02-21.30L79.02-21.30Q79.02-24.78 77.85-27.99L77.85-27.99L77.85-27.99Q76.68-31.20 74.58-33.66L74.58-33.66L74.58-33.66Q72.48-36.12 69.60-37.59L69.60-37.59L69.60-37.59Q66.72-39.06 63.24-39.06L63.24-39.06L63.24-39.06Q59.64-39.06 56.70-37.53L56.70-37.53L56.70-37.53Q53.76-36 51.72-33.48L51.72-33.48L51.72-33.48Q49.68-30.96 48.57-27.78L48.57-27.78L48.57-27.78Q47.46-24.60 47.46-21.30ZM123.12 0L95.34-34.80L95.34 0L91.14 0L91.14-42.60L94.38-42.60L122.58-7.14L122.58-42.54L126.78-42.54L126.78 0L123.12 0ZM167.70-42.60L167.70-38.88L152.52-38.88L152.52 0L148.32 0L148.32-38.88L133.14-38.88L133.14-42.60L167.70-42.60ZM165.24 0L183.06-42.60L186.60-42.60L204.30 0L199.86 0L194.34-13.32L175.20-13.32L169.74 0L165.24 0ZM176.10-16.62L193.38-16.62L184.80-37.68L176.10-16.62ZM206.04-21.60L206.04-21.60L206.04-21.60Q206.04-25.44 207.39-29.25L207.39-29.25L207.39-29.25Q208.74-33.06 211.32-36.06L211.32-36.06L211.32-36.06Q213.90-39.06 217.68-40.95L217.68-40.95L217.68-40.95Q221.46-42.84 226.26-42.84L226.26-42.84L226.26-42.84Q231.96-42.84 236.01-40.26L236.01-40.26L236.01-40.26Q240.06-37.68 241.98-33.54L241.98-33.54L238.68-31.50L238.68-31.50Q237.66-33.60 236.19-35.04L236.19-35.04L236.19-35.04Q234.72-36.48 233.04-37.38L233.04-37.38L233.04-37.38Q231.36-38.28 229.56-38.67L229.56-38.67L229.56-38.67Q227.76-39.06 226.02-39.06L226.02-39.06L226.02-39.06Q222.18-39.06 219.24-37.50L219.24-37.50L219.24-37.50Q216.30-35.94 214.29-33.42L214.29-33.42L214.29-33.42Q212.28-30.90 211.26-27.75L211.26-27.75L211.26-27.75Q210.24-24.60 210.24-21.36L210.24-21.36L210.24-21.36Q210.24-17.82 211.47-14.58L211.47-14.58L211.47-14.58Q212.70-11.34 214.83-8.85L214.83-8.85L214.83-8.85Q216.96-6.36 219.87-4.89L219.87-4.89L219.87-4.89Q222.78-3.42 226.20-3.42L226.20-3.42L226.20-3.42Q228.00-3.42 229.89-3.87L229.89-3.87L229.89-3.87Q231.78-4.32 233.55-5.31L233.55-5.31L233.55-5.31Q235.32-6.30 236.82-7.77L236.82-7.77L236.82-7.77Q238.32-9.24 239.34-11.34L239.34-11.34L242.82-9.54L242.82-9.54Q241.80-7.14 239.94-5.31L239.94-5.31L239.94-5.31Q238.08-3.48 235.80-2.22L235.80-2.22L235.80-2.22Q233.52-0.96 230.97-0.30L230.97-0.30L230.97-0.30Q228.42 0.36 225.96 0.36L225.96 0.36L225.96 0.36Q221.58 0.36 217.92-1.56L217.92-1.56L217.92-1.56Q214.26-3.48 211.62-6.57L211.62-6.57L211.62-6.57Q208.98-9.66 207.51-13.59L207.51-13.59L207.51-13.59Q206.04-17.52 206.04-21.60ZM279.84-42.60L279.84-38.88L264.66-38.88L264.66 0L260.46 0L260.46-38.88L245.28-38.88L245.28-42.60L279.84-42.60Z" fill="#000000"></path></g></g><style>text {
  font-size: 64px;
  font-family: Arial Black;
  dominant-baseline: central;
  text-anchor: middle;
}</style></svg>