<svg width="390.00502929687497px" height="114.8175048828125px" xmlns="http://www.w3.org/2000/svg" viewBox="54.99748535156252 17.59124755859375 390.00502929687497 114.8175048828125" style="background: rgba(0, 0, 0, 0);" preserveAspectRatio="xMidYMid"><defs><filter id="editing-hole" x="-100%" y="-100%" width="300%" height="300%"><feFlood flood-color="#000000" result="black"></feFlood><feMorphology operator="dilate" radius="2" in="SourceGraphic" result="erode"></feMorphology><feGaussianBlur in="erode" stdDeviation="4" result="blur"></feGaussianBlur><feOffset in="blur" dx="2" dy="2" result="offset"></feOffset><feComposite operator="atop" in="offset" in2="black" result="merge"></feComposite><feComposite operator="in" in="merge" in2="SourceGraphic" result="inner-shadow"></feComposite></filter></defs><g filter="url(#editing-hole)"><g transform="translate(109.12000250816345, 99.20000076293945)"><path d="M25.86 1.20L25.86 1.20Q19.56 1.20 14.28-1.89L14.28-1.89L14.28-1.89Q9-4.98 5.91-10.41L5.91-10.41L5.91-10.41Q2.82-15.84 2.82-22.62L2.82-22.62L2.82-22.62Q2.82-29.16 6.03-34.56L6.03-34.56L6.03-34.56Q9.24-39.96 14.61-43.08L14.61-43.08L14.61-43.08Q19.98-46.20 26.04-46.20L26.04-46.20L26.04-46.20Q30.24-46.20 32.70-45.45L32.70-45.45L32.70-45.45Q35.16-44.70 38.40-42.84L38.40-42.84L38.40-40.62L38.40-40.62Q35.34-42.72 32.73-43.59L32.73-43.59L32.73-43.59Q30.12-44.46 26.22-44.46L26.22-44.46L26.22-44.46Q20.28-44.46 15.39-41.43L15.39-41.43L15.39-41.43Q10.50-38.40 7.65-33.33L7.65-33.33L7.65-33.33Q4.80-28.26 4.80-22.44L4.80-22.44L4.80-22.44Q4.80-16.56 7.68-11.52L7.68-11.52L7.68-11.52Q10.56-6.48 15.33-3.51L15.33-3.51L15.33-3.51Q20.10-0.54 25.62-0.54L25.62-0.54L25.62-0.54Q29.58-0.54 32.52-1.47L32.52-1.47L32.52-1.47Q35.46-2.40 38.40-4.38L38.40-4.38L38.40-2.16L38.40-2.16Q35.52-0.42 32.49 0.39L32.49 0.39L32.49 0.39Q29.46 1.20 25.86 1.20L25.86 1.20ZM68.40 1.20L68.40 1.20Q62.10 1.20 56.70-2.10L56.70-2.10L56.70-2.10Q51.30-5.40 48.15-10.89L48.15-10.89L48.15-10.89Q45-16.38 45-22.68L45-22.68L45-22.68Q45-28.92 48.18-34.35L48.18-34.35L48.18-34.35Q51.36-39.78 56.76-42.99L56.76-42.99L56.76-42.99Q62.16-46.20 68.46-46.20L68.46-46.20L68.46-46.20Q74.82-46.20 80.16-43.02L80.16-43.02L80.16-43.02Q85.50-39.84 88.65-34.41L88.65-34.41L88.65-34.41Q91.80-28.98 91.80-22.68L91.80-22.68L91.80-22.68Q91.80-16.20 88.65-10.71L88.65-10.71L88.65-10.71Q85.50-5.22 80.13-2.01L80.13-2.01L80.13-2.01Q74.76 1.20 68.40 1.20L68.40 1.20ZM68.40-0.54L68.40-0.54Q74.16-0.54 79.08-3.51L79.08-3.51L79.08-3.51Q84-6.48 86.91-11.55L86.91-11.55L86.91-11.55Q89.82-16.62 89.82-22.56L89.82-22.56L89.82-22.56Q89.82-28.44 86.94-33.48L86.94-33.48L86.94-33.48Q84.06-38.52 79.14-41.49L79.14-41.49L79.14-41.49Q74.22-44.46 68.46-44.46L68.46-44.46L68.46-44.46Q62.64-44.46 57.72-41.49L57.72-41.49L57.72-41.49Q52.80-38.52 49.89-33.48L49.89-33.48L49.89-33.48Q46.98-28.44 46.98-22.56L46.98-22.56L46.98-22.56Q46.98-16.62 49.89-11.55L49.89-11.55L49.89-11.55Q52.80-6.48 57.72-3.51L57.72-3.51L57.72-3.51Q62.64-0.54 68.40-0.54L68.40-0.54ZM134.22 0.66L101.10-40.50L101.10 0L99.36 0L99.36-45.66L132.48-4.56L132.48-45L134.22-45L134.22 0.66ZM150.60 0L150.60-43.26L140.22-43.26L140.22-45L162.84-45L162.84-43.26L152.58-43.26L152.58 0L150.60 0ZM188.46-46.08L210.96 0L208.86 0L200.34-17.16L176.46-17.16L168.12 0L166.02 0L188.46-46.08ZM177.30-18.90L199.62-18.90L188.34-41.76L177.30-18.90ZM238.74 1.20L238.74 1.20Q232.44 1.20 227.16-1.89L227.16-1.89L227.16-1.89Q221.88-4.98 218.79-10.41L218.79-10.41L218.79-10.41Q215.70-15.84 215.70-22.62L215.70-22.62L215.70-22.62Q215.70-29.16 218.91-34.56L218.91-34.56L218.91-34.56Q222.12-39.96 227.49-43.08L227.49-43.08L227.49-43.08Q232.86-46.20 238.92-46.20L238.92-46.20L238.92-46.20Q243.12-46.20 245.58-45.45L245.58-45.45L245.58-45.45Q248.04-44.70 251.28-42.84L251.28-42.84L251.28-40.62L251.28-40.62Q248.22-42.72 245.61-43.59L245.61-43.59L245.61-43.59Q243.00-44.46 239.10-44.46L239.10-44.46L239.10-44.46Q233.16-44.46 228.27-41.43L228.27-41.43L228.27-41.43Q223.38-38.40 220.53-33.33L220.53-33.33L220.53-33.33Q217.68-28.26 217.68-22.44L217.68-22.44L217.68-22.44Q217.68-16.56 220.56-11.52L220.56-11.52L220.56-11.52Q223.44-6.48 228.21-3.51L228.21-3.51L228.21-3.51Q232.98-0.54 238.50-0.54L238.50-0.54L238.50-0.54Q242.46-0.54 245.40-1.47L245.40-1.47L245.40-1.47Q248.34-2.40 251.28-4.38L251.28-4.38L251.28-2.16L251.28-2.16Q248.40-0.42 245.37 0.39L245.37 0.39L245.37 0.39Q242.34 1.20 238.74 1.20L238.74 1.20ZM266.70 0L266.70-43.26L256.32-43.26L256.32-45L278.94-45L278.94-43.26L268.68-43.26L268.68 0L266.70 0Z" fill="#000000"></path></g></g><style>text {
  font-size: 64px;
  font-family: Arial Black;
  dominant-baseline: central;
  text-anchor: middle;
}</style></svg>