<svg width="452.18251953124997px" height="111.22625732421875px" xmlns="http://www.w3.org/2000/svg" viewBox="23.908740234375017 19.386871337890625 452.18251953124997 111.22625732421875" style="background: rgba(0, 0, 0, 0);" preserveAspectRatio="xMidYMid"><defs><filter id="editing-hole" x="-100%" y="-100%" width="300%" height="300%"><feFlood flood-color="#000000" result="black"></feFlood><feMorphology operator="dilate" radius="2" in="SourceGraphic" result="erode"></feMorphology><feGaussianBlur in="erode" stdDeviation="4" result="blur"></feGaussianBlur><feOffset in="blur" dx="2" dy="2" result="offset"></feOffset><feComposite operator="atop" in="offset" in2="black" result="merge"></feComposite><feComposite operator="in" in="merge" in2="SourceGraphic" result="inner-shadow"></feComposite></filter></defs><g filter="url(#editing-hole)"><g transform="translate(91.08999991416931, 98.69593811035156)"><path d="M19.38-33.12L19.38-33.12Q23.82-33.12 27.24-31.05L27.24-31.05L27.24-31.05Q30.66-28.98 32.55-25.32L32.55-25.32L32.55-25.32Q34.44-21.66 34.44-16.98L34.44-16.98L34.44-16.98Q34.44-16.02 33.84-15.45L33.84-15.45L33.84-15.45Q33.24-14.88 32.28-14.88L32.28-14.88L8.04-14.88L8.04-14.88Q8.52-9.96 11.88-6.90L11.88-6.90L11.88-6.90Q15.24-3.84 20.28-3.84L20.28-3.84L20.28-3.84Q22.44-3.84 24.63-4.59L24.63-4.59L24.63-4.59Q26.82-5.34 28.14-6.48L28.14-6.48L28.14-6.48Q28.92-7.08 29.76-7.08L29.76-7.08L29.76-7.08Q30.42-7.08 31.08-6.60L31.08-6.60L31.08-6.60Q31.86-5.88 31.86-4.98L31.86-4.98L31.86-4.98Q31.86-4.20 31.20-3.60L31.20-3.60L31.20-3.60Q29.22-1.92 26.16-0.81L26.16-0.81L26.16-0.81Q23.10 0.30 20.28 0.30L20.28 0.30L20.28 0.30Q15.48 0.30 11.70-1.83L11.70-1.83L11.70-1.83Q7.92-3.96 5.79-7.77L5.79-7.77L5.79-7.77Q3.66-11.58 3.66-16.38L3.66-16.38L3.66-16.38Q3.66-21.24 5.67-25.05L5.67-25.05L5.67-25.05Q7.68-28.86 11.25-30.99L11.25-30.99L11.25-30.99Q14.82-33.12 19.38-33.12L19.38-33.12ZM19.38-28.98L19.38-28.98Q14.82-28.98 11.82-26.16L11.82-26.16L11.82-26.16Q8.82-23.34 8.16-18.72L8.16-18.72L30.12-18.72L30.12-18.72Q29.64-23.34 26.76-26.16L26.76-26.16L26.76-26.16Q23.88-28.98 19.38-28.98L19.38-28.98ZM73.80-31.08L73.80-31.08Q73.86-30.90 73.86-30.54L73.86-30.54L73.86-16.44L73.86-16.44Q73.86-11.76 71.67-7.92L71.67-7.92L71.67-7.92Q69.48-4.08 65.67-1.89L65.67-1.89L65.67-1.89Q61.86 0.30 57.18 0.30L57.18 0.30L57.18 0.30Q52.50 0.30 48.69-1.89L48.69-1.89L48.69-1.89Q44.88-4.08 42.69-7.92L42.69-7.92L42.69-7.92Q40.50-11.76 40.50-16.44L40.50-16.44L40.50-16.44Q40.50-21.12 42.63-24.93L42.63-24.93L42.63-24.93Q44.76-28.74 48.45-30.93L48.45-30.93L48.45-30.93Q52.14-33.12 56.70-33.12L56.70-33.12L56.70-33.12Q60.60-33.12 63.84-31.47L63.84-31.47L63.84-31.47Q67.08-29.82 69.18-26.94L69.18-26.94L69.18-44.52L69.18-44.52Q69.18-45.54 69.84-46.20L69.84-46.20L69.84-46.20Q70.50-46.86 71.52-46.86L71.52-46.86L71.52-46.86Q72.54-46.86 73.17-46.20L73.17-46.20L73.17-46.20Q73.80-45.54 73.80-44.52L73.80-44.52L73.80-31.08ZM57.18-3.90L57.18-3.90Q60.60-3.90 63.36-5.55L63.36-5.55L63.36-5.55Q66.12-7.20 67.71-10.05L67.71-10.05L67.71-10.05Q69.30-12.90 69.30-16.44L69.30-16.44L69.30-16.44Q69.30-17.46 69.24-17.94L69.24-17.94L69.24-17.94Q69.18-18.06 69.18-18.24L69.18-18.24L69.18-18.24Q68.58-22.92 65.25-25.92L65.25-25.92L65.25-25.92Q61.92-28.92 57.18-28.92L57.18-28.92L57.18-28.92Q53.76-28.92 50.97-27.30L50.97-27.30L50.97-27.30Q48.18-25.68 46.59-22.83L46.59-22.83L46.59-22.83Q45-19.98 45-16.44L45-16.44L45-16.44Q45-12.90 46.59-10.05L46.59-10.05L46.59-10.05Q48.18-7.20 50.97-5.55L50.97-5.55L50.97-5.55Q53.76-3.90 57.18-3.90L57.18-3.90ZM112.14-32.82L112.14-32.82Q113.16-32.82 113.82-32.19L113.82-32.19L113.82-32.19Q114.48-31.56 114.48-30.54L114.48-30.54L114.48-2.34L114.48-2.34Q114.48-1.32 113.82-0.66L113.82-0.66L113.82-0.66Q113.16 0 112.14 0L112.14 0L112.14 0Q111.12 0 110.49-0.66L110.49-0.66L110.49-0.66Q109.86-1.32 109.86-2.34L109.86-2.34L109.86-4.38L109.86-4.38Q107.88-2.16 105.06-0.90L105.06-0.90L105.06-0.90Q102.24 0.36 98.94 0.36L98.94 0.36L98.94 0.36Q94.68 0.36 91.29-1.44L91.29-1.44L91.29-1.44Q87.90-3.24 85.98-6.69L85.98-6.69L85.98-6.69Q84.06-10.14 84.06-14.94L84.06-14.94L84.06-30.54L84.06-30.54Q84.06-31.50 84.72-32.16L84.72-32.16L84.72-32.16Q85.38-32.82 86.34-32.82L86.34-32.82L86.34-32.82Q87.36-32.82 88.02-32.16L88.02-32.16L88.02-32.16Q88.68-31.50 88.68-30.54L88.68-30.54L88.68-14.94L88.68-14.94Q88.68-9.60 91.65-6.81L91.65-6.81L91.65-6.81Q94.62-4.02 99.42-4.02L99.42-4.02L99.42-4.02Q102.36-4.02 104.73-5.16L104.73-5.16L104.73-5.16Q107.10-6.30 108.48-8.31L108.48-8.31L108.48-8.31Q109.86-10.32 109.86-12.78L109.86-12.78L109.86-30.54L109.86-30.54Q109.86-31.56 110.49-32.19L110.49-32.19L110.49-32.19Q111.12-32.82 112.14-32.82L112.14-32.82ZM139.32-33.12L139.32-33.12Q146.82-33.12 151.50-27.36L151.50-27.36L151.50-27.36Q151.98-26.82 151.98-26.10L151.98-26.10L151.98-26.10Q151.98-25.14 150.96-24.42L150.96-24.42L150.96-24.42Q150.42-24.06 149.82-24.06L149.82-24.06L149.82-24.06Q148.92-24.06 148.08-24.96L148.08-24.96L148.08-24.96Q146.28-26.94 144.12-27.93L144.12-27.93L144.12-27.93Q141.96-28.92 139.32-28.92L139.32-28.92L139.32-28.92Q136.02-28.92 133.44-27.33L133.44-27.33L133.44-27.33Q130.86-25.74 129.45-22.86L129.45-22.86L129.45-22.86Q128.04-19.98 128.04-16.38L128.04-16.38L128.04-16.38Q128.04-12.84 129.54-9.99L129.54-9.99L129.54-9.99Q131.04-7.14 133.74-5.52L133.74-5.52L133.74-5.52Q136.44-3.90 139.92-3.90L139.92-3.90L139.92-3.90Q144.72-3.90 147.66-6.48L147.66-6.48L147.66-6.48Q148.44-7.14 149.28-7.14L149.28-7.14L149.28-7.14Q150-7.14 150.60-6.66L150.60-6.66L150.60-6.66Q151.44-5.94 151.44-5.04L151.44-5.04L151.44-5.04Q151.44-4.26 150.84-3.72L150.84-3.72L150.84-3.72Q146.52 0.30 139.92 0.30L139.92 0.30L139.92 0.30Q135.24 0.30 131.52-1.89L131.52-1.89L131.52-1.89Q127.80-4.08 125.67-7.89L125.67-7.89L125.67-7.89Q123.54-11.70 123.54-16.38L123.54-16.38L123.54-16.38Q123.54-21.18 125.58-24.99L125.58-24.99L125.58-24.99Q127.62-28.80 131.22-30.96L131.22-30.96L131.22-30.96Q134.82-33.12 139.32-33.12L139.32-33.12ZM175.98-33.12L175.98-33.12Q180.66-33.12 184.47-30.93L184.47-30.93L184.47-30.93Q188.28-28.74 190.47-24.90L190.47-24.90L190.47-24.90Q192.66-21.06 192.66-16.38L192.66-16.38L192.66-2.28L192.66-2.28Q192.66-1.32 192-0.66L192-0.66L192-0.66Q191.34 0 190.32 0L190.32 0L190.32 0Q189.30 0 188.64-0.63L188.64-0.63L188.64-0.63Q187.98-1.26 187.98-2.28L187.98-2.28L187.98-5.88L187.98-5.88Q185.88-3 182.64-1.35L182.64-1.35L182.64-1.35Q179.40 0.30 175.50 0.30L175.50 0.30L175.50 0.30Q170.94 0.30 167.25-1.89L167.25-1.89L167.25-1.89Q163.56-4.08 161.43-7.89L161.43-7.89L161.43-7.89Q159.30-11.70 159.30-16.38L159.30-16.38L159.30-16.38Q159.30-21.06 161.49-24.90L161.49-24.90L161.49-24.90Q163.68-28.74 167.49-30.93L167.49-30.93L167.49-30.93Q171.30-33.12 175.98-33.12L175.98-33.12ZM175.98-3.90L175.98-3.90Q179.40-3.90 182.16-5.52L182.16-5.52L182.16-5.52Q184.92-7.14 186.51-9.99L186.51-9.99L186.51-9.99Q188.10-12.84 188.10-16.38L188.10-16.38L188.10-16.38Q188.10-19.92 186.51-22.77L186.51-22.77L186.51-22.77Q184.92-25.62 182.16-27.27L182.16-27.27L182.16-27.27Q179.40-28.92 175.98-28.92L175.98-28.92L175.98-28.92Q172.56-28.92 169.77-27.27L169.77-27.27L169.77-27.27Q166.98-25.62 165.39-22.77L165.39-22.77L165.39-22.77Q163.80-19.92 163.80-16.38L163.80-16.38L163.80-16.38Q163.80-12.84 165.39-9.99L165.39-9.99L165.39-9.99Q166.98-7.14 169.77-5.52L169.77-5.52L169.77-5.52Q172.56-3.90 175.98-3.90L175.98-3.90ZM216.12-4.62L216.12-4.62Q217.08-4.62 217.68-3.96L217.68-3.96L217.68-3.96Q218.28-3.30 218.28-2.28L218.28-2.28L218.28-2.28Q218.28-1.32 217.56-0.66L217.56-0.66L217.56-0.66Q216.84 0 215.76 0L215.76 0L214.50 0L214.50 0Q211.32 0 208.80-1.53L208.80-1.53L208.80-1.53Q206.28-3.06 204.87-5.67L204.87-5.67L204.87-5.67Q203.46-8.28 203.46-11.58L203.46-11.58L203.46-27.60L199.56-27.60L199.56-27.60Q198.60-27.60 198.03-28.17L198.03-28.17L198.03-28.17Q197.46-28.74 197.46-29.58L197.46-29.58L197.46-29.58Q197.46-30.48 198.03-31.05L198.03-31.05L198.03-31.05Q198.60-31.62 199.56-31.62L199.56-31.62L203.46-31.62L203.46-40.92L203.46-40.92Q203.46-41.94 204.09-42.60L204.09-42.60L204.09-42.60Q204.72-43.26 205.74-43.26L205.74-43.26L205.74-43.26Q206.76-43.26 207.42-42.60L207.42-42.60L207.42-42.60Q208.08-41.94 208.08-40.92L208.08-40.92L208.08-31.62L214.86-31.62L214.86-31.62Q215.82-31.62 216.39-31.05L216.39-31.05L216.39-31.05Q216.96-30.48 216.96-29.58L216.96-29.58L216.96-29.58Q216.96-28.74 216.39-28.17L216.39-28.17L216.39-28.17Q215.82-27.60 214.86-27.60L214.86-27.60L208.08-27.60L208.08-11.58L208.08-11.58Q208.08-8.52 209.88-6.57L209.88-6.57L209.88-6.57Q211.68-4.62 214.50-4.62L214.50-4.62L216.12-4.62ZM226.74-30.48L226.74-30.48Q226.74-31.50 227.40-32.16L227.40-32.16L227.40-32.16Q228.06-32.82 229.08-32.82L229.08-32.82L229.08-32.82Q230.10-32.82 230.73-32.16L230.73-32.16L230.73-32.16Q231.36-31.50 231.36-30.48L231.36-30.48L231.36-2.34L231.36-2.34Q231.36-1.32 230.73-0.66L230.73-0.66L230.73-0.66Q230.10 0 229.08 0L229.08 0L229.08 0Q228.06 0 227.40-0.66L227.40-0.66L227.40-0.66Q226.74-1.32 226.74-2.34L226.74-2.34L226.74-30.48ZM229.08-45.60L229.08-45.60Q230.40-45.60 231.36-44.70L231.36-44.70L231.36-44.70Q232.32-43.80 232.32-42.36L232.32-42.36L232.32-42.36Q232.32-40.98 231.36-40.02L231.36-40.02L231.36-40.02Q230.40-39.06 229.02-39.06L229.02-39.06L229.02-39.06Q227.64-39.06 226.71-40.02L226.71-40.02L226.71-40.02Q225.78-40.98 225.78-42.36L225.78-42.36L225.78-42.36Q225.78-43.80 226.74-44.70L226.74-44.70L226.74-44.70Q227.70-45.60 229.08-45.60L229.08-45.60ZM258.06-33.12L258.06-33.12Q262.80-33.12 266.58-30.96L266.58-30.96L266.58-30.96Q270.36-28.80 272.55-24.96L272.55-24.96L272.55-24.96Q274.74-21.12 274.74-16.38L274.74-16.38L274.74-16.38Q274.74-11.64 272.58-7.83L272.58-7.83L272.58-7.83Q270.42-4.02 266.61-1.86L266.61-1.86L266.61-1.86Q262.80 0.30 258.06 0.30L258.06 0.30L258.06 0.30Q253.32 0.30 249.51-1.86L249.51-1.86L249.51-1.86Q245.70-4.02 243.54-7.83L243.54-7.83L243.54-7.83Q241.38-11.64 241.38-16.38L241.38-16.38L241.38-16.38Q241.38-21.12 243.54-24.96L243.54-24.96L243.54-24.96Q245.70-28.80 249.51-30.96L249.51-30.96L249.51-30.96Q253.32-33.12 258.06-33.12L258.06-33.12ZM258.06-28.92L258.06-28.92Q254.64-28.92 251.85-27.30L251.85-27.30L251.85-27.30Q249.06-25.68 247.47-22.83L247.47-22.83L247.47-22.83Q245.88-19.98 245.88-16.38L245.88-16.38L245.88-16.38Q245.88-12.84 247.47-9.99L247.47-9.99L247.47-9.99Q249.06-7.14 251.85-5.52L251.85-5.52L251.85-5.52Q254.64-3.90 258.06-3.90L258.06-3.90L258.06-3.90Q261.54-3.90 264.30-5.52L264.30-5.52L264.30-5.52Q267.06-7.14 268.62-9.99L268.62-9.99L268.62-9.99Q270.18-12.84 270.18-16.38L270.18-16.38L270.18-16.38Q270.18-19.98 268.62-22.83L268.62-22.83L268.62-22.83Q267.06-25.68 264.30-27.30L264.30-27.30L264.30-27.30Q261.54-28.92 258.06-28.92L258.06-28.92ZM299.28-33.18L299.28-33.18Q303.54-33.18 306.93-31.38L306.93-31.38L306.93-31.38Q310.32-29.58 312.24-26.13L312.24-26.13L312.24-26.13Q314.16-22.68 314.16-17.88L314.16-17.88L314.16-2.28L314.16-2.28Q314.16-1.32 313.50-0.66L313.50-0.66L313.50-0.66Q312.84 0 311.88 0L311.88 0L311.88 0Q310.86 0 310.20-0.66L310.20-0.66L310.20-0.66Q309.54-1.32 309.54-2.28L309.54-2.28L309.54-17.88L309.54-17.88Q309.54-23.22 306.57-26.01L306.57-26.01L306.57-26.01Q303.60-28.80 298.80-28.80L298.80-28.80L298.80-28.80Q295.86-28.80 293.49-27.66L293.49-27.66L293.49-27.66Q291.12-26.52 289.74-24.51L289.74-24.51L289.74-24.51Q288.36-22.50 288.36-20.04L288.36-20.04L288.36-2.28L288.36-2.28Q288.36-1.26 287.73-0.63L287.73-0.63L287.73-0.63Q287.10 0 286.08 0L286.08 0L286.08 0Q285.06 0 284.40-0.63L284.40-0.63L284.40-0.63Q283.74-1.26 283.74-2.28L283.74-2.28L283.74-30.48L283.74-30.48Q283.74-31.50 284.40-32.16L284.40-32.16L284.40-32.16Q285.06-32.82 286.08-32.82L286.08-32.82L286.08-32.82Q287.10-32.82 287.73-32.16L287.73-32.16L287.73-32.16Q288.36-31.50 288.36-30.48L288.36-30.48L288.36-28.44L288.36-28.44Q290.34-30.66 293.16-31.92L293.16-31.92L293.16-31.92Q295.98-33.18 299.28-33.18L299.28-33.18Z" fill="#000000"></path></g></g><style>text {
  font-size: 64px;
  font-family: Arial Black;
  dominant-baseline: central;
  text-anchor: middle;
}</style></svg>