<svg width="403.8599609375px" height="153.21625976562498px" xmlns="http://www.w3.org/2000/svg" viewBox="48.07001953125001 -1.6081298828124915 403.8599609375 153.21625976562498" style="background: rgba(0, 0, 0, 0);" preserveAspectRatio="xMidYMid"><defs><filter id="editing-hole" x="-100%" y="-100%" width="300%" height="300%"><feFlood flood-color="#000000" result="black"></feFlood><feMorphology operator="dilate" radius="2" in="SourceGraphic" result="erode"></feMorphology><feGaussianBlur in="erode" stdDeviation="4" result="blur"></feGaussianBlur><feOffset in="blur" dx="2" dy="2" result="offset"></feOffset><feComposite operator="atop" in="offset" in2="black" result="merge"></feComposite><feComposite operator="in" in="merge" in2="SourceGraphic" result="inner-shadow"></feComposite></filter></defs><g filter="url(#editing-hole)"><g transform="translate(108.76999568939209, 97.65156364440918)"><path d="M29.12 0L3.96 0L3.96-44.38L28.01-44.38L28.01-40.75L8.29-40.75L8.29-25.14L22.44-25.14L22.44-21.50L8.29-21.50L8.29-3.90L29.12-3.90L29.12 0ZM45.64 0L35.07 0L35.07-44.38L45.64-44.38L45.64-44.38Q60.35-44.38 63.63-31.32L63.63-31.32L63.63-31.32Q64.69-27.10 64.69-22.71L64.69-22.71L64.69-22.71Q64.69-18.31 64.07-15.21L64.07-15.21L64.07-15.21Q63.46-12.10 62.04-9.27L62.04-9.27L62.04-9.27Q60.62-6.45 58.48-4.42L58.48-4.42L58.48-4.42Q53.76 0 45.64 0L45.64 0ZM39.40-40.75L39.40-3.63L45.64-3.63L45.64-3.63Q55.22-3.63 58.65-11.81L58.65-11.81L58.65-11.81Q60.35-15.91 60.35-21.83L60.35-21.83L60.35-21.83Q60.35-32.34 56.31-36.83L56.31-36.83L56.31-36.83Q54.73-38.55 52.02-39.65L52.02-39.65L52.02-39.65Q49.31-40.75 45.64-40.75L45.64-40.75L39.40-40.75ZM70.63-13.33L70.63-13.33L70.63-44.38L74.97-44.38L74.97-13.33L74.97-13.33Q74.97-9.35 76.90-6.62L76.90-6.62L76.90-6.62Q79.34-3.16 84.52-3.16L84.52-3.16L84.52-3.16Q92.26-3.16 93.69-10.14L93.69-10.14L93.69-10.14Q94.04-11.75 94.04-13.33L94.04-13.33L94.04-44.38L98.47-44.38L98.47-13.33L98.47-13.33Q98.47-8.53 95.86-4.75L95.86-4.75L95.86-4.75Q92.34 0.47 84.52 0.47L84.52 0.47L84.52 0.47Q75.18 0.47 71.95-6.97L71.95-6.97L71.95-6.97Q70.63-10.08 70.63-13.33ZM105.62-13.02L105.62-13.02L105.62-13.02Q105.06-15.29 104.81-17.58L104.81-17.58L104.81-17.58Q104.56-19.86 104.56-22.72L104.56-22.72L104.56-22.72Q104.56-25.58 105.07-28.73L105.07-28.73L105.07-28.73Q105.59-31.88 106.79-34.85L106.79-34.85L106.79-34.85Q107.99-37.82 109.78-40.02L109.78-40.02L109.78-40.02Q111.56-42.22 114.27-43.55L114.27-43.55L114.27-43.55Q116.98-44.88 119.79-44.88L119.79-44.88L119.79-44.88Q122.61-44.88 124.58-44.17L124.58-44.17L124.58-44.17Q126.56-43.45 127.91-42.30L127.91-42.30L127.91-42.30Q129.26-41.16 130.37-39.77L130.37-39.77L130.37-39.77Q131.48-38.38 132.13-36.97L132.13-36.97L132.13-36.97Q133.48-34.07 133.80-32.58L133.80-32.58L133.97-31.88L133.97-31.85L129.52-30.64L129.52-30.64Q129.05-33.98 128.33-35.52L128.33-35.52L128.33-35.52Q127.62-37.06 126.90-38.04L126.90-38.04L126.90-38.04Q126.18-39.02 125.30-39.70L125.30-39.70L125.30-39.70Q123.22-41.25 120.32-41.25L120.32-41.25L120.32-41.25Q108.90-41.25 108.90-22.24L108.90-22.24L108.90-22.24Q108.90-14.09 111.30-8.94L111.30-8.94L111.30-8.94Q114.02-3.16 120.32-3.16L120.32-3.16L120.32-3.16Q125.48-3.16 128.35-7.21L128.35-7.21L128.35-7.21Q130.34-10.05 130.34-13.56L130.34-13.56L134.62-12.89L134.62-12.89Q134.50-12.57 134.08-11.31L134.08-11.31L134.08-11.31Q133.65-10.05 133.36-9.26L133.36-9.26L133.36-9.26Q133.07-8.47 132.41-7.10L132.41-7.10L132.41-7.10Q131.75-5.74 131.09-4.83L131.09-4.83L131.09-4.83Q130.43-3.93 129.33-2.83L129.33-2.83L129.33-2.83Q128.23-1.73 127.00-1.08L127.00-1.08L127.00-1.08Q124.04 0.47 120.94 0.47L120.94 0.47L120.94 0.47Q117.83 0.47 115.71-0.23L115.71-0.23L115.71-0.23Q113.58-0.94 112.00-2.15L112.00-2.15L112.00-2.15Q110.42-3.37 109.15-5.08L109.15-5.08L109.15-5.08Q107.87-6.80 107.02-8.77L107.02-8.77L107.02-8.77Q106.17-10.75 105.62-13.02ZM141.86 0L137.34 0L150-44.38L156.33-44.38L168.98 0L164.47 0L160.66-14.00L145.75-14.00L141.86 0ZM153.16-40.69L146.75-17.64L159.64-17.64L153.16-40.69ZM178.62-40.75L165.97-40.75L165.97-44.38L195.62-44.38L195.62-40.75L182.96-40.75L182.96 0L178.62 0L178.62-40.75ZM204.64 0L200.30 0L200.30-44.38L204.64-44.38L204.64 0ZM213.50-9.42L213.50-9.42L213.50-9.42Q212.17-12.33 211.55-15.51L211.55-15.51L211.55-15.51Q210.94-18.69 210.94-22.06L210.94-22.06L210.94-22.06Q210.94-25.43 211.49-28.62L211.49-28.62L211.49-28.62Q212.05-31.82 213.31-34.80L213.31-34.80L213.31-34.80Q214.57-37.79 216.43-40.00L216.43-40.00L216.43-40.00Q218.29-42.22 221.10-43.55L221.10-43.55L221.10-43.55Q223.92-44.88 227.30-44.88L227.30-44.88L227.30-44.88Q230.68-44.88 233.39-43.52L233.39-43.52L233.39-43.52Q236.10-42.16 237.91-39.92L237.91-39.92L237.91-39.92Q239.71-37.68 240.94-34.69L240.94-34.69L240.94-34.69Q243.25-29.06 243.25-22.03L243.25-22.03L243.25-22.03Q243.25-9.17 236.60-2.93L236.60-2.93L236.60-2.93Q233.00 0.47 227.37 0.47L227.37 0.47L227.37 0.47Q224.12 0.47 221.37-0.83L221.37-0.83L221.37-0.83Q218.61-2.14 216.72-4.32L216.72-4.32L216.72-4.32Q214.83-6.50 213.50-9.42ZM216.93-33.11L216.93-33.11L216.93-33.11Q216.04-30.62 215.65-27.88L215.65-27.88L215.65-27.88Q215.27-25.14 215.27-21.65L215.27-21.65L215.27-21.65Q215.27-18.16 215.96-14.87L215.96-14.87L215.96-14.87Q216.65-11.57 218.04-8.91L218.04-8.91L218.04-8.91Q219.43-6.24 221.82-4.70L221.82-4.70L221.82-4.70Q224.21-3.16 227.09-3.16L227.09-3.16L227.09-3.16Q229.98-3.16 232.05-4.32L232.05-4.32L232.05-4.32Q234.11-5.48 235.37-7.32L235.37-7.32L235.37-7.32Q236.63-9.17 237.45-11.72L237.45-11.72L237.45-11.72Q238.92-16.23 238.92-22.03L238.92-22.03L238.92-22.03Q238.92-31.67 235.37-36.97L235.37-36.97L235.37-36.97Q234.11-38.88 232.06-40.06L232.06-40.06L232.06-40.06Q230.01-41.25 227.37-41.25L227.37-41.25L227.37-41.25Q224.74-41.25 222.64-40.20L222.64-40.20L222.64-40.20Q220.55-39.14 219.18-37.37L219.18-37.37L219.18-37.37Q217.82-35.60 216.93-33.11ZM253.68 0L249.35 0L249.35-44.38L256.26-44.38L274.16-10.58L274.16-44.38L278.50-44.38L278.50 0L274.78 0L253.68-40.08L253.68 0Z" fill="#000000"></path></g></g><style>text {
  font-size: 64px;
  font-family: Arial Black;
  dominant-baseline: central;
  text-anchor: middle;
}</style></svg>