<svg width="443.512548828125px" height="114.8175048828125px" xmlns="http://www.w3.org/2000/svg" viewBox="28.24372558593751 17.59124755859375 443.512548828125 114.8175048828125" style="background: rgba(0, 0, 0, 0);" preserveAspectRatio="xMidYMid"><defs><filter id="editing-hole" x="-100%" y="-100%" width="300%" height="300%"><feFlood flood-color="#000000" result="black"></feFlood><feMorphology operator="dilate" radius="2" in="SourceGraphic" result="erode"></feMorphology><feGaussianBlur in="erode" stdDeviation="4" result="blur"></feGaussianBlur><feOffset in="blur" dx="2" dy="2" result="offset"></feOffset><feComposite operator="atop" in="offset" in2="black" result="merge"></feComposite><feComposite operator="in" in="merge" in2="SourceGraphic" result="inner-shadow"></feComposite></filter></defs><g filter="url(#editing-hole)"><g transform="translate(92.20000267028809, 99.20000076293945)"><path d="M4.74 0L4.74-45L20.88-45L20.88-43.26L6.72-43.26L6.72-18.78L18.54-18.78L18.54-17.04L6.72-17.04L6.72-1.74L20.88-1.74L20.88 0L4.74 0ZM27.18 0L27.18-45L29.10-45L29.10-45Q39.84-45 45.69-39.15L45.69-39.15L45.69-39.15Q51.54-33.30 51.54-22.50L51.54-22.50L51.54-22.50Q51.54-16.32 48.54-11.16L48.54-11.16L48.54-11.16Q45.54-6 40.41-3L40.41-3L40.41-3Q35.28 0 29.10 0L29.10 0L27.18 0ZM29.10-1.86L29.58-1.86L29.58-1.86Q35.10-1.86 39.66-4.59L39.66-4.59L39.66-4.59Q44.22-7.32 46.89-12.06L46.89-12.06L46.89-12.06Q49.56-16.80 49.56-22.50L49.56-22.50L49.56-22.50Q49.56-32.46 44.37-37.83L44.37-37.83L44.37-37.83Q39.18-43.20 29.58-43.20L29.58-43.20L29.10-43.20L29.10-1.86ZM72.60 1.20L72.60 1.20Q68.70 1.20 65.64-0.45L65.64-0.45L65.64-0.45Q62.58-2.10 60.84-5.16L60.84-5.16L60.84-5.16Q59.10-8.22 59.10-12.30L59.10-12.30L59.10-45L61.08-45L61.08-12.36L61.08-12.36Q61.08-8.76 62.58-6.09L62.58-6.09L62.58-6.09Q64.08-3.42 66.69-1.98L66.69-1.98L66.69-1.98Q69.30-0.54 72.54-0.54L72.54-0.54L72.54-0.54Q75.78-0.54 78.39-1.95L78.39-1.95L78.39-1.95Q81-3.36 82.47-6.03L82.47-6.03L82.47-6.03Q83.94-8.70 83.94-12.36L83.94-12.36L83.94-45L85.92-45L85.92-12.42L85.92-12.42Q85.92-8.28 84.24-5.19L84.24-5.19L84.24-5.19Q82.56-2.10 79.53-0.45L79.53-0.45L79.53-0.45Q76.50 1.20 72.60 1.20L72.60 1.20ZM116.52 1.20L116.52 1.20Q110.22 1.20 104.94-1.89L104.94-1.89L104.94-1.89Q99.66-4.98 96.57-10.41L96.57-10.41L96.57-10.41Q93.48-15.84 93.48-22.62L93.48-22.62L93.48-22.62Q93.48-29.16 96.69-34.56L96.69-34.56L96.69-34.56Q99.90-39.96 105.27-43.08L105.27-43.08L105.27-43.08Q110.64-46.20 116.70-46.20L116.70-46.20L116.70-46.20Q120.90-46.20 123.36-45.45L123.36-45.45L123.36-45.45Q125.82-44.70 129.06-42.84L129.06-42.84L129.06-40.62L129.06-40.62Q126-42.72 123.39-43.59L123.39-43.59L123.39-43.59Q120.78-44.46 116.88-44.46L116.88-44.46L116.88-44.46Q110.94-44.46 106.05-41.43L106.05-41.43L106.05-41.43Q101.16-38.40 98.31-33.33L98.31-33.33L98.31-33.33Q95.46-28.26 95.46-22.44L95.46-22.44L95.46-22.44Q95.46-16.56 98.34-11.52L98.34-11.52L98.34-11.52Q101.22-6.48 105.99-3.51L105.99-3.51L105.99-3.51Q110.76-0.54 116.28-0.54L116.28-0.54L116.28-0.54Q120.24-0.54 123.18-1.47L123.18-1.47L123.18-1.47Q126.12-2.40 129.06-4.38L129.06-4.38L129.06-2.16L129.06-2.16Q126.18-0.42 123.15 0.39L123.15 0.39L123.15 0.39Q120.12 1.20 116.52 1.20L116.52 1.20ZM157.20-46.08L179.70 0L177.60 0L169.08-17.16L145.20-17.16L136.86 0L134.76 0L157.20-46.08ZM146.04-18.90L168.36-18.90L157.08-41.76L146.04-18.90ZM193.26 0L193.26-43.26L182.88-43.26L182.88-45L205.50-45L205.50-43.26L195.24-43.26L195.24 0L193.26 0ZM211.80 0L211.80-45L213.78-45L213.78 0L211.80 0ZM245.04 1.20L245.04 1.20Q238.74 1.20 233.34-2.10L233.34-2.10L233.34-2.10Q227.94-5.40 224.79-10.89L224.79-10.89L224.79-10.89Q221.64-16.38 221.64-22.68L221.64-22.68L221.64-22.68Q221.64-28.92 224.82-34.35L224.82-34.35L224.82-34.35Q228-39.78 233.40-42.99L233.40-42.99L233.40-42.99Q238.80-46.20 245.10-46.20L245.10-46.20L245.10-46.20Q251.46-46.20 256.80-43.02L256.80-43.02L256.80-43.02Q262.14-39.84 265.29-34.41L265.29-34.41L265.29-34.41Q268.44-28.98 268.44-22.68L268.44-22.68L268.44-22.68Q268.44-16.20 265.29-10.71L265.29-10.71L265.29-10.71Q262.14-5.22 256.77-2.01L256.77-2.01L256.77-2.01Q251.40 1.20 245.04 1.20L245.04 1.20ZM245.04-0.54L245.04-0.54Q250.80-0.54 255.72-3.51L255.72-3.51L255.72-3.51Q260.64-6.48 263.55-11.55L263.55-11.55L263.55-11.55Q266.46-16.62 266.46-22.56L266.46-22.56L266.46-22.56Q266.46-28.44 263.58-33.48L263.58-33.48L263.58-33.48Q260.70-38.52 255.78-41.49L255.78-41.49L255.78-41.49Q250.86-44.46 245.10-44.46L245.10-44.46L245.10-44.46Q239.28-44.46 234.36-41.49L234.36-41.49L234.36-41.49Q229.44-38.52 226.53-33.48L226.53-33.48L226.53-33.48Q223.62-28.44 223.62-22.56L223.62-22.56L223.62-22.56Q223.62-16.62 226.53-11.55L226.53-11.55L226.53-11.55Q229.44-6.48 234.36-3.51L234.36-3.51L234.36-3.51Q239.28-0.54 245.04-0.54L245.04-0.54ZM310.86 0.66L277.74-40.50L277.74 0L276 0L276-45.66L309.12-4.56L309.12-45L310.86-45L310.86 0.66Z" fill="#000000"></path></g></g><style>text {
  font-size: 64px;
  font-family: Arial Black;
  dominant-baseline: central;
  text-anchor: middle;
}</style></svg>