<svg width="488.5625px" height="116.02878417968749px" xmlns="http://www.w3.org/2000/svg" viewBox="5.71875 16.985607910156254 488.5625 116.02878417968749" style="background: rgba(0, 0, 0, 0);" preserveAspectRatio="xMidYMid"><defs><filter id="editing-hole" x="-100%" y="-100%" width="300%" height="300%"><feFlood flood-color="#000000" result="black"></feFlood><feMorphology operator="dilate" radius="2" in="SourceGraphic" result="erode"></feMorphology><feGaussianBlur in="erode" stdDeviation="4" result="blur"></feGaussianBlur><feOffset in="blur" dx="2" dy="2" result="offset"></feOffset><feComposite operator="atop" in="offset" in2="black" result="merge"></feComposite><feComposite operator="in" in="merge" in2="SourceGraphic" result="inner-shadow"></feComposite></filter></defs><g filter="url(#editing-hole)"><g transform="translate(77.7400016784668, 96.45031356811523)"><path d="M9.54-3.72L33.96-3.72L33.96 0L5.34 0L5.34-42.60L33.42-42.60L33.42-38.88L9.54-38.88L9.54-23.52L30.36-23.52L30.36-19.98L9.54-19.98L9.54-3.72ZM56.34 0L41.88 0L41.88-42.60L56.34-42.60L56.34-42.60Q61.44-42.60 65.25-40.92L65.25-40.92L65.25-40.92Q69.06-39.24 71.61-36.36L71.61-36.36L71.61-36.36Q74.16-33.48 75.45-29.61L75.45-29.61L75.45-29.61Q76.74-25.74 76.74-21.36L76.74-21.36L76.74-21.36Q76.74-16.50 75.30-12.57L75.30-12.57L75.30-12.57Q73.86-8.64 71.19-5.85L71.19-5.85L71.19-5.85Q68.52-3.06 64.77-1.53L64.77-1.53L64.77-1.53Q61.02 0 56.34 0L56.34 0ZM72.54-21.36L72.54-21.36L72.54-21.36Q72.54-25.20 71.46-28.41L71.46-28.41L71.46-28.41Q70.38-31.62 68.31-33.96L68.31-33.96L68.31-33.96Q66.24-36.30 63.24-37.59L63.24-37.59L63.24-37.59Q60.24-38.88 56.34-38.88L56.34-38.88L46.08-38.88L46.08-3.72L56.34-3.72L56.34-3.72Q60.30-3.72 63.33-5.07L63.33-5.07L63.33-5.07Q66.36-6.42 68.40-8.79L68.40-8.79L68.40-8.79Q70.44-11.16 71.49-14.37L71.49-14.37L71.49-14.37Q72.54-17.58 72.54-21.36ZM102.06-3.48L102.06-3.48L102.06-3.48Q106.08-3.48 108.75-5.01L108.75-5.01L108.75-5.01Q111.42-6.54 113.01-9.03L113.01-9.03L113.01-9.03Q114.60-11.52 115.23-14.70L115.23-14.70L115.23-14.70Q115.86-17.88 115.86-21.12L115.86-21.12L115.86-42.60L120.06-42.60L120.06-21.12L120.06-21.12Q120.06-16.80 119.10-12.93L119.10-12.93L119.10-12.93Q118.14-9.06 116.01-6.12L116.01-6.12L116.01-6.12Q113.88-3.18 110.46-1.44L110.46-1.44L110.46-1.44Q107.04 0.30 102.12 0.30L102.12 0.30L102.12 0.30Q97.08 0.30 93.63-1.53L93.63-1.53L93.63-1.53Q90.18-3.36 88.08-6.36L88.08-6.36L88.08-6.36Q85.98-9.36 85.08-13.20L85.08-13.20L85.08-13.20Q84.18-17.04 84.18-21.12L84.18-21.12L84.18-42.60L88.32-42.60L88.32-21.12L88.32-21.12Q88.32-17.76 88.98-14.58L88.98-14.58L88.98-14.58Q89.64-11.40 91.23-8.94L91.23-8.94L91.23-8.94Q92.82-6.48 95.46-4.98L95.46-4.98L95.46-4.98Q98.10-3.48 102.06-3.48ZM127.26-21.60L127.26-21.60L127.26-21.60Q127.26-25.44 128.61-29.25L128.61-29.25L128.61-29.25Q129.96-33.06 132.54-36.06L132.54-36.06L132.54-36.06Q135.12-39.06 138.90-40.95L138.90-40.95L138.90-40.95Q142.68-42.84 147.48-42.84L147.48-42.84L147.48-42.84Q153.18-42.84 157.23-40.26L157.23-40.26L157.23-40.26Q161.28-37.68 163.20-33.54L163.20-33.54L159.90-31.50L159.90-31.50Q158.88-33.60 157.41-35.04L157.41-35.04L157.41-35.04Q155.94-36.48 154.26-37.38L154.26-37.38L154.26-37.38Q152.58-38.28 150.78-38.67L150.78-38.67L150.78-38.67Q148.98-39.06 147.24-39.06L147.24-39.06L147.24-39.06Q143.40-39.06 140.46-37.50L140.46-37.50L140.46-37.50Q137.52-35.94 135.51-33.42L135.51-33.42L135.51-33.42Q133.50-30.90 132.48-27.75L132.48-27.75L132.48-27.75Q131.46-24.60 131.46-21.36L131.46-21.36L131.46-21.36Q131.46-17.82 132.69-14.58L132.69-14.58L132.69-14.58Q133.92-11.34 136.05-8.85L136.05-8.85L136.05-8.85Q138.18-6.36 141.09-4.89L141.09-4.89L141.09-4.89Q144-3.42 147.42-3.42L147.42-3.42L147.42-3.42Q149.22-3.42 151.11-3.87L151.11-3.87L151.11-3.87Q153-4.32 154.77-5.31L154.77-5.31L154.77-5.31Q156.54-6.30 158.04-7.77L158.04-7.77L158.04-7.77Q159.54-9.24 160.56-11.34L160.56-11.34L164.04-9.54L164.04-9.54Q163.02-7.14 161.16-5.31L161.16-5.31L161.16-5.31Q159.30-3.48 157.02-2.22L157.02-2.22L157.02-2.22Q154.74-0.96 152.19-0.30L152.19-0.30L152.19-0.30Q149.64 0.36 147.18 0.36L147.18 0.36L147.18 0.36Q142.80 0.36 139.14-1.56L139.14-1.56L139.14-1.56Q135.48-3.48 132.84-6.57L132.84-6.57L132.84-6.57Q130.20-9.66 128.73-13.59L128.73-13.59L128.73-13.59Q127.26-17.52 127.26-21.60ZM166.02 0L183.84-42.60L187.38-42.60L205.08 0L200.64 0L195.12-13.32L175.98-13.32L170.52 0L166.02 0ZM176.88-16.62L194.16-16.62L185.58-37.68L176.88-16.62ZM237.24-42.60L237.24-38.88L222.06-38.88L222.06 0L217.86 0L217.86-38.88L202.68-38.88L202.68-42.60L237.24-42.60ZM247.80 0L243.60 0L243.60-42.60L247.80-42.60L247.80 0ZM275.64 0.30L275.64 0.30L275.64 0.30Q271.20 0.30 267.51-1.53L267.51-1.53L267.51-1.53Q263.82-3.36 261.18-6.39L261.18-6.39L261.18-6.39Q258.54-9.42 257.10-13.32L257.10-13.32L257.10-13.32Q255.66-17.22 255.66-21.30L255.66-21.30L255.66-21.30Q255.66-25.56 257.19-29.46L257.19-29.46L257.19-29.46Q258.72-33.36 261.42-36.36L261.42-36.36L261.42-36.36Q264.12-39.36 267.78-41.13L267.78-41.13L267.78-41.13Q271.44-42.90 275.70-42.90L275.70-42.90L275.70-42.90Q280.14-42.90 283.83-41.01L283.83-41.01L283.83-41.01Q287.52-39.12 290.13-36.06L290.13-36.06L290.13-36.06Q292.74-33 294.18-29.13L294.18-29.13L294.18-29.13Q295.62-25.26 295.62-21.24L295.62-21.24L295.62-21.24Q295.62-16.98 294.09-13.08L294.09-13.08L294.09-13.08Q292.56-9.18 289.89-6.21L289.89-6.21L289.89-6.21Q287.22-3.24 283.56-1.47L283.56-1.47L283.56-1.47Q279.90 0.30 275.64 0.30ZM259.86-21.30L259.86-21.30L259.86-21.30Q259.86-17.82 261-14.61L261-14.61L261-14.61Q262.14-11.40 264.24-8.91L264.24-8.91L264.24-8.91Q266.34-6.42 269.22-4.95L269.22-4.95L269.22-4.95Q272.10-3.48 275.64-3.48L275.64-3.48L275.64-3.48Q279.24-3.48 282.18-5.04L282.18-5.04L282.18-5.04Q285.12-6.60 287.16-9.12L287.16-9.12L287.16-9.12Q289.20-11.64 290.31-14.82L290.31-14.82L290.31-14.82Q291.42-18 291.42-21.30L291.42-21.30L291.42-21.30Q291.42-24.78 290.25-27.99L290.25-27.99L290.25-27.99Q289.08-31.20 286.98-33.66L286.98-33.66L286.98-33.66Q284.88-36.12 282-37.59L282-37.59L282-37.59Q279.12-39.06 275.64-39.06L275.64-39.06L275.64-39.06Q272.04-39.06 269.10-37.53L269.10-37.53L269.10-37.53Q266.16-36 264.12-33.48L264.12-33.48L264.12-33.48Q262.08-30.96 260.97-27.78L260.97-27.78L260.97-27.78Q259.86-24.60 259.86-21.30ZM335.52 0L307.74-34.80L307.74 0L303.54 0L303.54-42.60L306.78-42.60L334.98-7.14L334.98-42.54L339.18-42.54L339.18 0L335.52 0Z" fill="#000000"></path></g></g><style>text {
  font-size: 64px;
  font-family: Arial Black;
  dominant-baseline: central;
  text-anchor: middle;
}</style></svg>