<svg width="538.5000488281249px" height="111.22625732421875px" xmlns="http://www.w3.org/2000/svg" viewBox="-19.250024414062466 19.386871337890625 538.5000488281249 111.22625732421875" style="background: rgba(0, 0, 0, 0);" preserveAspectRatio="xMidYMid"><defs><filter id="editing-hole" x="-100%" y="-100%" width="300%" height="300%"><feFlood flood-color="#000000" result="black"></feFlood><feMorphology operator="dilate" radius="2" in="SourceGraphic" result="erode"></feMorphology><feGaussianBlur in="erode" stdDeviation="4" result="blur"></feGaussianBlur><feOffset in="blur" dx="2" dy="2" result="offset"></feOffset><feComposite operator="atop" in="offset" in2="black" result="merge"></feComposite><feComposite operator="in" in="merge" in2="SourceGraphic" result="inner-shadow"></feComposite></filter></defs><g filter="url(#editing-hole)"><g transform="translate(56.97999572753906, 99.29593658447266)"><path d="M36.48-4.50L36.48-4.50Q37.50-4.50 38.16-3.87L38.16-3.87L38.16-3.87Q38.82-3.24 38.82-2.28L38.82-2.28L38.82-2.28Q38.82-1.32 38.16-0.66L38.16-0.66L38.16-0.66Q37.50 0 36.48 0L36.48 0L8.34 0L8.34 0Q7.38 0 6.69-0.69L6.69-0.69L6.69-0.69Q6-1.38 6-2.34L6-2.34L6-44.52L6-44.52Q6-45.54 6.69-46.20L6.69-46.20L6.69-46.20Q7.38-46.86 8.34-46.86L8.34-46.86L36.48-46.86L36.48-46.86Q37.50-46.86 38.16-46.20L38.16-46.20L38.16-46.20Q38.82-45.54 38.82-44.58L38.82-44.58L38.82-44.58Q38.82-43.62 38.16-42.99L38.16-42.99L38.16-42.99Q37.50-42.36 36.48-42.36L36.48-42.36L10.68-42.36L10.68-25.80L29.46-25.80L29.46-25.80Q30.48-25.80 31.14-25.14L31.14-25.14L31.14-25.14Q31.80-24.48 31.80-23.52L31.80-23.52L31.80-23.52Q31.80-22.56 31.11-21.90L31.11-21.90L31.11-21.90Q30.42-21.24 29.46-21.24L29.46-21.24L10.68-21.24L10.68-4.50L36.48-4.50ZM60.66-46.86L60.66-46.86Q67.44-46.86 72.78-43.86L72.78-43.86L72.78-43.86Q78.12-40.86 81.09-35.55L81.09-35.55L81.09-35.55Q84.06-30.24 84.06-23.46L84.06-23.46L84.06-23.46Q84.06-16.68 81.09-11.34L81.09-11.34L81.09-11.34Q78.12-6 72.78-3L72.78-3L72.78-3Q67.44 0 60.66 0L60.66 0L49.86 0L49.86 0Q48.84 0 48.18-0.66L48.18-0.66L48.18-0.66Q47.52-1.32 47.52-2.34L47.52-2.34L47.52-44.52L47.52-44.52Q47.52-45.54 48.18-46.20L48.18-46.20L48.18-46.20Q48.84-46.86 49.86-46.86L49.86-46.86L60.66-46.86ZM60.66-4.20L60.66-4.20Q66.12-4.20 70.38-6.69L70.38-6.69L70.38-6.69Q74.64-9.18 77.04-13.56L77.04-13.56L77.04-13.56Q79.44-17.94 79.44-23.46L79.44-23.46L79.44-23.46Q79.44-28.98 77.04-33.36L77.04-33.36L77.04-33.36Q74.64-37.74 70.38-40.20L70.38-40.20L70.38-40.20Q66.12-42.66 60.66-42.66L60.66-42.66L52.20-42.66L52.20-4.20L60.66-4.20ZM93.72-44.52L93.72-44.52Q93.72-45.54 94.38-46.20L94.38-46.20L94.38-46.20Q95.04-46.86 96.06-46.86L96.06-46.86L96.06-46.86Q97.08-46.86 97.74-46.20L97.74-46.20L97.74-46.20Q98.40-45.54 98.40-44.52L98.40-44.52L98.40-15.48L98.40-15.48Q98.40-12 100.17-9.27L100.17-9.27L100.17-9.27Q101.94-6.54 105.12-5.01L105.12-5.01L105.12-5.01Q108.30-3.48 112.38-3.48L112.38-3.48L112.38-3.48Q116.40-3.48 119.52-5.01L119.52-5.01L119.52-5.01Q122.64-6.54 124.41-9.27L124.41-9.27L124.41-9.27Q126.18-12 126.18-15.48L126.18-15.48L126.18-44.52L126.18-44.52Q126.18-45.54 126.84-46.20L126.84-46.20L126.84-46.20Q127.50-46.86 128.52-46.86L128.52-46.86L128.52-46.86Q129.54-46.86 130.20-46.20L130.20-46.20L130.20-46.20Q130.86-45.54 130.86-44.52L130.86-44.52L130.86-15.48L130.86-15.48Q130.86-10.74 128.49-6.99L128.49-6.99L128.49-6.99Q126.12-3.24 121.92-1.14L121.92-1.14L121.92-1.14Q117.72 0.96 112.38 0.96L112.38 0.96L112.38 0.96Q106.98 0.96 102.72-1.14L102.72-1.14L102.72-1.14Q98.46-3.24 96.09-6.99L96.09-6.99L96.09-6.99Q93.72-10.74 93.72-15.48L93.72-15.48L93.72-44.52ZM163.92-47.46L163.92-47.46Q168.24-47.46 171.78-46.20L171.78-46.20L171.78-46.20Q175.32-44.94 178.62-42.18L178.62-42.18L178.62-42.18Q179.28-41.70 179.28-40.80L179.28-40.80L179.28-40.80Q179.28-40.32 179.04-39.93L179.04-39.93L179.04-39.93Q178.80-39.54 178.38-39.36L178.38-39.36L178.38-39.36Q178.26-38.94 177.84-38.70L177.84-38.70L177.84-38.70Q177.42-38.46 176.94-38.46L176.94-38.46L176.94-38.46Q176.04-38.46 175.44-39L175.44-39L175.44-39Q173.10-41.10 170.34-42.06L170.34-42.06L170.34-42.06Q167.58-43.02 163.92-43.02L163.92-43.02L163.92-43.02Q158.88-43.02 154.56-40.35L154.56-40.35L154.56-40.35Q150.24-37.68 147.69-33.18L147.69-33.18L147.69-33.18Q145.14-28.68 145.14-23.46L145.14-23.46L145.14-23.46Q145.14-18.12 147.66-13.62L147.66-13.62L147.66-13.62Q150.18-9.12 154.50-6.48L154.50-6.48L154.50-6.48Q158.82-3.84 163.92-3.84L163.92-3.84L163.92-3.84Q170.46-3.84 175.74-8.04L175.74-8.04L175.74-8.04Q176.40-8.52 177.06-8.52L177.06-8.52L177.06-8.52Q177.96-8.52 178.62-7.89L178.62-7.89L178.62-7.89Q179.28-7.26 179.28-6.24L179.28-6.24L179.28-6.24Q179.28-5.28 178.62-4.56L178.62-4.56L178.62-4.56Q172.98 0.60 163.92 0.60L163.92 0.60L163.92 0.60Q157.56 0.60 152.22-2.64L152.22-2.64L152.22-2.64Q146.88-5.88 143.73-11.40L143.73-11.40L143.73-11.40Q140.58-16.92 140.58-23.46L140.58-23.46L140.58-23.46Q140.58-29.94 143.70-35.46L143.70-35.46L143.70-35.46Q146.82-40.98 152.16-44.22L152.16-44.22L152.16-44.22Q157.50-47.46 163.92-47.46L163.92-47.46ZM224.28-3.30L224.28-3.30Q224.52-2.88 224.52-2.34L224.52-2.34L224.52-2.34Q224.52-1.38 223.83-0.69L223.83-0.69L223.83-0.69Q223.14 0 222.18 0L222.18 0L222.18 0Q220.62 0 219.96-1.44L219.96-1.44L215.94-11.16L192.72-11.16L188.70-1.44L188.70-1.44Q188.22 0 186.54 0L186.54 0L186.54 0Q185.52 0 184.89-0.69L184.89-0.69L184.89-0.69Q184.26-1.38 184.26-2.34L184.26-2.34L184.26-2.34Q184.26-2.94 184.44-3.36L184.44-3.36L202.08-45.24L202.08-45.24Q202.74-46.86 204.36-46.86L204.36-46.86L204.36-46.86Q205.98-46.86 206.58-45.24L206.58-45.24L224.28-3.30ZM194.40-15.18L214.32-15.18L204.36-39.24L194.40-15.18ZM261.54-46.86L261.54-46.86Q262.50-46.86 263.10-46.26L263.10-46.26L263.10-46.26Q263.70-45.66 263.70-44.70L263.70-44.70L263.70-44.70Q263.70-43.80 263.10-43.20L263.10-43.20L263.10-43.20Q262.50-42.60 261.54-42.60L261.54-42.60L247.26-42.60L247.26-2.34L247.26-2.34Q247.26-1.38 246.60-0.69L246.60-0.69L246.60-0.69Q245.94 0 244.92 0L244.92 0L244.92 0Q243.96 0 243.27-0.69L243.27-0.69L243.27-0.69Q242.58-1.38 242.58-2.34L242.58-2.34L242.58-42.60L228.36-42.60L228.36-42.60Q227.40-42.60 226.80-43.20L226.80-43.20L226.80-43.20Q226.20-43.80 226.20-44.70L226.20-44.70L226.20-44.70Q226.20-45.66 226.80-46.26L226.80-46.26L226.80-46.26Q227.40-46.86 228.36-46.86L228.36-46.86L261.54-46.86ZM270.60-44.52L270.60-44.52Q270.60-45.54 271.29-46.20L271.29-46.20L271.29-46.20Q271.98-46.86 272.94-46.86L272.94-46.86L272.94-46.86Q273.96-46.86 274.62-46.20L274.62-46.20L274.62-46.20Q275.28-45.54 275.28-44.52L275.28-44.52L275.28-2.34L275.28-2.34Q275.28-1.38 274.62-0.69L274.62-0.69L274.62-0.69Q273.96 0 272.94 0L272.94 0L272.94 0Q271.98 0 271.29-0.69L271.29-0.69L271.29-0.69Q270.60-1.38 270.60-2.34L270.60-2.34L270.60-44.52ZM308.94-47.46L308.94-47.46Q315.72-47.46 321.21-44.34L321.21-44.34L321.21-44.34Q326.70-41.22 329.79-35.76L329.79-35.76L329.79-35.76Q332.88-30.30 332.88-23.46L332.88-23.46L332.88-23.46Q332.88-16.62 329.79-11.13L329.79-11.13L329.79-11.13Q326.70-5.64 321.21-2.52L321.21-2.52L321.21-2.52Q315.72 0.60 308.94 0.60L308.94 0.60L308.94 0.60Q302.10 0.60 296.64-2.52L296.64-2.52L296.64-2.52Q291.18-5.64 288.09-11.13L288.09-11.13L288.09-11.13Q285.00-16.62 285.00-23.46L285.00-23.46L285.00-23.46Q285.00-30.30 288.09-35.76L288.09-35.76L288.09-35.76Q291.18-41.22 296.64-44.34L296.64-44.34L296.64-44.34Q302.10-47.46 308.94-47.46L308.94-47.46ZM308.94-43.02L308.94-43.02Q303.42-43.02 299.01-40.44L299.01-40.44L299.01-40.44Q294.60-37.86 292.08-33.39L292.08-33.39L292.08-33.39Q289.56-28.92 289.56-23.46L289.56-23.46L289.56-23.46Q289.56-17.94 292.08-13.47L292.08-13.47L292.08-13.47Q294.60-9 299.01-6.42L299.01-6.42L299.01-6.42Q303.42-3.84 308.94-3.84L308.94-3.84L308.94-3.84Q314.40-3.84 318.81-6.42L318.81-6.42L318.81-6.42Q323.22-9 325.74-13.47L325.74-13.47L325.74-13.47Q328.26-17.94 328.26-23.46L328.26-23.46L328.26-23.46Q328.26-28.92 325.74-33.39L325.74-33.39L325.74-33.39Q323.22-37.86 318.81-40.44L318.81-40.44L318.81-40.44Q314.40-43.02 308.94-43.02L308.94-43.02ZM375.36-44.52L375.36-44.52Q375.36-45.54 376.05-46.20L376.05-46.20L376.05-46.20Q376.74-46.86 377.70-46.86L377.70-46.86L377.70-46.86Q378.72-46.86 379.38-46.20L379.38-46.20L379.38-46.20Q380.04-45.54 380.04-44.52L380.04-44.52L380.04-2.34L380.04-2.34Q380.04-1.38 379.38-0.69L379.38-0.69L379.38-0.69Q378.72 0 377.70 0L377.70 0L377.70 0Q376.50 0 375.96-0.78L375.96-0.78L347.22-38.46L347.22-2.34L347.22-2.34Q347.22-1.38 346.56-0.69L346.56-0.69L346.56-0.69Q345.90 0 344.88 0L344.88 0L344.88 0Q343.86 0 343.20-0.66L343.20-0.66L343.20-0.66Q342.54-1.32 342.54-2.34L342.54-2.34L342.54-44.52L342.54-44.52Q342.54-45.54 343.20-46.20L343.20-46.20L343.20-46.20Q343.86-46.86 344.88-46.86L344.88-46.86L344.88-46.86Q345.96-46.86 346.68-46.02L346.68-46.02L375.36-8.34L375.36-44.52Z" fill="#000000"></path></g></g><style>text {
  font-size: 64px;
  font-family: Arial Black;
  dominant-baseline: central;
  text-anchor: middle;
}</style></svg>