<svg width="596.5125122070312px" height="131.60498046875px" xmlns="http://www.w3.org/2000/svg" viewBox="-48.256256103515625 9.197509765625 596.5125122070312 131.60498046875" style="background: rgba(0, 0, 0, 0);" preserveAspectRatio="xMidYMid"><defs><linearGradient id="editing-outline-gradient" x1="0.36082689903993453" x2="0.6391731009600654" y1="1.4902680687415704" y2="-0.49026806874157036"><stop offset="0" stop-color="#02ffd9"></stop><stop offset="1" stop-color="#001550"></stop></linearGradient><filter id="editing-outline" x="-100%" y="-100%" width="300%" height="300%"><feMorphology in="SourceGraphic" operator="dilate" radius="5" result="outline"></feMorphology><feComposite operator="out" in="outline" in2="SourceAlpha"></feComposite></filter></defs><g filter="url(#editing-outline)"><g transform="translate(37.47000026702881, 99.31361198425293)"><path d="M12.91-44.81L12.91-26.50L41.44-26.50L41.44-44.81L49.56-44.81L49.56 0L41.44 0L41.44-18.31L12.91-18.31L12.91 0L4.78 0L4.78-44.81L12.91-44.81ZM94.28-22.59L94.28-22.59L94.28-22.59Q94.28-20.91 93.69-18.95L93.69-18.95L93.69-18.95Q93.09-17 91.77-15.33L91.77-15.33L91.77-15.33Q90.44-13.66 88.30-12.53L88.30-12.53L88.30-12.53Q86.16-11.41 83.09-11.41L83.09-11.41L68.44-11.41L68.44-19.13L83.09-19.13L83.09-19.13Q84.75-19.13 85.66-20.14L85.66-20.14L85.66-20.14Q86.56-21.16 86.56-22.66L86.56-22.66L86.56-22.66Q86.56-24.25 85.55-25.16L85.55-25.16L85.55-25.16Q84.53-26.06 83.09-26.06L83.09-26.06L68.44-26.06L68.44-26.06Q66.78-26.06 65.88-25.05L65.88-25.05L65.88-25.05Q64.97-24.03 64.97-22.53L64.97-22.53L64.97-11.19L64.97-11.19Q64.97-9.56 65.98-8.66L65.98-8.66L65.98-8.66Q67-7.75 68.50-7.75L68.50-7.75L83.09-7.75L83.09 0L68.44 0L68.44 0Q66.75 0 64.80-0.59L64.80-0.59L64.80-0.59Q62.84-1.19 61.17-2.52L61.17-2.52L61.17-2.52Q59.50-3.84 58.38-5.98L58.38-5.98L58.38-5.98Q57.25-8.13 57.25-11.19L57.25-11.19L57.25-22.59L57.25-22.59Q57.25-24.28 57.84-26.23L57.84-26.23L57.84-26.23Q58.44-28.19 59.77-29.86L59.77-29.86L59.77-29.86Q61.09-31.53 63.23-32.66L63.23-32.66L63.23-32.66Q65.38-33.78 68.44-33.78L68.44-33.78L83.09-33.78L83.09-33.78Q84.78-33.78 86.73-33.19L86.73-33.19L86.73-33.19Q88.69-32.59 90.36-31.27L90.36-31.27L90.36-31.27Q92.03-29.94 93.16-27.80L93.16-27.80L93.16-27.80Q94.28-25.66 94.28-22.59ZM114.59-8.13L114.59 0L110.97 0L110.97 0Q109.22 0 107.23-0.59L107.23-0.59L107.23-0.59Q105.25-1.19 103.53-2.55L103.53-2.55L103.53-2.55Q101.81-3.91 100.69-6.08L100.69-6.08L100.69-6.08Q99.56-8.25 99.56-11.41L99.56-11.41L99.56-48.06L107.69-48.06L107.69-11.41L107.69-11.41Q107.69-9.91 108.63-9.02L108.63-9.02L108.63-9.02Q109.56-8.13 110.97-8.13L110.97-8.13L114.59-8.13ZM134.66-8.13L134.66 0L131.03 0L131.03 0Q129.28 0 127.30-0.59L127.30-0.59L127.30-0.59Q125.31-1.19 123.59-2.55L123.59-2.55L123.59-2.55Q121.88-3.91 120.75-6.08L120.75-6.08L120.75-6.08Q119.63-8.25 119.63-11.41L119.63-11.41L119.63-48.06L127.75-48.06L127.75-11.41L127.75-11.41Q127.75-9.91 128.69-9.02L128.69-9.02L128.69-9.02Q129.63-8.13 131.03-8.13L131.03-8.13L134.66-8.13ZM176.63-22.41L176.63-11.41L176.63-11.41Q176.63-9.31 176.09-7.64L176.09-7.64L176.09-7.64Q175.56-5.97 174.69-4.70L174.69-4.70L174.69-4.70Q173.81-3.44 172.66-2.55L172.66-2.55L172.66-2.55Q171.50-1.66 170.23-1.09L170.23-1.09L170.23-1.09Q168.97-0.53 167.67-0.27L167.67-0.27L167.67-0.27Q166.38 0 165.22 0L165.22 0L150.56 0L150.56 0Q148.88 0 146.88-0.59L146.88-0.59L146.88-0.59Q144.88-1.19 143.17-2.55L143.17-2.55L143.17-2.55Q141.47-3.91 140.33-6.08L140.33-6.08L140.33-6.08Q139.19-8.25 139.19-11.41L139.19-11.41L139.19-22.41L139.19-22.41Q139.19-25.53 140.33-27.70L140.33-27.70L140.33-27.70Q141.47-29.88 143.17-31.23L143.17-31.23L143.17-31.23Q144.88-32.59 146.88-33.19L146.88-33.19L146.88-33.19Q148.88-33.78 150.56-33.78L150.56-33.78L165.22-33.78L165.22-33.78Q168.34-33.78 170.53-32.66L170.53-32.66L170.53-32.66Q172.72-31.53 174.06-29.83L174.06-29.83L174.06-29.83Q175.41-28.13 176.02-26.13L176.02-26.13L176.02-26.13Q176.63-24.13 176.63-22.41L176.63-22.41ZM168.50-11.41L168.50-22.34L168.50-22.34Q168.50-24.03 167.66-24.84L167.66-24.84L167.66-24.84Q166.81-25.66 165.22-25.66L165.22-25.66L150.63-25.66L150.63-25.66Q149-25.66 148.16-24.83L148.16-24.83L148.16-24.83Q147.31-24 147.31-22.41L147.31-22.41L147.31-11.41L147.31-11.41Q147.31-9.81 148.16-8.97L148.16-8.97L148.16-8.97Q149-8.13 150.63-8.13L150.63-8.13L165.22-8.13L165.22-8.13Q166.88-8.13 167.69-8.97L167.69-8.97L167.69-8.97Q168.50-9.81 168.50-11.41L168.50-11.41ZM254.22-44.81L262.47-44.81L254.97-2.81L254.97-2.81Q254.72-1.56 253.84-0.66L253.84-0.66L253.84-0.66Q252.97 0.25 251.72 0.50L251.72 0.50L251.72 0.50Q250.44 0.72 249.30 0.22L249.30 0.22L249.30 0.22Q248.16-0.28 247.50-1.34L247.50-1.34L232.63-25.78L217.72-1.34L217.72-1.34Q217.19-0.44 216.27 0.06L216.27 0.06L216.27 0.06Q215.34 0.56 214.28 0.56L214.28 0.56L214.28 0.56Q212.81 0.56 211.69-0.38L211.69-0.38L211.69-0.38Q210.56-1.31 210.31-2.81L210.31-2.81L202.75-44.81L211-44.81L216.38-15.22L229.19-35.66L229.19-35.66Q229.72-36.56 230.64-37.06L230.64-37.06L230.64-37.06Q231.56-37.56 232.63-37.56L232.63-37.56L232.63-37.56Q233.69-37.56 234.59-37.06L234.59-37.06L234.59-37.06Q235.50-36.56 236.09-35.66L236.09-35.66L248.84-15.22L254.22-44.81ZM304.38-22.41L304.38-11.41L304.38-11.41Q304.38-9.31 303.84-7.64L303.84-7.64L303.84-7.64Q303.31-5.97 302.44-4.70L302.44-4.70L302.44-4.70Q301.56-3.44 300.41-2.55L300.41-2.55L300.41-2.55Q299.25-1.66 297.98-1.09L297.98-1.09L297.98-1.09Q296.72-0.53 295.42-0.27L295.42-0.27L295.42-0.27Q294.13 0 292.97 0L292.97 0L278.31 0L278.31 0Q276.63 0 274.63-0.59L274.63-0.59L274.63-0.59Q272.63-1.19 270.92-2.55L270.92-2.55L270.92-2.55Q269.22-3.91 268.08-6.08L268.08-6.08L268.08-6.08Q266.94-8.25 266.94-11.41L266.94-11.41L266.94-22.41L266.94-22.41Q266.94-25.53 268.08-27.70L268.08-27.70L268.08-27.70Q269.22-29.88 270.92-31.23L270.92-31.23L270.92-31.23Q272.63-32.59 274.63-33.19L274.63-33.19L274.63-33.19Q276.63-33.78 278.31-33.78L278.31-33.78L292.97-33.78L292.97-33.78Q296.09-33.78 298.28-32.66L298.28-32.66L298.28-32.66Q300.47-31.53 301.81-29.83L301.81-29.83L301.81-29.83Q303.16-28.13 303.77-26.13L303.77-26.13L303.77-26.13Q304.38-24.13 304.38-22.41L304.38-22.41ZM296.25-11.41L296.25-22.34L296.25-22.34Q296.25-24.03 295.41-24.84L295.41-24.84L295.41-24.84Q294.56-25.66 292.97-25.66L292.97-25.66L278.38-25.66L278.38-25.66Q276.75-25.66 275.91-24.83L275.91-24.83L275.91-24.83Q275.06-24 275.06-22.41L275.06-22.41L275.06-11.41L275.06-11.41Q275.06-9.81 275.91-8.97L275.91-8.97L275.91-8.97Q276.75-8.13 278.38-8.13L278.38-8.13L292.97-8.13L292.97-8.13Q294.63-8.13 295.44-8.97L295.44-8.97L295.44-8.97Q296.25-9.81 296.25-11.41L296.25-11.41ZM340.84-33.78L340.84-25.66L322.56-25.66L322.56-25.66Q320.91-25.66 320.06-24.83L320.06-24.83L320.06-24.83Q319.22-24 319.22-22.41L319.22-22.41L319.22 0L311.09 0L311.09-22.41L311.09-22.41Q311.09-24.50 311.63-26.16L311.63-26.16L311.63-26.16Q312.16-27.81 313.05-29.08L313.05-29.08L313.05-29.08Q313.94-30.34 315.09-31.23L315.09-31.23L315.09-31.23Q316.25-32.13 317.52-32.69L317.52-32.69L317.52-32.69Q318.78-33.25 320.08-33.52L320.08-33.52L320.08-33.52Q321.38-33.78 322.50-33.78L322.50-33.78L340.84-33.78ZM361.03-8.13L361.03 0L357.41 0L357.41 0Q355.66 0 353.67-0.59L353.67-0.59L353.67-0.59Q351.69-1.19 349.97-2.55L349.97-2.55L349.97-2.55Q348.25-3.91 347.13-6.08L347.13-6.08L347.13-6.08Q346-8.25 346-11.41L346-11.41L346-48.06L354.13-48.06L354.13-11.41L354.13-11.41Q354.13-9.91 355.06-9.02L355.06-9.02L355.06-9.02Q356-8.13 357.41-8.13L357.41-8.13L361.03-8.13ZM403.31-48.06L403.31-11.41L403.31-11.41Q403.31-9.31 402.78-7.64L402.78-7.64L402.78-7.64Q402.25-5.97 401.38-4.70L401.38-4.70L401.38-4.70Q400.50-3.44 399.34-2.55L399.34-2.55L399.34-2.55Q398.19-1.66 396.92-1.09L396.92-1.09L396.92-1.09Q395.66-0.53 394.36-0.27L394.36-0.27L394.36-0.27Q393.06 0 391.91 0L391.91 0L377.25 0L377.25 0Q375.16 0 373.50-0.53L373.50-0.53L373.50-0.53Q371.84-1.06 370.58-1.95L370.58-1.95L370.58-1.95Q369.31-2.84 368.42-4L368.42-4L368.42-4Q367.53-5.16 366.97-6.42L366.97-6.42L366.97-6.42Q366.41-7.69 366.14-8.98L366.14-8.98L366.14-8.98Q365.88-10.28 365.88-11.41L365.88-11.41L365.88-22.41L365.88-22.41Q365.88-25.53 367.02-27.70L367.02-27.70L367.02-27.70Q368.16-29.88 369.86-31.23L369.86-31.23L369.86-31.23Q371.56-32.59 373.56-33.19L373.56-33.19L373.56-33.19Q375.56-33.78 377.25-33.78L377.25-33.78L391.91-33.78L391.91-25.66L377.31-25.66L377.31-25.66Q375.69-25.66 374.84-24.83L374.84-24.83L374.84-24.83Q374-24 374-22.41L374-22.41L374-11.47L374-11.47Q374-9.81 374.83-8.97L374.83-8.97L374.83-8.97Q375.66-8.13 377.25-8.13L377.25-8.13L391.91-8.13L391.91-8.13Q393.56-8.13 394.38-8.97L394.38-8.97L394.38-8.97Q395.19-9.81 395.19-11.41L395.19-11.41L395.19-48.06L403.31-48.06ZM420.28-44.81L418.38-11L412.78-11L410.88-44.81L420.28-44.81ZM419.66-4.09L419.66-4.09L419.66-4.09Q419.66-3.25 419.33-2.52L419.33-2.52L419.33-2.52Q419-1.78 418.45-1.23L418.45-1.23L418.45-1.23Q417.91-0.69 417.17-0.38L417.17-0.38L417.17-0.38Q416.44-0.06 415.63-0.06L415.63-0.06L415.63-0.06Q414.78-0.06 414.05-0.38L414.05-0.38L414.05-0.38Q413.31-0.69 412.77-1.23L412.77-1.23L412.77-1.23Q412.22-1.78 411.91-2.52L411.91-2.52L411.91-2.52Q411.59-3.25 411.59-4.09L411.59-4.09L411.59-4.09Q411.59-4.91 411.91-5.64L411.91-5.64L411.91-5.64Q412.22-6.38 412.77-6.92L412.77-6.92L412.77-6.92Q413.31-7.47 414.05-7.80L414.05-7.80L414.05-7.80Q414.78-8.13 415.63-8.13L415.63-8.13L415.63-8.13Q416.44-8.13 417.17-7.80L417.17-7.80L417.17-7.80Q417.91-7.47 418.45-6.92L418.45-6.92L418.45-6.92Q419-6.38 419.33-5.64L419.33-5.64L419.33-5.64Q419.66-4.91 419.66-4.09Z" fill="url(#editing-outline-gradient)"></path></g></g><style>text {
  font-size: 64px;
  font-family: Arial Black;
  dominant-baseline: central;
  text-anchor: middle;
}</style></svg>