<svg width="360.93505859375px" height="111.22625732421875px" xmlns="http://www.w3.org/2000/svg" viewBox="69.532470703125 19.386871337890625 360.93505859375 111.22625732421875" style="background: rgba(0, 0, 0, 0);" preserveAspectRatio="xMidYMid"><defs><filter id="editing-hole" x="-100%" y="-100%" width="300%" height="300%"><feFlood flood-color="#000000" result="black"></feFlood><feMorphology operator="dilate" radius="2" in="SourceGraphic" result="erode"></feMorphology><feGaussianBlur in="erode" stdDeviation="4" result="blur"></feGaussianBlur><feOffset in="blur" dx="2" dy="2" result="offset"></feOffset><feComposite operator="atop" in="offset" in2="black" result="merge"></feComposite><feComposite operator="in" in="merge" in2="SourceGraphic" result="inner-shadow"></feComposite></filter></defs><g filter="url(#editing-hole)"><g transform="translate(120.24999380111694, 104.90593719482422)"><path d="M22.08-33.12L22.08-33.12Q26.76-33.12 30.57-30.93L30.57-30.93L30.57-30.93Q34.38-28.74 36.57-24.90L36.57-24.90L36.57-24.90Q38.76-21.06 38.76-16.38L38.76-16.38L38.76-16.38Q38.76-11.70 36.63-7.89L36.63-7.89L36.63-7.89Q34.50-4.08 30.81-1.89L30.81-1.89L30.81-1.89Q27.12 0.30 22.56 0.30L22.56 0.30L22.56 0.30Q18.66 0.30 15.42-1.35L15.42-1.35L15.42-1.35Q12.18-3 10.08-5.88L10.08-5.88L10.08 11.70L10.08 11.70Q10.08 12.72 9.42 13.38L9.42 13.38L9.42 13.38Q8.76 14.04 7.74 14.04L7.74 14.04L7.74 14.04Q6.72 14.04 6.09 13.38L6.09 13.38L6.09 13.38Q5.46 12.72 5.46 11.70L5.46 11.70L5.46-1.74L5.46-1.74Q5.40-1.92 5.40-2.28L5.40-2.28L5.40-16.38L5.40-16.38Q5.40-21.06 7.59-24.90L7.59-24.90L7.59-24.90Q9.78-28.74 13.59-30.93L13.59-30.93L13.59-30.93Q17.40-33.12 22.08-33.12L22.08-33.12ZM22.08-3.90L22.08-3.90Q25.50-3.90 28.29-5.52L28.29-5.52L28.29-5.52Q31.08-7.14 32.67-9.99L32.67-9.99L32.67-9.99Q34.26-12.84 34.26-16.38L34.26-16.38L34.26-16.38Q34.26-19.92 32.67-22.77L32.67-22.77L32.67-22.77Q31.08-25.62 28.29-27.27L28.29-27.27L28.29-27.27Q25.50-28.92 22.08-28.92L22.08-28.92L22.08-28.92Q18.66-28.92 15.90-27.27L15.90-27.27L15.90-27.27Q13.14-25.62 11.55-22.77L11.55-22.77L11.55-22.77Q9.96-19.92 9.96-16.38L9.96-16.38L9.96-16.38Q9.96-15.36 10.02-14.88L10.02-14.88L10.02-14.88Q10.08-14.76 10.08-14.58L10.08-14.58L10.08-14.58Q10.68-9.90 14.01-6.90L14.01-6.90L14.01-6.90Q17.34-3.90 22.08-3.90L22.08-3.90ZM62.64-33.18L62.64-33.18Q65.16-33.18 66.63-32.52L66.63-32.52L66.63-32.52Q68.10-31.86 68.10-30.66L68.10-30.66L68.10-30.66Q68.10-30.30 68.04-30.12L68.04-30.12L68.04-30.12Q67.80-29.28 67.29-28.98L67.29-28.98L67.29-28.98Q66.78-28.68 65.88-28.68L65.88-28.68L65.88-28.68Q65.34-28.68 64.02-28.80L64.02-28.80L64.02-28.80Q63.54-28.86 62.58-28.86L62.58-28.86L62.58-28.86Q58.08-28.86 55.23-26.46L55.23-26.46L55.23-26.46Q52.38-24.06 52.38-20.22L52.38-20.22L52.38-2.28L52.38-2.28Q52.38-1.20 51.78-0.60L51.78-0.60L51.78-0.60Q51.18 0 50.10 0L50.10 0L50.10 0Q49.02 0 48.42-0.60L48.42-0.60L48.42-0.60Q47.82-1.20 47.82-2.28L47.82-2.28L47.82-30.54L47.82-30.54Q47.82-31.62 48.42-32.22L48.42-32.22L48.42-32.22Q49.02-32.82 50.10-32.82L50.10-32.82L50.10-32.82Q51.18-32.82 51.78-32.22L51.78-32.22L51.78-32.22Q52.38-31.62 52.38-30.54L52.38-30.54L52.38-27.90L52.38-27.90Q54.12-30.42 56.82-31.80L56.82-31.80L56.82-31.80Q59.52-33.18 62.64-33.18L62.64-33.18ZM90.24-33.12L90.24-33.12Q94.98-33.12 98.76-30.96L98.76-30.96L98.76-30.96Q102.54-28.80 104.73-24.96L104.73-24.96L104.73-24.96Q106.92-21.12 106.92-16.38L106.92-16.38L106.92-16.38Q106.92-11.64 104.76-7.83L104.76-7.83L104.76-7.83Q102.60-4.02 98.79-1.86L98.79-1.86L98.79-1.86Q94.98 0.30 90.24 0.30L90.24 0.30L90.24 0.30Q85.50 0.30 81.69-1.86L81.69-1.86L81.69-1.86Q77.88-4.02 75.72-7.83L75.72-7.83L75.72-7.83Q73.56-11.64 73.56-16.38L73.56-16.38L73.56-16.38Q73.56-21.12 75.72-24.96L75.72-24.96L75.72-24.96Q77.88-28.80 81.69-30.96L81.69-30.96L81.69-30.96Q85.50-33.12 90.24-33.12L90.24-33.12ZM90.24-28.92L90.24-28.92Q86.82-28.92 84.03-27.30L84.03-27.30L84.03-27.30Q81.24-25.68 79.65-22.83L79.65-22.83L79.65-22.83Q78.06-19.98 78.06-16.38L78.06-16.38L78.06-16.38Q78.06-12.84 79.65-9.99L79.65-9.99L79.65-9.99Q81.24-7.14 84.03-5.52L84.03-5.52L84.03-5.52Q86.82-3.90 90.24-3.90L90.24-3.90L90.24-3.90Q93.72-3.90 96.48-5.52L96.48-5.52L96.48-5.52Q99.24-7.14 100.80-9.99L100.80-9.99L100.80-9.99Q102.36-12.84 102.36-16.38L102.36-16.38L102.36-16.38Q102.36-19.98 100.80-22.83L100.80-22.83L100.80-22.83Q99.24-25.68 96.48-27.30L96.48-27.30L96.48-27.30Q93.72-28.92 90.24-28.92L90.24-28.92ZM121.26 0L121.26 0Q121.26 4.08 119.46 7.26L119.46 7.26L119.46 7.26Q117.66 10.44 114.48 12.24L114.48 12.24L114.48 12.24Q111.30 14.04 107.22 14.04L107.22 14.04L107.22 14.04Q106.20 14.04 105.54 13.38L105.54 13.38L105.54 13.38Q104.88 12.72 104.88 11.70L104.88 11.70L104.88 11.70Q104.88 10.68 105.54 10.02L105.54 10.02L105.54 10.02Q106.20 9.36 107.22 9.36L107.22 9.36L107.22 9.36Q111.36 9.36 114.00 6.72L114.00 6.72L114.00 6.72Q116.64 4.08 116.64 0L116.64 0L116.64-30.48L116.64-30.48Q116.64-31.50 117.27-32.16L117.27-32.16L117.27-32.16Q117.90-32.82 118.92-32.82L118.92-32.82L118.92-32.82Q119.94-32.82 120.60-32.16L120.60-32.16L120.60-32.16Q121.26-31.50 121.26-30.48L121.26-30.48L121.26 0ZM118.92-45.60L118.92-45.60Q120.24-45.60 121.20-44.70L121.20-44.70L121.20-44.70Q122.16-43.80 122.16-42.36L122.16-42.36L122.16-42.36Q122.16-40.98 121.20-40.02L121.20-40.02L121.20-40.02Q120.24-39.06 118.86-39.06L118.86-39.06L118.86-39.06Q117.48-39.06 116.55-40.02L116.55-40.02L116.55-40.02Q115.62-40.98 115.62-42.36L115.62-42.36L115.62-42.36Q115.62-43.80 116.58-44.70L116.58-44.70L116.58-44.70Q117.54-45.60 118.92-45.60L118.92-45.60ZM147-33.12L147-33.12Q151.44-33.12 154.86-31.05L154.86-31.05L154.86-31.05Q158.28-28.98 160.17-25.32L160.17-25.32L160.17-25.32Q162.06-21.66 162.06-16.98L162.06-16.98L162.06-16.98Q162.06-16.02 161.46-15.45L161.46-15.45L161.46-15.45Q160.86-14.88 159.90-14.88L159.90-14.88L135.66-14.88L135.66-14.88Q136.14-9.96 139.50-6.90L139.50-6.90L139.50-6.90Q142.86-3.84 147.90-3.84L147.90-3.84L147.90-3.84Q150.06-3.84 152.25-4.59L152.25-4.59L152.25-4.59Q154.44-5.34 155.76-6.48L155.76-6.48L155.76-6.48Q156.54-7.08 157.38-7.08L157.38-7.08L157.38-7.08Q158.04-7.08 158.70-6.60L158.70-6.60L158.70-6.60Q159.48-5.88 159.48-4.98L159.48-4.98L159.48-4.98Q159.48-4.20 158.82-3.60L158.82-3.60L158.82-3.60Q156.84-1.92 153.78-0.81L153.78-0.81L153.78-0.81Q150.72 0.30 147.90 0.30L147.90 0.30L147.90 0.30Q143.10 0.30 139.32-1.83L139.32-1.83L139.32-1.83Q135.54-3.96 133.41-7.77L133.41-7.77L133.41-7.77Q131.28-11.58 131.28-16.38L131.28-16.38L131.28-16.38Q131.28-21.24 133.29-25.05L133.29-25.05L133.29-25.05Q135.30-28.86 138.87-30.99L138.87-30.99L138.87-30.99Q142.44-33.12 147-33.12L147-33.12ZM147-28.98L147-28.98Q142.44-28.98 139.44-26.16L139.44-26.16L139.44-26.16Q136.44-23.34 135.78-18.72L135.78-18.72L157.74-18.72L157.74-18.72Q157.26-23.34 154.38-26.16L154.38-26.16L154.38-26.16Q151.50-28.98 147-28.98L147-28.98ZM183.90-33.12L183.90-33.12Q191.40-33.12 196.08-27.36L196.08-27.36L196.08-27.36Q196.56-26.82 196.56-26.10L196.56-26.10L196.56-26.10Q196.56-25.14 195.54-24.42L195.54-24.42L195.54-24.42Q195-24.06 194.40-24.06L194.40-24.06L194.40-24.06Q193.50-24.06 192.66-24.96L192.66-24.96L192.66-24.96Q190.86-26.94 188.70-27.93L188.70-27.93L188.70-27.93Q186.54-28.92 183.90-28.92L183.90-28.92L183.90-28.92Q180.60-28.92 178.02-27.33L178.02-27.33L178.02-27.33Q175.44-25.74 174.03-22.86L174.03-22.86L174.03-22.86Q172.62-19.98 172.62-16.38L172.62-16.38L172.62-16.38Q172.62-12.84 174.12-9.99L174.12-9.99L174.12-9.99Q175.62-7.14 178.32-5.52L178.32-5.52L178.32-5.52Q181.02-3.90 184.50-3.90L184.50-3.90L184.50-3.90Q189.30-3.90 192.24-6.48L192.24-6.48L192.24-6.48Q193.02-7.14 193.86-7.14L193.86-7.14L193.86-7.14Q194.58-7.14 195.18-6.66L195.18-6.66L195.18-6.66Q196.02-5.94 196.02-5.04L196.02-5.04L196.02-5.04Q196.02-4.26 195.42-3.72L195.42-3.72L195.42-3.72Q191.10 0.30 184.50 0.30L184.50 0.30L184.50 0.30Q179.82 0.30 176.10-1.89L176.10-1.89L176.10-1.89Q172.38-4.08 170.25-7.89L170.25-7.89L170.25-7.89Q168.12-11.70 168.12-16.38L168.12-16.38L168.12-16.38Q168.12-21.18 170.16-24.99L170.16-24.99L170.16-24.99Q172.20-28.80 175.80-30.96L175.80-30.96L175.80-30.96Q179.40-33.12 183.90-33.12L183.90-33.12ZM220.08-4.62L220.08-4.62Q221.04-4.62 221.64-3.96L221.64-3.96L221.64-3.96Q222.24-3.30 222.24-2.28L222.24-2.28L222.24-2.28Q222.24-1.32 221.52-0.66L221.52-0.66L221.52-0.66Q220.80 0 219.72 0L219.72 0L218.46 0L218.46 0Q215.28 0 212.76-1.53L212.76-1.53L212.76-1.53Q210.24-3.06 208.83-5.67L208.83-5.67L208.83-5.67Q207.42-8.28 207.42-11.58L207.42-11.58L207.42-27.60L203.52-27.60L203.52-27.60Q202.56-27.60 201.99-28.17L201.99-28.17L201.99-28.17Q201.42-28.74 201.42-29.58L201.42-29.58L201.42-29.58Q201.42-30.48 201.99-31.05L201.99-31.05L201.99-31.05Q202.56-31.62 203.52-31.62L203.52-31.62L207.42-31.62L207.42-40.92L207.42-40.92Q207.42-41.94 208.05-42.60L208.05-42.60L208.05-42.60Q208.68-43.26 209.70-43.26L209.70-43.26L209.70-43.26Q210.72-43.26 211.38-42.60L211.38-42.60L211.38-42.60Q212.04-41.94 212.04-40.92L212.04-40.92L212.04-31.62L218.82-31.62L218.82-31.62Q219.78-31.62 220.35-31.05L220.35-31.05L220.35-31.05Q220.92-30.48 220.92-29.58L220.92-29.58L220.92-29.58Q220.92-28.74 220.35-28.17L220.35-28.17L220.35-28.17Q219.78-27.60 218.82-27.60L218.82-27.60L212.04-27.60L212.04-11.58L212.04-11.58Q212.04-8.52 213.84-6.57L213.84-6.57L213.84-6.57Q215.64-4.62 218.46-4.62L218.46-4.62L220.08-4.62ZM241.08-33.12L241.08-33.12Q245.04-33.12 247.98-31.77L247.98-31.77L247.98-31.77Q250.92-30.42 252.72-28.02L252.72-28.02L252.72-28.02Q253.20-27.24 253.20-26.64L253.20-26.64L253.20-26.64Q253.20-25.62 252.24-25.02L252.24-25.02L252.24-25.02Q251.82-24.72 251.10-24.72L251.10-24.72L251.10-24.72Q249.84-24.72 249-25.62L249-25.62L249-25.62Q246.06-28.98 240.96-28.98L240.96-28.98L240.96-28.98Q237.66-28.98 235.68-27.63L235.68-27.63L235.68-27.63Q233.70-26.28 233.70-24.24L233.70-24.24L233.70-24.24Q233.70-22.08 235.56-20.79L235.56-20.79L235.56-20.79Q237.42-19.50 242.16-18.72L242.16-18.72L242.16-18.72Q248.58-17.64 251.34-15.21L251.34-15.21L251.34-15.21Q254.10-12.78 254.10-9.18L254.10-9.18L254.10-9.18Q254.10-6.42 252.45-4.26L252.45-4.26L252.45-4.26Q250.80-2.10 247.86-0.90L247.86-0.90L247.86-0.90Q244.92 0.30 241.20 0.30L241.20 0.30L241.20 0.30Q237.48 0.30 234.06-0.96L234.06-0.96L234.06-0.96Q230.64-2.22 228.54-4.50L228.54-4.50L228.54-4.50Q227.94-5.22 227.94-5.88L227.94-5.88L227.94-5.88Q227.94-6.90 228.90-7.68L228.90-7.68L228.90-7.68Q229.62-8.22 230.40-8.22L230.40-8.22L230.40-8.22Q231.42-8.22 232.14-7.38L232.14-7.38L232.14-7.38Q233.58-5.70 235.95-4.80L235.95-4.80L235.95-4.80Q238.32-3.90 241.20-3.90L241.20-3.90L241.20-3.90Q245.40-3.90 247.50-5.34L247.50-5.34L247.50-5.34Q249.60-6.78 249.66-9.12L249.66-9.12L249.66-9.12Q249.66-11.28 247.56-12.72L247.56-12.72L247.56-12.72Q245.46-14.16 240.90-14.88L240.90-14.88L240.90-14.88Q235.02-15.84 232.11-18.21L232.11-18.21L232.11-18.21Q229.20-20.58 229.20-23.94L229.20-23.94L229.20-23.94Q229.20-28.32 232.59-30.72L232.59-30.72L232.59-30.72Q235.98-33.12 241.08-33.12L241.08-33.12Z" fill="#000000"></path></g></g><style>text {
  font-size: 64px;
  font-family: Arial Black;
  dominant-baseline: central;
  text-anchor: middle;
}</style></svg>