<svg width="355.622509765625px" height="114.8175048828125px" xmlns="http://www.w3.org/2000/svg" viewBox="72.1887451171875 17.59124755859375 355.622509765625 114.8175048828125" style="background: rgba(0, 0, 0, 0);" preserveAspectRatio="xMidYMid"><defs><filter id="editing-hole" x="-100%" y="-100%" width="300%" height="300%"><feFlood flood-color="#000000" result="black"></feFlood><feMorphology operator="dilate" radius="2" in="SourceGraphic" result="erode"></feMorphology><feGaussianBlur in="erode" stdDeviation="4" result="blur"></feGaussianBlur><feOffset in="blur" dx="2" dy="2" result="offset"></feOffset><feComposite operator="atop" in="offset" in2="black" result="merge"></feComposite><feComposite operator="in" in="merge" in2="SourceGraphic" result="inner-shadow"></feComposite></filter></defs><g filter="url(#editing-hole)"><g transform="translate(124.32999467849731, 99.20000076293945)"><path d="M4.68 0L4.68-45L6.66-45L6.66-45Q13.74-45 17.70-41.25L17.70-41.25L17.70-41.25Q21.66-37.50 21.66-31.20L21.66-31.20L21.66-31.20Q21.66-26.82 19.74-23.43L19.74-23.43L19.74-23.43Q17.82-20.04 14.52-18.21L14.52-18.21L14.52-18.21Q11.22-16.38 7.14-16.38L7.14-16.38L6.66-16.38L6.66 0L4.68 0ZM6.66-18.12L7.26-18.12L7.26-18.12Q12.72-18.12 16.20-21.51L16.20-21.51L16.20-21.51Q19.68-24.90 19.68-31.08L19.68-31.08L19.68-31.08Q19.68-36.96 16.41-40.11L16.41-40.11L16.41-40.11Q13.14-43.26 7.14-43.26L7.14-43.26L6.66-43.26L6.66-18.12ZM28.50 0L28.50-45L31.08-45L31.08-45Q38.10-45 41.91-41.28L41.91-41.28L41.91-41.28Q45.72-37.56 45.72-30.66L45.72-30.66L45.72-30.66Q45.72-26.70 43.83-23.40L43.83-23.40L43.83-23.40Q41.94-20.10 38.70-18.21L38.70-18.21L38.70-18.21Q35.46-16.32 31.56-16.32L31.56-16.32L31.14-16.32L46.62 0L44.04 0L30.42-14.28L30.42 0L28.50 0ZM30.42-18.06L31.50-18.06L31.50-18.06Q34.92-18.06 37.74-19.74L37.74-19.74L37.74-19.74Q40.56-21.42 42.18-24.27L42.18-24.27L42.18-24.27Q43.80-27.12 43.80-30.60L43.80-30.60L43.80-30.60Q43.80-36.66 40.53-39.96L40.53-39.96L40.53-39.96Q37.26-43.26 31.20-43.26L31.20-43.26L30.42-43.26L30.42-18.06ZM74.76 1.20L74.76 1.20Q68.46 1.20 63.06-2.10L63.06-2.10L63.06-2.10Q57.66-5.40 54.51-10.89L54.51-10.89L54.51-10.89Q51.36-16.38 51.36-22.68L51.36-22.68L51.36-22.68Q51.36-28.92 54.54-34.35L54.54-34.35L54.54-34.35Q57.72-39.78 63.12-42.99L63.12-42.99L63.12-42.99Q68.52-46.20 74.82-46.20L74.82-46.20L74.82-46.20Q81.18-46.20 86.52-43.02L86.52-43.02L86.52-43.02Q91.86-39.84 95.01-34.41L95.01-34.41L95.01-34.41Q98.16-28.98 98.16-22.68L98.16-22.68L98.16-22.68Q98.16-16.20 95.01-10.71L95.01-10.71L95.01-10.71Q91.86-5.22 86.49-2.01L86.49-2.01L86.49-2.01Q81.12 1.20 74.76 1.20L74.76 1.20ZM74.76-0.54L74.76-0.54Q80.52-0.54 85.44-3.51L85.44-3.51L85.44-3.51Q90.36-6.48 93.27-11.55L93.27-11.55L93.27-11.55Q96.18-16.62 96.18-22.56L96.18-22.56L96.18-22.56Q96.18-28.44 93.30-33.48L93.30-33.48L93.30-33.48Q90.42-38.52 85.50-41.49L85.50-41.49L85.50-41.49Q80.58-44.46 74.82-44.46L74.82-44.46L74.82-44.46Q69-44.46 64.08-41.49L64.08-41.49L64.08-41.49Q59.16-38.52 56.25-33.48L56.25-33.48L56.25-33.48Q53.34-28.44 53.34-22.56L53.34-22.56L53.34-22.56Q53.34-16.62 56.25-11.55L56.25-11.55L56.25-11.55Q59.16-6.48 64.08-3.51L64.08-3.51L64.08-3.51Q69-0.54 74.76-0.54L74.76-0.54ZM111.54 0.90L111.54 0.90Q108.84 0.90 106.59 0.09L106.59 0.09L106.59 0.09Q104.34-0.72 102.24-2.52L102.24-2.52L102.24-4.98L102.24-4.98Q106.02-0.84 111.66-0.84L111.66-0.84L111.66-0.84Q116.82-0.84 119.70-4.05L119.70-4.05L119.70-4.05Q122.58-7.26 122.58-13.56L122.58-13.56L122.58-43.26L111.48-43.26L111.48-45L124.56-45L124.56-13.80L124.56-13.80Q124.56-6.60 121.08-2.85L121.08-2.85L121.08-2.85Q117.60 0.90 111.54 0.90L111.54 0.90ZM134.04 0L134.04-45L150.18-45L150.18-43.26L136.02-43.26L136.02-18.78L147.84-18.78L147.84-17.04L136.02-17.04L136.02-1.74L150.18-1.74L150.18 0L134.04 0ZM177.60 1.20L177.60 1.20Q171.30 1.20 166.02-1.89L166.02-1.89L166.02-1.89Q160.74-4.98 157.65-10.41L157.65-10.41L157.65-10.41Q154.56-15.84 154.56-22.62L154.56-22.62L154.56-22.62Q154.56-29.16 157.77-34.56L157.77-34.56L157.77-34.56Q160.98-39.96 166.35-43.08L166.35-43.08L166.35-43.08Q171.72-46.20 177.78-46.20L177.78-46.20L177.78-46.20Q181.98-46.20 184.44-45.45L184.44-45.45L184.44-45.45Q186.90-44.70 190.14-42.84L190.14-42.84L190.14-40.62L190.14-40.62Q187.08-42.72 184.47-43.59L184.47-43.59L184.47-43.59Q181.86-44.46 177.96-44.46L177.96-44.46L177.96-44.46Q172.02-44.46 167.13-41.43L167.13-41.43L167.13-41.43Q162.24-38.40 159.39-33.33L159.39-33.33L159.39-33.33Q156.54-28.26 156.54-22.44L156.54-22.44L156.54-22.44Q156.54-16.56 159.42-11.52L159.42-11.52L159.42-11.52Q162.30-6.48 167.07-3.51L167.07-3.51L167.07-3.51Q171.84-0.54 177.36-0.54L177.36-0.54L177.36-0.54Q181.32-0.54 184.26-1.47L184.26-1.47L184.26-1.47Q187.20-2.40 190.14-4.38L190.14-4.38L190.14-2.16L190.14-2.16Q187.26-0.42 184.23 0.39L184.23 0.39L184.23 0.39Q181.20 1.20 177.60 1.20L177.60 1.20ZM205.56 0L205.56-43.26L195.18-43.26L195.18-45L217.80-45L217.80-43.26L207.54-43.26L207.54 0L205.56 0ZM233.22 0.84L233.22 0.84Q225.72 0.84 221.58-5.34L221.58-5.34L221.58-8.58L221.58-8.58Q223.20-4.98 226.29-2.94L226.29-2.94L226.29-2.94Q229.38-0.90 233.70-0.90L233.70-0.90L233.70-0.90Q236.70-0.90 239.25-2.22L239.25-2.22L239.25-2.22Q241.80-3.54 243.30-5.94L243.30-5.94L243.30-5.94Q244.80-8.34 244.80-11.46L244.80-11.46L244.80-11.46Q244.80-14.28 243.84-16.32L243.84-16.32L243.84-16.32Q242.88-18.36 240.66-20.25L240.66-20.25L240.66-20.25Q238.44-22.14 234.24-24.72L234.24-24.72L232.32-25.92L232.32-25.92Q229.68-27.54 228.06-28.80L228.06-28.80L228.06-28.80Q226.44-30.06 225.24-31.74L225.24-31.74L225.24-31.74Q223.68-34.08 223.68-37.14L223.68-37.14L223.68-37.14Q223.68-41.22 226.32-43.50L226.32-43.50L226.32-43.50Q228.96-45.78 233.04-45.78L233.04-45.78L233.04-45.78Q238.56-45.78 241.80-41.70L241.80-41.70L241.80-38.64L241.80-38.64Q240.42-41.16 238.02-42.60L238.02-42.60L238.02-42.60Q235.62-44.04 232.74-44.04L232.74-44.04L232.74-44.04Q229.74-44.04 227.70-42.18L227.70-42.18L227.70-42.18Q225.66-40.32 225.66-37.20L225.66-37.20L225.66-37.20Q225.66-34.14 227.55-31.95L227.55-31.95L227.55-31.95Q229.44-29.76 233.94-27.18L233.94-27.18L233.94-27.18Q239.46-23.94 242.52-21.30L242.52-21.30L242.52-21.30Q244.68-19.32 245.67-16.92L245.67-16.92L245.67-16.92Q246.66-14.52 246.66-11.58L246.66-11.58L246.66-11.58Q246.66-7.86 244.92-5.04L244.92-5.04L244.92-5.04Q243.18-2.22 240.12-0.69L240.12-0.69L240.12-0.69Q237.06 0.84 233.22 0.84L233.22 0.84Z" fill="#000000"></path></g></g><style>text {
  font-size: 64px;
  font-family: Arial Black;
  dominant-baseline: central;
  text-anchor: middle;
}</style></svg>