<svg width="362.97499999999997px" height="153.21625976562498px" xmlns="http://www.w3.org/2000/svg" viewBox="68.51250000000002 -1.6081298828124915 362.97499999999997 153.21625976562498" style="background: rgba(0, 0, 0, 0);" preserveAspectRatio="xMidYMid"><defs><filter id="editing-hole" x="-100%" y="-100%" width="300%" height="300%"><feFlood flood-color="#000000" result="black"></feFlood><feMorphology operator="dilate" radius="2" in="SourceGraphic" result="erode"></feMorphology><feGaussianBlur in="erode" stdDeviation="4" result="blur"></feGaussianBlur><feOffset in="blur" dx="2" dy="2" result="offset"></feOffset><feComposite operator="atop" in="offset" in2="black" result="merge"></feComposite><feComposite operator="in" in="merge" in2="SourceGraphic" result="inner-shadow"></feComposite></filter></defs><g filter="url(#editing-hole)"><g transform="translate(122.60000514984131, 97.65156364440918)"><path d="M8.29 0L3.96 0L3.96-44.38L19.45-44.38L19.45-44.38Q26.34-44.38 29.59-38.94L29.59-38.94L29.59-38.94Q31.29-36.06 31.29-33.21L31.29-33.21L31.29-33.21Q31.29-30.35 30.64-28.23L30.64-28.23L30.64-28.23Q30-26.10 28.67-24.27L28.67-24.27L28.67-24.27Q27.33-22.44 24.96-21.36L24.96-21.36L24.96-21.36Q22.59-20.27 19.45-20.27L19.45-20.27L8.29-20.27L8.29 0ZM8.29-40.75L8.29-23.91L16.49-23.91L16.49-23.91Q21.24-23.91 24.10-25.99L24.10-25.99L24.10-25.99Q26.95-28.07 26.95-32.34L26.95-32.34L26.95-32.34Q26.95-36.62 24.08-38.69L24.08-38.69L24.08-38.69Q21.21-40.75 16.49-40.75L16.49-40.75L8.29-40.75ZM41.57 0L37.24 0L37.24-44.38L52.18-44.38L52.18-44.38Q59.18-44.38 62.67-38.94L62.67-38.94L62.67-38.94Q64.57-35.98 64.57-32.72L64.57-32.72L64.57-32.72Q64.57-28.80 62.70-25.55L62.70-25.55L62.70-25.55Q60.64-21.97 56.02-20.98L56.02-20.98L64.39 0L59.65 0L51.56-20.27L41.57-20.27L41.57 0ZM41.57-40.75L41.57-23.91L52.59-23.91L52.59-23.91Q55.66-23.91 57.83-25.84L57.83-25.84L57.83-25.84Q60.23-27.98 60.23-32.52L60.23-32.52L60.23-32.52Q60.23-38.55 53.73-40.25L53.73-40.25L53.73-40.25Q51.80-40.75 49.51-40.75L49.51-40.75L41.57-40.75ZM70.21-9.42L70.21-9.42L70.21-9.42Q68.88-12.33 68.26-15.51L68.26-15.51L68.26-15.51Q67.65-18.69 67.65-22.06L67.65-22.06L67.65-22.06Q67.65-25.43 68.20-28.62L68.20-28.62L68.20-28.62Q68.76-31.82 70.02-34.80L70.02-34.80L70.02-34.80Q71.28-37.79 73.14-40.00L73.14-40.00L73.14-40.00Q75-42.22 77.81-43.55L77.81-43.55L77.81-43.55Q80.63-44.88 84.01-44.88L84.01-44.88L84.01-44.88Q87.39-44.88 90.10-43.52L90.10-43.52L90.10-43.52Q92.81-42.16 94.61-39.92L94.61-39.92L94.61-39.92Q96.42-37.68 97.65-34.69L97.65-34.69L97.65-34.69Q99.96-29.06 99.96-22.03L99.96-22.03L99.96-22.03Q99.96-9.17 93.31-2.93L93.31-2.93L93.31-2.93Q89.71 0.47 84.08 0.47L84.08 0.47L84.08 0.47Q80.83 0.47 78.08-0.83L78.08-0.83L78.08-0.83Q75.32-2.14 73.43-4.32L73.43-4.32L73.43-4.32Q71.54-6.50 70.21-9.42ZM73.64-33.11L73.64-33.11L73.64-33.11Q72.74-30.62 72.36-27.88L72.36-27.88L72.36-27.88Q71.98-25.14 71.98-21.65L71.98-21.65L71.98-21.65Q71.98-18.16 72.67-14.87L72.67-14.87L72.67-14.87Q73.36-11.57 74.75-8.91L74.75-8.91L74.75-8.91Q76.14-6.24 78.53-4.70L78.53-4.70L78.53-4.70Q80.92-3.16 83.80-3.16L83.80-3.16L83.80-3.16Q86.69-3.16 88.75-4.32L88.75-4.32L88.75-4.32Q90.82-5.48 92.08-7.32L92.08-7.32L92.08-7.32Q93.34-9.17 94.16-11.72L94.16-11.72L94.16-11.72Q95.63-16.23 95.63-22.03L95.63-22.03L95.63-22.03Q95.63-31.67 92.08-36.97L92.08-36.97L92.08-36.97Q90.82-38.88 88.77-40.06L88.77-40.06L88.77-40.06Q86.72-41.25 84.08-41.25L84.08-41.25L84.08-41.25Q81.45-41.25 79.35-40.20L79.35-40.20L79.35-40.20Q77.26-39.14 75.89-37.37L75.89-37.37L75.89-37.37Q74.53-35.60 73.64-33.11ZM102.54-7.15L102.54-7.15L105.56-8.70L105.56-8.70Q106.26-6.83 108.13-5.10L108.13-5.10L108.13-5.10Q108.93-4.37 110.27-3.76L110.27-3.76L110.27-3.76Q111.62-3.16 113.12-3.16L113.12-3.16L113.12-3.16Q116.69-3.16 118.23-5.61L118.23-5.61L118.23-5.61Q119.77-8.06 119.77-12.57L119.77-12.57L119.77-44.38L124.10-44.38L124.10-12.57L124.10-12.57Q124.10-3.02 117.74-0.35L117.74-0.35L117.74-0.35Q115.72 0.47 113.26 0.47L113.26 0.47L113.26 0.47Q110.80 0.47 108.87-0.31L108.87-0.31L108.87-0.31Q106.93-1.08 105.85-2.07L105.85-2.07L105.85-2.07Q104.77-3.05 103.95-4.31L103.95-4.31L103.95-4.31Q102.77-6.09 102.54-7.15ZM157.18 0L132.01 0L132.01-44.38L156.06-44.38L156.06-40.75L136.35-40.75L136.35-25.14L150.50-25.14L150.50-21.50L136.35-21.50L136.35-3.90L157.18-3.90L157.18 0ZM161.16-13.02L161.16-13.02L161.16-13.02Q160.61-15.29 160.36-17.58L160.36-17.58L160.36-17.58Q160.11-19.86 160.11-22.72L160.11-22.72L160.11-22.72Q160.11-25.58 160.62-28.73L160.62-28.73L160.62-28.73Q161.13-31.88 162.33-34.85L162.33-34.85L162.33-34.85Q163.54-37.82 165.32-40.02L165.32-40.02L165.32-40.02Q167.11-42.22 169.82-43.55L169.82-43.55L169.82-43.55Q172.53-44.88 175.34-44.88L175.34-44.88L175.34-44.88Q178.15-44.88 180.13-44.17L180.13-44.17L180.13-44.17Q182.11-43.45 183.46-42.30L183.46-42.30L183.46-42.30Q184.80-41.16 185.92-39.77L185.92-39.77L185.92-39.77Q187.03-38.38 187.68-36.97L187.68-36.97L187.68-36.97Q189.02-34.07 189.35-32.58L189.35-32.58L189.52-31.88L189.52-31.85L185.07-30.64L185.07-30.64Q184.60-33.98 183.88-35.52L183.88-35.52L183.88-35.52Q183.16-37.06 182.45-38.04L182.45-38.04L182.45-38.04Q181.73-39.02 180.85-39.70L180.85-39.70L180.85-39.70Q178.77-41.25 175.87-41.25L175.87-41.25L175.87-41.25Q164.44-41.25 164.44-22.24L164.44-22.24L164.44-22.24Q164.44-14.09 166.85-8.94L166.85-8.94L166.85-8.94Q169.57-3.16 175.87-3.16L175.87-3.16L175.87-3.16Q181.03-3.16 183.90-7.21L183.90-7.21L183.90-7.21Q185.89-10.05 185.89-13.56L185.89-13.56L190.17-12.89L190.17-12.89Q190.05-12.57 189.62-11.31L189.62-11.31L189.62-11.31Q189.20-10.05 188.91-9.26L188.91-9.26L188.91-9.26Q188.61-8.47 187.95-7.10L187.95-7.10L187.95-7.10Q187.29-5.74 186.64-4.83L186.64-4.83L186.64-4.83Q185.98-3.93 184.88-2.83L184.88-2.83L184.88-2.83Q183.78-1.73 182.55-1.08L182.55-1.08L182.55-1.08Q179.59 0.47 176.48 0.47L176.48 0.47L176.48 0.47Q173.38 0.47 171.25-0.23L171.25-0.23L171.25-0.23Q169.13-0.94 167.55-2.15L167.55-2.15L167.55-2.15Q165.97-3.37 164.69-5.08L164.69-5.08L164.69-5.08Q163.42-6.80 162.57-8.77L162.57-8.77L162.57-8.77Q161.72-10.75 161.16-13.02ZM204.70-40.75L192.04-40.75L192.04-44.38L221.69-44.38L221.69-40.75L209.03-40.75L209.03 0L204.70 0L204.70-40.75ZM223.30-10.17L223.07-10.78L227.08-12.19L227.08-12.19Q227.11-12.19 227.21-11.69L227.21-11.69L227.21-11.69Q227.31-11.19 227.59-10.40L227.59-10.40L227.59-10.40Q227.87-9.61 228.34-8.64L228.34-8.64L228.34-8.64Q228.81-7.68 229.67-6.71L229.67-6.71L229.67-6.71Q230.54-5.74 231.68-4.95L231.68-4.95L231.68-4.95Q234.20-3.16 238.33-3.16L238.33-3.16L238.33-3.16Q242.46-3.16 244.48-5.42L244.48-5.42L244.48-5.42Q246.50-7.68 246.50-10.97L246.50-10.97L246.50-10.97Q246.50-14.27 245.23-16.16L245.23-16.16L245.23-16.16Q243.96-18.05 240.76-19.37L240.76-19.37L240.76-19.37Q239.82-19.75 238.30-20.27L238.30-20.27L235.52-21.24L235.52-21.24Q228.28-23.64 225.79-27.39L225.79-27.39L225.79-27.39Q224.06-30 224.06-33.49L224.06-33.49L224.06-33.49Q224.06-37.62 227.34-41.19L227.34-41.19L227.34-41.19Q228.90-42.83 231.30-43.86L231.30-43.86L231.30-43.86Q233.70-44.88 236.35-44.88L236.35-44.88L236.35-44.88Q239.00-44.88 241.04-44.17L241.04-44.17L241.04-44.17Q243.08-43.45 244.32-42.39L244.32-42.39L244.32-42.39Q245.57-41.34 246.56-39.96L246.56-39.96L246.56-39.96Q247.56-38.58 248.00-37.50L248.00-37.50L248.85-35.33L248.85-35.33Q249.23-34.31 249.32-34.13L249.32-34.13L245.51-32.67L245.51-32.67Q245.45-32.81 245.23-33.59L245.23-33.59L245.23-33.59Q245.01-34.37 244.85-34.86L244.85-34.86L244.85-34.86Q244.69-35.36 244.29-36.24L244.29-36.24L244.29-36.24Q243.90-37.12 243.47-37.72L243.47-37.72L243.47-37.72Q243.05-38.32 242.36-39.04L242.36-39.04L242.36-39.04Q241.67-39.76 240.88-40.20L240.88-40.20L240.88-40.20Q238.95-41.25 236.51-41.25L236.51-41.25L236.51-41.25Q232.91-41.25 230.65-39.13L230.65-39.13L230.65-39.13Q228.40-37.00 228.40-33.49L228.40-33.49L228.40-33.49Q228.40-29.65 230.39-28.10L230.39-28.10L230.39-28.10Q231.47-27.25 232.22-26.87L232.22-26.87L232.22-26.87Q232.97-26.48 233.98-26.12L233.98-26.12L233.98-26.12Q234.99-25.75 235.46-25.56L235.46-25.56L235.46-25.56Q235.93-25.37 237.30-24.96L237.30-24.96L239.77-24.20L239.77-24.20Q246.56-22.12 249.11-18.02L249.11-18.02L249.11-18.02Q250.84-15.23 250.84-11.28L250.84-11.28L250.84-11.28Q250.84-8.41 249.02-5.27L249.02-5.27L249.02-5.27Q246.77-1.29 242.17 0L242.17 0L242.17 0Q240.44 0.47 238.14 0.47L238.14 0.47L238.14 0.47Q235.84 0.47 233.61-0.15L233.61-0.15L233.61-0.15Q231.39-0.76 229.88-1.76L229.88-1.76L229.88-1.76Q228.37-2.75 227.15-3.96L227.15-3.96L227.15-3.96Q225.94-5.16 225.21-6.36L225.21-6.36L225.21-6.36Q223.86-8.55 223.30-10.17L223.30-10.17Z" fill="#000000"></path></g></g><style>text {
  font-size: 64px;
  font-family: Arial Black;
  dominant-baseline: central;
  text-anchor: middle;
}</style></svg>