<svg width="470.03251953125px" height="111.22625732421875px" xmlns="http://www.w3.org/2000/svg" viewBox="14.983740234375006 19.386871337890625 470.03251953125 111.22625732421875" style="background: rgba(0, 0, 0, 0);" preserveAspectRatio="xMidYMid"><defs><filter id="editing-hole" x="-100%" y="-100%" width="300%" height="300%"><feFlood flood-color="#000000" result="black"></feFlood><feMorphology operator="dilate" radius="2" in="SourceGraphic" result="erode"></feMorphology><feGaussianBlur in="erode" stdDeviation="4" result="blur"></feGaussianBlur><feOffset in="blur" dx="2" dy="2" result="offset"></feOffset><feComposite operator="atop" in="offset" in2="black" result="merge"></feComposite><feComposite operator="in" in="merge" in2="SourceGraphic" result="inner-shadow"></feComposite></filter></defs><g filter="url(#editing-hole)"><g transform="translate(82.53999328613281, 99.11593627929688)"><path d="M10.68-2.34L10.68-2.34Q10.68-1.32 10.02-0.66L10.02-0.66L10.02-0.66Q9.36 0 8.34 0L8.34 0L8.34 0Q7.32 0 6.66-0.66L6.66-0.66L6.66-0.66Q6-1.32 6-2.34L6-2.34L6-44.52L6-44.52Q6-45.54 6.66-46.20L6.66-46.20L6.66-46.20Q7.32-46.86 8.34-46.86L8.34-46.86L20.34-46.86L20.34-46.86Q24.72-46.86 28.17-44.91L28.17-44.91L28.17-44.91Q31.62-42.96 33.54-39.51L33.54-39.51L33.54-39.51Q35.46-36.06 35.46-31.62L35.46-31.62L35.46-31.62Q35.46-27.24 33.54-23.82L33.54-23.82L33.54-23.82Q31.62-20.40 28.17-18.48L28.17-18.48L28.17-18.48Q24.72-16.56 20.34-16.56L20.34-16.56L10.68-16.56L10.68-2.34ZM20.34-21.06L20.34-21.06Q23.40-21.06 25.80-22.41L25.80-22.41L25.80-22.41Q28.20-23.76 29.55-26.16L29.55-26.16L29.55-26.16Q30.90-28.56 30.90-31.62L30.90-31.62L30.90-31.62Q30.90-34.74 29.55-37.17L29.55-37.17L29.55-37.17Q28.20-39.60 25.80-40.98L25.80-40.98L25.80-40.98Q23.40-42.36 20.34-42.36L20.34-42.36L10.68-42.36L10.68-21.06L20.34-21.06ZM72-3.60L72-3.60Q72.54-2.70 72.54-1.98L72.54-1.98L72.54-1.98Q72.54-1.08 71.88-0.54L71.88-0.54L71.88-0.54Q71.22 0 70.14 0L70.14 0L70.14 0Q69.42 0 68.94-0.30L68.94-0.30L68.94-0.30Q68.46-0.60 68.10-1.20L68.10-1.20L57.30-18.36L56.28-18.36L47.40-18.36L47.40-2.34L47.40-2.34Q47.40-1.32 46.74-0.66L46.74-0.66L46.74-0.66Q46.08 0 45.06 0L45.06 0L45.06 0Q44.04 0 43.38-0.66L43.38-0.66L43.38-0.66Q42.72-1.32 42.72-2.34L42.72-2.34L42.72-44.52L42.72-44.52Q42.72-45.54 43.38-46.20L43.38-46.20L43.38-46.20Q44.04-46.86 45.06-46.86L45.06-46.86L56.28-46.86L56.28-46.86Q60.66-46.86 64.08-45.03L64.08-45.03L64.08-45.03Q67.50-43.20 69.45-39.90L69.45-39.90L69.45-39.90Q71.40-36.60 71.40-32.40L71.40-32.40L71.40-32.40Q71.40-27.78 68.91-24.30L68.91-24.30L68.91-24.30Q66.42-20.82 62.16-19.32L62.16-19.32L72-3.60ZM47.40-22.86L56.28-22.86L56.28-22.86Q59.28-22.86 61.71-24.09L61.71-24.09L61.71-24.09Q64.14-25.32 65.49-27.48L65.49-27.48L65.49-27.48Q66.84-29.64 66.84-32.40L66.84-32.40L66.84-32.40Q66.84-35.28 65.49-37.56L65.49-37.56L65.49-37.56Q64.14-39.84 61.74-41.10L61.74-41.10L61.74-41.10Q59.34-42.36 56.28-42.36L56.28-42.36L47.40-42.36L47.40-22.86ZM101.46-47.46L101.46-47.46Q108.24-47.46 113.73-44.34L113.73-44.34L113.73-44.34Q119.22-41.22 122.31-35.76L122.31-35.76L122.31-35.76Q125.40-30.30 125.40-23.46L125.40-23.46L125.40-23.46Q125.40-16.62 122.31-11.13L122.31-11.13L122.31-11.13Q119.22-5.64 113.73-2.52L113.73-2.52L113.73-2.52Q108.24 0.60 101.46 0.60L101.46 0.60L101.46 0.60Q94.62 0.60 89.16-2.52L89.16-2.52L89.16-2.52Q83.70-5.64 80.61-11.13L80.61-11.13L80.61-11.13Q77.52-16.62 77.52-23.46L77.52-23.46L77.52-23.46Q77.52-30.30 80.61-35.76L80.61-35.76L80.61-35.76Q83.70-41.22 89.16-44.34L89.16-44.34L89.16-44.34Q94.62-47.46 101.46-47.46L101.46-47.46ZM101.46-43.02L101.46-43.02Q95.94-43.02 91.53-40.44L91.53-40.44L91.53-40.44Q87.12-37.86 84.60-33.39L84.60-33.39L84.60-33.39Q82.08-28.92 82.08-23.46L82.08-23.46L82.08-23.46Q82.08-17.94 84.60-13.47L84.60-13.47L84.60-13.47Q87.12-9 91.53-6.42L91.53-6.42L91.53-6.42Q95.94-3.84 101.46-3.84L101.46-3.84L101.46-3.84Q106.92-3.84 111.33-6.42L111.33-6.42L111.33-6.42Q115.74-9 118.26-13.47L118.26-13.47L118.26-13.47Q120.78-17.94 120.78-23.46L120.78-23.46L120.78-23.46Q120.78-28.92 118.26-33.39L118.26-33.39L118.26-33.39Q115.74-37.86 111.33-40.44L111.33-40.44L111.33-40.44Q106.92-43.02 101.46-43.02L101.46-43.02ZM159.90-13.44L159.90-13.44Q159.90-9.54 158.04-6.33L158.04-6.33L158.04-6.33Q156.18-3.12 152.97-1.26L152.97-1.26L152.97-1.26Q149.76 0.60 145.86 0.60L145.86 0.60L145.86 0.60Q141.90 0.60 138.69-1.26L138.69-1.26L138.69-1.26Q135.48-3.12 133.62-6.33L133.62-6.33L133.62-6.33Q131.76-9.54 131.76-13.44L131.76-13.44L131.76-13.44Q131.76-14.46 132.42-15.12L132.42-15.12L132.42-15.12Q133.08-15.78 134.10-15.78L134.10-15.78L134.10-15.78Q135.12-15.78 135.78-15.12L135.78-15.12L135.78-15.12Q136.44-14.46 136.44-13.44L136.44-13.44L136.44-13.44Q136.44-10.74 137.70-8.55L137.70-8.55L137.70-8.55Q138.96-6.36 141.12-5.10L141.12-5.10L141.12-5.10Q143.28-3.84 145.86-3.84L145.86-3.84L145.86-3.84Q148.44-3.84 150.60-5.13L150.60-5.13L150.60-5.13Q152.76-6.42 153.99-8.61L153.99-8.61L153.99-8.61Q155.22-10.80 155.22-13.44L155.22-13.44L155.22-44.52L155.22-44.52Q155.22-45.54 155.91-46.20L155.91-46.20L155.91-46.20Q156.60-46.86 157.56-46.86L157.56-46.86L157.56-46.86Q158.58-46.86 159.24-46.20L159.24-46.20L159.24-46.20Q159.90-45.54 159.90-44.52L159.90-44.52L159.90-13.44ZM202.38-4.50L202.38-4.50Q203.40-4.50 204.06-3.87L204.06-3.87L204.06-3.87Q204.72-3.24 204.72-2.28L204.72-2.28L204.72-2.28Q204.72-1.32 204.06-0.66L204.06-0.66L204.06-0.66Q203.40 0 202.38 0L202.38 0L174.24 0L174.24 0Q173.28 0 172.59-0.69L172.59-0.69L172.59-0.69Q171.90-1.38 171.90-2.34L171.90-2.34L171.90-44.52L171.90-44.52Q171.90-45.54 172.59-46.20L172.59-46.20L172.59-46.20Q173.28-46.86 174.24-46.86L174.24-46.86L202.38-46.86L202.38-46.86Q203.40-46.86 204.06-46.20L204.06-46.20L204.06-46.20Q204.72-45.54 204.72-44.58L204.72-44.58L204.72-44.58Q204.72-43.62 204.06-42.99L204.06-42.99L204.06-42.99Q203.40-42.36 202.38-42.36L202.38-42.36L176.58-42.36L176.58-25.80L195.36-25.80L195.36-25.80Q196.38-25.80 197.04-25.14L197.04-25.14L197.04-25.14Q197.70-24.48 197.70-23.52L197.70-23.52L197.70-23.52Q197.70-22.56 197.01-21.90L197.01-21.90L197.01-21.90Q196.32-21.24 195.36-21.24L195.36-21.24L176.58-21.24L176.58-4.50L202.38-4.50ZM234.48-47.46L234.48-47.46Q238.80-47.46 242.34-46.20L242.34-46.20L242.34-46.20Q245.88-44.94 249.18-42.18L249.18-42.18L249.18-42.18Q249.84-41.70 249.84-40.80L249.84-40.80L249.84-40.80Q249.84-40.32 249.60-39.93L249.60-39.93L249.60-39.93Q249.36-39.54 248.94-39.36L248.94-39.36L248.94-39.36Q248.82-38.94 248.40-38.70L248.40-38.70L248.40-38.70Q247.98-38.46 247.50-38.46L247.50-38.46L247.50-38.46Q246.60-38.46 246-39L246-39L246-39Q243.66-41.10 240.90-42.06L240.90-42.06L240.90-42.06Q238.14-43.02 234.48-43.02L234.48-43.02L234.48-43.02Q229.44-43.02 225.12-40.35L225.12-40.35L225.12-40.35Q220.80-37.68 218.25-33.18L218.25-33.18L218.25-33.18Q215.70-28.68 215.70-23.46L215.70-23.46L215.70-23.46Q215.70-18.12 218.22-13.62L218.22-13.62L218.22-13.62Q220.74-9.12 225.06-6.48L225.06-6.48L225.06-6.48Q229.38-3.84 234.48-3.84L234.48-3.84L234.48-3.84Q241.02-3.84 246.30-8.04L246.30-8.04L246.30-8.04Q246.96-8.52 247.62-8.52L247.62-8.52L247.62-8.52Q248.52-8.52 249.18-7.89L249.18-7.89L249.18-7.89Q249.84-7.26 249.84-6.24L249.84-6.24L249.84-6.24Q249.84-5.28 249.18-4.56L249.18-4.56L249.18-4.56Q243.54 0.60 234.48 0.60L234.48 0.60L234.48 0.60Q228.12 0.60 222.78-2.64L222.78-2.64L222.78-2.64Q217.44-5.88 214.29-11.40L214.29-11.40L214.29-11.40Q211.14-16.92 211.14-23.46L211.14-23.46L211.14-23.46Q211.14-29.94 214.26-35.46L214.26-35.46L214.26-35.46Q217.38-40.98 222.72-44.22L222.72-44.22L222.72-44.22Q228.06-47.46 234.48-47.46L234.48-47.46ZM289.92-46.86L289.92-46.86Q290.88-46.86 291.48-46.26L291.48-46.26L291.48-46.26Q292.08-45.66 292.08-44.70L292.08-44.70L292.08-44.70Q292.08-43.80 291.48-43.20L291.48-43.20L291.48-43.20Q290.88-42.60 289.92-42.60L289.92-42.60L275.64-42.60L275.64-2.34L275.64-2.34Q275.64-1.38 274.98-0.69L274.98-0.69L274.98-0.69Q274.32 0 273.30 0L273.30 0L273.30 0Q272.34 0 271.65-0.69L271.65-0.69L271.65-0.69Q270.96-1.38 270.96-2.34L270.96-2.34L270.96-42.60L256.74-42.60L256.74-42.60Q255.78-42.60 255.18-43.20L255.18-43.20L255.18-43.20Q254.58-43.80 254.58-44.70L254.58-44.70L254.58-44.70Q254.58-45.66 255.18-46.26L255.18-46.26L255.18-46.26Q255.78-46.86 256.74-46.86L256.74-46.86L289.92-46.86ZM313.38-47.46L313.38-47.46Q318.12-47.46 321.72-45.36L321.72-45.36L321.72-45.36Q325.32-43.26 327.36-39.90L327.36-39.90L327.36-39.90Q327.78-39.24 327.78-38.46L327.78-38.46L327.78-38.46Q327.78-37.32 326.70-36.66L326.70-36.66L326.70-36.66Q326.22-36.42 325.62-36.42L325.62-36.42L325.62-36.42Q324.96-36.42 324.39-36.75L324.39-36.75L324.39-36.75Q323.82-37.08 323.46-37.68L323.46-37.68L323.46-37.68Q320.10-42.96 313.32-43.02L313.32-43.02L313.32-43.02Q308.46-43.02 305.64-40.98L305.64-40.98L305.64-40.98Q302.82-38.94 302.82-35.16L302.82-35.16L302.82-35.16Q302.82-28.14 314.16-26.64L314.16-26.64L314.16-26.64Q321.60-25.56 325.26-22.08L325.26-22.08L325.26-22.08Q328.92-18.60 328.92-12.90L328.92-12.90L328.92-12.90Q328.92-8.70 326.88-5.64L326.88-5.64L326.88-5.64Q324.84-2.58 321.30-0.99L321.30-0.99L321.30-0.99Q317.76 0.60 313.38 0.60L313.38 0.60L313.38 0.60Q307.68 0.60 303.27-1.83L303.27-1.83L303.27-1.83Q298.86-4.26 296.94-8.40L296.94-8.40L296.94-8.40Q296.70-8.82 296.70-9.36L296.70-9.36L296.70-9.36Q296.70-10.20 297.33-10.77L297.33-10.77L297.33-10.77Q297.96-11.34 299.04-11.34L299.04-11.34L299.04-11.34Q299.76-11.34 300.39-10.95L300.39-10.95L300.39-10.95Q301.02-10.56 301.32-9.84L301.32-9.84L301.32-9.84Q302.70-7.14 305.91-5.49L305.91-5.49L305.91-5.49Q309.12-3.84 313.38-3.84L313.38-3.84L313.38-3.84Q318.30-3.84 321.30-6.21L321.30-6.21L321.30-6.21Q324.30-8.58 324.30-12.84L324.30-12.84L324.30-12.84Q324.30-16.62 321.51-19.20L321.51-19.20L321.51-19.20Q318.72-21.78 313.14-22.50L313.14-22.50L313.14-22.50Q306.18-23.34 302.19-26.85L302.19-26.85L302.19-26.85Q298.20-30.36 298.20-35.46L298.20-35.46L298.20-35.46Q298.20-39.06 300.15-41.79L300.15-41.79L300.15-41.79Q302.10-44.52 305.55-45.99L305.55-45.99L305.55-45.99Q309-47.46 313.38-47.46L313.38-47.46Z" fill="#000000"></path></g></g><style>text {
  font-size: 64px;
  font-family: Arial Black;
  dominant-baseline: central;
  text-anchor: middle;
}</style></svg>