<svg width="450.86500244140626px" height="129.225048828125px" xmlns="http://www.w3.org/2000/svg" viewBox="24.56749877929687 10.387475585937494 450.86500244140626 129.225048828125" style="background: rgba(0, 0, 0, 0);" preserveAspectRatio="xMidYMid"><defs><filter id="editing-hole" x="-100%" y="-100%" width="300%" height="300%"><feFlood flood-color="#000000" result="black"></feFlood><feMorphology operator="dilate" radius="2" in="SourceGraphic" result="erode"></feMorphology><feGaussianBlur in="erode" stdDeviation="4" result="blur"></feGaussianBlur><feOffset in="blur" dx="2" dy="2" result="offset"></feOffset><feComposite operator="atop" in="offset" in2="black" result="merge"></feComposite><feComposite operator="in" in="merge" in2="SourceGraphic" result="inner-shadow"></feComposite></filter></defs><g filter="url(#editing-hole)"><g transform="translate(90.42999267578125, 97.16250038146973)"><path d="M7.50 0L7.50-41.76L21.06-41.76L21.06-41.76Q36.66-41.76 36.66-28.08L36.66-28.08L36.66-28.08Q36.66-21.18 32.79-17.55L32.79-17.55L32.79-17.55Q28.92-13.92 21.48-13.92L21.48-13.92L12.78-13.92L12.78 0L7.50 0ZM12.78-18.84L21.30-18.84L21.30-18.84Q26.46-18.84 28.71-20.94L28.71-20.94L28.71-20.94Q30.96-23.04 30.96-27.84L30.96-27.84L30.96-27.84Q30.96-32.64 28.71-34.68L28.71-34.68L28.71-34.68Q26.46-36.72 21.06-36.72L21.06-36.72L12.78-36.72L12.78-18.84ZM77.40 0L71.04 0L62.58-16.38L61.98-16.38L52.38-16.38L52.38 0L47.10 0L47.10-41.76L61.26-41.76L61.26-41.76Q68.76-41.76 72.42-38.61L72.42-38.61L72.42-38.61Q76.08-35.46 76.08-29.40L76.08-29.40L76.08-29.40Q76.08-24.90 74.10-21.78L74.10-21.78L74.10-21.78Q72.12-18.66 68.28-17.34L68.28-17.34L77.40 0ZM61.32-21.36L61.32-21.36Q66-21.36 68.19-23.19L68.19-23.19L68.19-23.19Q70.38-25.02 70.38-29.40L70.38-29.40L70.38-29.40Q70.38-33.42 68.19-35.07L68.19-35.07L68.19-35.07Q66-36.72 61.26-36.72L61.26-36.72L52.38-36.72L52.38-21.36L61.32-21.36ZM106.80 0.72L106.80 0.72Q100.74 0.72 96.45-1.98L96.45-1.98L96.45-1.98Q92.16-4.68 89.91-9.54L89.91-9.54L89.91-9.54Q87.66-14.40 87.66-20.88L87.66-20.88L87.66-20.88Q87.66-27.36 89.91-32.22L89.91-32.22L89.91-32.22Q92.16-37.08 96.45-39.78L96.45-39.78L96.45-39.78Q100.74-42.48 106.80-42.48L106.80-42.48L106.80-42.48Q112.86-42.48 117.15-39.78L117.15-39.78L117.15-39.78Q121.44-37.08 123.69-32.22L123.69-32.22L123.69-32.22Q125.94-27.36 125.94-20.88L125.94-20.88L125.94-20.88Q125.94-14.40 123.69-9.54L123.69-9.54L123.69-9.54Q121.44-4.68 117.15-1.98L117.15-1.98L117.15-1.98Q112.86 0.72 106.80 0.72L106.80 0.72ZM106.80-4.08L106.80-4.08Q113.52-4.08 116.88-8.61L116.88-8.61L116.88-8.61Q120.24-13.14 120.24-20.88L120.24-20.88L120.24-20.88Q120.24-28.62 116.88-33.15L116.88-33.15L116.88-33.15Q113.52-37.68 106.80-37.68L106.80-37.68L106.80-37.68Q100.08-37.68 96.72-33.15L96.72-33.15L96.72-33.15Q93.36-28.62 93.36-20.88L93.36-20.88L93.36-20.88Q93.36-13.14 96.72-8.61L96.72-8.61L96.72-8.61Q100.08-4.08 106.80-4.08L106.80-4.08ZM141.66 0.72L141.66 0.72Q137.82 0.72 134.82-1.26L134.82-1.26L134.82-6.54L134.82-6.54Q138-4.14 141.24-4.14L141.24-4.14L141.24-4.14Q144.18-4.14 145.23-6.45L145.23-6.45L145.23-6.45Q146.28-8.76 146.28-14.22L146.28-14.22L146.28-41.76L151.56-41.76L151.56-13.44L151.56-13.44Q151.56-6.12 149.25-2.70L149.25-2.70L149.25-2.70Q146.94 0.72 141.66 0.72L141.66 0.72ZM190.80-36.72L171.18-36.72L171.18-23.52L189.48-23.52L189.48-18.72L171.18-18.72L171.18-5.04L190.80-5.04L190.80 0L165.90 0L165.90-41.76L190.80-41.76L190.80-36.72ZM221.64 0.72L221.64 0.72Q215.58 0.72 211.35-1.98L211.35-1.98L211.35-1.98Q207.12-4.68 204.99-9.54L204.99-9.54L204.99-9.54Q202.86-14.40 202.86-20.88L202.86-20.88L202.86-20.88Q202.86-27.36 204.99-32.22L204.99-32.22L204.99-32.22Q207.12-37.08 211.35-39.78L211.35-39.78L211.35-39.78Q215.58-42.48 221.64-42.48L221.64-42.48L221.64-42.48Q224.94-42.48 228-41.67L228-41.67L228-41.67Q231.06-40.86 233.58-39.30L233.58-39.30L233.58-33.30L233.34-33.30L233.34-33.30Q231.36-35.22 228.36-36.39L228.36-36.39L228.36-36.39Q225.36-37.56 221.82-37.56L221.82-37.56L221.82-37.56Q214.98-37.56 211.77-33.12L211.77-33.12L211.77-33.12Q208.56-28.68 208.56-20.88L208.56-20.88L208.56-20.88Q208.56-13.02 211.77-8.58L211.77-8.58L211.77-8.58Q214.98-4.14 221.76-4.14L221.76-4.14L221.76-4.14Q225.18-4.14 228.21-5.28L228.21-5.28L228.21-5.28Q231.24-6.42 233.34-8.46L233.34-8.46L233.58-8.46L233.58-2.46L233.58-2.46Q231.06-0.90 228-0.09L228-0.09L228-0.09Q224.94 0.72 221.64 0.72L221.64 0.72ZM256.56 0L256.56-36.48L243.96-36.48L243.96-41.76L274.44-41.76L274.44-36.48L261.84-36.48L261.84 0L256.56 0ZM297.96 0.72L297.96 0.72Q294.48 0.72 290.70-0.18L290.70-0.18L290.70-0.18Q286.92-1.08 283.56-2.64L283.56-2.64L283.56-8.34L283.56-8.34Q287.52-6.18 290.91-5.16L290.91-5.16L290.91-5.16Q294.30-4.14 297.60-4.14L297.60-4.14L297.60-4.14Q301.74-4.14 304.02-6L304.02-6L304.02-6Q306.30-7.86 306.30-11.10L306.30-11.10L306.30-11.10Q306.30-13.32 305.04-14.82L305.04-14.82L305.04-14.82Q303.78-16.32 301.86-17.22L301.86-17.22L301.86-17.22Q299.94-18.12 296.70-19.20L296.70-19.20L296.70-19.20Q292.80-20.52 290.43-21.72L290.43-21.72L290.43-21.72Q288.06-22.92 286.38-25.14L286.38-25.14L286.38-25.14Q284.70-27.36 284.70-30.90L284.70-30.90L284.70-30.90Q284.70-36.18 288.54-39.33L288.54-39.33L288.54-39.33Q292.38-42.48 298.86-42.48L298.86-42.48L298.86-42.48Q305.16-42.48 310.44-39.78L310.44-39.78L310.44-34.26L310.44-34.26Q304.50-37.62 298.86-37.62L298.86-37.62L298.86-37.62Q294.72-37.62 292.38-35.97L292.38-35.97L292.38-35.97Q290.04-34.32 290.04-31.44L290.04-31.44L290.04-31.44Q290.04-29.46 291.24-28.14L291.24-28.14L291.24-28.14Q292.44-26.82 294.18-26.01L294.18-26.01L294.18-26.01Q295.92-25.20 299.10-24.06L299.10-24.06L299.10-24.06Q303.06-22.74 305.58-21.48L305.58-21.48L305.58-21.48Q308.10-20.22 309.87-17.82L309.87-17.82L309.87-17.82Q311.64-15.42 311.64-11.64L311.64-11.64L311.64-11.64Q311.64-7.92 309.96-5.13L309.96-5.13L309.96-5.13Q308.28-2.34 305.16-0.81L305.16-0.81L305.16-0.81Q302.04 0.72 297.96 0.72L297.96 0.72Z" fill="#cccccc"></path></g></g><style>text {
  font-size: 64px;
  font-family: Arial Black;
  dominant-baseline: central;
  text-anchor: middle;
}</style></svg>