<svg width="556.1374999999999px" height="156.807470703125px" xmlns="http://www.w3.org/2000/svg" viewBox="-28.068749999999966 -3.403735351562503 556.1374999999999 156.807470703125" style="background: rgba(0, 0, 0, 0);" preserveAspectRatio="xMidYMid"><defs><linearGradient id="editing-outline-gradient" x1="-0.41354545764260087" x2="1.4135454576426008" y1="0.09326335692419985" y2="0.9067366430758002"><stop offset="0" stop-color="#ee4208"></stop><stop offset="1" stop-color="#4139ff"></stop></linearGradient><filter id="editing-outline" x="-100%" y="-100%" width="300%" height="300%"><feMorphology in="SourceGraphic" operator="dilate" radius="1" result="outline"></feMorphology><feComposite operator="out" in="outline" in2="SourceAlpha"></feComposite></filter></defs><g filter="url(#editing-outline)"><g transform="translate(50.399996757507324, 112.44999694824219)"><path d="M28.90-64.20L28.90-64.20Q38.30-64.20 43.40-59.35L43.40-59.35L43.40-59.35Q48.50-54.50 48.50-45.40L48.50-45.40L48.50-45.40Q48.50-34.70 42.15-28.60L42.15-28.60L42.15-28.60Q35.80-22.50 24.60-22.50L24.60-22.50L17-22.50L17-20L17.40 0L9.30 0L9.80-19.30L9.30-64.10L28.90-64.20ZM27.60-29L27.60-29Q33.80-30 37.05-34L37.05-34L37.05-34Q40.30-38 40.30-44.70L40.30-44.70L40.30-44.70Q40.30-57.10 27.10-57.60L27.10-57.60L17.40-57.30L17.10-29.20L27.60-29ZM87.40-25.90L87.40-25.90Q94-15 104-1.90L104-1.90L103.90-0.90L103.90-0.90Q100.30 0.50 96.50 0.90L96.50 0.90L95.40 0.20L95.40 0.20Q87.20-12.10 80.70-23.80L80.70-23.80L69-23.80L69-20L69.40 0L61.30 0L61.80-19.30L61.30-64.10L80.90-64.20L80.90-64.20Q90.30-64.20 95.45-59.45L95.45-59.45L95.45-59.45Q100.60-54.70 100.60-45.90L100.60-45.90L100.60-45.90Q100.60-39.30 97.15-34.05L97.15-34.05L97.15-34.05Q93.70-28.80 87.40-25.90L87.40-25.90ZM69.40-57.30L69.10-30.60L81.10-30.30L81.10-30.30Q92.30-33.50 92.30-45.20L92.30-45.20L92.30-45.20Q92.30-51.30 89-54.35L89-54.35L89-54.35Q85.70-57.40 79.10-57.60L79.10-57.60L69.40-57.30ZM139-64.70L139-64.70Q152.20-64.70 159.25-56.60L159.25-56.60L159.25-56.60Q166.30-48.50 166.30-33.30L166.30-33.30L166.30-33.30Q166.30-16.90 158.80-8.05L158.80-8.05L158.80-8.05Q151.30 0.80 137.40 0.80L137.40 0.80L137.40 0.80Q124.40 0.80 117.35-7.60L117.35-7.60L117.35-7.60Q110.30-16 110.30-31.50L110.30-31.50L110.30-31.50Q110.30-47.50 117.75-56.10L117.75-56.10L117.75-56.10Q125.20-64.70 139-64.70L139-64.70ZM138.50-58.20L138.50-58.20Q118.50-58.20 118.50-32.40L118.50-32.40L118.50-32.40Q118.50-18.70 123.35-12.10L123.35-12.10L123.35-12.10Q128.20-5.50 138-5.50L138-5.50L138-5.50Q158-5.50 158-31.80L158-31.80L158-31.80Q158-45.20 153.15-51.70L153.15-51.70L153.15-51.70Q148.30-58.20 138.50-58.20L138.50-58.20ZM191.70-64.10L191.30-21.20L191.50-11.80L191.50-11.80Q191.50-4.20 187.70 0.75L187.70 0.75L187.70 0.75Q183.90 5.70 174.50 10.20L174.50 10.20L171.40 5.70L171.40 4.70L171.40 4.70Q178.30 1 181.20-2.60L181.20-2.60L181.20-2.60Q184.10-6.20 184.10-11.70L184.10-11.70L184.10-20.40L183.70-57.60L171.40-57.50L170.60-58.20L171.10-64.10L191.70-64.10ZM246.40-7L246.90-6.20L246.30 0L210.30 0L210.80-19.30L210.30-64.10L246.40-64.10L246.80-63.30L246.20-57.10L231.10-57.40L218.40-57.20L218.20-36.20L230.20-36L240.80-36.30L241.40-35.60L240.70-29.40L229.50-29.60L218.10-29.50L218-20L218.30-6.70L231-6.60L246.40-7ZM279.80-64.60L279.80-64.60Q289.90-64.60 297.30-59.80L297.30-59.80L295.70-52.50L294.80-52.30L294.80-52.30Q288.10-57.90 279.40-57.90L279.40-57.90L279.40-57.90Q269.90-57.90 264.80-51.35L264.80-51.35L264.80-51.35Q259.70-44.80 259.70-32.20L259.70-32.20L259.70-32.20Q259.70-19.50 264.80-12.80L264.80-12.80L264.80-12.80Q269.90-6.10 279.20-6.10L279.20-6.10L279.20-6.10Q283.60-6.10 287.95-7.70L287.95-7.70L287.95-7.70Q292.30-9.30 295.90-12.20L295.90-12.20L296.90-11.70L296.20-4.10L296.20-4.10Q287.50 0.70 278.50 0.70L278.50 0.70L278.50 0.70Q265.60 0.70 258.50-7.65L258.50-7.65L258.50-7.65Q251.40-16 251.40-31.50L251.40-31.50L251.40-31.50Q251.40-47.40 258.80-56L258.80-56L258.80-56Q266.20-64.60 279.80-64.60L279.80-64.60ZM345.90-64.10L346.50-63.30L345.90-57.10L334.70-57.70L328.20-57.70L327.90-20L328.20 0L320.10 0L320.70-19.30L320.20-57.70L313.70-57.70L302.30-57.10L301.80-57.90L302.40-64.10L345.90-64.10ZM373.70-64.60L373.70-64.60Q380.60-64.60 388-61.60L388-61.60L386.70-53.90L385.30-53.50L385.30-53.50Q382.40-55.70 379.15-56.90L379.15-56.90L379.15-56.90Q375.90-58.10 372.70-58.10L372.70-58.10L372.70-58.10Q369-58.10 366.25-56.60L366.25-56.60L366.25-56.60Q363.50-55.10 362.05-52.70L362.05-52.70L362.05-52.70Q360.60-50.30 360.60-47.70L360.60-47.70L360.60-47.70Q360.60-45 362.25-42.95L362.25-42.95L362.25-42.95Q363.90-40.90 366.40-39.40L366.40-39.40L366.40-39.40Q368.90-37.90 373.20-35.80L373.20-35.80L373.20-35.80Q378.60-33.30 381.90-31.15L381.90-31.15L381.90-31.15Q385.20-29 387.55-25.70L387.55-25.70L387.55-25.70Q389.90-22.40 389.90-17.70L389.90-17.70L389.90-17.70Q389.90-12.70 387.20-8.50L387.20-8.50L387.20-8.50Q384.50-4.30 379.60-1.80L379.60-1.80L379.60-1.80Q374.70 0.70 368.40 0.70L368.40 0.70L368.40 0.70Q364.20 0.70 359.65-0.45L359.65-0.45L359.65-0.45Q355.10-1.60 351.20-3.80L351.20-3.80L352.20-12L353.30-12.50L353.30-12.50Q356.80-9.10 361.05-7.45L361.05-7.45L361.05-7.45Q365.30-5.80 369.20-5.80L369.20-5.80L369.20-5.80Q373-5.80 375.95-7.30L375.95-7.30L375.95-7.30Q378.90-8.80 380.45-11.30L380.45-11.30L380.45-11.30Q382-13.80 382-16.60L382-16.60L382-16.60Q382-20.80 378.80-23.35L378.80-23.35L378.80-23.35Q375.60-25.90 369.10-28.90L369.10-28.90L369.10-28.90Q363.80-31.50 360.60-33.55L360.60-33.55L360.60-33.55Q357.40-35.60 355.10-38.85L355.10-38.85L355.10-38.85Q352.80-42.10 352.80-46.80L352.80-46.80L352.80-46.80Q352.80-51.70 355.45-55.80L355.45-55.80L355.45-55.80Q358.10-59.90 362.85-62.25L362.85-62.25L362.85-62.25Q367.60-64.60 373.70-64.60L373.70-64.60Z" fill="url(#editing-outline-gradient)"></path></g></g><style>text {
  font-size: 64px;
  font-family: Arial Black;
  dominant-baseline: central;
  text-anchor: middle;
}</style></svg>