<svg width="424.93994140625px" height="116.02878417968749px" xmlns="http://www.w3.org/2000/svg" viewBox="37.530029296875 16.985607910156254 424.93994140625 116.02878417968749" style="background: rgba(0, 0, 0, 0);" preserveAspectRatio="xMidYMid"><defs><filter id="editing-hole" x="-100%" y="-100%" width="300%" height="300%"><feFlood flood-color="#000000" result="black"></feFlood><feMorphology operator="dilate" radius="2" in="SourceGraphic" result="erode"></feMorphology><feGaussianBlur in="erode" stdDeviation="4" result="blur"></feGaussianBlur><feOffset in="blur" dx="2" dy="2" result="offset"></feOffset><feComposite operator="atop" in="offset" in2="black" result="merge"></feComposite><feComposite operator="in" in="merge" in2="SourceGraphic" result="inner-shadow"></feComposite></filter></defs><g filter="url(#editing-hole)"><g transform="translate(99.4900016784668, 96.60031318664551)"><path d="M9.54 0L5.34 0L5.34-42.60L22.98-42.60L22.98-42.60Q25.74-42.60 28.05-41.43L28.05-41.43L28.05-41.43Q30.36-40.26 32.04-38.37L32.04-38.37L32.04-38.37Q33.72-36.48 34.68-34.08L34.68-34.08L34.68-34.08Q35.64-31.68 35.64-29.22L35.64-29.22L35.64-29.22Q35.64-26.58 34.74-24.15L34.74-24.15L34.74-24.15Q33.84-21.72 32.22-19.86L32.22-19.86L32.22-19.86Q30.60-18 28.35-16.86L28.35-16.86L28.35-16.86Q26.10-15.72 23.34-15.72L23.34-15.72L9.54-15.72L9.54 0ZM9.54-38.88L9.54-19.44L23.16-19.44L23.16-19.44Q25.02-19.44 26.55-20.25L26.55-20.25L26.55-20.25Q28.08-21.06 29.16-22.41L29.16-22.41L29.16-22.41Q30.24-23.76 30.84-25.53L30.84-25.53L30.84-25.53Q31.44-27.30 31.44-29.22L31.44-29.22L31.44-29.22Q31.44-31.20 30.75-32.97L30.75-32.97L30.75-32.97Q30.06-34.74 28.89-36.06L28.89-36.06L28.89-36.06Q27.72-37.38 26.13-38.13L26.13-38.13L26.13-38.13Q24.54-38.88 22.80-38.88L22.80-38.88L9.54-38.88ZM46.86 0L42.66 0L42.66-42.60L60.66-42.60L60.66-42.60Q63.42-42.60 65.73-41.43L65.73-41.43L65.73-41.43Q68.04-40.26 69.72-38.37L69.72-38.37L69.72-38.37Q71.40-36.48 72.33-34.08L72.33-34.08L72.33-34.08Q73.26-31.68 73.26-29.22L73.26-29.22L73.26-29.22Q73.26-26.88 72.57-24.75L72.57-24.75L72.57-24.75Q71.88-22.62 70.65-20.91L70.65-20.91L70.65-20.91Q69.42-19.20 67.68-18.03L67.68-18.03L67.68-18.03Q65.94-16.86 63.78-16.44L63.78-16.44L74.22 0L69.48 0L59.46-15.72L46.86-15.72L46.86 0ZM46.86-38.88L46.86-19.44L60.78-19.44L60.78-19.44Q62.64-19.44 64.17-20.25L64.17-20.25L64.17-20.25Q65.70-21.06 66.78-22.44L66.78-22.44L66.78-22.44Q67.86-23.82 68.46-25.56L68.46-25.56L68.46-25.56Q69.06-27.30 69.06-29.22L69.06-29.22L69.06-29.22Q69.06-31.14 68.37-32.91L68.37-32.91L68.37-32.91Q67.68-34.68 66.51-36L66.51-36L66.51-36Q65.34-37.32 63.75-38.10L63.75-38.10L63.75-38.10Q62.16-38.88 60.42-38.88L60.42-38.88L46.86-38.88ZM99 0.30L99 0.30L99 0.30Q94.56 0.30 90.87-1.53L90.87-1.53L90.87-1.53Q87.18-3.36 84.54-6.39L84.54-6.39L84.54-6.39Q81.90-9.42 80.46-13.32L80.46-13.32L80.46-13.32Q79.02-17.22 79.02-21.30L79.02-21.30L79.02-21.30Q79.02-25.56 80.55-29.46L80.55-29.46L80.55-29.46Q82.08-33.36 84.78-36.36L84.78-36.36L84.78-36.36Q87.48-39.36 91.14-41.13L91.14-41.13L91.14-41.13Q94.80-42.90 99.06-42.90L99.06-42.90L99.06-42.90Q103.50-42.90 107.19-41.01L107.19-41.01L107.19-41.01Q110.88-39.12 113.49-36.06L113.49-36.06L113.49-36.06Q116.10-33 117.54-29.13L117.54-29.13L117.54-29.13Q118.98-25.26 118.98-21.24L118.98-21.24L118.98-21.24Q118.98-16.98 117.45-13.08L117.45-13.08L117.45-13.08Q115.92-9.18 113.25-6.21L113.25-6.21L113.25-6.21Q110.58-3.24 106.92-1.47L106.92-1.47L106.92-1.47Q103.26 0.30 99 0.30ZM83.22-21.30L83.22-21.30L83.22-21.30Q83.22-17.82 84.36-14.61L84.36-14.61L84.36-14.61Q85.50-11.40 87.60-8.91L87.60-8.91L87.60-8.91Q89.70-6.42 92.58-4.95L92.58-4.95L92.58-4.95Q95.46-3.48 99-3.48L99-3.48L99-3.48Q102.60-3.48 105.54-5.04L105.54-5.04L105.54-5.04Q108.48-6.60 110.52-9.12L110.52-9.12L110.52-9.12Q112.56-11.64 113.67-14.82L113.67-14.82L113.67-14.82Q114.78-18 114.78-21.30L114.78-21.30L114.78-21.30Q114.78-24.78 113.61-27.99L113.61-27.99L113.61-27.99Q112.44-31.20 110.34-33.66L110.34-33.66L110.34-33.66Q108.24-36.12 105.36-37.59L105.36-37.59L105.36-37.59Q102.48-39.06 99-39.06L99-39.06L99-39.06Q95.40-39.06 92.46-37.53L92.46-37.53L92.46-37.53Q89.52-36 87.48-33.48L87.48-33.48L87.48-33.48Q85.44-30.96 84.33-27.78L84.33-27.78L84.33-27.78Q83.22-24.60 83.22-21.30ZM120.30-1.98L121.50-5.34L121.50-5.34Q122.82-4.44 124.89-3.78L124.89-3.78L124.89-3.78Q126.96-3.12 129.54-3.12L129.54-3.12L129.54-3.12Q132.78-3.12 134.73-4.29L134.73-4.29L134.73-4.29Q136.68-5.46 137.70-7.74L137.70-7.74L137.70-7.74Q138.72-10.02 139.02-13.35L139.02-13.35L139.02-13.35Q139.32-16.68 139.32-20.94L139.32-20.94L139.32-42.60L143.52-42.60L143.52-20.94L143.52-20.94Q143.52-16.08 143.07-12.09L143.07-12.09L143.07-12.09Q142.62-8.10 141.18-5.28L141.18-5.28L141.18-5.28Q139.74-2.46 136.98-0.90L136.98-0.90L136.98-0.90Q134.22 0.66 129.54 0.66L129.54 0.66L129.54 0.66Q124.14 0.66 120.30-1.98L120.30-1.98ZM157.86-3.72L182.28-3.72L182.28 0L153.66 0L153.66-42.60L181.74-42.60L181.74-38.88L157.86-38.88L157.86-23.52L178.68-23.52L178.68-19.98L157.86-19.98L157.86-3.72ZM186.48-21.60L186.48-21.60L186.48-21.60Q186.48-25.44 187.83-29.25L187.83-29.25L187.83-29.25Q189.18-33.06 191.76-36.06L191.76-36.06L191.76-36.06Q194.34-39.06 198.12-40.95L198.12-40.95L198.12-40.95Q201.90-42.84 206.70-42.84L206.70-42.84L206.70-42.84Q212.40-42.84 216.45-40.26L216.45-40.26L216.45-40.26Q220.50-37.68 222.42-33.54L222.42-33.54L219.12-31.50L219.12-31.50Q218.10-33.60 216.63-35.04L216.63-35.04L216.63-35.04Q215.16-36.48 213.48-37.38L213.48-37.38L213.48-37.38Q211.80-38.28 210.00-38.67L210.00-38.67L210.00-38.67Q208.20-39.06 206.46-39.06L206.46-39.06L206.46-39.06Q202.62-39.06 199.68-37.50L199.68-37.50L199.68-37.50Q196.74-35.94 194.73-33.42L194.73-33.42L194.73-33.42Q192.72-30.90 191.70-27.75L191.70-27.75L191.70-27.75Q190.68-24.60 190.68-21.36L190.68-21.36L190.68-21.36Q190.68-17.82 191.91-14.58L191.91-14.58L191.91-14.58Q193.14-11.34 195.27-8.85L195.27-8.85L195.27-8.85Q197.40-6.36 200.31-4.89L200.31-4.89L200.31-4.89Q203.22-3.42 206.64-3.42L206.64-3.42L206.64-3.42Q208.44-3.42 210.33-3.87L210.33-3.87L210.33-3.87Q212.22-4.32 213.99-5.31L213.99-5.31L213.99-5.31Q215.76-6.30 217.26-7.77L217.26-7.77L217.26-7.77Q218.76-9.24 219.78-11.34L219.78-11.34L223.26-9.54L223.26-9.54Q222.24-7.14 220.38-5.31L220.38-5.31L220.38-5.31Q218.52-3.48 216.24-2.22L216.24-2.22L216.24-2.22Q213.96-0.96 211.41-0.30L211.41-0.30L211.41-0.30Q208.86 0.36 206.40 0.36L206.40 0.36L206.40 0.36Q202.02 0.36 198.36-1.56L198.36-1.56L198.36-1.56Q194.70-3.48 192.06-6.57L192.06-6.57L192.06-6.57Q189.42-9.66 187.95-13.59L187.95-13.59L187.95-13.59Q186.48-17.52 186.48-21.60ZM260.28-42.60L260.28-38.88L245.10-38.88L245.10 0L240.90 0L240.90-38.88L225.72-38.88L225.72-42.60L260.28-42.60ZM293.58-37.98L291.54-34.62L291.54-34.62Q289.74-36.66 286.74-37.92L286.74-37.92L286.74-37.92Q283.74-39.18 279.90-39.18L279.90-39.18L279.90-39.18Q274.26-39.18 271.68-37.05L271.68-37.05L271.68-37.05Q269.10-34.92 269.10-31.26L269.10-31.26L269.10-31.26Q269.10-29.34 269.79-28.11L269.79-28.11L269.79-28.11Q270.48-26.88 271.92-25.98L271.92-25.98L271.92-25.98Q273.36-25.08 275.61-24.42L275.61-24.42L275.61-24.42Q277.86-23.76 280.92-23.10L280.92-23.10L280.92-23.10Q284.34-22.38 287.07-21.48L287.07-21.48L287.07-21.48Q289.80-20.58 291.72-19.23L291.72-19.23L291.72-19.23Q293.64-17.88 294.66-15.96L294.66-15.96L294.66-15.96Q295.68-14.04 295.68-11.16L295.68-11.16L295.68-11.16Q295.68-8.22 294.54-6.06L294.54-6.06L294.54-6.06Q293.40-3.90 291.36-2.46L291.36-2.46L291.36-2.46Q289.32-1.02 286.50-0.33L286.50-0.33L286.50-0.33Q283.68 0.36 280.32 0.36L280.32 0.36L280.32 0.36Q270.42 0.36 263.22-5.82L263.22-5.82L265.32-9.24L265.32-9.24Q266.46-8.04 268.05-6.96L268.05-6.96L268.05-6.96Q269.64-5.88 271.59-5.07L271.59-5.07L271.59-5.07Q273.54-4.26 275.76-3.81L275.76-3.81L275.76-3.81Q277.98-3.36 280.44-3.36L280.44-3.36L280.44-3.36Q285.54-3.36 288.39-5.19L288.39-5.19L288.39-5.19Q291.24-7.02 291.24-10.74L291.24-10.74L291.24-10.74Q291.24-12.72 290.43-14.07L290.43-14.07L290.43-14.07Q289.62-15.42 288-16.41L288-16.41L288-16.41Q286.38-17.40 283.98-18.12L283.98-18.12L283.98-18.12Q281.58-18.84 278.40-19.56L278.40-19.56L278.40-19.56Q275.04-20.34 272.52-21.18L272.52-21.18L272.52-21.18Q270-22.02 268.26-23.28L268.26-23.28L268.26-23.28Q266.52-24.54 265.65-26.31L265.65-26.31L265.65-26.31Q264.78-28.08 264.78-30.66L264.78-30.66L264.78-30.66Q264.78-33.60 265.89-35.91L265.89-35.91L265.89-35.91Q267-38.22 269.04-39.75L269.04-39.75L269.04-39.75Q271.08-41.28 273.84-42.09L273.84-42.09L273.84-42.09Q276.60-42.90 279.96-42.90L279.96-42.90L279.96-42.90Q284.22-42.90 287.55-41.61L287.55-41.61L287.55-41.61Q290.88-40.32 293.58-37.98L293.58-37.98Z" fill="#000000"></path></g></g><style>text {
  font-size: 64px;
  font-family: Arial Black;
  dominant-baseline: central;
  text-anchor: middle;
}</style></svg>