<svg width="341.682470703125px" height="101.621240234375px" xmlns="http://www.w3.org/2000/svg" viewBox="79.15876464843751 24.189379882812503 341.682470703125 101.621240234375" style="background: rgba(0, 0, 0, 0);" preserveAspectRatio="xMidYMid"><defs><linearGradient id="editing-outline-gradient" x1="-0.41354545764260087" x2="1.4135454576426008" y1="0.09326335692419985" y2="0.9067366430758002"><stop offset="0" stop-color="#ee4208"></stop><stop offset="1" stop-color="#4139ff"></stop></linearGradient><filter id="editing-outline" x="-100%" y="-100%" width="300%" height="300%"><feMorphology in="SourceGraphic" operator="dilate" radius="1" result="outline"></feMorphology><feComposite operator="out" in="outline" in2="SourceAlpha"></feComposite></filter></defs><g filter="url(#editing-outline)"><g transform="translate(130.23999977111816, 97.82156181335449)"><path d="M17.34-38.52L17.34-38.52Q22.98-38.52 26.04-35.61L26.04-35.61L26.04-35.61Q29.10-32.70 29.10-27.24L29.10-27.24L29.10-27.24Q29.10-20.82 25.29-17.16L25.29-17.16L25.29-17.16Q21.48-13.50 14.76-13.50L14.76-13.50L10.20-13.50L10.20-12L10.44 0L5.58 0L5.88-11.58L5.58-38.46L17.34-38.52ZM16.56-17.40L16.56-17.40Q20.28-18 22.23-20.40L22.23-20.40L22.23-20.40Q24.18-22.80 24.18-26.82L24.18-26.82L24.18-26.82Q24.18-34.26 16.26-34.56L16.26-34.56L10.44-34.38L10.26-17.52L16.56-17.40ZM52.44-15.54L52.44-15.54Q56.40-9 62.40-1.14L62.40-1.14L62.34-0.54L62.34-0.54Q60.18 0.30 57.90 0.54L57.90 0.54L57.24 0.12L57.24 0.12Q52.32-7.26 48.42-14.28L48.42-14.28L41.40-14.28L41.40-12L41.64 0L36.78 0L37.08-11.58L36.78-38.46L48.54-38.52L48.54-38.52Q54.18-38.52 57.27-35.67L57.27-35.67L57.27-35.67Q60.36-32.82 60.36-27.54L60.36-27.54L60.36-27.54Q60.36-23.58 58.29-20.43L58.29-20.43L58.29-20.43Q56.22-17.28 52.44-15.54L52.44-15.54ZM41.64-34.38L41.46-18.36L48.66-18.18L48.66-18.18Q55.38-20.10 55.38-27.12L55.38-27.12L55.38-27.12Q55.38-30.78 53.40-32.61L53.40-32.61L53.40-32.61Q51.42-34.44 47.46-34.56L47.46-34.56L41.64-34.38ZM83.40-38.82L83.40-38.82Q91.32-38.82 95.55-33.96L95.55-33.96L95.55-33.96Q99.78-29.10 99.78-19.98L99.78-19.98L99.78-19.98Q99.78-10.14 95.28-4.83L95.28-4.83L95.28-4.83Q90.78 0.48 82.44 0.48L82.44 0.48L82.44 0.48Q74.64 0.48 70.41-4.56L70.41-4.56L70.41-4.56Q66.18-9.60 66.18-18.90L66.18-18.90L66.18-18.90Q66.18-28.50 70.65-33.66L70.65-33.66L70.65-33.66Q75.12-38.82 83.40-38.82L83.40-38.82ZM83.10-34.92L83.10-34.92Q71.10-34.92 71.10-19.44L71.10-19.44L71.10-19.44Q71.10-11.22 74.01-7.26L74.01-7.26L74.01-7.26Q76.92-3.30 82.80-3.30L82.80-3.30L82.80-3.30Q94.80-3.30 94.80-19.08L94.80-19.08L94.80-19.08Q94.80-27.12 91.89-31.02L91.89-31.02L91.89-31.02Q88.98-34.92 83.10-34.92L83.10-34.92ZM115.02-38.46L114.78-12.72L114.90-7.08L114.90-7.08Q114.90-2.52 112.62 0.45L112.62 0.45L112.62 0.45Q110.34 3.42 104.70 6.12L104.70 6.12L102.84 3.42L102.84 2.82L102.84 2.82Q106.98 0.60 108.72-1.56L108.72-1.56L108.72-1.56Q110.46-3.72 110.46-7.02L110.46-7.02L110.46-12.24L110.22-34.56L102.84-34.50L102.36-34.92L102.66-38.46L115.02-38.46ZM147.84-4.20L148.14-3.72L147.78 0L126.18 0L126.48-11.58L126.18-38.46L147.84-38.46L148.08-37.98L147.72-34.26L138.66-34.44L131.04-34.32L130.92-21.72L138.12-21.60L144.48-21.78L144.84-21.36L144.42-17.64L137.70-17.76L130.86-17.70L130.80-12L130.98-4.02L138.60-3.96L147.84-4.20ZM167.88-38.76L167.88-38.76Q173.94-38.76 178.38-35.88L178.38-35.88L177.42-31.50L176.88-31.38L176.88-31.38Q172.86-34.74 167.64-34.74L167.64-34.74L167.64-34.74Q161.94-34.74 158.88-30.81L158.88-30.81L158.88-30.81Q155.82-26.88 155.82-19.32L155.82-19.32L155.82-19.32Q155.82-11.70 158.88-7.68L158.88-7.68L158.88-7.68Q161.94-3.66 167.52-3.66L167.52-3.66L167.52-3.66Q170.16-3.66 172.77-4.62L172.77-4.62L172.77-4.62Q175.38-5.58 177.54-7.32L177.54-7.32L178.14-7.02L177.72-2.46L177.72-2.46Q172.50 0.42 167.10 0.42L167.10 0.42L167.10 0.42Q159.36 0.42 155.10-4.59L155.10-4.59L155.10-4.59Q150.84-9.60 150.84-18.90L150.84-18.90L150.84-18.90Q150.84-28.44 155.28-33.60L155.28-33.60L155.28-33.60Q159.72-38.76 167.88-38.76L167.88-38.76ZM207.54-38.46L207.90-37.98L207.54-34.26L200.82-34.62L196.92-34.62L196.74-12L196.92 0L192.06 0L192.42-11.58L192.12-34.62L188.22-34.62L181.38-34.26L181.08-34.74L181.44-38.46L207.54-38.46ZM224.22-38.76L224.22-38.76Q228.36-38.76 232.80-36.96L232.80-36.96L232.02-32.34L231.18-32.10L231.18-32.10Q229.44-33.42 227.49-34.14L227.49-34.14L227.49-34.14Q225.54-34.86 223.62-34.86L223.62-34.86L223.62-34.86Q221.40-34.86 219.75-33.96L219.75-33.96L219.75-33.96Q218.10-33.06 217.23-31.62L217.23-31.62L217.23-31.62Q216.36-30.18 216.36-28.62L216.36-28.62L216.36-28.62Q216.36-27 217.35-25.77L217.35-25.77L217.35-25.77Q218.34-24.54 219.84-23.64L219.84-23.64L219.84-23.64Q221.34-22.74 223.92-21.48L223.92-21.48L223.92-21.48Q227.16-19.98 229.14-18.69L229.14-18.69L229.14-18.69Q231.12-17.40 232.53-15.42L232.53-15.42L232.53-15.42Q233.94-13.44 233.94-10.62L233.94-10.62L233.94-10.62Q233.94-7.62 232.32-5.10L232.32-5.10L232.32-5.10Q230.70-2.58 227.76-1.08L227.76-1.08L227.76-1.08Q224.82 0.42 221.04 0.42L221.04 0.42L221.04 0.42Q218.52 0.42 215.79-0.27L215.79-0.27L215.79-0.27Q213.06-0.96 210.72-2.28L210.72-2.28L211.32-7.20L211.98-7.50L211.98-7.50Q214.08-5.46 216.63-4.47L216.63-4.47L216.63-4.47Q219.18-3.48 221.52-3.48L221.52-3.48L221.52-3.48Q223.80-3.48 225.57-4.38L225.57-4.38L225.57-4.38Q227.34-5.28 228.27-6.78L228.27-6.78L228.27-6.78Q229.20-8.28 229.20-9.96L229.20-9.96L229.20-9.96Q229.20-12.48 227.28-14.01L227.28-14.01L227.28-14.01Q225.36-15.54 221.46-17.34L221.46-17.34L221.46-17.34Q218.28-18.90 216.36-20.13L216.36-20.13L216.36-20.13Q214.44-21.36 213.06-23.31L213.06-23.31L213.06-23.31Q211.68-25.26 211.68-28.08L211.68-28.08L211.68-28.08Q211.68-31.02 213.27-33.48L213.27-33.48L213.27-33.48Q214.86-35.94 217.71-37.35L217.71-37.35L217.71-37.35Q220.56-38.76 224.22-38.76L224.22-38.76Z" fill="url(#editing-outline-gradient)"></path></g></g><style>text {
  font-size: 64px;
  font-family: Arial Black;
  dominant-baseline: central;
  text-anchor: middle;
}</style></svg>