<svg width="582.0200439453125px" height="111.22625732421875px" xmlns="http://www.w3.org/2000/svg" viewBox="-41.01002197265626 19.386871337890625 582.0200439453125 111.22625732421875" style="background: rgba(0, 0, 0, 0);" preserveAspectRatio="xMidYMid"><defs><filter id="editing-hole" x="-100%" y="-100%" width="300%" height="300%"><feFlood flood-color="#000000" result="black"></feFlood><feMorphology operator="dilate" radius="2" in="SourceGraphic" result="erode"></feMorphology><feGaussianBlur in="erode" stdDeviation="4" result="blur"></feGaussianBlur><feOffset in="blur" dx="2" dy="2" result="offset"></feOffset><feComposite operator="atop" in="offset" in2="black" result="merge"></feComposite><feComposite operator="in" in="merge" in2="SourceGraphic" result="inner-shadow"></feComposite></filter></defs><g filter="url(#editing-hole)"><g transform="translate(42.279998779296875, 99.11593627929688)"><path d="M35.28-3.60L35.28-3.60Q35.82-2.70 35.82-1.98L35.82-1.98L35.82-1.98Q35.82-1.08 35.16-0.54L35.16-0.54L35.16-0.54Q34.50 0 33.42 0L33.42 0L33.42 0Q32.70 0 32.22-0.30L32.22-0.30L32.22-0.30Q31.74-0.60 31.38-1.20L31.38-1.20L20.58-18.36L19.56-18.36L10.68-18.36L10.68-2.34L10.68-2.34Q10.68-1.32 10.02-0.66L10.02-0.66L10.02-0.66Q9.36 0 8.34 0L8.34 0L8.34 0Q7.32 0 6.66-0.66L6.66-0.66L6.66-0.66Q6-1.32 6-2.34L6-2.34L6-44.52L6-44.52Q6-45.54 6.66-46.20L6.66-46.20L6.66-46.20Q7.32-46.86 8.34-46.86L8.34-46.86L19.56-46.86L19.56-46.86Q23.94-46.86 27.36-45.03L27.36-45.03L27.36-45.03Q30.78-43.20 32.73-39.90L32.73-39.90L32.73-39.90Q34.68-36.60 34.68-32.40L34.68-32.40L34.68-32.40Q34.68-27.78 32.19-24.30L32.19-24.30L32.19-24.30Q29.70-20.82 25.44-19.32L25.44-19.32L35.28-3.60ZM10.68-22.86L19.56-22.86L19.56-22.86Q22.56-22.86 24.99-24.09L24.99-24.09L24.99-24.09Q27.42-25.32 28.77-27.48L28.77-27.48L28.77-27.48Q30.12-29.64 30.12-32.40L30.12-32.40L30.12-32.40Q30.12-35.28 28.77-37.56L28.77-37.56L28.77-37.56Q27.42-39.84 25.02-41.10L25.02-41.10L25.02-41.10Q22.62-42.36 19.56-42.36L19.56-42.36L10.68-42.36L10.68-22.86ZM73.56-4.50L73.56-4.50Q74.58-4.50 75.24-3.87L75.24-3.87L75.24-3.87Q75.90-3.24 75.90-2.28L75.90-2.28L75.90-2.28Q75.90-1.32 75.24-0.66L75.24-0.66L75.24-0.66Q74.58 0 73.56 0L73.56 0L45.42 0L45.42 0Q44.46 0 43.77-0.69L43.77-0.69L43.77-0.69Q43.08-1.38 43.08-2.34L43.08-2.34L43.08-44.52L43.08-44.52Q43.08-45.54 43.77-46.20L43.77-46.20L43.77-46.20Q44.46-46.86 45.42-46.86L45.42-46.86L73.56-46.86L73.56-46.86Q74.58-46.86 75.24-46.20L75.24-46.20L75.24-46.20Q75.90-45.54 75.90-44.58L75.90-44.58L75.90-44.58Q75.90-43.62 75.24-42.99L75.24-42.99L75.24-42.99Q74.58-42.36 73.56-42.36L73.56-42.36L47.76-42.36L47.76-25.80L66.54-25.80L66.54-25.80Q67.56-25.80 68.22-25.14L68.22-25.14L68.22-25.14Q68.88-24.48 68.88-23.52L68.88-23.52L68.88-23.52Q68.88-22.56 68.19-21.90L68.19-21.90L68.19-21.90Q67.50-21.24 66.54-21.24L66.54-21.24L47.76-21.24L47.76-4.50L73.56-4.50ZM104.34-25.80L104.34-25.80Q105.36-25.80 106.02-25.17L106.02-25.17L106.02-25.17Q106.68-24.54 106.68-23.52L106.68-23.52L106.68-23.52Q106.68-22.56 106.02-21.90L106.02-21.90L106.02-21.90Q105.36-21.24 104.34-21.24L104.34-21.24L85.56-21.24L85.56-2.34L85.56-2.34Q85.56-1.38 84.90-0.69L84.90-0.69L84.90-0.69Q84.24 0 83.22 0L83.22 0L83.22 0Q82.26 0 81.57-0.69L81.57-0.69L81.57-0.69Q80.88-1.38 80.88-2.34L80.88-2.34L80.88-44.52L80.88-44.52Q80.88-45.54 81.57-46.20L81.57-46.20L81.57-46.20Q82.26-46.86 83.22-46.86L83.22-46.86L111.36-46.86L111.36-46.86Q112.38-46.86 113.04-46.20L113.04-46.20L113.04-46.20Q113.70-45.54 113.70-44.58L113.70-44.58L113.70-44.58Q113.70-43.62 113.04-42.99L113.04-42.99L113.04-42.99Q112.38-42.36 111.36-42.36L111.36-42.36L85.56-42.36L85.56-25.80L104.34-25.80ZM152.58-4.50L152.58-4.50Q153.60-4.50 154.26-3.87L154.26-3.87L154.26-3.87Q154.92-3.24 154.92-2.28L154.92-2.28L154.92-2.28Q154.92-1.32 154.26-0.66L154.26-0.66L154.26-0.66Q153.60 0 152.58 0L152.58 0L124.44 0L124.44 0Q123.48 0 122.79-0.69L122.79-0.69L122.79-0.69Q122.10-1.38 122.10-2.34L122.10-2.34L122.10-44.52L122.10-44.52Q122.10-45.54 122.79-46.20L122.79-46.20L122.79-46.20Q123.48-46.86 124.44-46.86L124.44-46.86L152.58-46.86L152.58-46.86Q153.60-46.86 154.26-46.20L154.26-46.20L154.26-46.20Q154.92-45.54 154.92-44.58L154.92-44.58L154.92-44.58Q154.92-43.62 154.26-42.99L154.26-42.99L154.26-42.99Q153.60-42.36 152.58-42.36L152.58-42.36L126.78-42.36L126.78-25.80L145.56-25.80L145.56-25.80Q146.58-25.80 147.24-25.14L147.24-25.14L147.24-25.14Q147.90-24.48 147.90-23.52L147.90-23.52L147.90-23.52Q147.90-22.56 147.21-21.90L147.21-21.90L147.21-21.90Q146.52-21.24 145.56-21.24L145.56-21.24L126.78-21.24L126.78-4.50L152.58-4.50ZM192.90-3.60L192.90-3.60Q193.44-2.70 193.44-1.98L193.44-1.98L193.44-1.98Q193.44-1.08 192.78-0.54L192.78-0.54L192.78-0.54Q192.12 0 191.04 0L191.04 0L191.04 0Q190.32 0 189.84-0.30L189.84-0.30L189.84-0.30Q189.36-0.60 189-1.20L189-1.20L178.20-18.36L177.18-18.36L168.30-18.36L168.30-2.34L168.30-2.34Q168.30-1.32 167.64-0.66L167.64-0.66L167.64-0.66Q166.98 0 165.96 0L165.96 0L165.96 0Q164.94 0 164.28-0.66L164.28-0.66L164.28-0.66Q163.62-1.32 163.62-2.34L163.62-2.34L163.62-44.52L163.62-44.52Q163.62-45.54 164.28-46.20L164.28-46.20L164.28-46.20Q164.94-46.86 165.96-46.86L165.96-46.86L177.18-46.86L177.18-46.86Q181.56-46.86 184.98-45.03L184.98-45.03L184.98-45.03Q188.40-43.20 190.35-39.90L190.35-39.90L190.35-39.90Q192.30-36.60 192.30-32.40L192.30-32.40L192.30-32.40Q192.30-27.78 189.81-24.30L189.81-24.30L189.81-24.30Q187.32-20.82 183.06-19.32L183.06-19.32L192.90-3.60ZM168.30-22.86L177.18-22.86L177.18-22.86Q180.18-22.86 182.61-24.09L182.61-24.09L182.61-24.09Q185.04-25.32 186.39-27.48L186.39-27.48L186.39-27.48Q187.74-29.64 187.74-32.40L187.74-32.40L187.74-32.40Q187.74-35.28 186.39-37.56L186.39-37.56L186.39-37.56Q185.04-39.84 182.64-41.10L182.64-41.10L182.64-41.10Q180.24-42.36 177.18-42.36L177.18-42.36L168.30-42.36L168.30-22.86ZM231.18-4.50L231.18-4.50Q232.20-4.50 232.86-3.87L232.86-3.87L232.86-3.87Q233.52-3.24 233.52-2.28L233.52-2.28L233.52-2.28Q233.52-1.32 232.86-0.66L232.86-0.66L232.86-0.66Q232.20 0 231.18 0L231.18 0L203.04 0L203.04 0Q202.08 0 201.39-0.69L201.39-0.69L201.39-0.69Q200.70-1.38 200.70-2.34L200.70-2.34L200.70-44.52L200.70-44.52Q200.70-45.54 201.39-46.20L201.39-46.20L201.39-46.20Q202.08-46.86 203.04-46.86L203.04-46.86L231.18-46.86L231.18-46.86Q232.20-46.86 232.86-46.20L232.86-46.20L232.86-46.20Q233.52-45.54 233.52-44.58L233.52-44.58L233.52-44.58Q233.52-43.62 232.86-42.99L232.86-42.99L232.86-42.99Q232.20-42.36 231.18-42.36L231.18-42.36L205.38-42.36L205.38-25.80L224.16-25.80L224.16-25.80Q225.18-25.80 225.84-25.14L225.84-25.14L225.84-25.14Q226.50-24.48 226.50-23.52L226.50-23.52L226.50-23.52Q226.50-22.56 225.81-21.90L225.81-21.90L225.81-21.90Q225.12-21.24 224.16-21.24L224.16-21.24L205.38-21.24L205.38-4.50L231.18-4.50ZM275.04-44.52L275.04-44.52Q275.04-45.54 275.73-46.20L275.73-46.20L275.73-46.20Q276.42-46.86 277.38-46.86L277.38-46.86L277.38-46.86Q278.40-46.86 279.06-46.20L279.06-46.20L279.06-46.20Q279.72-45.54 279.72-44.52L279.72-44.52L279.72-2.34L279.72-2.34Q279.72-1.38 279.06-0.69L279.06-0.69L279.06-0.69Q278.40 0 277.38 0L277.38 0L277.38 0Q276.18 0 275.64-0.78L275.64-0.78L246.90-38.46L246.90-2.34L246.90-2.34Q246.90-1.38 246.24-0.69L246.24-0.69L246.24-0.69Q245.58 0 244.56 0L244.56 0L244.56 0Q243.54 0 242.88-0.66L242.88-0.66L242.88-0.66Q242.22-1.32 242.22-2.34L242.22-2.34L242.22-44.52L242.22-44.52Q242.22-45.54 242.88-46.20L242.88-46.20L242.88-46.20Q243.54-46.86 244.56-46.86L244.56-46.86L244.56-46.86Q245.64-46.86 246.36-46.02L246.36-46.02L275.04-8.34L275.04-44.52ZM312.78-47.46L312.78-47.46Q317.10-47.46 320.64-46.20L320.64-46.20L320.64-46.20Q324.18-44.94 327.48-42.18L327.48-42.18L327.48-42.18Q328.14-41.70 328.14-40.80L328.14-40.80L328.14-40.80Q328.14-40.32 327.90-39.93L327.90-39.93L327.90-39.93Q327.66-39.54 327.24-39.36L327.24-39.36L327.24-39.36Q327.12-38.94 326.70-38.70L326.70-38.70L326.70-38.70Q326.28-38.46 325.80-38.46L325.80-38.46L325.80-38.46Q324.90-38.46 324.30-39L324.30-39L324.30-39Q321.96-41.10 319.20-42.06L319.20-42.06L319.20-42.06Q316.44-43.02 312.78-43.02L312.78-43.02L312.78-43.02Q307.74-43.02 303.42-40.35L303.42-40.35L303.42-40.35Q299.10-37.68 296.55-33.18L296.55-33.18L296.55-33.18Q294.00-28.68 294.00-23.46L294.00-23.46L294.00-23.46Q294.00-18.12 296.52-13.62L296.52-13.62L296.52-13.62Q299.04-9.12 303.36-6.48L303.36-6.48L303.36-6.48Q307.68-3.84 312.78-3.84L312.78-3.84L312.78-3.84Q319.32-3.84 324.60-8.04L324.60-8.04L324.60-8.04Q325.26-8.52 325.92-8.52L325.92-8.52L325.92-8.52Q326.82-8.52 327.48-7.89L327.48-7.89L327.48-7.89Q328.14-7.26 328.14-6.24L328.14-6.24L328.14-6.24Q328.14-5.28 327.48-4.56L327.48-4.56L327.48-4.56Q321.84 0.60 312.78 0.60L312.78 0.60L312.78 0.60Q306.42 0.60 301.08-2.64L301.08-2.64L301.08-2.64Q295.74-5.88 292.59-11.40L292.59-11.40L292.59-11.40Q289.44-16.92 289.44-23.46L289.44-23.46L289.44-23.46Q289.44-29.94 292.56-35.46L292.56-35.46L292.56-35.46Q295.68-40.98 301.02-44.22L301.02-44.22L301.02-44.22Q306.36-47.46 312.78-47.46L312.78-47.46ZM368.46-4.50L368.46-4.50Q369.48-4.50 370.14-3.87L370.14-3.87L370.14-3.87Q370.80-3.24 370.80-2.28L370.80-2.28L370.80-2.28Q370.80-1.32 370.14-0.66L370.14-0.66L370.14-0.66Q369.48 0 368.46 0L368.46 0L340.32 0L340.32 0Q339.36 0 338.67-0.69L338.67-0.69L338.67-0.69Q337.98-1.38 337.98-2.34L337.98-2.34L337.98-44.52L337.98-44.52Q337.98-45.54 338.67-46.20L338.67-46.20L338.67-46.20Q339.36-46.86 340.32-46.86L340.32-46.86L368.46-46.86L368.46-46.86Q369.48-46.86 370.14-46.20L370.14-46.20L370.14-46.20Q370.80-45.54 370.80-44.58L370.80-44.58L370.80-44.58Q370.80-43.62 370.14-42.99L370.14-42.99L370.14-42.99Q369.48-42.36 368.46-42.36L368.46-42.36L342.66-42.36L342.66-25.80L361.44-25.80L361.44-25.80Q362.46-25.80 363.12-25.14L363.12-25.14L363.12-25.14Q363.78-24.48 363.78-23.52L363.78-23.52L363.78-23.52Q363.78-22.56 363.09-21.90L363.09-21.90L363.09-21.90Q362.40-21.24 361.44-21.24L361.44-21.24L342.66-21.24L342.66-4.50L368.46-4.50ZM393.90-47.46L393.90-47.46Q398.64-47.46 402.24-45.36L402.24-45.36L402.24-45.36Q405.84-43.26 407.88-39.90L407.88-39.90L407.88-39.90Q408.30-39.24 408.30-38.46L408.30-38.46L408.30-38.46Q408.30-37.32 407.22-36.66L407.22-36.66L407.22-36.66Q406.74-36.42 406.14-36.42L406.14-36.42L406.14-36.42Q405.48-36.42 404.91-36.75L404.91-36.75L404.91-36.75Q404.34-37.08 403.98-37.68L403.98-37.68L403.98-37.68Q400.62-42.96 393.84-43.02L393.84-43.02L393.84-43.02Q388.98-43.02 386.16-40.98L386.16-40.98L386.16-40.98Q383.34-38.94 383.34-35.16L383.34-35.16L383.34-35.16Q383.34-28.14 394.68-26.64L394.68-26.64L394.68-26.64Q402.12-25.56 405.78-22.08L405.78-22.08L405.78-22.08Q409.44-18.60 409.44-12.90L409.44-12.90L409.44-12.90Q409.44-8.70 407.40-5.64L407.40-5.64L407.40-5.64Q405.36-2.58 401.82-0.99L401.82-0.99L401.82-0.99Q398.28 0.60 393.90 0.60L393.90 0.60L393.90 0.60Q388.20 0.60 383.79-1.83L383.79-1.83L383.79-1.83Q379.38-4.26 377.46-8.40L377.46-8.40L377.46-8.40Q377.22-8.82 377.22-9.36L377.22-9.36L377.22-9.36Q377.22-10.20 377.85-10.77L377.85-10.77L377.85-10.77Q378.48-11.34 379.56-11.34L379.56-11.34L379.56-11.34Q380.28-11.34 380.91-10.95L380.91-10.95L380.91-10.95Q381.54-10.56 381.84-9.84L381.84-9.84L381.84-9.84Q383.22-7.14 386.43-5.49L386.43-5.49L386.43-5.49Q389.64-3.84 393.90-3.84L393.90-3.84L393.90-3.84Q398.82-3.84 401.82-6.21L401.82-6.21L401.82-6.21Q404.82-8.58 404.82-12.84L404.82-12.84L404.82-12.84Q404.82-16.62 402.03-19.20L402.03-19.20L402.03-19.20Q399.24-21.78 393.66-22.50L393.66-22.50L393.66-22.50Q386.70-23.34 382.71-26.85L382.71-26.85L382.71-26.85Q378.72-30.36 378.72-35.46L378.72-35.46L378.72-35.46Q378.72-39.06 380.67-41.79L380.67-41.79L380.67-41.79Q382.62-44.52 386.07-45.99L386.07-45.99L386.07-45.99Q389.52-47.46 393.90-47.46L393.90-47.46Z" fill="#000000"></path></g></g><style>text {
  font-size: 64px;
  font-family: Arial Black;
  dominant-baseline: central;
  text-anchor: middle;
}</style></svg>