<svg width="464.719970703125px" height="111.22625732421875px" xmlns="http://www.w3.org/2000/svg" viewBox="17.6400146484375 19.386871337890625 464.719970703125 111.22625732421875" style="background: rgba(0, 0, 0, 0);" preserveAspectRatio="xMidYMid"><defs><filter id="editing-hole" x="-100%" y="-100%" width="300%" height="300%"><feFlood flood-color="#000000" result="black"></feFlood><feMorphology operator="dilate" radius="2" in="SourceGraphic" result="erode"></feMorphology><feGaussianBlur in="erode" stdDeviation="4" result="blur"></feGaussianBlur><feOffset in="blur" dx="2" dy="2" result="offset"></feOffset><feComposite operator="atop" in="offset" in2="black" result="merge"></feComposite><feComposite operator="in" in="merge" in2="SourceGraphic" result="inner-shadow"></feComposite></filter></defs><g filter="url(#editing-hole)"><g transform="translate(82.08999013900757, 98.66593742370605)"><path d="M20.22-33.18L20.22-33.18Q22.74-33.18 24.21-32.52L24.21-32.52L24.21-32.52Q25.68-31.86 25.68-30.66L25.68-30.66L25.68-30.66Q25.68-30.30 25.62-30.12L25.62-30.12L25.62-30.12Q25.38-29.28 24.87-28.98L24.87-28.98L24.87-28.98Q24.36-28.68 23.46-28.68L23.46-28.68L23.46-28.68Q22.92-28.68 21.60-28.80L21.60-28.80L21.60-28.80Q21.12-28.86 20.16-28.86L20.16-28.86L20.16-28.86Q15.66-28.86 12.81-26.46L12.81-26.46L12.81-26.46Q9.96-24.06 9.96-20.22L9.96-20.22L9.96-2.28L9.96-2.28Q9.96-1.20 9.36-0.60L9.36-0.60L9.36-0.60Q8.76 0 7.68 0L7.68 0L7.68 0Q6.60 0 6-0.60L6-0.60L6-0.60Q5.40-1.20 5.40-2.28L5.40-2.28L5.40-30.54L5.40-30.54Q5.40-31.62 6-32.22L6-32.22L6-32.22Q6.60-32.82 7.68-32.82L7.68-32.82L7.68-32.82Q8.76-32.82 9.36-32.22L9.36-32.22L9.36-32.22Q9.96-31.62 9.96-30.54L9.96-30.54L9.96-27.90L9.96-27.90Q11.70-30.42 14.40-31.80L14.40-31.80L14.40-31.80Q17.10-33.18 20.22-33.18L20.22-33.18ZM46.86-33.12L46.86-33.12Q51.30-33.12 54.72-31.05L54.72-31.05L54.72-31.05Q58.14-28.98 60.03-25.32L60.03-25.32L60.03-25.32Q61.92-21.66 61.92-16.98L61.92-16.98L61.92-16.98Q61.92-16.02 61.32-15.45L61.32-15.45L61.32-15.45Q60.72-14.88 59.76-14.88L59.76-14.88L35.52-14.88L35.52-14.88Q36-9.96 39.36-6.90L39.36-6.90L39.36-6.90Q42.72-3.84 47.76-3.84L47.76-3.84L47.76-3.84Q49.92-3.84 52.11-4.59L52.11-4.59L52.11-4.59Q54.30-5.34 55.62-6.48L55.62-6.48L55.62-6.48Q56.40-7.08 57.24-7.08L57.24-7.08L57.24-7.08Q57.90-7.08 58.56-6.60L58.56-6.60L58.56-6.60Q59.34-5.88 59.34-4.98L59.34-4.98L59.34-4.98Q59.34-4.20 58.68-3.60L58.68-3.60L58.68-3.60Q56.70-1.92 53.64-0.81L53.64-0.81L53.64-0.81Q50.58 0.30 47.76 0.30L47.76 0.30L47.76 0.30Q42.96 0.30 39.18-1.83L39.18-1.83L39.18-1.83Q35.40-3.96 33.27-7.77L33.27-7.77L33.27-7.77Q31.14-11.58 31.14-16.38L31.14-16.38L31.14-16.38Q31.14-21.24 33.15-25.05L33.15-25.05L33.15-25.05Q35.16-28.86 38.73-30.99L38.73-30.99L38.73-30.99Q42.30-33.12 46.86-33.12L46.86-33.12ZM46.86-28.98L46.86-28.98Q42.30-28.98 39.30-26.16L39.30-26.16L39.30-26.16Q36.30-23.34 35.64-18.72L35.64-18.72L57.60-18.72L57.60-18.72Q57.12-23.34 54.24-26.16L54.24-26.16L54.24-26.16Q51.36-28.98 46.86-28.98L46.86-28.98ZM84.18-42.66L84.18-42.66Q80.22-42.66 78.21-40.02L78.21-40.02L78.21-40.02Q76.20-37.38 76.20-33L76.20-33L76.20-31.62L83.40-31.62L83.40-31.62Q84.36-31.62 84.93-31.05L84.93-31.05L84.93-31.05Q85.50-30.48 85.50-29.58L85.50-29.58L85.50-29.58Q85.50-28.74 84.93-28.17L84.93-28.17L84.93-28.17Q84.36-27.60 83.40-27.60L83.40-27.60L76.20-27.60L76.20-2.34L76.20-2.34Q76.20-1.26 75.57-0.63L75.57-0.63L75.57-0.63Q74.94 0 73.80 0L73.80 0L73.80 0Q72.84 0 72.21-0.63L72.21-0.63L72.21-0.63Q71.58-1.26 71.58-2.34L71.58-2.34L71.58-27.60L67.74-27.60L67.74-27.60Q66.78-27.60 66.21-28.17L66.21-28.17L66.21-28.17Q65.64-28.74 65.64-29.58L65.64-29.58L65.64-29.58Q65.64-30.48 66.21-31.05L66.21-31.05L66.21-31.05Q66.78-31.62 67.74-31.62L67.74-31.62L71.58-31.62L71.58-32.76L71.58-32.76Q71.58-39.18 74.88-43.02L74.88-43.02L74.88-43.02Q78.18-46.86 84.18-46.86L84.18-46.86L84.18-46.86Q85.20-46.86 85.86-46.26L85.86-46.26L85.86-46.26Q86.52-45.66 86.52-44.76L86.52-44.76L86.52-44.76Q86.52-43.86 85.86-43.26L85.86-43.26L85.86-43.26Q85.20-42.66 84.18-42.66L84.18-42.66ZM105.66-33.12L105.66-33.12Q110.10-33.12 113.52-31.05L113.52-31.05L113.52-31.05Q116.94-28.98 118.83-25.32L118.83-25.32L118.83-25.32Q120.72-21.66 120.72-16.98L120.72-16.98L120.72-16.98Q120.72-16.02 120.12-15.45L120.12-15.45L120.12-15.45Q119.52-14.88 118.56-14.88L118.56-14.88L94.32-14.88L94.32-14.88Q94.80-9.96 98.16-6.90L98.16-6.90L98.16-6.90Q101.52-3.84 106.56-3.84L106.56-3.84L106.56-3.84Q108.72-3.84 110.91-4.59L110.91-4.59L110.91-4.59Q113.10-5.34 114.42-6.48L114.42-6.48L114.42-6.48Q115.20-7.08 116.04-7.08L116.04-7.08L116.04-7.08Q116.70-7.08 117.36-6.60L117.36-6.60L117.36-6.60Q118.14-5.88 118.14-4.98L118.14-4.98L118.14-4.98Q118.14-4.20 117.48-3.60L117.48-3.60L117.48-3.60Q115.50-1.92 112.44-0.81L112.44-0.81L112.44-0.81Q109.38 0.30 106.56 0.30L106.56 0.30L106.56 0.30Q101.76 0.30 97.98-1.83L97.98-1.83L97.98-1.83Q94.20-3.96 92.07-7.77L92.07-7.77L92.07-7.77Q89.94-11.58 89.94-16.38L89.94-16.38L89.94-16.38Q89.94-21.24 91.95-25.05L91.95-25.05L91.95-25.05Q93.96-28.86 97.53-30.99L97.53-30.99L97.53-30.99Q101.10-33.12 105.66-33.12L105.66-33.12ZM105.66-28.98L105.66-28.98Q101.10-28.98 98.10-26.16L98.10-26.16L98.10-26.16Q95.10-23.34 94.44-18.72L94.44-18.72L116.40-18.72L116.40-18.72Q115.92-23.34 113.04-26.16L113.04-26.16L113.04-26.16Q110.16-28.98 105.66-28.98L105.66-28.98ZM143.34-33.18L143.34-33.18Q145.86-33.18 147.33-32.52L147.33-32.52L147.33-32.52Q148.80-31.86 148.80-30.66L148.80-30.66L148.80-30.66Q148.80-30.30 148.74-30.12L148.74-30.12L148.74-30.12Q148.50-29.28 147.99-28.98L147.99-28.98L147.99-28.98Q147.48-28.68 146.58-28.68L146.58-28.68L146.58-28.68Q146.04-28.68 144.72-28.80L144.72-28.80L144.72-28.80Q144.24-28.86 143.28-28.86L143.28-28.86L143.28-28.86Q138.78-28.86 135.93-26.46L135.93-26.46L135.93-26.46Q133.08-24.06 133.08-20.22L133.08-20.22L133.08-2.28L133.08-2.28Q133.08-1.20 132.48-0.60L132.48-0.60L132.48-0.60Q131.88 0 130.80 0L130.80 0L130.80 0Q129.72 0 129.12-0.60L129.12-0.60L129.12-0.60Q128.52-1.20 128.52-2.28L128.52-2.28L128.52-30.54L128.52-30.54Q128.52-31.62 129.12-32.22L129.12-32.22L129.12-32.22Q129.72-32.82 130.80-32.82L130.80-32.82L130.80-32.82Q131.88-32.82 132.48-32.22L132.48-32.22L132.48-32.22Q133.08-31.62 133.08-30.54L133.08-30.54L133.08-27.90L133.08-27.90Q134.82-30.42 137.52-31.80L137.52-31.80L137.52-31.80Q140.22-33.18 143.34-33.18L143.34-33.18ZM169.98-33.12L169.98-33.12Q174.42-33.12 177.84-31.05L177.84-31.05L177.84-31.05Q181.26-28.98 183.15-25.32L183.15-25.32L183.15-25.32Q185.04-21.66 185.04-16.98L185.04-16.98L185.04-16.98Q185.04-16.02 184.44-15.45L184.44-15.45L184.44-15.45Q183.84-14.88 182.88-14.88L182.88-14.88L158.64-14.88L158.64-14.88Q159.12-9.96 162.48-6.90L162.48-6.90L162.48-6.90Q165.84-3.84 170.88-3.84L170.88-3.84L170.88-3.84Q173.04-3.84 175.23-4.59L175.23-4.59L175.23-4.59Q177.42-5.34 178.74-6.48L178.74-6.48L178.74-6.48Q179.52-7.08 180.36-7.08L180.36-7.08L180.36-7.08Q181.02-7.08 181.68-6.60L181.68-6.60L181.68-6.60Q182.46-5.88 182.46-4.98L182.46-4.98L182.46-4.98Q182.46-4.20 181.80-3.60L181.80-3.60L181.80-3.60Q179.82-1.92 176.76-0.81L176.76-0.81L176.76-0.81Q173.70 0.30 170.88 0.30L170.88 0.30L170.88 0.30Q166.08 0.30 162.30-1.83L162.30-1.83L162.30-1.83Q158.52-3.96 156.39-7.77L156.39-7.77L156.39-7.77Q154.26-11.58 154.26-16.38L154.26-16.38L154.26-16.38Q154.26-21.24 156.27-25.05L156.27-25.05L156.27-25.05Q158.28-28.86 161.85-30.99L161.85-30.99L161.85-30.99Q165.42-33.12 169.98-33.12L169.98-33.12ZM169.98-28.98L169.98-28.98Q165.42-28.98 162.42-26.16L162.42-26.16L162.42-26.16Q159.42-23.34 158.76-18.72L158.76-18.72L180.72-18.72L180.72-18.72Q180.24-23.34 177.36-26.16L177.36-26.16L177.36-26.16Q174.48-28.98 169.98-28.98L169.98-28.98ZM208.38-33.18L208.38-33.18Q212.64-33.18 216.03-31.38L216.03-31.38L216.03-31.38Q219.42-29.58 221.34-26.13L221.34-26.13L221.34-26.13Q223.26-22.68 223.26-17.88L223.26-17.88L223.26-2.28L223.26-2.28Q223.26-1.32 222.60-0.66L222.60-0.66L222.60-0.66Q221.94 0 220.98 0L220.98 0L220.98 0Q219.96 0 219.30-0.66L219.30-0.66L219.30-0.66Q218.64-1.32 218.64-2.28L218.64-2.28L218.64-17.88L218.64-17.88Q218.64-23.22 215.67-26.01L215.67-26.01L215.67-26.01Q212.70-28.80 207.90-28.80L207.90-28.80L207.90-28.80Q204.96-28.80 202.59-27.66L202.59-27.66L202.59-27.66Q200.22-26.52 198.84-24.51L198.84-24.51L198.84-24.51Q197.46-22.50 197.46-20.04L197.46-20.04L197.46-2.28L197.46-2.28Q197.46-1.26 196.83-0.63L196.83-0.63L196.83-0.63Q196.20 0 195.18 0L195.18 0L195.18 0Q194.16 0 193.50-0.63L193.50-0.63L193.50-0.63Q192.84-1.26 192.84-2.28L192.84-2.28L192.84-30.48L192.84-30.48Q192.84-31.50 193.50-32.16L193.50-32.16L193.50-32.16Q194.16-32.82 195.18-32.82L195.18-32.82L195.18-32.82Q196.20-32.82 196.83-32.16L196.83-32.16L196.83-32.16Q197.46-31.50 197.46-30.48L197.46-30.48L197.46-28.44L197.46-28.44Q199.44-30.66 202.26-31.92L202.26-31.92L202.26-31.92Q205.08-33.18 208.38-33.18L208.38-33.18ZM247.50-33.12L247.50-33.12Q255-33.12 259.68-27.36L259.68-27.36L259.68-27.36Q260.16-26.82 260.16-26.10L260.16-26.10L260.16-26.10Q260.16-25.14 259.14-24.42L259.14-24.42L259.14-24.42Q258.60-24.06 258-24.06L258-24.06L258-24.06Q257.10-24.06 256.26-24.96L256.26-24.96L256.26-24.96Q254.46-26.94 252.30-27.93L252.30-27.93L252.30-27.93Q250.14-28.92 247.50-28.92L247.50-28.92L247.50-28.92Q244.20-28.92 241.62-27.33L241.62-27.33L241.62-27.33Q239.04-25.74 237.63-22.86L237.63-22.86L237.63-22.86Q236.22-19.98 236.22-16.38L236.22-16.38L236.22-16.38Q236.22-12.84 237.72-9.99L237.72-9.99L237.72-9.99Q239.22-7.14 241.92-5.52L241.92-5.52L241.92-5.52Q244.62-3.90 248.10-3.90L248.10-3.90L248.10-3.90Q252.90-3.90 255.84-6.48L255.84-6.48L255.84-6.48Q256.62-7.14 257.46-7.14L257.46-7.14L257.46-7.14Q258.18-7.14 258.78-6.66L258.78-6.66L258.78-6.66Q259.62-5.94 259.62-5.04L259.62-5.04L259.62-5.04Q259.62-4.26 259.02-3.72L259.02-3.72L259.02-3.72Q254.70 0.30 248.10 0.30L248.10 0.30L248.10 0.30Q243.42 0.30 239.70-1.89L239.70-1.89L239.70-1.89Q235.98-4.08 233.85-7.89L233.85-7.89L233.85-7.89Q231.72-11.70 231.72-16.38L231.72-16.38L231.72-16.38Q231.72-21.18 233.76-24.99L233.76-24.99L233.76-24.99Q235.80-28.80 239.40-30.96L239.40-30.96L239.40-30.96Q243-33.12 247.50-33.12L247.50-33.12ZM283.20-33.12L283.20-33.12Q287.64-33.12 291.06-31.05L291.06-31.05L291.06-31.05Q294.48-28.98 296.37-25.32L296.37-25.32L296.37-25.32Q298.26-21.66 298.26-16.98L298.26-16.98L298.26-16.98Q298.26-16.02 297.66-15.45L297.66-15.45L297.66-15.45Q297.06-14.88 296.10-14.88L296.10-14.88L271.86-14.88L271.86-14.88Q272.34-9.96 275.70-6.90L275.70-6.90L275.70-6.90Q279.06-3.84 284.10-3.84L284.10-3.84L284.10-3.84Q286.26-3.84 288.45-4.59L288.45-4.59L288.45-4.59Q290.64-5.34 291.96-6.48L291.96-6.48L291.96-6.48Q292.74-7.08 293.58-7.08L293.58-7.08L293.58-7.08Q294.24-7.08 294.90-6.60L294.90-6.60L294.90-6.60Q295.68-5.88 295.68-4.98L295.68-4.98L295.68-4.98Q295.68-4.20 295.02-3.60L295.02-3.60L295.02-3.60Q293.04-1.92 289.98-0.81L289.98-0.81L289.98-0.81Q286.92 0.30 284.10 0.30L284.10 0.30L284.10 0.30Q279.30 0.30 275.52-1.83L275.52-1.83L275.52-1.83Q271.74-3.96 269.61-7.77L269.61-7.77L269.61-7.77Q267.48-11.58 267.48-16.38L267.48-16.38L267.48-16.38Q267.48-21.24 269.49-25.05L269.49-25.05L269.49-25.05Q271.50-28.86 275.07-30.99L275.07-30.99L275.07-30.99Q278.64-33.12 283.20-33.12L283.20-33.12ZM283.20-28.98L283.20-28.98Q278.64-28.98 275.64-26.16L275.64-26.16L275.64-26.16Q272.64-23.34 271.98-18.72L271.98-18.72L293.94-18.72L293.94-18.72Q293.46-23.34 290.58-26.16L290.58-26.16L290.58-26.16Q287.70-28.98 283.20-28.98L283.20-28.98ZM317.40-33.12L317.40-33.12Q321.36-33.12 324.30-31.77L324.30-31.77L324.30-31.77Q327.24-30.42 329.04-28.02L329.04-28.02L329.04-28.02Q329.52-27.24 329.52-26.64L329.52-26.64L329.52-26.64Q329.52-25.62 328.56-25.02L328.56-25.02L328.56-25.02Q328.14-24.72 327.42-24.72L327.42-24.72L327.42-24.72Q326.16-24.72 325.32-25.62L325.32-25.62L325.32-25.62Q322.38-28.98 317.28-28.98L317.28-28.98L317.28-28.98Q313.98-28.98 312.00-27.63L312.00-27.63L312.00-27.63Q310.02-26.28 310.02-24.24L310.02-24.24L310.02-24.24Q310.02-22.08 311.88-20.79L311.88-20.79L311.88-20.79Q313.74-19.50 318.48-18.72L318.48-18.72L318.48-18.72Q324.90-17.64 327.66-15.21L327.66-15.21L327.66-15.21Q330.42-12.78 330.42-9.18L330.42-9.18L330.42-9.18Q330.42-6.42 328.77-4.26L328.77-4.26L328.77-4.26Q327.12-2.10 324.18-0.90L324.18-0.90L324.18-0.90Q321.24 0.30 317.52 0.30L317.52 0.30L317.52 0.30Q313.80 0.30 310.38-0.96L310.38-0.96L310.38-0.96Q306.96-2.22 304.86-4.50L304.86-4.50L304.86-4.50Q304.26-5.22 304.26-5.88L304.26-5.88L304.26-5.88Q304.26-6.90 305.22-7.68L305.22-7.68L305.22-7.68Q305.94-8.22 306.72-8.22L306.72-8.22L306.72-8.22Q307.74-8.22 308.46-7.38L308.46-7.38L308.46-7.38Q309.90-5.70 312.27-4.80L312.27-4.80L312.27-4.80Q314.64-3.90 317.52-3.90L317.52-3.90L317.52-3.90Q321.72-3.90 323.82-5.34L323.82-5.34L323.82-5.34Q325.92-6.78 325.98-9.12L325.98-9.12L325.98-9.12Q325.98-11.28 323.88-12.72L323.88-12.72L323.88-12.72Q321.78-14.16 317.22-14.88L317.22-14.88L317.22-14.88Q311.34-15.84 308.43-18.21L308.43-18.21L308.43-18.21Q305.52-20.58 305.52-23.94L305.52-23.94L305.52-23.94Q305.52-28.32 308.91-30.72L308.91-30.72L308.91-30.72Q312.30-33.12 317.40-33.12L317.40-33.12Z" fill="#000000"></path></g></g><style>text {
  font-size: 64px;
  font-family: Arial Black;
  dominant-baseline: central;
  text-anchor: middle;
}</style></svg>