<svg width="454.17998046875px" height="153.21625976562498px" xmlns="http://www.w3.org/2000/svg" viewBox="22.910009765625006 -1.6081298828124915 454.17998046875 153.21625976562498" style="background: rgba(0, 0, 0, 0);" preserveAspectRatio="xMidYMid"><defs><filter id="editing-hole" x="-100%" y="-100%" width="300%" height="300%"><feFlood flood-color="#000000" result="black"></feFlood><feMorphology operator="dilate" radius="2" in="SourceGraphic" result="erode"></feMorphology><feGaussianBlur in="erode" stdDeviation="4" result="blur"></feGaussianBlur><feOffset in="blur" dx="2" dy="2" result="offset"></feOffset><feComposite operator="atop" in="offset" in2="black" result="merge"></feComposite><feComposite operator="in" in="merge" in2="SourceGraphic" result="inner-shadow"></feComposite></filter></defs><g filter="url(#editing-hole)"><g transform="translate(89.05499935150146, 97.65156364440918)"><path d="M8.29 0L3.96 0L3.96-44.38L18.90-44.38L18.90-44.38Q25.90-44.38 29.38-38.94L29.38-38.94L29.38-38.94Q31.29-35.98 31.29-32.72L31.29-32.72L31.29-32.72Q31.29-28.80 29.41-25.55L29.41-25.55L29.41-25.55Q27.36-21.97 22.73-20.98L22.73-20.98L31.11 0L26.37 0L18.28-20.27L8.29-20.27L8.29 0ZM8.29-40.75L8.29-23.91L19.31-23.91L19.31-23.91Q22.38-23.91 24.55-25.84L24.55-25.84L24.55-25.84Q26.95-27.98 26.95-32.52L26.95-32.52L26.95-32.52Q26.95-38.55 20.45-40.25L20.45-40.25L20.45-40.25Q18.52-40.75 16.23-40.75L16.23-40.75L8.29-40.75ZM61.14 0L35.98 0L35.98-44.38L60.03-44.38L60.03-40.75L40.31-40.75L40.31-25.14L54.46-25.14L54.46-21.50L40.31-21.50L40.31-3.90L61.14-3.90L61.14 0ZM71.43 0L67.09 0L67.09-44.38L91.14-44.38L91.14-40.75L71.43-40.75L71.43-25.14L85.58-25.14L85.58-21.50L71.43-21.50L71.43 0ZM122.26 0L97.09 0L97.09-44.38L121.14-44.38L121.14-40.75L101.43-40.75L101.43-25.14L115.58-25.14L115.58-21.50L101.43-21.50L101.43-3.90L122.26-3.90L122.26 0ZM132.54 0L128.20 0L128.20-44.38L143.14-44.38L143.14-44.38Q150.15-44.38 153.63-38.94L153.63-38.94L153.63-38.94Q155.54-35.98 155.54-32.72L155.54-32.72L155.54-32.72Q155.54-28.80 153.66-25.55L153.66-25.55L153.66-25.55Q151.61-21.97 146.98-20.98L146.98-20.98L155.36 0L150.62 0L142.53-20.27L132.54-20.27L132.54 0ZM132.54-40.75L132.54-23.91L143.55-23.91L143.55-23.91Q146.63-23.91 148.80-25.84L148.80-25.84L148.80-25.84Q151.20-27.98 151.20-32.52L151.20-32.52L151.20-32.52Q151.20-38.55 144.70-40.25L144.70-40.25L144.70-40.25Q142.76-40.75 140.48-40.75L140.48-40.75L132.54-40.75ZM185.39 0L160.22 0L160.22-44.38L184.28-44.38L184.28-40.75L164.56-40.75L164.56-25.14L178.71-25.14L178.71-21.50L164.56-21.50L164.56-3.90L185.39-3.90L185.39 0ZM195.47 0L191.13 0L191.13-44.38L198.05-44.38L215.95-10.58L215.95-44.38L220.28-44.38L220.28 0L216.56 0L195.47-40.08L195.47 0ZM227.43-13.02L227.43-13.02L227.43-13.02Q226.88-15.29 226.63-17.58L226.63-17.58L226.63-17.58Q226.38-19.86 226.38-22.72L226.38-22.72L226.38-22.72Q226.38-25.58 226.89-28.73L226.89-28.73L226.89-28.73Q227.40-31.88 228.60-34.85L228.60-34.85L228.60-34.85Q229.80-37.82 231.59-40.02L231.59-40.02L231.59-40.02Q233.38-42.22 236.09-43.55L236.09-43.55L236.09-43.55Q238.80-44.88 241.61-44.88L241.61-44.88L241.61-44.88Q244.42-44.88 246.40-44.17L246.40-44.17L246.40-44.17Q248.38-43.45 249.73-42.30L249.73-42.30L249.73-42.30Q251.07-41.16 252.19-39.77L252.19-39.77L252.19-39.77Q253.30-38.38 253.95-36.97L253.95-36.97L253.95-36.97Q255.29-34.07 255.62-32.58L255.62-32.58L255.79-31.88L255.79-31.85L251.34-30.64L251.34-30.64Q250.87-33.98 250.15-35.52L250.15-35.52L250.15-35.52Q249.43-37.06 248.72-38.04L248.72-38.04L248.72-38.04Q248.00-39.02 247.12-39.70L247.12-39.70L247.12-39.70Q245.04-41.25 242.14-41.25L242.14-41.25L242.14-41.25Q230.71-41.25 230.71-22.24L230.71-22.24L230.71-22.24Q230.71-14.09 233.12-8.94L233.12-8.94L233.12-8.94Q235.84-3.16 242.14-3.16L242.14-3.16L242.14-3.16Q247.29-3.16 250.17-7.21L250.17-7.21L250.17-7.21Q252.16-10.05 252.16-13.56L252.16-13.56L256.44-12.89L256.44-12.89Q256.32-12.57 255.89-11.31L255.89-11.31L255.89-11.31Q255.47-10.05 255.18-9.26L255.18-9.26L255.18-9.26Q254.88-8.47 254.22-7.10L254.22-7.10L254.22-7.10Q253.56-5.74 252.91-4.83L252.91-4.83L252.91-4.83Q252.25-3.93 251.15-2.83L251.15-2.83L251.15-2.83Q250.05-1.73 248.82-1.08L248.82-1.08L248.82-1.08Q245.86 0.47 242.75 0.47L242.75 0.47L242.75 0.47Q239.65 0.47 237.52-0.23L237.52-0.23L237.52-0.23Q235.40-0.94 233.82-2.15L233.82-2.15L233.82-2.15Q232.24-3.37 230.96-5.08L230.96-5.08L230.96-5.08Q229.69-6.80 228.84-8.77L228.84-8.77L228.84-8.77Q227.99-10.75 227.43-13.02ZM287.55 0L262.38 0L262.38-44.38L286.44-44.38L286.44-40.75L266.72-40.75L266.72-25.14L280.87-25.14L280.87-21.50L266.72-21.50L266.72-3.90L287.55-3.90L287.55 0ZM290.39-10.17L290.16-10.78L294.17-12.19L294.17-12.19Q294.20-12.19 294.30-11.69L294.30-11.69L294.30-11.69Q294.40-11.19 294.68-10.40L294.68-10.40L294.68-10.40Q294.96-9.61 295.43-8.64L295.43-8.64L295.43-8.64Q295.90-7.68 296.76-6.71L296.76-6.71L296.76-6.71Q297.63-5.74 298.77-4.95L298.77-4.95L298.77-4.95Q301.29-3.16 305.42-3.16L305.42-3.16L305.42-3.16Q309.55-3.16 311.57-5.42L311.57-5.42L311.57-5.42Q313.59-7.68 313.59-10.97L313.59-10.97L313.59-10.97Q313.59-14.27 312.32-16.16L312.32-16.16L312.32-16.16Q311.04-18.05 307.85-19.37L307.85-19.37L307.85-19.37Q306.91-19.75 305.39-20.27L305.39-20.27L302.61-21.24L302.61-21.24Q295.37-23.64 292.88-27.39L292.88-27.39L292.88-27.39Q291.15-30 291.15-33.49L291.15-33.49L291.15-33.49Q291.15-37.62 294.43-41.19L294.43-41.19L294.43-41.19Q295.99-42.83 298.39-43.86L298.39-43.86L298.39-43.86Q300.79-44.88 303.44-44.88L303.44-44.88L303.44-44.88Q306.09-44.88 308.13-44.17L308.13-44.17L308.13-44.17Q310.17-43.45 311.41-42.39L311.41-42.39L311.41-42.39Q312.66-41.34 313.65-39.96L313.65-39.96L313.65-39.96Q314.65-38.58 315.09-37.50L315.09-37.50L315.94-35.33L315.94-35.33Q316.32-34.31 316.41-34.13L316.41-34.13L312.60-32.67L312.60-32.67Q312.54-32.81 312.32-33.59L312.32-33.59L312.32-33.59Q312.10-34.37 311.94-34.86L311.94-34.86L311.94-34.86Q311.78-35.36 311.38-36.24L311.38-36.24L311.38-36.24Q310.99-37.12 310.56-37.72L310.56-37.72L310.56-37.72Q310.14-38.32 309.45-39.04L309.45-39.04L309.45-39.04Q308.76-39.76 307.97-40.20L307.97-40.20L307.97-40.20Q306.04-41.25 303.60-41.25L303.60-41.25L303.60-41.25Q300-41.25 297.74-39.13L297.74-39.13L297.74-39.13Q295.49-37.00 295.49-33.49L295.49-33.49L295.49-33.49Q295.49-29.65 297.48-28.10L297.48-28.10L297.48-28.10Q298.56-27.25 299.31-26.87L299.31-26.87L299.31-26.87Q300.06-26.48 301.07-26.12L301.07-26.12L301.07-26.12Q302.08-25.75 302.55-25.56L302.55-25.56L302.55-25.56Q303.02-25.37 304.39-24.96L304.39-24.96L306.86-24.20L306.86-24.20Q313.65-22.12 316.20-18.02L316.20-18.02L316.20-18.02Q317.93-15.23 317.93-11.28L317.93-11.28L317.93-11.28Q317.93-8.41 316.11-5.27L316.11-5.27L316.11-5.27Q313.86-1.29 309.26 0L309.26 0L309.26 0Q307.53 0.47 305.23 0.47L305.23 0.47L305.23 0.47Q302.93 0.47 300.70-0.15L300.70-0.15L300.70-0.15Q298.48-0.76 296.97-1.76L296.97-1.76L296.97-1.76Q295.46-2.75 294.24-3.96L294.24-3.96L294.24-3.96Q293.03-5.16 292.29-6.36L292.29-6.36L292.29-6.36Q290.95-8.55 290.39-10.17L290.39-10.17Z" fill="#000000"></path></g></g><style>text {
  font-size: 64px;
  font-family: Arial Black;
  dominant-baseline: central;
  text-anchor: middle;
}</style></svg>