<svg width="540.71005859375px" height="116.02878417968749px" xmlns="http://www.w3.org/2000/svg" viewBox="-20.35502929687499 16.985607910156254 540.71005859375 116.02878417968749" style="background: rgba(0, 0, 0, 0);" preserveAspectRatio="xMidYMid"><defs><filter id="editing-hole" x="-100%" y="-100%" width="300%" height="300%"><feFlood flood-color="#000000" result="black"></feFlood><feMorphology operator="dilate" radius="2" in="SourceGraphic" result="erode"></feMorphology><feGaussianBlur in="erode" stdDeviation="4" result="blur"></feGaussianBlur><feOffset in="blur" dx="2" dy="2" result="offset"></feOffset><feComposite operator="atop" in="offset" in2="black" result="merge"></feComposite><feComposite operator="in" in="merge" in2="SourceGraphic" result="inner-shadow"></feComposite></filter></defs><g filter="url(#editing-hole)"><g transform="translate(56.91999435424805, 96.45031356811523)"><path d="M9.54 0L5.34 0L5.34-42.60L23.34-42.60L23.34-42.60Q26.10-42.60 28.41-41.43L28.41-41.43L28.41-41.43Q30.72-40.26 32.40-38.37L32.40-38.37L32.40-38.37Q34.08-36.48 35.01-34.08L35.01-34.08L35.01-34.08Q35.94-31.68 35.94-29.22L35.94-29.22L35.94-29.22Q35.94-26.88 35.25-24.75L35.25-24.75L35.25-24.75Q34.56-22.62 33.33-20.91L33.33-20.91L33.33-20.91Q32.10-19.20 30.36-18.03L30.36-18.03L30.36-18.03Q28.62-16.86 26.46-16.44L26.46-16.44L36.90 0L32.16 0L22.14-15.72L9.54-15.72L9.54 0ZM9.54-38.88L9.54-19.44L23.46-19.44L23.46-19.44Q25.32-19.44 26.85-20.25L26.85-20.25L26.85-20.25Q28.38-21.06 29.46-22.44L29.46-22.44L29.46-22.44Q30.54-23.82 31.14-25.56L31.14-25.56L31.14-25.56Q31.74-27.30 31.74-29.22L31.74-29.22L31.74-29.22Q31.74-31.14 31.05-32.91L31.05-32.91L31.05-32.91Q30.36-34.68 29.19-36L29.19-36L29.19-36Q28.02-37.32 26.43-38.10L26.43-38.10L26.43-38.10Q24.84-38.88 23.10-38.88L23.10-38.88L9.54-38.88ZM48.72-3.72L73.14-3.72L73.14 0L44.52 0L44.52-42.60L72.60-42.60L72.60-38.88L48.72-38.88L48.72-23.52L69.54-23.52L69.54-19.98L48.72-19.98L48.72-3.72ZM85.26 0L81.06 0L81.06-42.60L109.02-42.60L109.02-38.88L85.26-38.88L85.26-23.22L105.30-23.22L105.30-19.74L85.26-19.74L85.26 0ZM120.60-3.72L145.02-3.72L145.02 0L116.40 0L116.40-42.60L144.48-42.60L144.48-38.88L120.60-38.88L120.60-23.52L141.42-23.52L141.42-19.98L120.60-19.98L120.60-3.72ZM157.14 0L152.94 0L152.94-42.60L170.94-42.60L170.94-42.60Q173.70-42.60 176.01-41.43L176.01-41.43L176.01-41.43Q178.32-40.26 180-38.37L180-38.37L180-38.37Q181.68-36.48 182.61-34.08L182.61-34.08L182.61-34.08Q183.54-31.68 183.54-29.22L183.54-29.22L183.54-29.22Q183.54-26.88 182.85-24.75L182.85-24.75L182.85-24.75Q182.16-22.62 180.93-20.91L180.93-20.91L180.93-20.91Q179.70-19.20 177.96-18.03L177.96-18.03L177.96-18.03Q176.22-16.86 174.06-16.44L174.06-16.44L184.50 0L179.76 0L169.74-15.72L157.14-15.72L157.14 0ZM157.14-38.88L157.14-19.44L171.06-19.44L171.06-19.44Q172.92-19.44 174.45-20.25L174.45-20.25L174.45-20.25Q175.98-21.06 177.06-22.44L177.06-22.44L177.06-22.44Q178.14-23.82 178.74-25.56L178.74-25.56L178.74-25.56Q179.34-27.30 179.34-29.22L179.34-29.22L179.34-29.22Q179.34-31.14 178.65-32.91L178.65-32.91L178.65-32.91Q177.96-34.68 176.79-36L176.79-36L176.79-36Q175.62-37.32 174.03-38.10L174.03-38.10L174.03-38.10Q172.44-38.88 170.70-38.88L170.70-38.88L157.14-38.88ZM196.32-3.72L220.74-3.72L220.74 0L192.12 0L192.12-42.60L220.20-42.60L220.20-38.88L196.32-38.88L196.32-23.52L217.14-23.52L217.14-19.98L196.32-19.98L196.32-3.72ZM260.64 0L232.86-34.80L232.86 0L228.66 0L228.66-42.60L231.90-42.60L260.10-7.14L260.10-42.54L264.30-42.54L264.30 0L260.64 0ZM272.16-21.60L272.16-21.60L272.16-21.60Q272.16-25.44 273.51-29.25L273.51-29.25L273.51-29.25Q274.86-33.06 277.44-36.06L277.44-36.06L277.44-36.06Q280.02-39.06 283.80-40.95L283.80-40.95L283.80-40.95Q287.58-42.84 292.38-42.84L292.38-42.84L292.38-42.84Q298.08-42.84 302.13-40.26L302.13-40.26L302.13-40.26Q306.18-37.68 308.10-33.54L308.10-33.54L304.80-31.50L304.80-31.50Q303.78-33.60 302.31-35.04L302.31-35.04L302.31-35.04Q300.84-36.48 299.16-37.38L299.16-37.38L299.16-37.38Q297.48-38.28 295.68-38.67L295.68-38.67L295.68-38.67Q293.88-39.06 292.14-39.06L292.14-39.06L292.14-39.06Q288.30-39.06 285.36-37.50L285.36-37.50L285.36-37.50Q282.42-35.94 280.41-33.42L280.41-33.42L280.41-33.42Q278.40-30.90 277.38-27.75L277.38-27.75L277.38-27.75Q276.36-24.60 276.36-21.36L276.36-21.36L276.36-21.36Q276.36-17.82 277.59-14.58L277.59-14.58L277.59-14.58Q278.82-11.34 280.95-8.85L280.95-8.85L280.95-8.85Q283.08-6.36 285.99-4.89L285.99-4.89L285.99-4.89Q288.90-3.42 292.32-3.42L292.32-3.42L292.32-3.42Q294.12-3.42 296.01-3.87L296.01-3.87L296.01-3.87Q297.90-4.32 299.67-5.31L299.67-5.31L299.67-5.31Q301.44-6.30 302.94-7.77L302.94-7.77L302.94-7.77Q304.44-9.24 305.46-11.34L305.46-11.34L308.94-9.54L308.94-9.54Q307.92-7.14 306.06-5.31L306.06-5.31L306.06-5.31Q304.20-3.48 301.92-2.22L301.92-2.22L301.92-2.22Q299.64-0.96 297.09-0.30L297.09-0.30L297.09-0.30Q294.54 0.36 292.08 0.36L292.08 0.36L292.08 0.36Q287.70 0.36 284.04-1.56L284.04-1.56L284.04-1.56Q280.38-3.48 277.74-6.57L277.74-6.57L277.74-6.57Q275.10-9.66 273.63-13.59L273.63-13.59L273.63-13.59Q272.16-17.52 272.16-21.60ZM320.34-3.72L344.76-3.72L344.76 0L316.14 0L316.14-42.60L344.22-42.60L344.22-38.88L320.34-38.88L320.34-23.52L341.16-23.52L341.16-19.98L320.34-19.98L320.34-3.72ZM378.72-37.98L376.68-34.62L376.68-34.62Q374.88-36.66 371.88-37.92L371.88-37.92L371.88-37.92Q368.88-39.18 365.04-39.18L365.04-39.18L365.04-39.18Q359.40-39.18 356.82-37.05L356.82-37.05L356.82-37.05Q354.24-34.92 354.24-31.26L354.24-31.26L354.24-31.26Q354.24-29.34 354.93-28.11L354.93-28.11L354.93-28.11Q355.62-26.88 357.06-25.98L357.06-25.98L357.06-25.98Q358.50-25.08 360.75-24.42L360.75-24.42L360.75-24.42Q363-23.76 366.06-23.10L366.06-23.10L366.06-23.10Q369.48-22.38 372.21-21.48L372.21-21.48L372.21-21.48Q374.94-20.58 376.86-19.23L376.86-19.23L376.86-19.23Q378.78-17.88 379.80-15.96L379.80-15.96L379.80-15.96Q380.82-14.04 380.82-11.16L380.82-11.16L380.82-11.16Q380.82-8.22 379.68-6.06L379.68-6.06L379.68-6.06Q378.54-3.90 376.50-2.46L376.50-2.46L376.50-2.46Q374.46-1.02 371.64-0.33L371.64-0.33L371.64-0.33Q368.82 0.36 365.46 0.36L365.46 0.36L365.46 0.36Q355.56 0.36 348.36-5.82L348.36-5.82L350.46-9.24L350.46-9.24Q351.60-8.04 353.19-6.96L353.19-6.96L353.19-6.96Q354.78-5.88 356.73-5.07L356.73-5.07L356.73-5.07Q358.68-4.26 360.90-3.81L360.90-3.81L360.90-3.81Q363.12-3.36 365.58-3.36L365.58-3.36L365.58-3.36Q370.68-3.36 373.53-5.19L373.53-5.19L373.53-5.19Q376.38-7.02 376.38-10.74L376.38-10.74L376.38-10.74Q376.38-12.72 375.57-14.07L375.57-14.07L375.57-14.07Q374.76-15.42 373.14-16.41L373.14-16.41L373.14-16.41Q371.52-17.40 369.12-18.12L369.12-18.12L369.12-18.12Q366.72-18.84 363.54-19.56L363.54-19.56L363.54-19.56Q360.18-20.34 357.66-21.18L357.66-21.18L357.66-21.18Q355.14-22.02 353.40-23.28L353.40-23.28L353.40-23.28Q351.66-24.54 350.79-26.31L350.79-26.31L350.79-26.31Q349.92-28.08 349.92-30.66L349.92-30.66L349.92-30.66Q349.92-33.60 351.03-35.91L351.03-35.91L351.03-35.91Q352.14-38.22 354.18-39.75L354.18-39.75L354.18-39.75Q356.22-41.28 358.98-42.09L358.98-42.09L358.98-42.09Q361.74-42.90 365.10-42.90L365.10-42.90L365.10-42.90Q369.36-42.90 372.69-41.61L372.69-41.61L372.69-41.61Q376.02-40.32 378.72-37.98L378.72-37.98Z" fill="#000000"></path></g></g><style>text {
  font-size: 64px;
  font-family: Arial Black;
  dominant-baseline: central;
  text-anchor: middle;
}</style></svg>