<svg width="398.462451171875px" height="114.8175048828125px" xmlns="http://www.w3.org/2000/svg" viewBox="50.768774414062506 17.59124755859375 398.462451171875 114.8175048828125" style="background: rgba(0, 0, 0, 0);" preserveAspectRatio="xMidYMid"><defs><filter id="editing-hole" x="-100%" y="-100%" width="300%" height="300%"><feFlood flood-color="#000000" result="black"></feFlood><feMorphology operator="dilate" radius="2" in="SourceGraphic" result="erode"></feMorphology><feGaussianBlur in="erode" stdDeviation="4" result="blur"></feGaussianBlur><feOffset in="blur" dx="2" dy="2" result="offset"></feOffset><feComposite operator="atop" in="offset" in2="black" result="merge"></feComposite><feComposite operator="in" in="merge" in2="SourceGraphic" result="inner-shadow"></feComposite></filter></defs><g filter="url(#editing-hole)"><g transform="translate(109.74999046325684, 99.20000076293945)"><path d="M4.74 0L4.74-45L7.32-45L7.32-45Q14.34-45 18.15-41.28L18.15-41.28L18.15-41.28Q21.96-37.56 21.96-30.66L21.96-30.66L21.96-30.66Q21.96-26.70 20.07-23.40L20.07-23.40L20.07-23.40Q18.18-20.10 14.94-18.21L14.94-18.21L14.94-18.21Q11.70-16.32 7.80-16.32L7.80-16.32L7.38-16.32L22.86 0L20.28 0L6.66-14.28L6.66 0L4.74 0ZM6.66-18.06L7.74-18.06L7.74-18.06Q11.16-18.06 13.98-19.74L13.98-19.74L13.98-19.74Q16.80-21.42 18.42-24.27L18.42-24.27L18.42-24.27Q20.04-27.12 20.04-30.60L20.04-30.60L20.04-30.60Q20.04-36.66 16.77-39.96L16.77-39.96L16.77-39.96Q13.50-43.26 7.44-43.26L7.44-43.26L6.66-43.26L6.66-18.06ZM29.52 0L29.52-45L45.66-45L45.66-43.26L31.50-43.26L31.50-18.78L43.32-18.78L43.32-17.04L31.50-17.04L31.50-1.74L45.66-1.74L45.66 0L29.52 0ZM51.96 0L51.96-45L67.98-45L67.98-43.26L53.94-43.26L53.94-18.90L65.64-18.90L65.64-17.16L53.94-17.16L53.94 0L51.96 0ZM74.28 0L74.28-45L90.42-45L90.42-43.26L76.26-43.26L76.26-18.78L88.08-18.78L88.08-17.04L76.26-17.04L76.26-1.74L90.42-1.74L90.42 0L74.28 0ZM96.72 0L96.72-45L99.30-45L99.30-45Q106.32-45 110.13-41.28L110.13-41.28L110.13-41.28Q113.94-37.56 113.94-30.66L113.94-30.66L113.94-30.66Q113.94-26.70 112.05-23.40L112.05-23.40L112.05-23.40Q110.16-20.10 106.92-18.21L106.92-18.21L106.92-18.21Q103.68-16.32 99.78-16.32L99.78-16.32L99.36-16.32L114.84 0L112.26 0L98.64-14.28L98.64 0L96.72 0ZM98.64-18.06L99.72-18.06L99.72-18.06Q103.14-18.06 105.96-19.74L105.96-19.74L105.96-19.74Q108.78-21.42 110.40-24.27L110.40-24.27L110.40-24.27Q112.02-27.12 112.02-30.60L112.02-30.60L112.02-30.60Q112.02-36.66 108.75-39.96L108.75-39.96L108.75-39.96Q105.48-43.26 99.42-43.26L99.42-43.26L98.64-43.26L98.64-18.06ZM121.50 0L121.50-45L137.64-45L137.64-43.26L123.48-43.26L123.48-18.78L135.30-18.78L135.30-17.04L123.48-17.04L123.48-1.74L137.64-1.74L137.64 0L121.50 0ZM178.80 0.66L145.68-40.50L145.68 0L143.94 0L143.94-45.66L177.06-4.56L177.06-45L178.80-45L178.80 0.66ZM209.40 1.20L209.40 1.20Q203.10 1.20 197.82-1.89L197.82-1.89L197.82-1.89Q192.54-4.98 189.45-10.41L189.45-10.41L189.45-10.41Q186.36-15.84 186.36-22.62L186.36-22.62L186.36-22.62Q186.36-29.16 189.57-34.56L189.57-34.56L189.57-34.56Q192.78-39.96 198.15-43.08L198.15-43.08L198.15-43.08Q203.52-46.20 209.58-46.20L209.58-46.20L209.58-46.20Q213.78-46.20 216.24-45.45L216.24-45.45L216.24-45.45Q218.70-44.70 221.94-42.84L221.94-42.84L221.94-40.62L221.94-40.62Q218.88-42.72 216.27-43.59L216.27-43.59L216.27-43.59Q213.66-44.46 209.76-44.46L209.76-44.46L209.76-44.46Q203.82-44.46 198.93-41.43L198.93-41.43L198.93-41.43Q194.04-38.40 191.19-33.33L191.19-33.33L191.19-33.33Q188.34-28.26 188.34-22.44L188.34-22.44L188.34-22.44Q188.34-16.56 191.22-11.52L191.22-11.52L191.22-11.52Q194.10-6.48 198.87-3.51L198.87-3.51L198.87-3.51Q203.64-0.54 209.16-0.54L209.16-0.54L209.16-0.54Q213.12-0.54 216.06-1.47L216.06-1.47L216.06-1.47Q219-2.40 221.94-4.38L221.94-4.38L221.94-2.16L221.94-2.16Q219.06-0.42 216.03 0.39L216.03 0.39L216.03 0.39Q213 1.20 209.40 1.20L209.40 1.20ZM230.46 0L230.46-45L246.60-45L246.60-43.26L232.44-43.26L232.44-18.78L244.26-18.78L244.26-17.04L232.44-17.04L232.44-1.74L246.60-1.74L246.60 0L230.46 0ZM262.32 0.84L262.32 0.84Q254.82 0.84 250.68-5.34L250.68-5.34L250.68-8.58L250.68-8.58Q252.30-4.98 255.39-2.94L255.39-2.94L255.39-2.94Q258.48-0.90 262.80-0.90L262.80-0.90L262.80-0.90Q265.80-0.90 268.35-2.22L268.35-2.22L268.35-2.22Q270.90-3.54 272.40-5.94L272.40-5.94L272.40-5.94Q273.90-8.34 273.90-11.46L273.90-11.46L273.90-11.46Q273.90-14.28 272.94-16.32L272.94-16.32L272.94-16.32Q271.98-18.36 269.76-20.25L269.76-20.25L269.76-20.25Q267.54-22.14 263.34-24.72L263.34-24.72L261.42-25.92L261.42-25.92Q258.78-27.54 257.16-28.80L257.16-28.80L257.16-28.80Q255.54-30.06 254.34-31.74L254.34-31.74L254.34-31.74Q252.78-34.08 252.78-37.14L252.78-37.14L252.78-37.14Q252.78-41.22 255.42-43.50L255.42-43.50L255.42-43.50Q258.06-45.78 262.14-45.78L262.14-45.78L262.14-45.78Q267.66-45.78 270.90-41.70L270.90-41.70L270.90-38.64L270.90-38.64Q269.52-41.16 267.12-42.60L267.12-42.60L267.12-42.60Q264.72-44.04 261.84-44.04L261.84-44.04L261.84-44.04Q258.84-44.04 256.80-42.18L256.80-42.18L256.80-42.18Q254.76-40.32 254.76-37.20L254.76-37.20L254.76-37.20Q254.76-34.14 256.65-31.95L256.65-31.95L256.65-31.95Q258.54-29.76 263.04-27.18L263.04-27.18L263.04-27.18Q268.56-23.94 271.62-21.30L271.62-21.30L271.62-21.30Q273.78-19.32 274.77-16.92L274.77-16.92L274.77-16.92Q275.76-14.52 275.76-11.58L275.76-11.58L275.76-11.58Q275.76-7.86 274.02-5.04L274.02-5.04L274.02-5.04Q272.28-2.22 269.22-0.69L269.22-0.69L269.22-0.69Q266.16 0.84 262.32 0.84L262.32 0.84Z" fill="#000000"></path></g></g><style>text {
  font-size: 64px;
  font-family: Arial Black;
  dominant-baseline: central;
  text-anchor: middle;
}</style></svg>