<svg width="384.267529296875px" height="125.61252441406249px" xmlns="http://www.w3.org/2000/svg" viewBox="57.866235351562494 12.193737792968754 384.267529296875 125.61252441406249" style="background: rgba(0, 0, 0, 0);" preserveAspectRatio="xMidYMid"><defs><filter id="editing-hole" x="-100%" y="-100%" width="300%" height="300%"><feFlood flood-color="#000000" result="black"></feFlood><feMorphology operator="dilate" radius="2" in="SourceGraphic" result="erode"></feMorphology><feGaussianBlur in="erode" stdDeviation="4" result="blur"></feGaussianBlur><feOffset in="blur" dx="2" dy="2" result="offset"></feOffset><feComposite operator="atop" in="offset" in2="black" result="merge"></feComposite><feComposite operator="in" in="merge" in2="SourceGraphic" result="inner-shadow"></feComposite></filter></defs><g filter="url(#editing-hole)"><g transform="translate(114.42999267578125, 101.86687469482422)"><path d="M35.28-3.60L35.28-3.60Q35.82-2.70 35.82-1.98L35.82-1.98L35.82-1.98Q35.82-1.08 35.16-0.54L35.16-0.54L35.16-0.54Q34.50 0 33.42 0L33.42 0L33.42 0Q32.70 0 32.22-0.30L32.22-0.30L32.22-0.30Q31.74-0.60 31.38-1.20L31.38-1.20L20.58-18.36L19.56-18.36L10.68-18.36L10.68-2.34L10.68-2.34Q10.68-1.32 10.02-0.66L10.02-0.66L10.02-0.66Q9.36 0 8.34 0L8.34 0L8.34 0Q7.32 0 6.66-0.66L6.66-0.66L6.66-0.66Q6-1.32 6-2.34L6-2.34L6-44.52L6-44.52Q6-45.54 6.66-46.20L6.66-46.20L6.66-46.20Q7.32-46.86 8.34-46.86L8.34-46.86L19.56-46.86L19.56-46.86Q23.94-46.86 27.36-45.03L27.36-45.03L27.36-45.03Q30.78-43.20 32.73-39.90L32.73-39.90L32.73-39.90Q34.68-36.60 34.68-32.40L34.68-32.40L34.68-32.40Q34.68-27.78 32.19-24.30L32.19-24.30L32.19-24.30Q29.70-20.82 25.44-19.32L25.44-19.32L35.28-3.60ZM10.68-22.86L19.56-22.86L19.56-22.86Q22.56-22.86 24.99-24.09L24.99-24.09L24.99-24.09Q27.42-25.32 28.77-27.48L28.77-27.48L28.77-27.48Q30.12-29.64 30.12-32.40L30.12-32.40L30.12-32.40Q30.12-35.28 28.77-37.56L28.77-37.56L28.77-37.56Q27.42-39.84 25.02-41.10L25.02-41.10L25.02-41.10Q22.62-42.36 19.56-42.36L19.56-42.36L10.68-42.36L10.68-22.86ZM73.56-4.50L73.56-4.50Q74.58-4.50 75.24-3.87L75.24-3.87L75.24-3.87Q75.90-3.24 75.90-2.28L75.90-2.28L75.90-2.28Q75.90-1.32 75.24-0.66L75.24-0.66L75.24-0.66Q74.58 0 73.56 0L73.56 0L45.42 0L45.42 0Q44.46 0 43.77-0.69L43.77-0.69L43.77-0.69Q43.08-1.38 43.08-2.34L43.08-2.34L43.08-44.52L43.08-44.52Q43.08-45.54 43.77-46.20L43.77-46.20L43.77-46.20Q44.46-46.86 45.42-46.86L45.42-46.86L73.56-46.86L73.56-46.86Q74.58-46.86 75.24-46.20L75.24-46.20L75.24-46.20Q75.90-45.54 75.90-44.58L75.90-44.58L75.90-44.58Q75.90-43.62 75.24-42.99L75.24-42.99L75.24-42.99Q74.58-42.36 73.56-42.36L73.56-42.36L47.76-42.36L47.76-25.80L66.54-25.80L66.54-25.80Q67.56-25.80 68.22-25.14L68.22-25.14L68.22-25.14Q68.88-24.48 68.88-23.52L68.88-23.52L68.88-23.52Q68.88-22.56 68.19-21.90L68.19-21.90L68.19-21.90Q67.50-21.24 66.54-21.24L66.54-21.24L47.76-21.24L47.76-4.50L73.56-4.50ZM64.50-62.52L64.50-62.52Q65.16-63.18 66.12-63.18L66.12-63.18L66.12-63.18Q67.14-63.18 67.80-62.49L67.80-62.49L67.80-62.49Q68.46-61.80 68.46-60.78L68.46-60.78L68.46-60.78Q68.46-59.82 67.80-59.22L67.80-59.22L61.08-52.44L61.08-52.44Q60.48-51.84 59.52-51.84L59.52-51.84L59.52-51.84Q58.50-51.84 57.84-52.53L57.84-52.53L57.84-52.53Q57.18-53.22 57.18-54.18L57.18-54.18L57.18-54.18Q57.18-55.14 57.72-55.74L57.72-55.74L64.50-62.52ZM99-47.46L99-47.46Q103.74-47.46 107.34-45.36L107.34-45.36L107.34-45.36Q110.94-43.26 112.98-39.90L112.98-39.90L112.98-39.90Q113.40-39.24 113.40-38.46L113.40-38.46L113.40-38.46Q113.40-37.32 112.32-36.66L112.32-36.66L112.32-36.66Q111.84-36.42 111.24-36.42L111.24-36.42L111.24-36.42Q110.58-36.42 110.01-36.75L110.01-36.75L110.01-36.75Q109.44-37.08 109.08-37.68L109.08-37.68L109.08-37.68Q105.72-42.96 98.94-43.02L98.94-43.02L98.94-43.02Q94.08-43.02 91.26-40.98L91.26-40.98L91.26-40.98Q88.44-38.94 88.44-35.16L88.44-35.16L88.44-35.16Q88.44-28.14 99.78-26.64L99.78-26.64L99.78-26.64Q107.22-25.56 110.88-22.08L110.88-22.08L110.88-22.08Q114.54-18.60 114.54-12.90L114.54-12.90L114.54-12.90Q114.54-8.70 112.50-5.64L112.50-5.64L112.50-5.64Q110.46-2.58 106.92-0.99L106.92-0.99L106.92-0.99Q103.38 0.60 99 0.60L99 0.60L99 0.60Q93.30 0.60 88.89-1.83L88.89-1.83L88.89-1.83Q84.48-4.26 82.56-8.40L82.56-8.40L82.56-8.40Q82.32-8.82 82.32-9.36L82.32-9.36L82.32-9.36Q82.32-10.20 82.95-10.77L82.95-10.77L82.95-10.77Q83.58-11.34 84.66-11.34L84.66-11.34L84.66-11.34Q85.38-11.34 86.01-10.95L86.01-10.95L86.01-10.95Q86.64-10.56 86.94-9.84L86.94-9.84L86.94-9.84Q88.32-7.14 91.53-5.49L91.53-5.49L91.53-5.49Q94.74-3.84 99-3.84L99-3.84L99-3.84Q103.92-3.84 106.92-6.21L106.92-6.21L106.92-6.21Q109.92-8.58 109.92-12.84L109.92-12.84L109.92-12.84Q109.92-16.62 107.13-19.20L107.13-19.20L107.13-19.20Q104.34-21.78 98.76-22.50L98.76-22.50L98.76-22.50Q91.80-23.34 87.81-26.85L87.81-26.85L87.81-26.85Q83.82-30.36 83.82-35.46L83.82-35.46L83.82-35.46Q83.82-39.06 85.77-41.79L85.77-41.79L85.77-41.79Q87.72-44.52 91.17-45.99L91.17-45.99L91.17-45.99Q94.62-47.46 99-47.46L99-47.46ZM124.32-44.52L124.32-44.52Q124.32-45.54 124.98-46.20L124.98-46.20L124.98-46.20Q125.64-46.86 126.66-46.86L126.66-46.86L126.66-46.86Q127.68-46.86 128.34-46.20L128.34-46.20L128.34-46.20Q129-45.54 129-44.52L129-44.52L129-15.48L129-15.48Q129-12 130.77-9.27L130.77-9.27L130.77-9.27Q132.54-6.54 135.72-5.01L135.72-5.01L135.72-5.01Q138.90-3.48 142.98-3.48L142.98-3.48L142.98-3.48Q147-3.48 150.12-5.01L150.12-5.01L150.12-5.01Q153.24-6.54 155.01-9.27L155.01-9.27L155.01-9.27Q156.78-12 156.78-15.48L156.78-15.48L156.78-44.52L156.78-44.52Q156.78-45.54 157.44-46.20L157.44-46.20L157.44-46.20Q158.10-46.86 159.12-46.86L159.12-46.86L159.12-46.86Q160.14-46.86 160.80-46.20L160.80-46.20L160.80-46.20Q161.46-45.54 161.46-44.52L161.46-44.52L161.46-15.48L161.46-15.48Q161.46-10.74 159.09-6.99L159.09-6.99L159.09-6.99Q156.72-3.24 152.52-1.14L152.52-1.14L152.52-1.14Q148.32 0.96 142.98 0.96L142.98 0.96L142.98 0.96Q137.58 0.96 133.32-1.14L133.32-1.14L133.32-1.14Q129.06-3.24 126.69-6.99L126.69-6.99L126.69-6.99Q124.32-10.74 124.32-15.48L124.32-15.48L124.32-44.52ZM218.04-46.86L218.04-46.86Q219.00-46.86 219.66-46.20L219.66-46.20L219.66-46.20Q220.32-45.54 220.32-44.52L220.32-44.52L220.32-2.34L220.32-2.34Q220.32-1.38 219.66-0.69L219.66-0.69L219.66-0.69Q219.00 0 218.04 0L218.04 0L218.04 0Q217.02 0 216.33-0.69L216.33-0.69L216.33-0.69Q215.64-1.38 215.64-2.34L215.64-2.34L215.64-36.30L198.96-2.22L198.96-2.22Q198.24-1.08 196.92-1.08L196.92-1.08L196.92-1.08Q195.42-1.08 194.76-2.52L194.76-2.52L178.14-35.76L178.14-2.34L178.14-2.34Q178.14-1.38 177.48-0.69L177.48-0.69L177.48-0.69Q176.82 0 175.80 0L175.80 0L175.80 0Q174.84 0 174.15-0.69L174.15-0.69L174.15-0.69Q173.46-1.38 173.46-2.34L173.46-2.34L173.46-44.52L173.46-44.52Q173.46-45.54 174.15-46.20L174.15-46.20L174.15-46.20Q174.84-46.86 175.80-46.86L175.80-46.86L175.80-46.86Q177.18-46.86 177.90-45.66L177.90-45.66L197.10-7.50L215.94-45.66L215.94-45.66Q216.66-46.86 218.04-46.86L218.04-46.86ZM262.80-4.50L262.80-4.50Q263.82-4.50 264.48-3.87L264.48-3.87L264.48-3.87Q265.14-3.24 265.14-2.28L265.14-2.28L265.14-2.28Q265.14-1.32 264.48-0.66L264.48-0.66L264.48-0.66Q263.82 0 262.80 0L262.80 0L234.66 0L234.66 0Q233.70 0 233.01-0.69L233.01-0.69L233.01-0.69Q232.32-1.38 232.32-2.34L232.32-2.34L232.32-44.52L232.32-44.52Q232.32-45.54 233.01-46.20L233.01-46.20L233.01-46.20Q233.70-46.86 234.66-46.86L234.66-46.86L262.80-46.86L262.80-46.86Q263.82-46.86 264.48-46.20L264.48-46.20L264.48-46.20Q265.14-45.54 265.14-44.58L265.14-44.58L265.14-44.58Q265.14-43.62 264.48-42.99L264.48-42.99L264.48-42.99Q263.82-42.36 262.80-42.36L262.80-42.36L237-42.36L237-25.80L255.78-25.80L255.78-25.80Q256.80-25.80 257.46-25.14L257.46-25.14L257.46-25.14Q258.12-24.48 258.12-23.52L258.12-23.52L258.12-23.52Q258.12-22.56 257.43-21.90L257.43-21.90L257.43-21.90Q256.74-21.24 255.78-21.24L255.78-21.24L237-21.24L237-4.50L262.80-4.50ZM253.74-62.52L253.74-62.52Q254.40-63.18 255.36-63.18L255.36-63.18L255.36-63.18Q256.38-63.18 257.04-62.49L257.04-62.49L257.04-62.49Q257.70-61.80 257.70-60.78L257.70-60.78L257.70-60.78Q257.70-59.82 257.04-59.22L257.04-59.22L250.32-52.44L250.32-52.44Q249.72-51.84 248.76-51.84L248.76-51.84L248.76-51.84Q247.74-51.84 247.08-52.53L247.08-52.53L247.08-52.53Q246.42-53.22 246.42-54.18L246.42-54.18L246.42-54.18Q246.42-55.14 246.96-55.74L246.96-55.74L253.74-62.52Z" fill="#000000"></path></g></g><style>text {
  font-size: 64px;
  font-family: Arial Black;
  dominant-baseline: central;
  text-anchor: middle;
}</style></svg>