<svg width="330.844970703125px" height="111.22625732421875px" xmlns="http://www.w3.org/2000/svg" viewBox="84.5775146484375 19.386871337890625 330.844970703125 111.22625732421875" style="background: rgba(0, 0, 0, 0);" preserveAspectRatio="xMidYMid"><defs><filter id="editing-hole" x="-100%" y="-100%" width="300%" height="300%"><feFlood flood-color="#000000" result="black"></feFlood><feMorphology operator="dilate" radius="2" in="SourceGraphic" result="erode"></feMorphology><feGaussianBlur in="erode" stdDeviation="4" result="blur"></feGaussianBlur><feOffset in="blur" dx="2" dy="2" result="offset"></feOffset><feComposite operator="atop" in="offset" in2="black" result="merge"></feComposite><feComposite operator="in" in="merge" in2="SourceGraphic" result="inner-shadow"></feComposite></filter></defs><g filter="url(#editing-hole)"><g transform="translate(133.03000020980835, 99.8359375)"><path d="M20.22-33.18L20.22-33.18Q22.74-33.18 24.21-32.52L24.21-32.52L24.21-32.52Q25.68-31.86 25.68-30.66L25.68-30.66L25.68-30.66Q25.68-30.30 25.62-30.12L25.62-30.12L25.62-30.12Q25.38-29.28 24.87-28.98L24.87-28.98L24.87-28.98Q24.36-28.68 23.46-28.68L23.46-28.68L23.46-28.68Q22.92-28.68 21.60-28.80L21.60-28.80L21.60-28.80Q21.12-28.86 20.16-28.86L20.16-28.86L20.16-28.86Q15.66-28.86 12.81-26.46L12.81-26.46L12.81-26.46Q9.96-24.06 9.96-20.22L9.96-20.22L9.96-2.28L9.96-2.28Q9.96-1.20 9.36-0.60L9.36-0.60L9.36-0.60Q8.76 0 7.68 0L7.68 0L7.68 0Q6.60 0 6-0.60L6-0.60L6-0.60Q5.40-1.20 5.40-2.28L5.40-2.28L5.40-30.54L5.40-30.54Q5.40-31.62 6-32.22L6-32.22L6-32.22Q6.60-32.82 7.68-32.82L7.68-32.82L7.68-32.82Q8.76-32.82 9.36-32.22L9.36-32.22L9.36-32.22Q9.96-31.62 9.96-30.54L9.96-30.54L9.96-27.90L9.96-27.90Q11.70-30.42 14.40-31.80L14.40-31.80L14.40-31.80Q17.10-33.18 20.22-33.18L20.22-33.18ZM46.86-33.12L46.86-33.12Q51.30-33.12 54.72-31.05L54.72-31.05L54.72-31.05Q58.14-28.98 60.03-25.32L60.03-25.32L60.03-25.32Q61.92-21.66 61.92-16.98L61.92-16.98L61.92-16.98Q61.92-16.02 61.32-15.45L61.32-15.45L61.32-15.45Q60.72-14.88 59.76-14.88L59.76-14.88L35.52-14.88L35.52-14.88Q36-9.96 39.36-6.90L39.36-6.90L39.36-6.90Q42.72-3.84 47.76-3.84L47.76-3.84L47.76-3.84Q49.92-3.84 52.11-4.59L52.11-4.59L52.11-4.59Q54.30-5.34 55.62-6.48L55.62-6.48L55.62-6.48Q56.40-7.08 57.24-7.08L57.24-7.08L57.24-7.08Q57.90-7.08 58.56-6.60L58.56-6.60L58.56-6.60Q59.34-5.88 59.34-4.98L59.34-4.98L59.34-4.98Q59.34-4.20 58.68-3.60L58.68-3.60L58.68-3.60Q56.70-1.92 53.64-0.81L53.64-0.81L53.64-0.81Q50.58 0.30 47.76 0.30L47.76 0.30L47.76 0.30Q42.96 0.30 39.18-1.83L39.18-1.83L39.18-1.83Q35.40-3.96 33.27-7.77L33.27-7.77L33.27-7.77Q31.14-11.58 31.14-16.38L31.14-16.38L31.14-16.38Q31.14-21.24 33.15-25.05L33.15-25.05L33.15-25.05Q35.16-28.86 38.73-30.99L38.73-30.99L38.73-30.99Q42.30-33.12 46.86-33.12L46.86-33.12ZM46.86-28.98L46.86-28.98Q42.30-28.98 39.30-26.16L39.30-26.16L39.30-26.16Q36.30-23.34 35.64-18.72L35.64-18.72L57.60-18.72L57.60-18.72Q57.12-23.34 54.24-26.16L54.24-26.16L54.24-26.16Q51.36-28.98 46.86-28.98L46.86-28.98ZM51.12-48.48L51.12-48.48Q51.78-49.14 52.74-49.14L52.74-49.14L52.74-49.14Q53.76-49.14 54.42-48.45L54.42-48.45L54.42-48.45Q55.08-47.76 55.08-46.74L55.08-46.74L55.08-46.74Q55.08-45.78 54.42-45.18L54.42-45.18L47.70-38.40L47.70-38.40Q47.10-37.80 46.14-37.80L46.14-37.80L46.14-37.80Q45.12-37.80 44.46-38.49L44.46-38.49L44.46-38.49Q43.80-39.18 43.80-40.14L43.80-40.14L43.80-40.14Q43.80-41.10 44.34-41.70L44.34-41.70L51.12-48.48ZM81.06-33.12L81.06-33.12Q85.02-33.12 87.96-31.77L87.96-31.77L87.96-31.77Q90.90-30.42 92.70-28.02L92.70-28.02L92.70-28.02Q93.18-27.24 93.18-26.64L93.18-26.64L93.18-26.64Q93.18-25.62 92.22-25.02L92.22-25.02L92.22-25.02Q91.80-24.72 91.08-24.72L91.08-24.72L91.08-24.72Q89.82-24.72 88.98-25.62L88.98-25.62L88.98-25.62Q86.04-28.98 80.94-28.98L80.94-28.98L80.94-28.98Q77.64-28.98 75.66-27.63L75.66-27.63L75.66-27.63Q73.68-26.28 73.68-24.24L73.68-24.24L73.68-24.24Q73.68-22.08 75.54-20.79L75.54-20.79L75.54-20.79Q77.40-19.50 82.14-18.72L82.14-18.72L82.14-18.72Q88.56-17.64 91.32-15.21L91.32-15.21L91.32-15.21Q94.08-12.78 94.08-9.18L94.08-9.18L94.08-9.18Q94.08-6.42 92.43-4.26L92.43-4.26L92.43-4.26Q90.78-2.10 87.84-0.90L87.84-0.90L87.84-0.90Q84.90 0.30 81.18 0.30L81.18 0.30L81.18 0.30Q77.46 0.30 74.04-0.96L74.04-0.96L74.04-0.96Q70.62-2.22 68.52-4.50L68.52-4.50L68.52-4.50Q67.92-5.22 67.92-5.88L67.92-5.88L67.92-5.88Q67.92-6.90 68.88-7.68L68.88-7.68L68.88-7.68Q69.60-8.22 70.38-8.22L70.38-8.22L70.38-8.22Q71.40-8.22 72.12-7.38L72.12-7.38L72.12-7.38Q73.56-5.70 75.93-4.80L75.93-4.80L75.93-4.80Q78.30-3.90 81.18-3.90L81.18-3.90L81.18-3.90Q85.38-3.90 87.48-5.34L87.48-5.34L87.48-5.34Q89.58-6.78 89.64-9.12L89.64-9.12L89.64-9.12Q89.64-11.28 87.54-12.72L87.54-12.72L87.54-12.72Q85.44-14.16 80.88-14.88L80.88-14.88L80.88-14.88Q75-15.84 72.09-18.21L72.09-18.21L72.09-18.21Q69.18-20.58 69.18-23.94L69.18-23.94L69.18-23.94Q69.18-28.32 72.57-30.72L72.57-30.72L72.57-30.72Q75.96-33.12 81.06-33.12L81.06-33.12ZM129.54-32.82L129.54-32.82Q130.56-32.82 131.22-32.19L131.22-32.19L131.22-32.19Q131.88-31.56 131.88-30.54L131.88-30.54L131.88-2.34L131.88-2.34Q131.88-1.32 131.22-0.66L131.22-0.66L131.22-0.66Q130.56 0 129.54 0L129.54 0L129.54 0Q128.52 0 127.89-0.66L127.89-0.66L127.89-0.66Q127.26-1.32 127.26-2.34L127.26-2.34L127.26-4.38L127.26-4.38Q125.28-2.16 122.46-0.90L122.46-0.90L122.46-0.90Q119.64 0.36 116.34 0.36L116.34 0.36L116.34 0.36Q112.08 0.36 108.69-1.44L108.69-1.44L108.69-1.44Q105.30-3.24 103.38-6.69L103.38-6.69L103.38-6.69Q101.46-10.14 101.46-14.94L101.46-14.94L101.46-30.54L101.46-30.54Q101.46-31.50 102.12-32.16L102.12-32.16L102.12-32.16Q102.78-32.82 103.74-32.82L103.74-32.82L103.74-32.82Q104.76-32.82 105.42-32.16L105.42-32.16L105.42-32.16Q106.08-31.50 106.08-30.54L106.08-30.54L106.08-14.94L106.08-14.94Q106.08-9.60 109.05-6.81L109.05-6.81L109.05-6.81Q112.02-4.02 116.82-4.02L116.82-4.02L116.82-4.02Q119.76-4.02 122.13-5.16L122.13-5.16L122.13-5.16Q124.50-6.30 125.88-8.31L125.88-8.31L125.88-8.31Q127.26-10.32 127.26-12.78L127.26-12.78L127.26-30.54L127.26-30.54Q127.26-31.56 127.89-32.19L127.89-32.19L127.89-32.19Q128.52-32.82 129.54-32.82L129.54-32.82ZM177.24-33.18L177.24-33.18Q180.78-33.18 183.51-31.50L183.51-31.50L183.51-31.50Q186.24-29.82 187.77-26.73L187.77-26.73L187.77-26.73Q189.30-23.64 189.30-19.56L189.30-19.56L189.30-2.28L189.30-2.28Q189.30-1.26 188.67-0.63L188.67-0.63L188.67-0.63Q188.04 0 187.02 0L187.02 0L187.02 0Q186 0 185.34-0.63L185.34-0.63L185.34-0.63Q184.68-1.26 184.68-2.28L184.68-2.28L184.68-19.56L184.68-19.56Q184.68-23.82 182.49-26.31L182.49-26.31L182.49-26.31Q180.30-28.80 176.76-28.80L176.76-28.80L176.76-28.80Q172.98-28.80 170.64-26.28L170.64-26.28L170.64-26.28Q168.30-23.76 168.36-19.68L168.36-19.68L168.36-19.56L168.36-2.28L168.36-2.28Q168.36-1.26 167.73-0.63L167.73-0.63L167.73-0.63Q167.10 0 166.08 0L166.08 0L166.08 0Q165.06 0 164.40-0.63L164.40-0.63L164.40-0.63Q163.74-1.26 163.74-2.28L163.74-2.28L163.74-19.56L163.74-19.56Q163.74-23.82 161.55-26.31L161.55-26.31L161.55-26.31Q159.36-28.80 155.82-28.80L155.82-28.80L155.82-28.80Q152.10-28.80 149.70-26.34L149.70-26.34L149.70-26.34Q147.30-23.88 147.30-20.04L147.30-20.04L147.30-2.28L147.30-2.28Q147.30-1.26 146.67-0.63L146.67-0.63L146.67-0.63Q146.04 0 145.02 0L145.02 0L145.02 0Q144 0 143.34-0.63L143.34-0.63L143.34-0.63Q142.68-1.26 142.68-2.28L142.68-2.28L142.68-30.48L142.68-30.48Q142.68-31.50 143.34-32.16L143.34-32.16L143.34-32.16Q144-32.82 145.02-32.82L145.02-32.82L145.02-32.82Q146.04-32.82 146.67-32.16L146.67-32.16L146.67-32.16Q147.30-31.50 147.30-30.48L147.30-30.48L147.30-29.16L147.30-29.16Q148.98-31.08 151.29-32.13L151.29-32.13L151.29-32.13Q153.60-33.18 156.30-33.18L156.30-33.18L156.30-33.18Q159.60-33.18 162.24-31.68L162.24-31.68L162.24-31.68Q164.88-30.18 166.44-27.48L166.44-27.48L166.44-27.48Q168.18-30.18 170.97-31.68L170.97-31.68L170.97-31.68Q173.76-33.18 177.24-33.18L177.24-33.18ZM213.48-33.12L213.48-33.12Q217.92-33.12 221.34-31.05L221.34-31.05L221.34-31.05Q224.76-28.98 226.65-25.32L226.65-25.32L226.65-25.32Q228.54-21.66 228.54-16.98L228.54-16.98L228.54-16.98Q228.54-16.02 227.94-15.45L227.94-15.45L227.94-15.45Q227.34-14.88 226.38-14.88L226.38-14.88L202.14-14.88L202.14-14.88Q202.62-9.96 205.98-6.90L205.98-6.90L205.98-6.90Q209.34-3.84 214.38-3.84L214.38-3.84L214.38-3.84Q216.54-3.84 218.73-4.59L218.73-4.59L218.73-4.59Q220.92-5.34 222.24-6.48L222.24-6.48L222.24-6.48Q223.02-7.08 223.86-7.08L223.86-7.08L223.86-7.08Q224.52-7.08 225.18-6.60L225.18-6.60L225.18-6.60Q225.96-5.88 225.96-4.98L225.96-4.98L225.96-4.98Q225.96-4.20 225.30-3.60L225.30-3.60L225.30-3.60Q223.32-1.92 220.26-0.81L220.26-0.81L220.26-0.81Q217.20 0.30 214.38 0.30L214.38 0.30L214.38 0.30Q209.58 0.30 205.80-1.83L205.80-1.83L205.80-1.83Q202.02-3.96 199.89-7.77L199.89-7.77L199.89-7.77Q197.76-11.58 197.76-16.38L197.76-16.38L197.76-16.38Q197.76-21.24 199.77-25.05L199.77-25.05L199.77-25.05Q201.78-28.86 205.35-30.99L205.35-30.99L205.35-30.99Q208.92-33.12 213.48-33.12L213.48-33.12ZM213.48-28.98L213.48-28.98Q208.92-28.98 205.92-26.16L205.92-26.16L205.92-26.16Q202.92-23.34 202.26-18.72L202.26-18.72L224.22-18.72L224.22-18.72Q223.74-23.34 220.86-26.16L220.86-26.16L220.86-26.16Q217.98-28.98 213.48-28.98L213.48-28.98ZM217.74-48.48L217.74-48.48Q218.40-49.14 219.36-49.14L219.36-49.14L219.36-49.14Q220.38-49.14 221.04-48.45L221.04-48.45L221.04-48.45Q221.70-47.76 221.70-46.74L221.70-46.74L221.70-46.74Q221.70-45.78 221.04-45.18L221.04-45.18L214.32-38.40L214.32-38.40Q213.72-37.80 212.76-37.80L212.76-37.80L212.76-37.80Q211.74-37.80 211.08-38.49L211.08-38.49L211.08-38.49Q210.42-39.18 210.42-40.14L210.42-40.14L210.42-40.14Q210.42-41.10 210.96-41.70L210.96-41.70L217.74-48.48Z" fill="#000000"></path></g></g><style>text {
  font-size: 64px;
  font-family: Arial Black;
  dominant-baseline: central;
  text-anchor: middle;
}</style></svg>