<svg width="281.41748046875px" height="114.8175048828125px" xmlns="http://www.w3.org/2000/svg" viewBox="109.291259765625 17.59124755859375 281.41748046875 114.8175048828125" style="background: rgba(0, 0, 0, 0);" preserveAspectRatio="xMidYMid"><defs><filter id="editing-hole" x="-100%" y="-100%" width="300%" height="300%"><feFlood flood-color="#000000" result="black"></feFlood><feMorphology operator="dilate" radius="2" in="SourceGraphic" result="erode"></feMorphology><feGaussianBlur in="erode" stdDeviation="4" result="blur"></feGaussianBlur><feOffset in="blur" dx="2" dy="2" result="offset"></feOffset><feComposite operator="atop" in="offset" in2="black" result="merge"></feComposite><feComposite operator="in" in="merge" in2="SourceGraphic" result="inner-shadow"></feComposite></filter></defs><g filter="url(#editing-hole)"><g transform="translate(151.9699993133545, 104.42000007629395)"><path d="M4.74 0L4.74-45L7.32-45L7.32-45Q14.34-45 18.15-41.28L18.15-41.28L18.15-41.28Q21.96-37.56 21.96-30.66L21.96-30.66L21.96-30.66Q21.96-26.70 20.07-23.40L20.07-23.40L20.07-23.40Q18.18-20.10 14.94-18.21L14.94-18.21L14.94-18.21Q11.70-16.32 7.80-16.32L7.80-16.32L7.38-16.32L22.86 0L20.28 0L6.66-14.28L6.66 0L4.74 0ZM6.66-18.06L7.74-18.06L7.74-18.06Q11.16-18.06 13.98-19.74L13.98-19.74L13.98-19.74Q16.80-21.42 18.42-24.27L18.42-24.27L18.42-24.27Q20.04-27.12 20.04-30.60L20.04-30.60L20.04-30.60Q20.04-36.66 16.77-39.96L16.77-39.96L16.77-39.96Q13.50-43.26 7.44-43.26L7.44-43.26L6.66-43.26L6.66-18.06ZM29.52 0L29.52-45L45.66-45L45.66-43.26L31.50-43.26L31.50-18.78L43.32-18.78L43.32-17.04L31.50-17.04L31.50-1.74L45.66-1.74L45.66 0L29.52 0ZM36.48-49.74L44.88-56.64L47.34-56.64L39-49.74L36.48-49.74ZM61.38 0.84L61.38 0.84Q53.88 0.84 49.74-5.34L49.74-5.34L49.74-8.58L49.74-8.58Q51.36-4.98 54.45-2.94L54.45-2.94L54.45-2.94Q57.54-0.90 61.86-0.90L61.86-0.90L61.86-0.90Q64.86-0.90 67.41-2.22L67.41-2.22L67.41-2.22Q69.96-3.54 71.46-5.94L71.46-5.94L71.46-5.94Q72.96-8.34 72.96-11.46L72.96-11.46L72.96-11.46Q72.96-14.28 72-16.32L72-16.32L72-16.32Q71.04-18.36 68.82-20.25L68.82-20.25L68.82-20.25Q66.60-22.14 62.40-24.72L62.40-24.72L60.48-25.92L60.48-25.92Q57.84-27.54 56.22-28.80L56.22-28.80L56.22-28.80Q54.60-30.06 53.40-31.74L53.40-31.74L53.40-31.74Q51.84-34.08 51.84-37.14L51.84-37.14L51.84-37.14Q51.84-41.22 54.48-43.50L54.48-43.50L54.48-43.50Q57.12-45.78 61.20-45.78L61.20-45.78L61.20-45.78Q66.72-45.78 69.96-41.70L69.96-41.70L69.96-38.64L69.96-38.64Q68.58-41.16 66.18-42.60L66.18-42.60L66.18-42.60Q63.78-44.04 60.90-44.04L60.90-44.04L60.90-44.04Q57.90-44.04 55.86-42.18L55.86-42.18L55.86-42.18Q53.82-40.32 53.82-37.20L53.82-37.20L53.82-37.20Q53.82-34.14 55.71-31.95L55.71-31.95L55.71-31.95Q57.60-29.76 62.10-27.18L62.10-27.18L62.10-27.18Q67.62-23.94 70.68-21.30L70.68-21.30L70.68-21.30Q72.84-19.32 73.83-16.92L73.83-16.92L73.83-16.92Q74.82-14.52 74.82-11.58L74.82-11.58L74.82-11.58Q74.82-7.86 73.08-5.04L73.08-5.04L73.08-5.04Q71.34-2.22 68.28-0.69L68.28-0.69L68.28-0.69Q65.22 0.84 61.38 0.84L61.38 0.84ZM95.58 1.20L95.58 1.20Q91.68 1.20 88.62-0.45L88.62-0.45L88.62-0.45Q85.56-2.10 83.82-5.16L83.82-5.16L83.82-5.16Q82.08-8.22 82.08-12.30L82.08-12.30L82.08-45L84.06-45L84.06-12.36L84.06-12.36Q84.06-8.76 85.56-6.09L85.56-6.09L85.56-6.09Q87.06-3.42 89.67-1.98L89.67-1.98L89.67-1.98Q92.28-0.54 95.52-0.54L95.52-0.54L95.52-0.54Q98.76-0.54 101.37-1.95L101.37-1.95L101.37-1.95Q103.98-3.36 105.45-6.03L105.45-6.03L105.45-6.03Q106.92-8.70 106.92-12.36L106.92-12.36L106.92-45L108.90-45L108.90-12.42L108.90-12.42Q108.90-8.28 107.22-5.19L107.22-5.19L107.22-5.19Q105.54-2.10 102.51-0.45L102.51-0.45L102.51-0.45Q99.48 1.20 95.58 1.20L95.58 1.20ZM161.76-45L164.52-45L164.52 0L162.54 0L162.54-42.12L141.30 0.84L120.18-42.66L120.18 0L118.20 0L118.20-45L121.02-45L141.30-3.24L161.76-45ZM174 0L174-45L190.14-45L190.14-43.26L175.98-43.26L175.98-18.78L187.80-18.78L187.80-17.04L175.98-17.04L175.98-1.74L190.14-1.74L190.14 0L174 0ZM180.96-49.74L189.36-56.64L191.82-56.64L183.48-49.74L180.96-49.74Z" fill="#000000"></path></g></g><style>text {
  font-size: 64px;
  font-family: Arial Black;
  dominant-baseline: central;
  text-anchor: middle;
}</style></svg>