<svg width="294.975048828125px" height="153.21625976562498px" xmlns="http://www.w3.org/2000/svg" viewBox="102.5124755859375 -1.6081298828124915 294.975048828125 153.21625976562498" style="background: rgba(0, 0, 0, 0);" preserveAspectRatio="xMidYMid"><defs><filter id="editing-hole" x="-100%" y="-100%" width="300%" height="300%"><feFlood flood-color="#000000" result="black"></feFlood><feMorphology operator="dilate" radius="2" in="SourceGraphic" result="erode"></feMorphology><feGaussianBlur in="erode" stdDeviation="4" result="blur"></feGaussianBlur><feOffset in="blur" dx="2" dy="2" result="offset"></feOffset><feComposite operator="atop" in="offset" in2="black" result="merge"></feComposite><feComposite operator="in" in="merge" in2="SourceGraphic" result="inner-shadow"></feComposite></filter></defs><g filter="url(#editing-hole)"><g transform="translate(147.9250020980835, 104.02656364440918)"><path d="M8.29 0L3.96 0L3.96-44.38L18.90-44.38L18.90-44.38Q25.90-44.38 29.38-38.94L29.38-38.94L29.38-38.94Q31.29-35.98 31.29-32.72L31.29-32.72L31.29-32.72Q31.29-28.80 29.41-25.55L29.41-25.55L29.41-25.55Q27.36-21.97 22.73-20.98L22.73-20.98L31.11 0L26.37 0L18.28-20.27L8.29-20.27L8.29 0ZM8.29-40.75L8.29-23.91L19.31-23.91L19.31-23.91Q22.38-23.91 24.55-25.84L24.55-25.84L24.55-25.84Q26.95-27.98 26.95-32.52L26.95-32.52L26.95-32.52Q26.95-38.55 20.45-40.25L20.45-40.25L20.45-40.25Q18.52-40.75 16.23-40.75L16.23-40.75L8.29-40.75ZM49.54-47.08L47.61-48.98L56.25-57.63L58.80-55.08L49.54-47.08ZM61.14 0L35.98 0L35.98-44.38L60.03-44.38L60.03-40.75L40.31-40.75L40.31-25.14L54.46-25.14L54.46-21.50L40.31-21.50L40.31-3.90L61.14-3.90L61.14 0ZM63.98-10.17L63.75-10.78L67.76-12.19L67.76-12.19Q67.79-12.19 67.90-11.69L67.90-11.69L67.90-11.69Q68.00-11.19 68.28-10.40L68.28-10.40L68.28-10.40Q68.55-9.61 69.02-8.64L69.02-8.64L69.02-8.64Q69.49-7.68 70.36-6.71L70.36-6.71L70.36-6.71Q71.22-5.74 72.36-4.95L72.36-4.95L72.36-4.95Q74.88-3.16 79.01-3.16L79.01-3.16L79.01-3.16Q83.14-3.16 85.17-5.42L85.17-5.42L85.17-5.42Q87.19-7.68 87.19-10.97L87.19-10.97L87.19-10.97Q87.19-14.27 85.91-16.16L85.91-16.16L85.91-16.16Q84.64-18.05 81.45-19.37L81.45-19.37L81.45-19.37Q80.51-19.75 78.98-20.27L78.98-20.27L76.20-21.24L76.20-21.24Q68.96-23.64 66.47-27.39L66.47-27.39L66.47-27.39Q64.75-30 64.75-33.49L64.75-33.49L64.75-33.49Q64.75-37.62 68.03-41.19L68.03-41.19L68.03-41.19Q69.58-42.83 71.98-43.86L71.98-43.86L71.98-43.86Q74.38-44.88 77.04-44.88L77.04-44.88L77.04-44.88Q79.69-44.88 81.72-44.17L81.72-44.17L81.72-44.17Q83.76-43.45 85.00-42.39L85.00-42.39L85.00-42.39Q86.25-41.34 87.25-39.96L87.25-39.96L87.25-39.96Q88.24-38.58 88.68-37.50L88.68-37.50L89.53-35.33L89.53-35.33Q89.91-34.31 90-34.13L90-34.13L86.19-32.67L86.19-32.67Q86.13-32.81 85.91-33.59L85.91-33.59L85.91-33.59Q85.69-34.37 85.53-34.86L85.53-34.86L85.53-34.86Q85.37-35.36 84.98-36.24L84.98-36.24L84.98-36.24Q84.58-37.12 84.16-37.72L84.16-37.72L84.16-37.72Q83.73-38.32 83.04-39.04L83.04-39.04L83.04-39.04Q82.35-39.76 81.56-40.20L81.56-40.20L81.56-40.20Q79.63-41.25 77.20-41.25L77.20-41.25L77.20-41.25Q73.59-41.25 71.34-39.13L71.34-39.13L71.34-39.13Q69.08-37.00 69.08-33.49L69.08-33.49L69.08-33.49Q69.08-29.65 71.07-28.10L71.07-28.10L71.07-28.10Q72.16-27.25 72.91-26.87L72.91-26.87L72.91-26.87Q73.65-26.48 74.66-26.12L74.66-26.12L74.66-26.12Q75.67-25.75 76.14-25.56L76.14-25.56L76.14-25.56Q76.61-25.37 77.99-24.96L77.99-24.96L80.45-24.20L80.45-24.20Q87.25-22.12 89.79-18.02L89.79-18.02L89.79-18.02Q91.52-15.23 91.52-11.28L91.52-11.28L91.52-11.28Q91.52-8.41 89.71-5.27L89.71-5.27L89.71-5.27Q87.45-1.29 82.85 0L82.85 0L82.85 0Q81.12 0.47 78.82 0.47L78.82 0.47L78.82 0.47Q76.52 0.47 74.30-0.15L74.30-0.15L74.30-0.15Q72.07-0.76 70.56-1.76L70.56-1.76L70.56-1.76Q69.05-2.75 67.84-3.96L67.84-3.96L67.84-3.96Q66.62-5.16 65.89-6.36L65.89-6.36L65.89-6.36Q64.54-8.55 63.98-10.17L63.98-10.17ZM96.80-13.33L96.80-13.33L96.80-44.38L101.13-44.38L101.13-13.33L101.13-13.33Q101.13-9.35 103.07-6.62L103.07-6.62L103.07-6.62Q105.50-3.16 110.68-3.16L110.68-3.16L110.68-3.16Q118.42-3.16 119.85-10.14L119.85-10.14L119.85-10.14Q120.21-11.75 120.21-13.33L120.21-13.33L120.21-44.38L124.63-44.38L124.63-13.33L124.63-13.33Q124.63-8.53 122.02-4.75L122.02-4.75L122.02-4.75Q118.51 0.47 110.68 0.47L110.68 0.47L110.68 0.47Q101.34 0.47 98.12-6.97L98.12-6.97L98.12-6.97Q96.80-10.08 96.80-13.33ZM136.46 0L132.13 0L132.13-44.38L139.98-44.38L149.47-10.31L149.77-10.31L159.26-44.38L167.11-44.38L167.11 0L162.77 0L162.77-40.25L162.48-40.25L151.29 0L147.95 0L136.76-40.25L136.46-40.25L136.46 0ZM188.58-47.08L186.65-48.98L195.29-57.63L197.84-55.08L188.58-47.08ZM200.19 0L175.02 0L175.02-44.38L199.07-44.38L199.07-40.75L179.36-40.75L179.36-25.14L193.51-25.14L193.51-21.50L179.36-21.50L179.36-3.90L200.19-3.90L200.19 0Z" fill="#000000"></path></g></g><style>text {
  font-size: 64px;
  font-family: Arial Black;
  dominant-baseline: central;
  text-anchor: middle;
}</style></svg>