<svg width="492.3025390625px" height="111.22625732421875px" xmlns="http://www.w3.org/2000/svg" viewBox="3.8487304687500057 19.386871337890625 492.3025390625 111.22625732421875" style="background: rgba(0, 0, 0, 0);" preserveAspectRatio="xMidYMid"><defs><filter id="editing-hole" x="-100%" y="-100%" width="300%" height="300%"><feFlood flood-color="#000000" result="black"></feFlood><feMorphology operator="dilate" radius="2" in="SourceGraphic" result="erode"></feMorphology><feGaussianBlur in="erode" stdDeviation="4" result="blur"></feGaussianBlur><feOffset in="blur" dx="2" dy="2" result="offset"></feOffset><feComposite operator="atop" in="offset" in2="black" result="merge"></feComposite><feComposite operator="in" in="merge" in2="SourceGraphic" result="inner-shadow"></feComposite></filter></defs><g filter="url(#editing-hole)"><g transform="translate(75.12812495231628, 105.65593719482422)"><path d="M19.86-4.62L19.86-4.62Q20.82-4.62 21.42-3.96L21.42-3.96L21.42-3.96Q22.02-3.30 22.02-2.28L22.02-2.28L22.02-2.28Q22.02-1.32 21.30-0.66L21.30-0.66L21.30-0.66Q20.58 0 19.50 0L19.50 0L18.24 0L18.24 0Q15.06 0 12.54-1.53L12.54-1.53L12.54-1.53Q10.02-3.06 8.61-5.67L8.61-5.67L8.61-5.67Q7.20-8.28 7.20-11.58L7.20-11.58L7.20-27.60L3.30-27.60L3.30-27.60Q2.34-27.60 1.77-28.17L1.77-28.17L1.77-28.17Q1.20-28.74 1.20-29.58L1.20-29.58L1.20-29.58Q1.20-30.48 1.77-31.05L1.77-31.05L1.77-31.05Q2.34-31.62 3.30-31.62L3.30-31.62L7.20-31.62L7.20-40.92L7.20-40.92Q7.20-41.94 7.83-42.60L7.83-42.60L7.83-42.60Q8.46-43.26 9.48-43.26L9.48-43.26L9.48-43.26Q10.50-43.26 11.16-42.60L11.16-42.60L11.16-42.60Q11.82-41.94 11.82-40.92L11.82-40.92L11.82-31.62L18.60-31.62L18.60-31.62Q19.56-31.62 20.13-31.05L20.13-31.05L20.13-31.05Q20.70-30.48 20.70-29.58L20.70-29.58L20.70-29.58Q20.70-28.74 20.13-28.17L20.13-28.17L20.13-28.17Q19.56-27.60 18.60-27.60L18.60-27.60L11.82-27.60L11.82-11.58L11.82-11.58Q11.82-8.52 13.62-6.57L13.62-6.57L13.62-6.57Q15.42-4.62 18.24-4.62L18.24-4.62L19.86-4.62ZM43.50-33.12L43.50-33.12Q47.94-33.12 51.36-31.05L51.36-31.05L51.36-31.05Q54.78-28.98 56.67-25.32L56.67-25.32L56.67-25.32Q58.56-21.66 58.56-16.98L58.56-16.98L58.56-16.98Q58.56-16.02 57.96-15.45L57.96-15.45L57.96-15.45Q57.36-14.88 56.40-14.88L56.40-14.88L32.16-14.88L32.16-14.88Q32.64-9.96 36-6.90L36-6.90L36-6.90Q39.36-3.84 44.40-3.84L44.40-3.84L44.40-3.84Q46.56-3.84 48.75-4.59L48.75-4.59L48.75-4.59Q50.94-5.34 52.26-6.48L52.26-6.48L52.26-6.48Q53.04-7.08 53.88-7.08L53.88-7.08L53.88-7.08Q54.54-7.08 55.20-6.60L55.20-6.60L55.20-6.60Q55.98-5.88 55.98-4.98L55.98-4.98L55.98-4.98Q55.98-4.20 55.32-3.60L55.32-3.60L55.32-3.60Q53.34-1.92 50.28-0.81L50.28-0.81L50.28-0.81Q47.22 0.30 44.40 0.30L44.40 0.30L44.40 0.30Q39.60 0.30 35.82-1.83L35.82-1.83L35.82-1.83Q32.04-3.96 29.91-7.77L29.91-7.77L29.91-7.77Q27.78-11.58 27.78-16.38L27.78-16.38L27.78-16.38Q27.78-21.24 29.79-25.05L29.79-25.05L29.79-25.05Q31.80-28.86 35.37-30.99L35.37-30.99L35.37-30.99Q38.94-33.12 43.50-33.12L43.50-33.12ZM43.50-28.98L43.50-28.98Q38.94-28.98 35.94-26.16L35.94-26.16L35.94-26.16Q32.94-23.34 32.28-18.72L32.28-18.72L54.24-18.72L54.24-18.72Q53.76-23.34 50.88-26.16L50.88-26.16L50.88-26.16Q48-28.98 43.50-28.98L43.50-28.98ZM80.40-33.12L80.40-33.12Q87.90-33.12 92.58-27.36L92.58-27.36L92.58-27.36Q93.06-26.82 93.06-26.10L93.06-26.10L93.06-26.10Q93.06-25.14 92.04-24.42L92.04-24.42L92.04-24.42Q91.50-24.06 90.90-24.06L90.90-24.06L90.90-24.06Q90-24.06 89.16-24.96L89.16-24.96L89.16-24.96Q87.36-26.94 85.20-27.93L85.20-27.93L85.20-27.93Q83.04-28.92 80.40-28.92L80.40-28.92L80.40-28.92Q77.10-28.92 74.52-27.33L74.52-27.33L74.52-27.33Q71.94-25.74 70.53-22.86L70.53-22.86L70.53-22.86Q69.12-19.98 69.12-16.38L69.12-16.38L69.12-16.38Q69.12-12.84 70.62-9.99L70.62-9.99L70.62-9.99Q72.12-7.14 74.82-5.52L74.82-5.52L74.82-5.52Q77.52-3.90 81-3.90L81-3.90L81-3.90Q85.80-3.90 88.74-6.48L88.74-6.48L88.74-6.48Q89.52-7.14 90.36-7.14L90.36-7.14L90.36-7.14Q91.08-7.14 91.68-6.66L91.68-6.66L91.68-6.66Q92.52-5.94 92.52-5.04L92.52-5.04L92.52-5.04Q92.52-4.26 91.92-3.72L91.92-3.72L91.92-3.72Q87.60 0.30 81 0.30L81 0.30L81 0.30Q76.32 0.30 72.60-1.89L72.60-1.89L72.60-1.89Q68.88-4.08 66.75-7.89L66.75-7.89L66.75-7.89Q64.62-11.70 64.62-16.38L64.62-16.38L64.62-16.38Q64.62-21.18 66.66-24.99L66.66-24.99L66.66-24.99Q68.70-28.80 72.30-30.96L72.30-30.96L72.30-30.96Q75.90-33.12 80.40-33.12L80.40-33.12ZM117.66-33.18L117.66-33.18Q121.92-33.18 125.31-31.38L125.31-31.38L125.31-31.38Q128.70-29.58 130.62-26.13L130.62-26.13L130.62-26.13Q132.54-22.68 132.54-17.88L132.54-17.88L132.54-2.28L132.54-2.28Q132.54-1.32 131.88-0.66L131.88-0.66L131.88-0.66Q131.22 0 130.26 0L130.26 0L130.26 0Q129.24 0 128.58-0.66L128.58-0.66L128.58-0.66Q127.92-1.32 127.92-2.28L127.92-2.28L127.92-17.88L127.92-17.88Q127.92-23.22 124.95-26.01L124.95-26.01L124.95-26.01Q121.98-28.80 117.18-28.80L117.18-28.80L117.18-28.80Q114.24-28.80 111.87-27.66L111.87-27.66L111.87-27.66Q109.50-26.52 108.12-24.51L108.12-24.51L108.12-24.51Q106.74-22.50 106.74-20.04L106.74-20.04L106.74-2.28L106.74-2.28Q106.74-1.26 106.11-0.63L106.11-0.63L106.11-0.63Q105.48 0 104.46 0L104.46 0L104.46 0Q103.44 0 102.78-0.63L102.78-0.63L102.78-0.63Q102.12-1.26 102.12-2.28L102.12-2.28L102.12-44.52L102.12-44.52Q102.12-45.54 102.78-46.20L102.78-46.20L102.78-46.20Q103.44-46.86 104.46-46.86L104.46-46.86L104.46-46.86Q105.48-46.86 106.11-46.20L106.11-46.20L106.11-46.20Q106.74-45.54 106.74-44.52L106.74-44.52L106.74-28.44L106.74-28.44Q108.72-30.66 111.54-31.92L111.54-31.92L111.54-31.92Q114.36-33.18 117.66-33.18L117.66-33.18ZM158.28-33.18L158.28-33.18Q162.54-33.18 165.93-31.38L165.93-31.38L165.93-31.38Q169.32-29.58 171.24-26.13L171.24-26.13L171.24-26.13Q173.16-22.68 173.16-17.88L173.16-17.88L173.16-2.28L173.16-2.28Q173.16-1.32 172.50-0.66L172.50-0.66L172.50-0.66Q171.84 0 170.88 0L170.88 0L170.88 0Q169.86 0 169.20-0.66L169.20-0.66L169.20-0.66Q168.54-1.32 168.54-2.28L168.54-2.28L168.54-17.88L168.54-17.88Q168.54-23.22 165.57-26.01L165.57-26.01L165.57-26.01Q162.60-28.80 157.80-28.80L157.80-28.80L157.80-28.80Q154.86-28.80 152.49-27.66L152.49-27.66L152.49-27.66Q150.12-26.52 148.74-24.51L148.74-24.51L148.74-24.51Q147.36-22.50 147.36-20.04L147.36-20.04L147.36-2.28L147.36-2.28Q147.36-1.26 146.73-0.63L146.73-0.63L146.73-0.63Q146.10 0 145.08 0L145.08 0L145.08 0Q144.06 0 143.40-0.63L143.40-0.63L143.40-0.63Q142.74-1.26 142.74-2.28L142.74-2.28L142.74-30.48L142.74-30.48Q142.74-31.50 143.40-32.16L143.40-32.16L143.40-32.16Q144.06-32.82 145.08-32.82L145.08-32.82L145.08-32.82Q146.10-32.82 146.73-32.16L146.73-32.16L146.73-32.16Q147.36-31.50 147.36-30.48L147.36-30.48L147.36-28.44L147.36-28.44Q149.34-30.66 152.16-31.92L152.16-31.92L152.16-31.92Q154.98-33.18 158.28-33.18L158.28-33.18ZM198.30-33.12L198.30-33.12Q203.04-33.12 206.82-30.96L206.82-30.96L206.82-30.96Q210.60-28.80 212.79-24.96L212.79-24.96L212.79-24.96Q214.98-21.12 214.98-16.38L214.98-16.38L214.98-16.38Q214.98-11.64 212.82-7.83L212.82-7.83L212.82-7.83Q210.66-4.02 206.85-1.86L206.85-1.86L206.85-1.86Q203.04 0.30 198.30 0.30L198.30 0.30L198.30 0.30Q193.56 0.30 189.75-1.86L189.75-1.86L189.75-1.86Q185.94-4.02 183.78-7.83L183.78-7.83L183.78-7.83Q181.62-11.64 181.62-16.38L181.62-16.38L181.62-16.38Q181.62-21.12 183.78-24.96L183.78-24.96L183.78-24.96Q185.94-28.80 189.75-30.96L189.75-30.96L189.75-30.96Q193.56-33.12 198.30-33.12L198.30-33.12ZM198.30-28.92L198.30-28.92Q194.88-28.92 192.09-27.30L192.09-27.30L192.09-27.30Q189.30-25.68 187.71-22.83L187.71-22.83L187.71-22.83Q186.12-19.98 186.12-16.38L186.12-16.38L186.12-16.38Q186.12-12.84 187.71-9.99L187.71-9.99L187.71-9.99Q189.30-7.14 192.09-5.52L192.09-5.52L192.09-5.52Q194.88-3.90 198.30-3.90L198.30-3.90L198.30-3.90Q201.78-3.90 204.54-5.52L204.54-5.52L204.54-5.52Q207.30-7.14 208.86-9.99L208.86-9.99L208.86-9.99Q210.42-12.84 210.42-16.38L210.42-16.38L210.42-16.38Q210.42-19.98 208.86-22.83L208.86-22.83L208.86-22.83Q207.30-25.68 204.54-27.30L204.54-27.30L204.54-27.30Q201.78-28.92 198.30-28.92L198.30-28.92ZM222.78-44.58L222.78-44.58Q222.78-45.60 223.44-46.23L223.44-46.23L223.44-46.23Q224.10-46.86 225.06-46.86L225.06-46.86L225.06-46.86Q226.08-46.86 226.71-46.23L226.71-46.23L226.71-46.23Q227.34-45.60 227.34-44.58L227.34-44.58L227.34-10.38L227.34-10.38Q227.34-7.80 228.39-6.18L228.39-6.18L228.39-6.18Q229.44-4.56 231.06-4.56L231.06-4.56L232.56-4.56L232.56-4.56Q233.46-4.56 234-3.93L234-3.93L234-3.93Q234.54-3.30 234.54-2.28L234.54-2.28L234.54-2.28Q234.54-1.26 233.79-0.63L233.79-0.63L233.79-0.63Q233.04 0 231.84 0L231.84 0L231.06 0L231.06 0Q227.40 0 225.09-2.91L225.09-2.91L225.09-2.91Q222.78-5.82 222.78-10.38L222.78-10.38L222.78-44.58ZM255.84-33.12L255.84-33.12Q260.58-33.12 264.36-30.96L264.36-30.96L264.36-30.96Q268.14-28.80 270.33-24.96L270.33-24.96L270.33-24.96Q272.52-21.12 272.52-16.38L272.52-16.38L272.52-16.38Q272.52-11.64 270.36-7.83L270.36-7.83L270.36-7.83Q268.20-4.02 264.39-1.86L264.39-1.86L264.39-1.86Q260.58 0.30 255.84 0.30L255.84 0.30L255.84 0.30Q251.10 0.30 247.29-1.86L247.29-1.86L247.29-1.86Q243.48-4.02 241.32-7.83L241.32-7.83L241.32-7.83Q239.16-11.64 239.16-16.38L239.16-16.38L239.16-16.38Q239.16-21.12 241.32-24.96L241.32-24.96L241.32-24.96Q243.48-28.80 247.29-30.96L247.29-30.96L247.29-30.96Q251.10-33.12 255.84-33.12L255.84-33.12ZM255.84-28.92L255.84-28.92Q252.42-28.92 249.63-27.30L249.63-27.30L249.63-27.30Q246.84-25.68 245.25-22.83L245.25-22.83L245.25-22.83Q243.66-19.98 243.66-16.38L243.66-16.38L243.66-16.38Q243.66-12.84 245.25-9.99L245.25-9.99L245.25-9.99Q246.84-7.14 249.63-5.52L249.63-5.52L249.63-5.52Q252.42-3.90 255.84-3.90L255.84-3.90L255.84-3.90Q259.32-3.90 262.08-5.52L262.08-5.52L262.08-5.52Q264.84-7.14 266.40-9.99L266.40-9.99L266.40-9.99Q267.96-12.84 267.96-16.38L267.96-16.38L267.96-16.38Q267.96-19.98 266.40-22.83L266.40-22.83L266.40-22.83Q264.84-25.68 262.08-27.30L262.08-27.30L262.08-27.30Q259.32-28.92 255.84-28.92L255.84-28.92ZM296.46-33.12L296.46-33.12Q301.26-33.12 305.04-30.99L305.04-30.99L305.04-30.99Q308.82-28.86 310.98-25.05L310.98-25.05L310.98-25.05Q313.14-21.24 313.14-16.38L313.14-16.38L313.14-4.14L313.14-4.14Q313.14 0.66 311.01 4.56L311.01 4.56L311.01 4.56Q308.88 8.46 305.10 10.71L305.10 10.71L305.10 10.71Q301.32 12.96 296.58 12.96L296.58 12.96L296.58 12.96Q291.96 12.96 288.36 11.22L288.36 11.22L288.36 11.22Q284.76 9.48 282.30 6.36L282.30 6.36L282.30 6.36Q281.76 5.76 281.76 4.98L281.76 4.98L281.76 4.98Q281.76 4.08 282.60 3.42L282.60 3.42L282.60 3.42Q283.20 3 283.92 3L283.92 3L283.92 3Q284.46 3 285 3.27L285 3.27L285 3.27Q285.54 3.54 285.84 3.96L285.84 3.96L285.84 3.96Q287.64 6.24 290.40 7.50L290.40 7.50L290.40 7.50Q293.16 8.76 296.64 8.76L296.64 8.76L296.64 8.76Q300 8.76 302.73 7.11L302.73 7.11L302.73 7.11Q305.46 5.46 307.02 2.49L307.02 2.49L307.02 2.49Q308.58-0.48 308.58-4.32L308.58-4.32L308.58-7.02L308.58-7.02Q306.78-3.60 303.48-1.65L303.48-1.65L303.48-1.65Q300.18 0.30 295.98 0.30L295.98 0.30L295.98 0.30Q291.30 0.30 287.61-1.83L287.61-1.83L287.61-1.83Q283.92-3.96 281.85-7.77L281.85-7.77L281.85-7.77Q279.78-11.58 279.78-16.38L279.78-16.38L279.78-16.38Q279.78-21.24 281.94-25.05L281.94-25.05L281.94-25.05Q284.10-28.86 287.91-30.99L287.91-30.99L287.91-30.99Q291.72-33.12 296.46-33.12L296.46-33.12ZM296.46-3.90L296.46-3.90Q299.94-3.90 302.70-5.49L302.70-5.49L302.70-5.49Q305.46-7.08 307.02-9.93L307.02-9.93L307.02-9.93Q308.58-12.78 308.58-16.38L308.58-16.38L308.58-16.38Q308.58-19.98 307.02-22.83L307.02-22.83L307.02-22.83Q305.46-25.68 302.70-27.30L302.70-27.30L302.70-27.30Q299.94-28.92 296.46-28.92L296.46-28.92L296.46-28.92Q292.92-28.92 290.16-27.30L290.16-27.30L290.16-27.30Q287.40-25.68 285.84-22.83L285.84-22.83L285.84-22.83Q284.28-19.98 284.28-16.38L284.28-16.38L284.28-16.38Q284.28-12.78 285.84-9.93L285.84-9.93L285.84-9.93Q287.40-7.08 290.16-5.49L290.16-5.49L290.16-5.49Q292.92-3.90 296.46-3.90L296.46-3.90ZM347.82-32.64L347.82-32.64Q349.20-32.10 349.20-30.90L349.20-30.90L349.20-30.90Q349.20-30.36 348.96-29.82L348.96-29.82L329.52 12.90L329.52 12.90Q328.98 14.28 327.78 14.28L327.78 14.28L327.78 14.28Q327.18 14.28 326.70 14.04L326.70 14.04L326.70 14.04Q325.32 13.50 325.32 12.24L325.32 12.24L325.32 12.24Q325.32 11.70 325.56 11.16L325.56 11.16L331.50-1.98L331.50-2.04L318.12-29.76L318.12-29.76Q317.88-30.24 317.88-30.84L317.88-30.84L317.88-30.84Q317.88-32.10 319.20-32.64L319.20-32.64L319.20-32.64Q319.68-32.88 320.28-32.88L320.28-32.88L320.28-32.88Q321.54-32.88 322.08-31.62L322.08-31.62L333.78-6.96L344.94-31.56L344.94-31.56Q345.54-32.88 346.74-32.88L346.74-32.88L346.74-32.88Q347.28-32.88 347.82-32.64L347.82-32.64Z" fill="#000000"></path></g></g><style>text {
  font-size: 64px;
  font-family: Arial Black;
  dominant-baseline: central;
  text-anchor: middle;
}</style></svg>