<svg width="479.17006835937497px" height="153.21625976562498px" xmlns="http://www.w3.org/2000/svg" viewBox="10.414965820312517 -1.6081298828124915 479.17006835937497 153.21625976562498" style="background: rgba(0, 0, 0, 0);" preserveAspectRatio="xMidYMid"><defs><filter id="editing-hole" x="-100%" y="-100%" width="300%" height="300%"><feFlood flood-color="#000000" result="black"></feFlood><feMorphology operator="dilate" radius="2" in="SourceGraphic" result="erode"></feMorphology><feGaussianBlur in="erode" stdDeviation="4" result="blur"></feGaussianBlur><feOffset in="blur" dx="2" dy="2" result="offset"></feOffset><feComposite operator="atop" in="offset" in2="black" result="merge"></feComposite><feComposite operator="in" in="merge" in2="SourceGraphic" result="inner-shadow"></feComposite></filter></defs><g filter="url(#editing-hole)"><g transform="translate(81.19500303268433, 97.65156364440918)"><path d="M13.39-40.75L0.73-40.75L0.73-44.38L30.38-44.38L30.38-40.75L17.72-40.75L17.72 0L13.39 0L13.39-40.75ZM60.23 0L35.07 0L35.07-44.38L59.12-44.38L59.12-40.75L39.40-40.75L39.40-25.14L53.55-25.14L53.55-21.50L39.40-21.50L39.40-3.90L60.23-3.90L60.23 0ZM64.22-13.02L64.22-13.02L64.22-13.02Q63.66-15.29 63.41-17.58L63.41-17.58L63.41-17.58Q63.16-19.86 63.16-22.72L63.16-22.72L63.16-22.72Q63.16-25.58 63.68-28.73L63.68-28.73L63.68-28.73Q64.19-31.88 65.39-34.85L65.39-34.85L65.39-34.85Q66.59-37.82 68.38-40.02L68.38-40.02L68.38-40.02Q70.17-42.22 72.88-43.55L72.88-43.55L72.88-43.55Q75.59-44.88 78.40-44.88L78.40-44.88L78.40-44.88Q81.21-44.88 83.19-44.17L83.19-44.17L83.19-44.17Q85.17-43.45 86.51-42.30L86.51-42.30L86.51-42.30Q87.86-41.16 88.97-39.77L88.97-39.77L88.97-39.77Q90.09-38.38 90.73-36.97L90.73-36.97L90.73-36.97Q92.08-34.07 92.40-32.58L92.40-32.58L92.58-31.88L92.58-31.85L88.13-30.64L88.13-30.64Q87.66-33.98 86.94-35.52L86.94-35.52L86.94-35.52Q86.22-37.06 85.50-38.04L85.50-38.04L85.50-38.04Q84.79-39.02 83.91-39.70L83.91-39.70L83.91-39.70Q81.83-41.25 78.93-41.25L78.93-41.25L78.93-41.25Q67.50-41.25 67.50-22.24L67.50-22.24L67.50-22.24Q67.50-14.09 69.90-8.94L69.90-8.94L69.90-8.94Q72.63-3.16 78.93-3.16L78.93-3.16L78.93-3.16Q84.08-3.16 86.95-7.21L86.95-7.21L86.95-7.21Q88.95-10.05 88.95-13.56L88.95-13.56L93.22-12.89L93.22-12.89Q93.11-12.57 92.68-11.31L92.68-11.31L92.68-11.31Q92.26-10.05 91.96-9.26L91.96-9.26L91.96-9.26Q91.67-8.47 91.01-7.10L91.01-7.10L91.01-7.10Q90.35-5.74 89.69-4.83L89.69-4.83L89.69-4.83Q89.03-3.93 87.93-2.83L87.93-2.83L87.93-2.83Q86.84-1.73 85.61-1.08L85.61-1.08L85.61-1.08Q82.65 0.47 79.54 0.47L79.54 0.47L79.54 0.47Q76.44 0.47 74.31-0.23L74.31-0.23L74.31-0.23Q72.19-0.94 70.61-2.15L70.61-2.15L70.61-2.15Q69.02-3.37 67.75-5.08L67.75-5.08L67.75-5.08Q66.47-6.80 65.63-8.77L65.63-8.77L65.63-8.77Q64.78-10.75 64.22-13.02ZM103.51 0L99.17 0L99.17-44.38L103.51-44.38L103.51-25.14L123.66-25.14L123.66-44.38L128.00-44.38L128.00 0L123.66 0L123.66-21.50L103.51-21.50L103.51 0ZM140.04 0L135.70 0L135.70-44.38L142.62-44.38L160.52-10.58L160.52-44.38L164.85-44.38L164.85 0L161.13 0L140.04-40.08L140.04 0ZM173.51-9.42L173.51-9.42L173.51-9.42Q172.18-12.33 171.56-15.51L171.56-15.51L171.56-15.51Q170.95-18.69 170.95-22.06L170.95-22.06L170.95-22.06Q170.95-25.43 171.50-28.62L171.50-28.62L171.50-28.62Q172.06-31.82 173.32-34.80L173.32-34.80L173.32-34.80Q174.58-37.79 176.44-40.00L176.44-40.00L176.44-40.00Q178.30-42.22 181.11-43.55L181.11-43.55L181.11-43.55Q183.93-44.88 187.31-44.88L187.31-44.88L187.31-44.88Q190.69-44.88 193.40-43.52L193.40-43.52L193.40-43.52Q196.11-42.16 197.92-39.92L197.92-39.92L197.92-39.92Q199.72-37.68 200.95-34.69L200.95-34.69L200.95-34.69Q203.26-29.06 203.26-22.03L203.26-22.03L203.26-22.03Q203.26-9.17 196.61-2.93L196.61-2.93L196.61-2.93Q193.01 0.47 187.38 0.47L187.38 0.47L187.38 0.47Q184.13 0.47 181.38-0.83L181.38-0.83L181.38-0.83Q178.62-2.14 176.73-4.32L176.73-4.32L176.73-4.32Q174.84-6.50 173.51-9.42ZM176.94-33.11L176.94-33.11L176.94-33.11Q176.04-30.62 175.66-27.88L175.66-27.88L175.66-27.88Q175.28-25.14 175.28-21.65L175.28-21.65L175.28-21.65Q175.28-18.16 175.97-14.87L175.97-14.87L175.97-14.87Q176.66-11.57 178.05-8.91L178.05-8.91L178.05-8.91Q179.44-6.24 181.83-4.70L181.83-4.70L181.83-4.70Q184.22-3.16 187.10-3.16L187.10-3.16L187.10-3.16Q189.99-3.16 192.06-4.32L192.06-4.32L192.06-4.32Q194.12-5.48 195.38-7.32L195.38-7.32L195.38-7.32Q196.64-9.17 197.46-11.72L197.46-11.72L197.46-11.72Q198.93-16.23 198.93-22.03L198.93-22.03L198.93-22.03Q198.93-31.67 195.38-36.97L195.38-36.97L195.38-36.97Q194.12-38.88 192.07-40.06L192.07-40.06L192.07-40.06Q190.02-41.25 187.38-41.25L187.38-41.25L187.38-41.25Q184.75-41.25 182.65-40.20L182.65-40.20L182.65-40.20Q180.56-39.14 179.19-37.37L179.19-37.37L179.19-37.37Q177.83-35.60 176.94-33.11ZM233.58 0L209.56 0L209.56-44.38L213.90-44.38L213.90-4.16L233.58-4.16L233.58 0ZM237.23-9.42L237.23-9.42L237.23-9.42Q235.90-12.33 235.28-15.51L235.28-15.51L235.28-15.51Q234.67-18.69 234.67-22.06L234.67-22.06L234.67-22.06Q234.67-25.43 235.22-28.62L235.22-28.62L235.22-28.62Q235.78-31.82 237.04-34.80L237.04-34.80L237.04-34.80Q238.30-37.79 240.16-40.00L240.16-40.00L240.16-40.00Q242.02-42.22 244.83-43.55L244.83-43.55L244.83-43.55Q247.65-44.88 251.03-44.88L251.03-44.88L251.03-44.88Q254.41-44.88 257.12-43.52L257.12-43.52L257.12-43.52Q259.83-42.16 261.64-39.92L261.64-39.92L261.64-39.92Q263.44-37.68 264.67-34.69L264.67-34.69L264.67-34.69Q266.98-29.06 266.98-22.03L266.98-22.03L266.98-22.03Q266.98-9.17 260.33-2.93L260.33-2.93L260.33-2.93Q256.73 0.47 251.10 0.47L251.10 0.47L251.10 0.47Q247.85 0.47 245.10-0.83L245.10-0.83L245.10-0.83Q242.34-2.14 240.45-4.32L240.45-4.32L240.45-4.32Q238.56-6.50 237.23-9.42ZM240.66-33.11L240.66-33.11L240.66-33.11Q239.77-30.62 239.38-27.88L239.38-27.88L239.38-27.88Q239.00-25.14 239.00-21.65L239.00-21.65L239.00-21.65Q239.00-18.16 239.69-14.87L239.69-14.87L239.69-14.87Q240.38-11.57 241.77-8.91L241.77-8.91L241.77-8.91Q243.16-6.24 245.55-4.70L245.55-4.70L245.55-4.70Q247.94-3.16 250.83-3.16L250.83-3.16L250.83-3.16Q253.71-3.16 255.78-4.32L255.78-4.32L255.78-4.32Q257.84-5.48 259.10-7.32L259.10-7.32L259.10-7.32Q260.36-9.17 261.18-11.72L261.18-11.72L261.18-11.72Q262.65-16.23 262.65-22.03L262.65-22.03L262.65-22.03Q262.65-31.67 259.10-36.97L259.10-36.97L259.10-36.97Q257.84-38.88 255.79-40.06L255.79-40.06L255.79-40.06Q253.74-41.25 251.10-41.25L251.10-41.25L251.10-41.25Q248.47-41.25 246.37-40.20L246.37-40.20L246.37-40.20Q244.28-39.14 242.92-37.37L242.92-37.37L242.92-37.37Q241.55-35.60 240.66-33.11ZM274.00-9.68L274.00-9.68L274.00-9.68Q272.75-12.69 272.21-15.88L272.21-15.88L272.21-15.88Q271.67-19.07 271.67-22.16L271.67-22.16L271.67-22.16Q271.67-25.25 272.08-27.92L272.08-27.92L272.08-27.92Q272.49-30.59 273.31-33.11L273.31-33.11L273.31-33.11Q274.13-35.63 275.49-37.75L275.49-37.75L275.49-37.75Q276.86-39.87 278.58-41.48L278.58-41.48L278.58-41.48Q282.33-44.88 287.96-44.88L287.96-44.88L287.96-44.88Q292.09-44.88 295.72-42.39L295.72-42.39L295.72-42.39Q299.97-39.49 301.90-32.20L301.90-32.20L297.66-31.14L297.66-31.14Q297.63-31.35 297.58-31.71L297.58-31.71L297.58-31.71Q297.54-32.08 297.26-33.13L297.26-33.13L297.26-33.13Q296.98-34.19 296.60-35.14L296.60-35.14L296.60-35.14Q296.22-36.09 295.44-37.25L295.44-37.25L295.44-37.25Q294.67-38.41 293.70-39.26L293.70-39.26L293.70-39.26Q291.47-41.25 288.08-41.25L288.08-41.25L288.08-41.25Q284.68-41.25 282.28-39.67L282.28-39.67L282.28-39.67Q279.87-38.09 278.55-35.33L278.55-35.33L278.55-35.33Q276.01-30.06 276.01-22.50L276.01-22.50L276.01-22.50Q276.01-13.48 278.35-9.02L278.35-9.02L278.35-9.02Q281.43-3.16 288.05-3.16L288.05-3.16L288.05-3.16Q296.28-3.16 297.57-12.66L297.57-12.66L297.57-12.66Q297.83-14.71 297.83-17.31L297.83-17.31L287.96-17.31L287.96-20.95L302.08-20.95L302.08 0L298.56 0L298.56-5.63L298.56-5.63Q295.25-1.05 291.56 0L291.56 0L291.56 0Q289.92 0.47 287.23 0.47L287.23 0.47L287.23 0.47Q284.53 0.47 281.73-0.88L281.73-0.88L281.73-0.88Q278.94-2.23 277.09-4.45L277.09-4.45L277.09-4.45Q275.24-6.68 274.00-9.68ZM319.01-19.34L305.48-44.38L309.99-44.38L321.18-23.50L332.37-44.38L336.88-44.38L323.35-19.34L323.35 0L319.01 0L319.01-19.34Z" fill="#000000"></path></g></g><style>text {
  font-size: 64px;
  font-family: Arial Black;
  dominant-baseline: central;
  text-anchor: middle;
}</style></svg>