<svg width="639.4375244140625px" height="111.22625732421875px" xmlns="http://www.w3.org/2000/svg" viewBox="-69.71876220703126 19.386871337890625 639.4375244140625 111.22625732421875" style="background: rgba(0, 0, 0, 0);" preserveAspectRatio="xMidYMid"><defs><filter id="editing-hole" x="-100%" y="-100%" width="300%" height="300%"><feFlood flood-color="#000000" result="black"></feFlood><feMorphology operator="dilate" radius="2" in="SourceGraphic" result="erode"></feMorphology><feGaussianBlur in="erode" stdDeviation="4" result="blur"></feGaussianBlur><feOffset in="blur" dx="2" dy="2" result="offset"></feOffset><feComposite operator="atop" in="offset" in2="black" result="merge"></feComposite><feComposite operator="in" in="merge" in2="SourceGraphic" result="inner-shadow"></feComposite></filter></defs><g filter="url(#editing-hole)"><g transform="translate(19.269998133182526, 99.11593627929688)"><path d="M36.24-46.86L36.24-46.86Q37.20-46.86 37.80-46.26L37.80-46.26L37.80-46.26Q38.40-45.66 38.40-44.70L38.40-44.70L38.40-44.70Q38.40-43.80 37.80-43.20L37.80-43.20L37.80-43.20Q37.20-42.60 36.24-42.60L36.24-42.60L21.96-42.60L21.96-2.34L21.96-2.34Q21.96-1.38 21.30-0.69L21.30-0.69L21.30-0.69Q20.64 0 19.62 0L19.62 0L19.62 0Q18.66 0 17.97-0.69L17.97-0.69L17.97-0.69Q17.28-1.38 17.28-2.34L17.28-2.34L17.28-42.60L3.06-42.60L3.06-42.60Q2.10-42.60 1.50-43.20L1.50-43.20L1.50-43.20Q0.90-43.80 0.90-44.70L0.90-44.70L0.90-44.70Q0.90-45.66 1.50-46.26L1.50-46.26L1.50-46.26Q2.10-46.86 3.06-46.86L3.06-46.86L36.24-46.86ZM75.78-4.50L75.78-4.50Q76.80-4.50 77.46-3.87L77.46-3.87L77.46-3.87Q78.12-3.24 78.12-2.28L78.12-2.28L78.12-2.28Q78.12-1.32 77.46-0.66L77.46-0.66L77.46-0.66Q76.80 0 75.78 0L75.78 0L47.64 0L47.64 0Q46.68 0 45.99-0.69L45.99-0.69L45.99-0.69Q45.30-1.38 45.30-2.34L45.30-2.34L45.30-44.52L45.30-44.52Q45.30-45.54 45.99-46.20L45.99-46.20L45.99-46.20Q46.68-46.86 47.64-46.86L47.64-46.86L75.78-46.86L75.78-46.86Q76.80-46.86 77.46-46.20L77.46-46.20L77.46-46.20Q78.12-45.54 78.12-44.58L78.12-44.58L78.12-44.58Q78.12-43.62 77.46-42.99L77.46-42.99L77.46-42.99Q76.80-42.36 75.78-42.36L75.78-42.36L49.98-42.36L49.98-25.80L68.76-25.80L68.76-25.80Q69.78-25.80 70.44-25.14L70.44-25.14L70.44-25.14Q71.10-24.48 71.10-23.52L71.10-23.52L71.10-23.52Q71.10-22.56 70.41-21.90L70.41-21.90L70.41-21.90Q69.72-21.24 68.76-21.24L68.76-21.24L49.98-21.24L49.98-4.50L75.78-4.50ZM107.88-47.46L107.88-47.46Q112.20-47.46 115.74-46.20L115.74-46.20L115.74-46.20Q119.28-44.94 122.58-42.18L122.58-42.18L122.58-42.18Q123.24-41.70 123.24-40.80L123.24-40.80L123.24-40.80Q123.24-40.32 123-39.93L123-39.93L123-39.93Q122.76-39.54 122.34-39.36L122.34-39.36L122.34-39.36Q122.22-38.94 121.80-38.70L121.80-38.70L121.80-38.70Q121.38-38.46 120.90-38.46L120.90-38.46L120.90-38.46Q120-38.46 119.40-39L119.40-39L119.40-39Q117.06-41.10 114.30-42.06L114.30-42.06L114.30-42.06Q111.54-43.02 107.88-43.02L107.88-43.02L107.88-43.02Q102.84-43.02 98.52-40.35L98.52-40.35L98.52-40.35Q94.20-37.68 91.65-33.18L91.65-33.18L91.65-33.18Q89.10-28.68 89.10-23.46L89.10-23.46L89.10-23.46Q89.10-18.12 91.62-13.62L91.62-13.62L91.62-13.62Q94.14-9.12 98.46-6.48L98.46-6.48L98.46-6.48Q102.78-3.84 107.88-3.84L107.88-3.84L107.88-3.84Q114.42-3.84 119.70-8.04L119.70-8.04L119.70-8.04Q120.36-8.52 121.02-8.52L121.02-8.52L121.02-8.52Q121.92-8.52 122.58-7.89L122.58-7.89L122.58-7.89Q123.24-7.26 123.24-6.24L123.24-6.24L123.24-6.24Q123.24-5.28 122.58-4.56L122.58-4.56L122.58-4.56Q116.94 0.60 107.88 0.60L107.88 0.60L107.88 0.60Q101.52 0.60 96.18-2.64L96.18-2.64L96.18-2.64Q90.84-5.88 87.69-11.40L87.69-11.40L87.69-11.40Q84.54-16.92 84.54-23.46L84.54-23.46L84.54-23.46Q84.54-29.94 87.66-35.46L87.66-35.46L87.66-35.46Q90.78-40.98 96.12-44.22L96.12-44.22L96.12-44.22Q101.46-47.46 107.88-47.46L107.88-47.46ZM167.04-44.52L167.04-44.52Q167.04-45.54 167.73-46.20L167.73-46.20L167.73-46.20Q168.42-46.86 169.38-46.86L169.38-46.86L169.38-46.86Q170.40-46.86 171.06-46.20L171.06-46.20L171.06-46.20Q171.72-45.54 171.72-44.52L171.72-44.52L171.72-2.34L171.72-2.34Q171.72-1.38 171.06-0.69L171.06-0.69L171.06-0.69Q170.40 0 169.38 0L169.38 0L169.38 0Q168.42 0 167.73-0.69L167.73-0.69L167.73-0.69Q167.04-1.38 167.04-2.34L167.04-2.34L167.04-21.60L137.76-21.60L137.76-2.34L137.76-2.34Q137.76-1.38 137.10-0.69L137.10-0.69L137.10-0.69Q136.44 0 135.42 0L135.42 0L135.42 0Q134.46 0 133.77-0.69L133.77-0.69L133.77-0.69Q133.08-1.38 133.08-2.34L133.08-2.34L133.08-44.52L133.08-44.52Q133.08-45.54 133.77-46.20L133.77-46.20L133.77-46.20Q134.46-46.86 135.42-46.86L135.42-46.86L135.42-46.86Q136.44-46.86 137.10-46.20L137.10-46.20L137.10-46.20Q137.76-45.54 137.76-44.52L137.76-44.52L137.76-25.80L167.04-25.80L167.04-44.52ZM216.54-44.52L216.54-44.52Q216.54-45.54 217.23-46.20L217.23-46.20L217.23-46.20Q217.92-46.86 218.88-46.86L218.88-46.86L218.88-46.86Q219.90-46.86 220.56-46.20L220.56-46.20L220.56-46.20Q221.22-45.54 221.22-44.52L221.22-44.52L221.22-2.34L221.22-2.34Q221.22-1.38 220.56-0.69L220.56-0.69L220.56-0.69Q219.90 0 218.88 0L218.88 0L218.88 0Q217.68 0 217.14-0.78L217.14-0.78L188.40-38.46L188.40-2.34L188.40-2.34Q188.40-1.38 187.74-0.69L187.74-0.69L187.74-0.69Q187.08 0 186.06 0L186.06 0L186.06 0Q185.04 0 184.38-0.66L184.38-0.66L184.38-0.66Q183.72-1.32 183.72-2.34L183.72-2.34L183.72-44.52L183.72-44.52Q183.72-45.54 184.38-46.20L184.38-46.20L184.38-46.20Q185.04-46.86 186.06-46.86L186.06-46.86L186.06-46.86Q187.14-46.86 187.86-46.02L187.86-46.02L216.54-8.34L216.54-44.52ZM254.88-47.46L254.88-47.46Q261.66-47.46 267.15-44.34L267.15-44.34L267.15-44.34Q272.64-41.22 275.73-35.76L275.73-35.76L275.73-35.76Q278.82-30.30 278.82-23.46L278.82-23.46L278.82-23.46Q278.82-16.62 275.73-11.13L275.73-11.13L275.73-11.13Q272.64-5.64 267.15-2.52L267.15-2.52L267.15-2.52Q261.66 0.60 254.88 0.60L254.88 0.60L254.88 0.60Q248.04 0.60 242.58-2.52L242.58-2.52L242.58-2.52Q237.12-5.64 234.03-11.13L234.03-11.13L234.03-11.13Q230.94-16.62 230.94-23.46L230.94-23.46L230.94-23.46Q230.94-30.30 234.03-35.76L234.03-35.76L234.03-35.76Q237.12-41.22 242.58-44.34L242.58-44.34L242.58-44.34Q248.04-47.46 254.88-47.46L254.88-47.46ZM254.88-43.02L254.88-43.02Q249.36-43.02 244.95-40.44L244.95-40.44L244.95-40.44Q240.54-37.86 238.02-33.39L238.02-33.39L238.02-33.39Q235.50-28.92 235.50-23.46L235.50-23.46L235.50-23.46Q235.50-17.94 238.02-13.47L238.02-13.47L238.02-13.47Q240.54-9 244.95-6.42L244.95-6.42L244.95-6.42Q249.36-3.84 254.88-3.84L254.88-3.84L254.88-3.84Q260.34-3.84 264.75-6.42L264.75-6.42L264.75-6.42Q269.16-9 271.68-13.47L271.68-13.47L271.68-13.47Q274.20-17.94 274.20-23.46L274.20-23.46L274.20-23.46Q274.20-28.92 271.68-33.39L271.68-33.39L271.68-33.39Q269.16-37.86 264.75-40.44L264.75-40.44L264.75-40.44Q260.34-43.02 254.88-43.02L254.88-43.02ZM316.62-4.44L316.62-4.44Q317.64-4.44 318.30-3.81L318.30-3.81L318.30-3.81Q318.96-3.18 318.96-2.22L318.96-2.22L318.96-2.22Q318.96-1.26 318.30-0.63L318.30-0.63L318.30-0.63Q317.64 0 316.62 0L316.62 0L290.82 0L290.82 0Q289.86 0 289.17-0.69L289.17-0.69L289.17-0.69Q288.48-1.38 288.48-2.34L288.48-2.34L288.48-44.52L288.48-44.52Q288.48-45.48 289.17-46.17L289.17-46.17L289.17-46.17Q289.86-46.86 290.82-46.86L290.82-46.86L290.82-46.86Q291.84-46.86 292.50-46.20L292.50-46.20L292.50-46.20Q293.16-45.54 293.16-44.52L293.16-44.52L293.16-4.44L316.62-4.44ZM348.12-47.46L348.12-47.46Q354.90-47.46 360.39-44.34L360.39-44.34L360.39-44.34Q365.88-41.22 368.97-35.76L368.97-35.76L368.97-35.76Q372.06-30.30 372.06-23.46L372.06-23.46L372.06-23.46Q372.06-16.62 368.97-11.13L368.97-11.13L368.97-11.13Q365.88-5.64 360.39-2.52L360.39-2.52L360.39-2.52Q354.90 0.60 348.12 0.60L348.12 0.60L348.12 0.60Q341.28 0.60 335.82-2.52L335.82-2.52L335.82-2.52Q330.36-5.64 327.27-11.13L327.27-11.13L327.27-11.13Q324.18-16.62 324.18-23.46L324.18-23.46L324.18-23.46Q324.18-30.30 327.27-35.76L327.27-35.76L327.27-35.76Q330.36-41.22 335.82-44.34L335.82-44.34L335.82-44.34Q341.28-47.46 348.12-47.46L348.12-47.46ZM348.12-43.02L348.12-43.02Q342.60-43.02 338.19-40.44L338.19-40.44L338.19-40.44Q333.78-37.86 331.26-33.39L331.26-33.39L331.26-33.39Q328.74-28.92 328.74-23.46L328.74-23.46L328.74-23.46Q328.74-17.94 331.26-13.47L331.26-13.47L331.26-13.47Q333.78-9 338.19-6.42L338.19-6.42L338.19-6.42Q342.60-3.84 348.12-3.84L348.12-3.84L348.12-3.84Q353.58-3.84 357.99-6.42L357.99-6.42L357.99-6.42Q362.40-9 364.92-13.47L364.92-13.47L364.92-13.47Q367.44-17.94 367.44-23.46L367.44-23.46L367.44-23.46Q367.44-28.92 364.92-33.39L364.92-33.39L364.92-33.39Q362.40-37.86 357.99-40.44L357.99-40.44L357.99-40.44Q353.58-43.02 348.12-43.02L348.12-43.02ZM415.80-23.40L415.80-23.40Q416.82-23.40 417.48-22.77L417.48-22.77L417.48-22.77Q418.14-22.14 418.14-21.12L418.14-21.12L418.14-6.24L418.14-6.24Q418.14-5.22 417.48-4.56L417.48-4.56L417.48-4.56Q411.90 0.60 402.78 0.60L402.78 0.60L402.78 0.60Q396.42 0.60 391.08-2.64L391.08-2.64L391.08-2.64Q385.74-5.88 382.59-11.40L382.59-11.40L382.59-11.40Q379.44-16.92 379.44-23.46L379.44-23.46L379.44-23.46Q379.44-29.94 382.56-35.46L382.56-35.46L382.56-35.46Q385.68-40.98 391.02-44.22L391.02-44.22L391.02-44.22Q396.36-47.46 402.78-47.46L402.78-47.46L402.78-47.46Q407.10-47.46 410.64-46.20L410.64-46.20L410.64-46.20Q414.18-44.94 417.48-42.18L417.48-42.18L417.48-42.18Q418.14-41.70 418.14-40.80L418.14-40.80L418.14-40.80Q418.14-40.32 417.90-39.93L417.90-39.93L417.90-39.93Q417.66-39.54 417.24-39.36L417.24-39.36L417.24-39.36Q417.12-38.94 416.70-38.67L416.70-38.67L416.70-38.67Q416.28-38.40 415.80-38.40L415.80-38.40L415.80-38.40Q414.96-38.40 414.30-39L414.30-39L414.30-39Q411.96-41.10 409.20-42.06L409.20-42.06L409.20-42.06Q406.44-43.02 402.78-43.02L402.78-43.02L402.78-43.02Q397.74-43.02 393.42-40.35L393.42-40.35L393.42-40.35Q389.10-37.68 386.55-33.18L386.55-33.18L386.55-33.18Q384.00-28.68 384.00-23.46L384.00-23.46L384.00-23.46Q384.00-18.12 386.52-13.62L386.52-13.62L386.52-13.62Q389.04-9.12 393.36-6.48L393.36-6.48L393.36-6.48Q397.68-3.84 402.78-3.84L402.78-3.84L402.78-3.84Q408.60-3.84 413.58-7.26L413.58-7.26L413.58-19.26L404.22-19.26L404.22-19.26Q403.20-19.26 402.54-19.86L402.54-19.86L402.54-19.86Q401.88-20.46 401.88-21.36L401.88-21.36L401.88-21.36Q401.88-22.26 402.54-22.83L402.54-22.83L402.54-22.83Q403.20-23.40 404.22-23.40L404.22-23.40L415.80-23.40ZM458.52-46.86L458.52-46.86Q459.42-46.86 459.99-46.23L459.99-46.23L459.99-46.23Q460.56-45.60 460.56-44.70L460.56-44.70L460.56-44.70Q460.56-43.86 460.14-43.20L460.14-43.20L443.76-17.34L443.76-2.34L443.76-2.34Q443.76-1.38 443.10-0.69L443.10-0.69L443.10-0.69Q442.44 0 441.42 0L441.42 0L441.42 0Q440.46 0 439.77-0.69L439.77-0.69L439.77-0.69Q439.08-1.38 439.08-2.34L439.08-2.34L439.08-17.34L422.76-43.20L422.76-43.20Q422.28-43.98 422.28-44.70L422.28-44.70L422.28-44.70Q422.28-45.60 422.94-46.23L422.94-46.23L422.94-46.23Q423.60-46.86 424.56-46.86L424.56-46.86L424.56-46.86Q425.22-46.86 425.67-46.59L425.67-46.59L425.67-46.59Q426.12-46.32 426.54-45.72L426.54-45.72L441.48-21.66L456.36-45.60L456.36-45.60Q456.84-46.26 457.32-46.56L457.32-46.56L457.32-46.56Q457.80-46.86 458.52-46.86L458.52-46.86Z" fill="#000000"></path></g></g><style>text {
  font-size: 64px;
  font-family: Arial Black;
  dominant-baseline: central;
  text-anchor: middle;
}</style></svg>