<svg width="530.1913085937499px" height="114.8175048828125px" xmlns="http://www.w3.org/2000/svg" viewBox="-15.095654296874955 17.59124755859375 530.1913085937499 114.8175048828125" style="background: rgba(0, 0, 0, 0);" preserveAspectRatio="xMidYMid"><defs><filter id="editing-hole" x="-100%" y="-100%" width="300%" height="300%"><feFlood flood-color="#000000" result="black"></feFlood><feMorphology operator="dilate" radius="2" in="SourceGraphic" result="erode"></feMorphology><feGaussianBlur in="erode" stdDeviation="4" result="blur"></feGaussianBlur><feOffset in="blur" dx="2" dy="2" result="offset"></feOffset><feComposite operator="atop" in="offset" in2="black" result="merge"></feComposite><feComposite operator="in" in="merge" in2="SourceGraphic" result="inner-shadow"></feComposite></filter></defs><g filter="url(#editing-hole)"><g transform="translate(61.86657166481018, 99.20000076293945)"><path d="M11.64 0L11.64-43.26L1.26-43.26L1.26-45L23.88-45L23.88-43.26L13.62-43.26L13.62 0L11.64 0ZM29.88 0L29.88-45L46.02-45L46.02-43.26L31.86-43.26L31.86-18.78L43.68-18.78L43.68-17.04L31.86-17.04L31.86-1.74L46.02-1.74L46.02 0L29.88 0ZM73.44 1.20L73.44 1.20Q67.14 1.20 61.86-1.89L61.86-1.89L61.86-1.89Q56.58-4.98 53.49-10.41L53.49-10.41L53.49-10.41Q50.40-15.84 50.40-22.62L50.40-22.62L50.40-22.62Q50.40-29.16 53.61-34.56L53.61-34.56L53.61-34.56Q56.82-39.96 62.19-43.08L62.19-43.08L62.19-43.08Q67.56-46.20 73.62-46.20L73.62-46.20L73.62-46.20Q77.82-46.20 80.28-45.45L80.28-45.45L80.28-45.45Q82.74-44.70 85.98-42.84L85.98-42.84L85.98-40.62L85.98-40.62Q82.92-42.72 80.31-43.59L80.31-43.59L80.31-43.59Q77.70-44.46 73.80-44.46L73.80-44.46L73.80-44.46Q67.86-44.46 62.97-41.43L62.97-41.43L62.97-41.43Q58.08-38.40 55.23-33.33L55.23-33.33L55.23-33.33Q52.38-28.26 52.38-22.44L52.38-22.44L52.38-22.44Q52.38-16.56 55.26-11.52L55.26-11.52L55.26-11.52Q58.14-6.48 62.91-3.51L62.91-3.51L62.91-3.51Q67.68-0.54 73.20-0.54L73.20-0.54L73.20-0.54Q77.16-0.54 80.10-1.47L80.10-1.47L80.10-1.47Q83.04-2.40 85.98-4.38L85.98-4.38L85.98-2.16L85.98-2.16Q83.10-0.42 80.07 0.39L80.07 0.39L80.07 0.39Q77.04 1.20 73.44 1.20L73.44 1.20ZM94.50 0L94.50-45L96.48-45L96.48-18.90L127.32-18.90L127.32-45L129.30-45L129.30 0L127.32 0L127.32-17.16L96.48-17.16L96.48 0L94.50 0ZM173.64 0.66L140.52-40.50L140.52 0L138.78 0L138.78-45.66L171.90-4.56L171.90-45L173.64-45L173.64 0.66ZM204.60 1.20L204.60 1.20Q198.30 1.20 192.90-2.10L192.90-2.10L192.90-2.10Q187.50-5.40 184.35-10.89L184.35-10.89L184.35-10.89Q181.20-16.38 181.20-22.68L181.20-22.68L181.20-22.68Q181.20-28.92 184.38-34.35L184.38-34.35L184.38-34.35Q187.56-39.78 192.96-42.99L192.96-42.99L192.96-42.99Q198.36-46.20 204.66-46.20L204.66-46.20L204.66-46.20Q211.02-46.20 216.36-43.02L216.36-43.02L216.36-43.02Q221.70-39.84 224.85-34.41L224.85-34.41L224.85-34.41Q228-28.98 228-22.68L228-22.68L228-22.68Q228-16.20 224.85-10.71L224.85-10.71L224.85-10.71Q221.70-5.22 216.33-2.01L216.33-2.01L216.33-2.01Q210.96 1.20 204.60 1.20L204.60 1.20ZM204.60-0.54L204.60-0.54Q210.36-0.54 215.28-3.51L215.28-3.51L215.28-3.51Q220.20-6.48 223.11-11.55L223.11-11.55L223.11-11.55Q226.02-16.62 226.02-22.56L226.02-22.56L226.02-22.56Q226.02-28.44 223.14-33.48L223.14-33.48L223.14-33.48Q220.26-38.52 215.34-41.49L215.34-41.49L215.34-41.49Q210.42-44.46 204.66-44.46L204.66-44.46L204.66-44.46Q198.84-44.46 193.92-41.49L193.92-41.49L193.92-41.49Q189-38.52 186.09-33.48L186.09-33.48L186.09-33.48Q183.18-28.44 183.18-22.56L183.18-22.56L183.18-22.56Q183.18-16.62 186.09-11.55L186.09-11.55L186.09-11.55Q189-6.48 193.92-3.51L193.92-3.51L193.92-3.51Q198.84-0.54 204.60-0.54L204.60-0.54ZM235.56 0L235.56-45L237.54-45L237.54-1.74L251.46-1.74L251.46 0L235.56 0ZM278.94 1.20L278.94 1.20Q272.64 1.20 267.24-2.10L267.24-2.10L267.24-2.10Q261.84-5.40 258.69-10.89L258.69-10.89L258.69-10.89Q255.54-16.38 255.54-22.68L255.54-22.68L255.54-22.68Q255.54-28.92 258.72-34.35L258.72-34.35L258.72-34.35Q261.90-39.78 267.30-42.99L267.30-42.99L267.30-42.99Q272.70-46.20 279-46.20L279-46.20L279-46.20Q285.36-46.20 290.70-43.02L290.70-43.02L290.70-43.02Q296.04-39.84 299.19-34.41L299.19-34.41L299.19-34.41Q302.34-28.98 302.34-22.68L302.34-22.68L302.34-22.68Q302.34-16.20 299.19-10.71L299.19-10.71L299.19-10.71Q296.04-5.22 290.67-2.01L290.67-2.01L290.67-2.01Q285.30 1.20 278.94 1.20L278.94 1.20ZM278.94-0.54L278.94-0.54Q284.70-0.54 289.62-3.51L289.62-3.51L289.62-3.51Q294.54-6.48 297.45-11.55L297.45-11.55L297.45-11.55Q300.36-16.62 300.36-22.56L300.36-22.56L300.36-22.56Q300.36-28.44 297.48-33.48L297.48-33.48L297.48-33.48Q294.60-38.52 289.68-41.49L289.68-41.49L289.68-41.49Q284.76-44.46 279-44.46L279-44.46L279-44.46Q273.18-44.46 268.26-41.49L268.26-41.49L268.26-41.49Q263.34-38.52 260.43-33.48L260.43-33.48L260.43-33.48Q257.52-28.44 257.52-22.56L257.52-22.56L257.52-22.56Q257.52-16.62 260.43-11.55L260.43-11.55L260.43-11.55Q263.34-6.48 268.26-3.51L268.26-3.51L268.26-3.51Q273.18-0.54 278.94-0.54L278.94-0.54ZM331.38-44.46L331.38-44.46Q325.44-44.46 320.55-41.43L320.55-41.43L320.55-41.43Q315.66-38.40 312.81-33.33L312.81-33.33L312.81-33.33Q309.96-28.26 309.96-22.44L309.96-22.44L309.96-22.44Q309.96-16.56 312.84-11.52L312.84-11.52L312.84-11.52Q315.72-6.48 320.49-3.51L320.49-3.51L320.49-3.51Q325.26-0.54 330.78-0.54L330.78-0.54L330.78-0.54Q334.02-0.54 336.57-1.14L336.57-1.14L336.57-1.14Q339.12-1.74 341.46-3.06L341.46-3.06L341.46-17.16L326.58-17.16L326.58-18.90L343.44-18.90L343.44-4.32L343.56-4.38L343.56-2.16L343.56-2.16Q340.68-0.42 337.65 0.39L337.65 0.39L337.65 0.39Q334.62 1.20 331.02 1.20L331.02 1.20L331.02 1.20Q324.72 1.20 319.44-1.89L319.44-1.89L319.44-1.89Q314.16-4.98 311.07-10.41L311.07-10.41L311.07-10.41Q307.98-15.84 307.98-22.62L307.98-22.62L307.98-22.62Q307.98-29.16 311.19-34.56L311.19-34.56L311.19-34.56Q314.40-39.96 319.77-43.08L319.77-43.08L319.77-43.08Q325.14-46.20 331.20-46.20L331.20-46.20L331.20-46.20Q335.40-46.20 337.86-45.45L337.86-45.45L337.86-45.45Q340.32-44.70 343.56-42.84L343.56-42.84L343.56-40.62L343.56-40.62Q340.50-42.72 337.89-43.59L337.89-43.59L337.89-43.59Q335.28-44.46 331.38-44.46L331.38-44.46ZM373.92-45L375.96-45L362.58-18L362.58 0L360.60 0L360.60-18L346.92-45L349.08-45L361.62-20.34L373.92-45Z" fill="#000000"></path></g></g><style>text {
  font-size: 64px;
  font-family: Arial Black;
  dominant-baseline: central;
  text-anchor: middle;
}</style></svg>