<svg width="573.0099365234374px" height="116.02878417968749px" xmlns="http://www.w3.org/2000/svg" viewBox="-36.504968261718716 16.985607910156254 573.0099365234374 116.02878417968749" style="background: rgba(0, 0, 0, 0);" preserveAspectRatio="xMidYMid"><defs><filter id="editing-hole" x="-100%" y="-100%" width="300%" height="300%"><feFlood flood-color="#000000" result="black"></feFlood><feMorphology operator="dilate" radius="2" in="SourceGraphic" result="erode"></feMorphology><feGaussianBlur in="erode" stdDeviation="4" result="blur"></feGaussianBlur><feOffset in="blur" dx="2" dy="2" result="offset"></feOffset><feComposite operator="atop" in="offset" in2="black" result="merge"></feComposite><feComposite operator="in" in="merge" in2="SourceGraphic" result="inner-shadow"></feComposite></filter></defs><g filter="url(#editing-hole)"><g transform="translate(46.659992694854736, 96.45031356811523)"><path d="M35.58-42.60L35.58-38.88L20.40-38.88L20.40 0L16.20 0L16.20-38.88L1.02-38.88L1.02-42.60L35.58-42.60ZM46.14-3.72L70.56-3.72L70.56 0L41.94 0L41.94-42.60L70.02-42.60L70.02-38.88L46.14-38.88L46.14-23.52L66.96-23.52L66.96-19.98L46.14-19.98L46.14-3.72ZM74.76-21.60L74.76-21.60L74.76-21.60Q74.76-25.44 76.11-29.25L76.11-29.25L76.11-29.25Q77.46-33.06 80.04-36.06L80.04-36.06L80.04-36.06Q82.62-39.06 86.40-40.95L86.40-40.95L86.40-40.95Q90.18-42.84 94.98-42.84L94.98-42.84L94.98-42.84Q100.68-42.84 104.73-40.26L104.73-40.26L104.73-40.26Q108.78-37.68 110.70-33.54L110.70-33.54L107.40-31.50L107.40-31.50Q106.38-33.60 104.91-35.04L104.91-35.04L104.91-35.04Q103.44-36.48 101.76-37.38L101.76-37.38L101.76-37.38Q100.08-38.28 98.28-38.67L98.28-38.67L98.28-38.67Q96.48-39.06 94.74-39.06L94.74-39.06L94.74-39.06Q90.90-39.06 87.96-37.50L87.96-37.50L87.96-37.50Q85.02-35.94 83.01-33.42L83.01-33.42L83.01-33.42Q81-30.90 79.98-27.75L79.98-27.75L79.98-27.75Q78.96-24.60 78.96-21.36L78.96-21.36L78.96-21.36Q78.96-17.82 80.19-14.58L80.19-14.58L80.19-14.58Q81.42-11.34 83.55-8.85L83.55-8.85L83.55-8.85Q85.68-6.36 88.59-4.89L88.59-4.89L88.59-4.89Q91.50-3.42 94.92-3.42L94.92-3.42L94.92-3.42Q96.72-3.42 98.61-3.87L98.61-3.87L98.61-3.87Q100.50-4.32 102.27-5.31L102.27-5.31L102.27-5.31Q104.04-6.30 105.54-7.77L105.54-7.77L105.54-7.77Q107.04-9.24 108.06-11.34L108.06-11.34L111.54-9.54L111.54-9.54Q110.52-7.14 108.66-5.31L108.66-5.31L108.66-5.31Q106.80-3.48 104.52-2.22L104.52-2.22L104.52-2.22Q102.24-0.96 99.69-0.30L99.69-0.30L99.69-0.30Q97.14 0.36 94.68 0.36L94.68 0.36L94.68 0.36Q90.30 0.36 86.64-1.56L86.64-1.56L86.64-1.56Q82.98-3.48 80.34-6.57L80.34-6.57L80.34-6.57Q77.70-9.66 76.23-13.59L76.23-13.59L76.23-13.59Q74.76-17.52 74.76-21.60ZM148.20-42.60L152.34-42.60L152.34 0L148.20 0L148.20-19.92L122.94-19.92L122.94 0L118.74 0L118.74-42.60L122.94-42.60L122.94-23.64L148.20-23.64L148.20-42.60ZM195 0L167.22-34.80L167.22 0L163.02 0L163.02-42.60L166.26-42.60L194.46-7.14L194.46-42.54L198.66-42.54L198.66 0L195 0ZM226.50 0.30L226.50 0.30L226.50 0.30Q222.06 0.30 218.37-1.53L218.37-1.53L218.37-1.53Q214.68-3.36 212.04-6.39L212.04-6.39L212.04-6.39Q209.40-9.42 207.96-13.32L207.96-13.32L207.96-13.32Q206.52-17.22 206.52-21.30L206.52-21.30L206.52-21.30Q206.52-25.56 208.05-29.46L208.05-29.46L208.05-29.46Q209.58-33.36 212.28-36.36L212.28-36.36L212.28-36.36Q214.98-39.36 218.64-41.13L218.64-41.13L218.64-41.13Q222.30-42.90 226.56-42.90L226.56-42.90L226.56-42.90Q231-42.90 234.69-41.01L234.69-41.01L234.69-41.01Q238.38-39.12 240.99-36.06L240.99-36.06L240.99-36.06Q243.60-33 245.04-29.13L245.04-29.13L245.04-29.13Q246.48-25.26 246.48-21.24L246.48-21.24L246.48-21.24Q246.48-16.98 244.95-13.08L244.95-13.08L244.95-13.08Q243.42-9.18 240.75-6.21L240.75-6.21L240.75-6.21Q238.08-3.24 234.42-1.47L234.42-1.47L234.42-1.47Q230.76 0.30 226.50 0.30ZM210.72-21.30L210.72-21.30L210.72-21.30Q210.72-17.82 211.86-14.61L211.86-14.61L211.86-14.61Q213-11.40 215.10-8.91L215.10-8.91L215.10-8.91Q217.20-6.42 220.08-4.95L220.08-4.95L220.08-4.95Q222.96-3.48 226.50-3.48L226.50-3.48L226.50-3.48Q230.10-3.48 233.04-5.04L233.04-5.04L233.04-5.04Q235.98-6.60 238.02-9.12L238.02-9.12L238.02-9.12Q240.06-11.64 241.17-14.82L241.17-14.82L241.17-14.82Q242.28-18 242.28-21.30L242.28-21.30L242.28-21.30Q242.28-24.78 241.11-27.99L241.11-27.99L241.11-27.99Q239.94-31.20 237.84-33.66L237.84-33.66L237.84-33.66Q235.74-36.12 232.86-37.59L232.86-37.59L232.86-37.59Q229.98-39.06 226.50-39.06L226.50-39.06L226.50-39.06Q222.90-39.06 219.96-37.53L219.96-37.53L219.96-37.53Q217.02-36 214.98-33.48L214.98-33.48L214.98-33.48Q212.94-30.96 211.83-27.78L211.83-27.78L211.83-27.78Q210.72-24.60 210.72-21.30ZM283.20 0L254.40 0L254.40-42.60L258.60-42.60L258.60-3.72L283.20-3.72L283.20 0ZM303.84 0.30L303.84 0.30L303.84 0.30Q299.40 0.30 295.71-1.53L295.71-1.53L295.71-1.53Q292.02-3.36 289.38-6.39L289.38-6.39L289.38-6.39Q286.74-9.42 285.30-13.32L285.30-13.32L285.30-13.32Q283.86-17.22 283.86-21.30L283.86-21.30L283.86-21.30Q283.86-25.56 285.39-29.46L285.39-29.46L285.39-29.46Q286.92-33.36 289.62-36.36L289.62-36.36L289.62-36.36Q292.32-39.36 295.98-41.13L295.98-41.13L295.98-41.13Q299.64-42.90 303.90-42.90L303.90-42.90L303.90-42.90Q308.34-42.90 312.03-41.01L312.03-41.01L312.03-41.01Q315.72-39.12 318.33-36.06L318.33-36.06L318.33-36.06Q320.94-33 322.38-29.13L322.38-29.13L322.38-29.13Q323.82-25.26 323.82-21.24L323.82-21.24L323.82-21.24Q323.82-16.98 322.29-13.08L322.29-13.08L322.29-13.08Q320.76-9.18 318.09-6.21L318.09-6.21L318.09-6.21Q315.42-3.24 311.76-1.47L311.76-1.47L311.76-1.47Q308.10 0.30 303.84 0.30ZM288.06-21.30L288.06-21.30L288.06-21.30Q288.06-17.82 289.20-14.61L289.20-14.61L289.20-14.61Q290.34-11.40 292.44-8.91L292.44-8.91L292.44-8.91Q294.54-6.42 297.42-4.95L297.42-4.95L297.42-4.95Q300.30-3.48 303.84-3.48L303.84-3.48L303.84-3.48Q307.44-3.48 310.38-5.04L310.38-5.04L310.38-5.04Q313.32-6.60 315.36-9.12L315.36-9.12L315.36-9.12Q317.40-11.64 318.51-14.82L318.51-14.82L318.51-14.82Q319.62-18 319.62-21.30L319.62-21.30L319.62-21.30Q319.62-24.78 318.45-27.99L318.45-27.99L318.45-27.99Q317.28-31.20 315.18-33.66L315.18-33.66L315.18-33.66Q313.08-36.12 310.20-37.59L310.20-37.59L310.20-37.59Q307.32-39.06 303.84-39.06L303.84-39.06L303.84-39.06Q300.24-39.06 297.30-37.53L297.30-37.53L297.30-37.53Q294.36-36 292.32-33.48L292.32-33.48L292.32-33.48Q290.28-30.96 289.17-27.78L289.17-27.78L289.17-27.78Q288.06-24.60 288.06-21.30ZM362.52 0L362.52-6.24L362.52-6.24Q356.58 0.30 348.84 0.30L348.84 0.30L348.84 0.30Q344.52 0.30 340.89-1.56L340.89-1.56L340.89-1.56Q337.26-3.42 334.59-6.48L334.59-6.48L334.59-6.48Q331.92-9.54 330.42-13.41L330.42-13.41L330.42-13.41Q328.92-17.28 328.92-21.36L328.92-21.36L328.92-21.36Q328.92-25.62 330.39-29.52L330.39-29.52L330.39-29.52Q331.86-33.42 334.50-36.39L334.50-36.39L334.50-36.39Q337.14-39.36 340.74-41.13L340.74-41.13L340.74-41.13Q344.34-42.90 348.60-42.90L348.60-42.90L348.60-42.90Q351.72-42.90 354.30-42.21L354.30-42.21L354.30-42.21Q356.88-41.52 358.89-40.29L358.89-40.29L358.89-40.29Q360.90-39.06 362.37-37.35L362.37-37.35L362.37-37.35Q363.84-35.64 364.86-33.60L364.86-33.60L361.62-31.44L361.62-31.44Q359.52-35.40 356.16-37.26L356.16-37.26L356.16-37.26Q352.80-39.12 348.54-39.12L348.54-39.12L348.54-39.12Q345.00-39.12 342.15-37.62L342.15-37.62L342.15-37.62Q339.30-36.12 337.29-33.63L337.29-33.63L337.29-33.63Q335.28-31.14 334.20-27.93L334.20-27.93L334.20-27.93Q333.12-24.72 333.12-21.30L333.12-21.30L333.12-21.30Q333.12-17.70 334.35-14.46L334.35-14.46L334.35-14.46Q335.58-11.22 337.74-8.79L337.74-8.79L337.74-8.79Q339.90-6.36 342.81-4.92L342.81-4.92L342.81-4.92Q345.72-3.48 349.14-3.48L349.14-3.48L349.14-3.48Q352.80-3.48 356.13-5.19L356.13-5.19L356.13-5.19Q359.46-6.90 362.52-10.62L362.52-10.62L362.52-17.70L353.04-17.70L353.04-20.94L366.06-20.94L366.06 0L362.52 0ZM368.52-42.60L373.14-42.60L387.06-19.68L401.10-42.60L405.66-42.60L389.16-15.84L389.16 0L384.96 0L384.96-15.96L368.52-42.60Z" fill="#000000"></path></g></g><style>text {
  font-size: 64px;
  font-family: Arial Black;
  dominant-baseline: central;
  text-anchor: middle;
}</style></svg>