<svg id="Capa_1" enable-background="new 0 0 56 58" height="512" viewBox="0 0 56 58" width="512" xmlns="http://www.w3.org/2000/svg"><g><path id="Shape" d="m48 57s-5-5-20-5-20 5-20 5v-25h40z" fill="#603e26"/><path d="m2 26c0-14.359 11.641-26 26-26s26 11.641 26 26z" fill="#a56a43"/><path d="m13.52 10.451c-.416 0-.789-.258-.935-.647s-.038-.829.275-1.104c4.188-3.673 9.569-5.699 15.14-5.7.552 0 1 .448 1 1s-.448 1-1 1c-5.085 0-9.997 1.848-13.822 5.2-.181.161-.415.251-.658.251z" fill="#cb8252"/><path d="m49.66 26h4.34c1.103.003 1.997.897 2 2v2c-.003 1.103-.897 1.997-2 2h-52c-1.103-.003-1.997-.897-2-2v-2c.003-1.103.897-1.997 2-2z" fill="#805333"/><path d="m8 32v25c0 .552-.448 1-1 1-2.761 0-5-2.239-5-5v-21z" fill="#cb8252"/><path d="m48 32v25c0 .552.448 1 1 1 2.761 0 5-2.239 5-5v-21z" fill="#cb8252"/><path d="m35.54 36h-15.08c2.52-1.912 4.594-4.348 6.08-7.14.294-.531.853-.86 1.46-.86s1.166.329 1.46.86c1.486 2.792 3.56 5.228 6.08 7.14z" fill="#805333"/><path d="m40.5 38c-1.82-.138-3.553-.836-4.96-2-2.52-1.912-4.594-4.348-6.08-7.14-.294-.531-.853-.86-1.46-.86s-1.166.329-1.46.86c-1.486 2.792-3.56 5.228-6.08 7.14-1.407 1.164-3.14 1.862-4.96 2-2.663-.001-5.204-1.12-7.002-3.084s-2.69-4.593-2.458-7.246c.531-4.974 4.758-8.729 9.76-8.67h24.4c5.002-.059 9.229 3.696 9.76 8.67.233 2.653-.659 5.282-2.458 7.246s-4.339 3.083-7.002 3.084z" fill="#3f5c6c"/><path d="m46 28.5c0 3.038-2.462 5.5-5.5 5.5-1.69 0-3.73-1.56-5.2-3.46-1.134-1.304-1.842-2.923-2.03-4.64 0-3.04 4.19-2.9 7.23-2.9 3.035.006 5.494 2.465 5.5 5.5z" fill="#67b9cc"/><path d="m22.73 25.9c0 3.03-4.19 8.1-7.23 8.1-3.038 0-5.5-2.462-5.5-5.5s2.462-5.5 5.5-5.5c2.67 0 6.24-.11 7.05 1.94.125.304.186.631.18.96z" fill="#67b9cc"/><g fill="#2fa8cc"><path d="m22.73 25.9c0 3.03-4.19 8.1-7.23 8.1-1.292-.001-2.542-.458-3.53-1.29 1.32-2.5 4.29-6.26 10.58-7.77.125.304.186.631.18.96z"/><path d="m46 28.5c0 3.038-2.462 5.5-5.5 5.5-1.69 0-3.73-1.56-5.2-3.46 1.51-1.97 4.57-4.53 10.14-4.45.369.75.561 1.574.56 2.41z"/></g></g></svg>