<svg height="512" viewBox="0 0 59 52" width="512" xmlns="http://www.w3.org/2000/svg"><g id="Page-1" fill="none" fill-rule="evenodd"><g id="002---Blimp" fill-rule="nonzero"><path id="Shape" d="m7.63 34.17c-.7309614.9423538-.83293359 2.2286575-.25958014 3.2744113.57335345 1.0457539 1.71267405 1.6514963 2.90025174 1.5419765 1.1875777-.1095199 2.1969-.9134128 2.5693284-2.0463878z" fill="#2fa8cc"/><path id="Shape" d="m42.205 6.973.795-1.134c3.0055271-3.74603492 7.8292213-5.53330009 12.55-4.65 1.493706.26578394 2.5614662 1.59407767 2.5 3.11-.078 3.093-.691 8.228-3.726 10.85z" fill="#3f5c6c"/><path id="Shape" d="m53.923 28.53c3.383 2.5 4.046 7.946 4.127 11.171.0614662 1.5159223-1.006294 2.8442161-2.5 3.11-4.7207787.8833001-9.5444729-.9039651-12.55-4.65l-.8-1.139z" fill="#3f5c6c"/><path id="Shape" d="m39 38.9v10.1c0 1.6568542-1.3431458 3-3 3h-14c-1.6568542 0-3-1.3431458-3-3v-10.1z" fill="#35495e"/><path id="Shape" d="m23 46c-.5522847 0-1-.4477153-1-1v-1c0-.5522847.4477153-1 1-1s1 .4477153 1 1v1c0 .5522847-.4477153 1-1 1z" fill="#2fa8cc"/><path id="Shape" d="m27 46c-.5522847 0-1-.4477153-1-1v-1c0-.5522847.4477153-1 1-1s1 .4477153 1 1v1c0 .5522847-.4477153 1-1 1z" fill="#2fa8cc"/><path id="Shape" d="m31 46c-.5522847 0-1-.4477153-1-1v-1c0-.5522847.4477153-1 1-1s1 .4477153 1 1v1c0 .5522847-.4477153 1-1 1z" fill="#2fa8cc"/><path id="Shape" d="m35 46c-.5522847 0-1-.4477153-1-1v-1c0-.5522847.4477153-1 1-1s1 .4477153 1 1v1c0 .5522847-.4477153 1-1 1z" fill="#2fa8cc"/><path id="Shape" d="m39 48v1c0 1.6568542-1.3431458 3-3 3h-14c-1.6568542 0-3-1.3431458-3-3v-1z" fill="#95a5a5"/><ellipse id="Oval" cx="29" cy="22" fill="#9fc9d3" rx="29" ry="18"/><ellipse id="Oval" cx="48" cy="22" fill="#547580" rx="10" ry="3"/><g fill="#84b5cb"><path id="Shape" d="m15 12h-2c-.5522847 0-1-.4477153-1-1s.4477153-1 1-1h2c.5522847 0 1 .4477153 1 1s-.4477153 1-1 1z"/><path id="Shape" d="m44 12h-25c-.5522847 0-1-.4477153-1-1s.4477153-1 1-1h25c.5522847 0 1 .4477153 1 1s-.4477153 1-1 1z"/><path id="Shape" d="m9 17h-2c-.55228475 0-1-.4477153-1-1s.44771525-1 1-1h2c.55228475 0 1 .4477153 1 1s-.44771525 1-1 1z"/><path id="Shape" d="m38 17h-25c-.5522847 0-1-.4477153-1-1s.4477153-1 1-1h25c.5522847 0 1 .4477153 1 1s-.4477153 1-1 1z"/><path id="Shape" d="m15 34h-2c-.5522847 0-1-.4477153-1-1s.4477153-1 1-1h2c.5522847 0 1 .4477153 1 1s-.4477153 1-1 1z"/><path id="Shape" d="m44 34h-25c-.5522847 0-1-.4477153-1-1s.4477153-1 1-1h25c.5522847 0 1 .4477153 1 1s-.4477153 1-1 1z"/><path id="Shape" d="m9 29h-2c-.55228475 0-1-.4477153-1-1s.44771525-1 1-1h2c.55228475 0 1 .4477153 1 1s-.44771525 1-1 1z"/><path id="Shape" d="m38 29h-25c-.5522847 0-1-.4477153-1-1s.4477153-1 1-1h25c.5522847 0 1 .4477153 1 1s-.4477153 1-1 1z"/><path id="Shape" d="m9 23h-2c-.55228475 0-1-.4477153-1-1s.44771525-1 1-1h2c.55228475 0 1 .4477153 1 1s-.44771525 1-1 1z"/><path id="Shape" d="m33 23h-20c-.5522847 0-1-.4477153-1-1s.4477153-1 1-1h20c.5522847 0 1 .4477153 1 1s-.4477153 1-1 1z"/></g></g></g></svg>