<svg height="512" viewBox="0 0 58 58" width="512" xmlns="http://www.w3.org/2000/svg"><g id="Page-1" fill="none" fill-rule="evenodd"><g id="006---Plane" fill-rule="nonzero"><path id="Shape" d="m39.11 24h13.83c1.3420768-.0002653 2.6292617.5327551 3.5782533 1.4817467s1.482012 2.2361765 1.4817467 3.5782533c-.0002241 2.3169478-1.5737877 4.3378648-3.82 4.906l-15.96 4.034h-18.44l-15.96-4.034c-2.24621227-.5681352-3.81977587-2.5890522-3.82-4.906-.00026531-1.3420768.5327551-2.6292617 1.4817467-3.5782533.94899159-.9489916 2.23617654-1.482012 3.5782533-1.4817467z" fill="#35495e"/><path id="Shape" d="m36.09 47.54 4.53 6.28c.4391016.6083225.5020489 1.4108255.1631659 2.080172-.338883.6693466-1.0229471 1.0936458-1.7731659 1.099828h-20.02c-.7502188-.0061822-1.4342829-.4304814-1.7731659-1.099828-.338883-.6693465-.2759357-1.4718495.1631659-2.080172l4.53-6.28z" fill="#35495e"/><path id="Shape" d="m25.79 4.83-.01.01-1.78 4.16h10l-1.78-4.16-.01-.01-1.09-2.51-.37-.87c-.219337-.78516522-.9347742-1.32813499-1.75-1.32813499s-1.530663.54296977-1.75 1.32813499l-.37.87z" fill="#7f8c8d"/><path id="Shape" d="m35.225 15h-12.45c-.6432398.0007983-1.2476052-.3078322-1.6241005-.8293773s-.4791639-1.1923428-.2758995-1.8026227l.667-2c.272376-.81778463 1.0380492-1.3690693 1.9-1.368h11.116c.8619508-.0010693 1.627624.55021537 1.9 1.368l.667 2c.2032644.6102799.1005958 1.2810776-.2758995 1.8026227s-.9808607.8301756-1.6241005.8293773z" fill="#547580"/><rect id="Rectangle-path" fill="#35495e" height="6" rx="2" width="24" x="17" y="15"/><path id="Shape" d="m39 21s1.594 21.309-6.606 35.007c-.6866781 1.230116-1.9852019 1.9923937-3.394 1.9923937s-2.7073219-.7622777-3.394-1.9923937c-8.201-13.698-6.606-35.007-6.606-35.007z" fill="#3f5c6c"/><path id="Shape" d="m35 30c0 3.314-2.686 10-6 10s-6-6.686-6-10 2.686-5 6-5 6 1.686 6 5z" fill="#2fa8cc"/><path id="Shape" d="m31 50.5c0 1.933-.895 3.5-2 3.5s-2-1.567-2-3.5.9-6.5 2-6.5 2 4.567 2 6.5z" fill="#547580"/><g fill="#67b9cc"><path id="Shape" d="m35 30c-.0084676.6121947-.0788256 1.2219638-.21 1.82-1.6660209-1.2491119-3.7089362-1.8912718-5.79-1.82-2.0810638-.0712718-4.1239791.5708881-5.79 1.82-.1311744-.5980362-.2015324-1.2078053-.21-1.82 0-3.31 2.69-5 6-5s6 1.69 6 5z"/><rect id="Rectangle-path" height="4" rx="2" width="14" x="13" y="1"/><rect id="Rectangle-path" height="4" rx="2" width="14" x="31" y="1"/></g></g></g></svg>