<svg height="512" viewBox="0 0 58 58" width="512" xmlns="http://www.w3.org/2000/svg"><g id="Page-1" fill="none" fill-rule="evenodd"><g id="007---Steering-Wheel" fill-rule="nonzero"><path id="Shape" d="m16 37v-6c0-7.1797017 5.8202983-13 13-13s13 5.8202983 13 13v6z" fill="#35495e"/><path id="Shape" d="m9 15.5v1c0 .8284271.67157288 1.5 1.5 1.5.8284271 0 1.5.6715729 1.5 1.5v1c0 .8284271-.6715729 1.5-1.5 1.5-.82842712 0-1.5.6715729-1.5 1.5v1c0 .8284271.67157288 1.5 1.5 1.5.8284271 0 1.5.6715729 1.5 1.5v.5c0 2.209139-1.790861 4-4 4h-7c-.55228475 0-1-.4477153-1-1v-26c0-.55228475.44771525-1 1-1h7c2.209139 0 4 1.790861 4 4v4.5c0 .8284271-.6715729 1.5-1.5 1.5-.82842712 0-1.5.6715729-1.5 1.5z" fill="#35495e"/><circle id="Oval" cx="6" cy="10" fill="#547580" r="2"/><path id="Shape" d="m4 0h2c1.1045695 0 2 .8954305 2 2v2h-6v-2c0-1.1045695.8954305-2 2-2z" fill="#95a5a5"/><path id="Shape" d="m56.99 32c-.2677025 6.1513352-5.3328424 11.0004683-11.49 11h-3.44c-2.4527051.0000807-4.6584113 1.4929914-5.57 3.77l-4.49 11.23h-6l-4.49-11.23c-.9115887-2.2770086-3.1172949-3.7699193-5.57-3.77h-3.44c-6.1571576.0004683-11.22229751-4.8486648-11.49-11h6.02c.25191302 2.832447 2.62637417 5.0028868 5.47 5h6.5c1.1045695 0 2-.8954305 2-2v-2.693c-.061825-4.2766705 3.1719626-7.8834534 7.43-8.287 2.2158365-.1609766 4.3986664.6077867 6.0245999 2.1217831 1.6259334 1.5139964 2.5481815 3.6365425 2.5454001 5.8582169v3c0 1.1045695.8954305 2 2 2h6.5c2.8436258.0028868 5.218087-2.167553 5.47-5z" fill="#95a5a5"/><path id="Shape" d="m58 5v26c0 .5522847-.4477153 1-1 1h-7c-2.209139 0-4-1.790861-4-4v-.5c0-.8284271.6715729-1.5 1.5-1.5s1.5-.6715729 1.5-1.5v-1c0-.8284271-.6715729-1.5-1.5-1.5s-1.5-.6715729-1.5-1.5v-1c0-.8284271.6715729-1.5 1.5-1.5s1.5-.6715729 1.5-1.5v-1c0-.8284271-.6715729-1.5-1.5-1.5s-1.5-.6715729-1.5-1.5v-4.5c0-2.209139 1.790861-4 4-4h7c.2652165 0 .5195704.10535684.7071068.29289322s.2928932.44189029.2928932.70710678z" fill="#35495e"/><circle id="Oval" cx="52" cy="10" fill="#547580" r="2"/><path id="Shape" d="m50 0h6v2c0 1.1045695-.8954305 2-2 2h-2c-1.1045695 0-2-.8954305-2-2z" fill="#95a5a5" transform="matrix(-1 0 0 -1 106 4)"/><circle id="Oval" cx="29" cy="36" fill="#7f8c8d" r="3"/></g></g></svg>