<svg height="512" viewBox="0 0 58 58" width="512" xmlns="http://www.w3.org/2000/svg"><g id="Page-1" fill="none" fill-rule="evenodd"><g id="008---Seatbelt-Sign" fill-rule="nonzero"><rect id="Rectangle-path" fill="#f0c419" height="58" rx="8" width="58"/><path id="Rectangle-path" d="m0 20h10v18h-10z" fill="#e64c3c"/><rect id="Rectangle-path" fill="#35495e" height="22" rx="2" width="10" x="10" y="18"/><rect id="Rectangle-path" fill="#35495e" height="22" rx="2" width="10" x="38" y="18"/><g fill="#2c3e50"><circle id="Oval" cx="15" cy="23" r="1"/><circle id="Oval" cx="15" cy="27" r="1"/><circle id="Oval" cx="15" cy="31" r="1"/><circle id="Oval" cx="15" cy="35" r="1"/></g><path id="Shape" d="m6 20v5c0 .5522847-.44771525 1-1 1s-1-.4477153-1-1v-5z" fill="#c03a2b"/><path id="Rectangle-path" d="m48 20h10v18h-10z" fill="#e64c3c"/><path id="Shape" d="m54 20v5c0 .5522847-.4477153 1-1 1s-1-.4477153-1-1v-5z" fill="#c03a2b"/><path id="Shape" d="m6 30v8h-2v-8c0-.5522847.44771525-1 1-1s1 .4477153 1 1z" fill="#c03a2b"/><path id="Shape" d="m54 30v8h-2v-8c0-.5522847.4477153-1 1-1s1 .4477153 1 1z" fill="#c03a2b"/><path id="Shape" d="m30 20c-2.7614237 0-5 2.2385763-5 5v8c0 2.7614237 2.2385763 5 5 5h8v-18zm4 11.5c0 1.3807119-1.1192881 2.5-2.5 2.5s-2.5-1.1192881-2.5-2.5v-5c0-1.3807119 1.1192881-2.5 2.5-2.5s2.5 1.1192881 2.5 2.5z" fill="#95a5a5"/><path id="Shape" d="m44 24h-2c-.5522847 0-1-.4477153-1-1s.4477153-1 1-1h2c.5522847 0 1 .4477153 1 1s-.4477153 1-1 1z" fill="#2c3e50"/><path id="Shape" d="m44 28h-2c-.5522847 0-1-.4477153-1-1s.4477153-1 1-1h2c.5522847 0 1 .4477153 1 1s-.4477153 1-1 1z" fill="#2c3e50"/><path id="Shape" d="m44 32h-2c-.5522847 0-1-.4477153-1-1s.4477153-1 1-1h2c.5522847 0 1 .4477153 1 1s-.4477153 1-1 1z" fill="#2c3e50"/><path id="Shape" d="m44 36h-2c-.5522847 0-1-.4477153-1-1s.4477153-1 1-1h2c.5522847 0 1 .4477153 1 1s-.4477153 1-1 1z" fill="#2c3e50"/><path id="Shape" d="m24.293 16.707c.3923789.3789722 1.0160848.3735524 1.4018186-.0121814s.3911536-1.0094397.0121814-1.4018186l-4.293-4.293h19.586c.5522847 0 1-.4477153 1-1 0-.55228475-.4477153-1-1-1h-19.586l4.293-4.293c.2599566-.25107447.3642126-.62287789.2726972-.97250732-.0915155-.34962944-.3645604-.6226744-.7141899-.71418984-.3496294-.09151544-.7214328.01274058-.9725073.27269716l-6 6c-.3903819.39049985-.3903819 1.0235001 0 1.414z" fill="#e64c3c"/><path id="Shape" d="m41 47h-19.586l4.293-4.293c.3789722-.3923789.3735524-1.0160848-.0121814-1.4018186s-1.0094397-.3911536-1.4018186-.0121814l-6 6c-.3903819.3904999-.3903819 1.0235001 0 1.414l6 6c.3923789.3789722 1.0160848.3735524 1.4018186-.0121814s.3911536-1.0094397.0121814-1.4018186l-4.293-4.293h19.586c.5522847 0 1-.4477153 1-1s-.4477153-1-1-1z" fill="#e64c3c"/></g></g></svg>