<svg height="512" viewBox="0 0 58 59" width="512" xmlns="http://www.w3.org/2000/svg"><g id="Page-1" fill="none" fill-rule="evenodd"><g id="010---Parachute" fill-rule="nonzero" transform="translate(-1)"><path id="Shape" d="m58.694 28.281c-.3970943-.383834-1.0301604-.3730889-1.414.024l-24.763 25.648 11.39-24.532c.1548835-.3247181.1234032-.707606-.0824373-1.0026661-.2058404-.29506-.5543108-.4568087-.9125369-.42357-.358226.0332386-.6709873.2563408-.8190258.5842361l-12.093 26.046-12.093-26.046c-.1480385-.3278953-.4607998-.5509975-.8190258-.5842361-.3582261-.0332387-.7066965.12851-.9125369.42357-.2058405.2950601-.2373208.677948-.0824373 1.0026661l11.39 24.532-24.763-25.648c-.38521861-.397645-1.01985497-.4077186-1.41749999-.0225-.39764501.3852186-.40771861 1.019855-.02250001 1.4175l28 29c.1884832.1955519.4484002.3060259.72.3060259s.5315168-.110474.72-.3060259l28-29c.185607-.1911692.2872462-.4485065.2823649-.7149119s-.1158793-.5198466-.3083649-.7040881z" fill="#547580"/><path id="Shape" d="m59 29c-.0000002-16.0162576-12.9837424-28.99999957-29-28.99999957s-28.99999976 12.98374197-29 28.99999957z" fill="#e64c3c"/><path id="Shape" d="m7.072 20.033c-.1376528-.0005591-.27375048-.0291396-.4-.084-.24310457-.10618-.43405718-.3046052-.53083148-.5516048-.0967743-.2469995-.09143906-.5223302.01483148-.7653952 1.80684175-4.1266215 4.6481347-7.7170734 8.249-10.424.2858125-.21435937.6642734-.25995645.9928203-.11961526.3285469.14034118.5572656.44529947.6.80000001.0427345.35470055-.1070078.7052559-.3928203.91961525-3.3249219 2.4994474-5.94852126 5.8146822-7.617 9.625-.15897404.3642554-.51856483.5997952-.916.6z" fill="#fb7b76"/><path id="Shape" d="m53 20.033c-.398161.000591-.7587359-.2350788-.918-.6-1.667769-3.8104613-4.2910947-7.1257855-7.616-9.625-.4418278-.33137085-.5313708-.9581722-.2-1.4s.9581722-.53137085 1.4-.2c3.6007851 2.7067589 6.4417899 6.297282 8.248 10.424.1062705.243065.1116058.5183957.0148315.7653952-.0967743.2469996-.2877269.4454248-.5308315.5516048-.1255971.0547018-.2610095.0832813-.398.084z" fill="#fb7b76"/><path id="Shape" d="m43 29c0-16.016-5.82-29-13-29s-13 12.984-13 29z" fill="#ecf0f1"/><path id="Shape" d="m13 26h-8c-.55228475 0-1-.4477153-1-1s.44771525-1 1-1h8c.5522847 0 1 .4477153 1 1s-.4477153 1-1 1z" fill="#c03a2b"/><path id="Shape" d="m55 26h-8c-.5522847 0-1-.4477153-1-1s.4477153-1 1-1h8c.5522847 0 1 .4477153 1 1s-.4477153 1-1 1z" fill="#c03a2b"/><path id="Shape" d="m39 26h-18c-.5522847 0-1-.4477153-1-1s.4477153-1 1-1h18c.5522847 0 1 .4477153 1 1s-.4477153 1-1 1z" fill="#bdc3c7"/></g></g></svg>