<svg height="512" viewBox="0 0 58 58" width="512" xmlns="http://www.w3.org/2000/svg"><g id="Page-1" fill="none" fill-rule="evenodd"><g id="011---Propeller" fill-rule="nonzero" transform="translate(-1 -1)"><path id="Shape" d="m46.67 52.63c-9.4910495 8.4921095-23.8489505 8.4921095-33.34 0l-7.86-13.84c-.31419504-1.5772678-.47162792-3.1817433-.47-4.79-.00272246-10.7990385 6.9307622-20.3784603 17.19-23.75h15.62c10.2592378 3.3715397 17.1927225 12.9509615 17.19 23.75.0016279 1.6082567-.155805 3.2127322-.47 4.79z" fill="#e64c3c"/><path id="Shape" d="m50.7 37.5c.201215-1.1557715.3015928-2.326845.3-3.5-.0100535-8.9026212-5.626022-16.8338748-14.02-19.8h-13.96c-8.393978 2.9661252-14.00994648 10.8973788-14.02 19.8-.00159275 1.173155.09878498 2.3442285.3 3.5l7.07 12.46c7.8441921 6.7201048 19.4158079 6.7201048 27.26 0z" fill="#35495e"/><g fill="#95a5a5"><path id="Shape" d="m26.43 30.49-3.41-16.29-.83-3.95-.03-.13c-.4210606-2.29722353.2190714-4.66166141 1.7415474-6.43270487s3.7640544-2.7587994 6.0984526-2.68729513c2.3343982-.07150427 4.5759766.91625167 6.0984526 2.68729513s2.162608 4.13548134 1.7415474 6.43270487l-.03.13-.83 3.95-3.41 16.29z"/><path id="Shape" d="m25.31 32.25-16.01 5.25-3.2 1.05c-.21442146.0678731-.42476781.1480051-.63.24-2.01048571.9363714-3.52592308 2.6860889-4.16566904 4.8096636-.63974597 2.1235746-.34301204 4.419225.81566904 6.3103364 1.0493644 1.9307895 2.86623738 3.327826 5.00179596 3.845999 2.13555857.518173 4.39065224.1091605 6.20820404-1.125999.2124547-.1516417.4161166-.315239.61-.49l2.43-2.18 12.41-11.11h.01z"/><path id="Shape" d="m34.68 32.25h.01l16.01 5.25 3.2 1.05c.2144215.0678731.4247678.1480051.63.24 2.6422221 1.3151316 4.341346 3.9827536 4.4160757 6.9332322.0747298 2.9504786-1.4871711 5.7006958-4.0594286 7.1478998-2.5722576 1.447204-5.7336847 1.3544264-8.2166471-.241132-.2124547-.1516417-.4161166-.315239-.61-.49l-2.43-2.18-12.41-11.11h-.01z"/></g><path id="Shape" d="m30 25c-.5522847 0-1-.4477153-1-1v-7c0-.5522847.4477153-1 1-1s1 .4477153 1 1v7c0 .5522847-.4477153 1-1 1z" fill="#7f8c8d"/><path id="Shape" d="m30 52c-.5522847 0-1-.4477153-1-1v-7c0-.5522847.4477153-1 1-1s1 .4477153 1 1v7c0 .5522847-.4477153 1-1 1z" fill="#3f5c6c"/><path id="Shape" d="m21.339 30c-.175539-.0000077-.3479833-.0462228-.5-.134l-6.063-3.5c-.4742136-.2780058-.6351286-.886647-.3602745-1.3626943.274854-.4760473.8824145-.640996 1.3602745-.3693057l6.063 3.5c.3919413.2263139.5830208.6876562.4658809 1.1248223-.1171398.4371661-.5132928.7411578-.9658809.7411777z" fill="#3f5c6c"/><path id="Shape" d="m44.722 43.5c-.1755887.0003718-.3481299-.0458692-.5-.134l-6.063-3.5c-.4742136-.2780058-.6351286-.886647-.3602745-1.3626943.274854-.4760473.8824145-.640996 1.3602745-.3693057l6.063 3.5c.3919413.2263139.5830208.6876562.4658809 1.1248223-.1171398.4371661-.5132928.7411578-.9658809.7411777z" fill="#7f8c8d"/><path id="Shape" d="m15.278 43.5c-.4525881-.0000199-.8487411-.3040116-.9658809-.7411777-.1171399-.4371661.0739396-.8985084.4658809-1.1248223l6.063-3.5c.3095704-.1814844.6926495-.1831833 1.0038174-.0044519.311168.1787315.5027136.5104885.5019247.8693336s-.1937913.6897567-.5057421.8671183l-6.063 3.5c-.1518701.0881308-.3244113.1343718-.5.134z" fill="#7f8c8d"/><path id="Shape" d="m38.661 30c-.4525881-.0000199-.8487411-.3040116-.9658809-.7411777-.1171399-.4371661.0739396-.8985084.4658809-1.1248223l6.063-3.5c.47786-.2716903 1.0854205-.1067416 1.3602745.3693057.2748541.4760473.1139391 1.0846885-.3602745 1.3626943l-6.063 3.5c-.1520167.0877772-.324461.1339923-.5.134z" fill="#3f5c6c"/><circle id="Oval" cx="30" cy="34" fill="#bdc3c7" r="5"/></g></g></svg>