<svg height="512" viewBox="0 0 58 51" width="512" xmlns="http://www.w3.org/2000/svg"><g id="Page-1" fill="none" fill-rule="evenodd"><g id="012---Plane" fill-rule="nonzero"><path id="Shape" d="m13.482 14.124c-.4838113-.2661121-1.0917427-.0897315-1.358.394l-4.624 8.407-4.624-8.407c-.1687079-.319599-.49672985-.5233047-.8579987-.5328278-.36126886-.0095231-.69956724.1766182-.88487853.4868852s-.18879902.6963787-.00912277 1.0099426l5.235 9.518-5.235 9.518c-.17967625.3135639-.17618852.6996756.00912277 1.0099426s.52360967.4964083.88487853.4868852c.36126885-.0095231.6892908-.2132288.8579987-.5328278l4.624-8.407 4.624 8.407c.1687079.319599.4967298.5233047.8579987.5328278s.6995672-.1766182.8848785-.4868852.1887991-.6963787.0091228-1.0099426l-5.235-9.518 5.235-9.518c.2661121-.4838113.0897315-1.0917427-.394-1.358z" fill="#f29c1f"/><path id="Shape" d="m51.641 25 5.235-9.518c.2546681-.4824414.0756807-1.0799703-.4022774-1.3429564s-1.0784975-.0943749-1.3497226.3789564l-4.624 8.407-4.624-8.407c-.1687079-.319599-.4967298-.5233047-.8579987-.5328278s-.6995672.1766182-.8848785.4868852-.1887991.6963787-.0091228 1.0099426l5.235 9.518-5.235 9.518c-.1796763.3135639-.1761885.6996756.0091228 1.0099426s.5236096.4964083.8848785.4868852.6892908-.2132288.8579987-.5328278l4.624-8.407 4.624 8.407c.2712251.4733313.8717645.6419425 1.3497226.3789564s.6569455-.860515.4022774-1.3429564z" fill="#f29c1f"/><path id="Shape" d="m21.54 48h-7.54c-.5522847 0-1-.4477153-1-1s.4477153-1 1-1h7.54c.952381-.0003843 1.772381-.6722823 1.96-1.606l.94-4.706c.109794-.5401702.6359937-.8896327 1.1764626-.7813185.5404689.1083143.8913711.633555.7845374 1.1743185l-.941 4.7c-.3751645 1.8685151-2.0141993 3.214447-3.92 3.219z" fill="#547580"/><path id="Shape" d="m44 48h-7.54c-1.9042633-.0040706-3.5427617-1.347472-3.92-3.214l-.9-4.513c-.0894779-.5325846.2600723-1.0399972.7895816-1.1461692.5295094-.106172 1.0476571.2272583 1.1704184.7531692l.9 4.514c.187619.9337177 1.007619 1.6056157 1.96 1.606h7.54c.5522847 0 1 .4477153 1 1s-.4477153 1-1 1z" fill="#547580"/><rect id="Rectangle-path" fill="#f0c419" height="4" rx="2" width="58" y="12"/><path id="Shape" d="m31 34h25c1.1032019.0032948 1.9967052.8967981 2 2-.0081672 1.1011688-.8988312 1.9918328-2 2h-54c-1.10320187-.0032948-1.9967052-.8967981-2-2-.00282307-.5305905.2101411-1.0395388.59-1.41.3704612-.3798589.87940947-.5928231 1.41-.59z" fill="#f0c419"/><path id="Shape" d="m34 12-3.081-10.476c-.2500362-.85162376-1.0314296-1.43658275-1.919-1.43658275s-1.6689638.58495899-1.919 1.43658275l-3.081 10.476z" fill="#f29c1f"/><path id="Shape" d="m35 38c0 3.3137085-2.6862915 6-6 6s-6-2.6862915-6-6z" fill="#f29c1f"/><path id="Shape" d="m22.44 18.85c1.6973443-1.8178565 4.0729174-2.8498857 6.56-2.8498857s4.8626557 1.0320292 6.56 2.8498857l2.03 3.46c.2737415.8703504.412024 1.7776184.41 2.69-.0006267 4.200856-2.9048444 7.8435748-7 8.78h-4c-4.0951556-.9364252-6.9993733-4.579144-7-8.78-.002024-.9123816.1362585-1.8196496.41-2.69z" fill="#547580"/><g fill="#7f8c8d"><path id="Shape" d="m26.06 25.61v-.01l-5.65-3.29-4.42-2.58c-.9503783-.5616518-1.271499-1.7836943-.72-2.74.3574748-.6162908 1.017549-.9940211 1.73-.99.3544043.0007394.7025022.0937953 1.01.27l4.43 2.58 5.65 3.3z"/><path id="Shape" d="m31.94 25.61v-.01l5.65-3.29 4.42-2.58c.9503783-.5616518 1.271499-1.7836943.72-2.74-.3574748-.6162908-1.017549-.9940211-1.73-.99-.3544043.0007394-.7025022.0937953-1.01.27l-4.43 2.58-5.65 3.3z"/><path id="Shape" d="m27 27.23v10.77c0 1.1045695.8954305 2 2 2s2-.8954305 2-2v-10.77z"/></g><rect id="Rectangle-path" fill="#95a5a5" height="8" rx="2" width="4" x="15" y="43"/><rect id="Rectangle-path" fill="#95a5a5" height="8" rx="2" width="4" x="39" y="43"/><circle id="Oval" cx="29" cy="25" fill="#95a5a5" r="3"/></g></g></svg>