<svg height="512" viewBox="0 0 58 58" width="512" xmlns="http://www.w3.org/2000/svg"><g id="Page-1" fill="none" fill-rule="evenodd"><g id="013---Plane" fill-rule="nonzero"><path id="Shape" d="m34.208 46c2.4044639.9591528 4.5670886 2.4381245 6.333 4.331.3925436.4649204.5425784 1.0878641.4047506 1.6805234-.1378277.5926593-.5473415 1.0854754-1.1047506 1.3294766-1.685.8-4.564 1.371-8.837-.341h-4.004c-4.273 1.712-7.152 1.144-8.837.341-.5574091-.2440012-.9669229-.7368173-1.1047506-1.3294766-.1378278-.5926593.012207-1.215603.4047506-1.6805234 1.7647579-1.8923904 3.9259712-3.371331 6.329-4.331z" fill="#14a085"/><path id="Shape" d="m36.99 29.98c15.07.39 19.54-5.99 20.86-9.81.2437829-.7632646.1550113-1.5938926-.2445679-2.2883993-.3995791-.6945067-1.0730516-1.1887315-1.8554321-1.3616007-7.57-2.12-17.01-1.51-20.46-1.19h-12.58c-3.45-.32-12.89-.93-20.46 1.19-.78238052.1728692-1.45585297.667094-1.85543215 1.3616007-.39957918.6945067-.4883508 1.5251347-.24456785 2.2883993 1.32 3.82 5.79 10.2 20.86 9.81z" fill="#14a085"/><path id="Shape" d="m31 53s6-11 6-22c-.0904626-6.8461391-1.028947-13.6546851-2.794-20.27-.1184426-.4338987-.5142405-.73362119-.964-.73h-8.484c-.4497595-.00362119-.8455574.2961013-.964.73-1.765053 6.6153149-2.7035374 13.4238609-2.794 20.27 0 11 6 22 6 22z" fill="#26b99a"/><rect id="Rectangle-path" fill="#81ccb8" height="14" rx="2" width="4" x="27" y="44"/><path id="Shape" d="m25 10c0-5.523 1.791-10 4-10s4 4.477 4 10z" fill="#547580"/><path id="Shape" d="m33 23-4 1-4-1c.5737747-1.7388072 2.1700881-2.9360423 4-3 1.8299119.0639577 3.4262253 1.2611928 4 3z" fill="#35495e"/><path id="Shape" d="m33 31c-.5737747 1.7388072-2.1700881 2.9360423-4 3-1.8299119-.0639577-3.4262253-1.2611928-4-3l4-1z" fill="#35495e"/><path id="Shape" d="m29 24v6l-4 1v-8z" fill="#3f5c6c"/><path id="Shape" d="m33 23v8l-4-1v-6z" fill="#2c3e50"/><circle id="Oval" cx="14" cy="22" fill="#f0c419" r="4"/><circle id="Oval" cx="44" cy="22" fill="#f0c419" r="4"/><g fill="#95a5a5"><path id="Shape" d="m27 6h-10c-.5522847 0-1-.44771525-1-1s.4477153-1 1-1h10c.5522847 0 1 .44771525 1 1s-.4477153 1-1 1z"/><path id="Shape" d="m41 6h-10c-.5522847 0-1-.44771525-1-1s.4477153-1 1-1h10c.5522847 0 1 .44771525 1 1s-.4477153 1-1 1z"/></g></g></g></svg>