<svg height="512" viewBox="0 0 58 58" width="512" xmlns="http://www.w3.org/2000/svg"><g id="Page-1" fill="none" fill-rule="evenodd"><g id="014---Plane" fill-rule="nonzero"><path id="Shape" d="m31 42.46v13.54c0 1.1045695-.8954305 2-2 2s-2-.8954305-2-2v-13.54z" fill="#2980ba"/><path id="Shape" d="m27 45-10.537 6.7c-.2885021.183652-.4631429.5020037-.463.844v4.456c-.0000636.3116868.1452081.6055797.3928769.7948119.2476687.1892323.569409.2521617.8701231.1701881l9.737-2.965z" fill="#285680"/><path id="Shape" d="m31 45 10.537 6.7c.2885021.183652.4631429.5020037.463.844v4.456c.0000636.3116868-.1452081.6055797-.3928769.7948119-.2476687.1892323-.569409.2521617-.8701231.1701881l-9.737-2.965z" fill="#285680"/><path id="Shape" d="m33 10c-.1302389-3.43550436-1.2405898-6.76204622-3.2-9.587-.1839699-.25921815-.4821337-.41323156-.8-.41323156s-.6160301.15401341-.8.41323156c-1.9594102 2.82495378-3.0697611 6.15149564-3.2 9.587z" fill="#2980ba"/><path id="Shape" d="m33 13 23.923 12.44c.6617195.3442337 1.0768954 1.0280982 1.077 1.774v5.066c.0003573.6370711-.3028142 1.2362011-.8163317 1.6132415-.5135176.3770404-1.1759411.48688-1.7836683.2957585l-12.672-3.961c-.4825729-.1511243-.9853172-.2280028-1.491-.228h-24.474c-.5056828-.0000028-1.0084271.0768757-1.491.228l-12.672 3.961c-.60772719.1911215-1.2701507.0812819-1.78366826-.2957585-.51351757-.3770404-.81668904-.9761704-.81633174-1.6132415v-5.066c.00010459-.7459018.41528052-1.4297663 1.077-1.774l23.923-12.44z" fill="#35495e"/><path id="Shape" d="m58 27.21v2.79l-25-10h-8l-25 10v-2.79c.00217659-.745118.41839116-1.4272474 1.08-1.77l23.92-12.44h8l23.92 12.44c.6616088.3427526 1.0778234 1.024882 1.08 1.77z" fill="#3f5c6c"/><path id="Shape" d="m42 30-1.171-2.342c-.508231-1.0161218-1.5468652-1.6579614-2.683-1.658h-18.292c-1.1361348.0000386-2.174769.6418782-2.683 1.658l-1.171 2.342z" fill="#547580"/><rect id="Rectangle-path" fill="#3b97d3" height="37" rx="4" width="8" x="25" y="6"/><path id="Shape" d="m13 19.24v-3.24h-6v6.36z" fill="#95a5a5"/><path id="Shape" d="m7 16c.00000003-1.6568542 1.34314578-2.9999999 3-2.9999999 1.6568542 0 3 1.3431457 3 2.9999999z" fill="#7f8c8d"/><path id="Shape" d="m51 22.36v-6.36h-6v3.24z" fill="#95a5a5"/><path id="Shape" d="m45 16c0-1.6568542 1.3431458-3 3-3s3 1.3431458 3 3z" fill="#7f8c8d"/></g></g></svg>