<svg height="512" viewBox="0 0 52 59" width="512" xmlns="http://www.w3.org/2000/svg"><g id="Page-1" fill="none" fill-rule="evenodd"><g id="015---Plane" fill-rule="nonzero"><path id="Shape" d="m52 41.48v2.8c-.0031371.4285471-.2753534.8088492-.68.95l-5.32 1.77h-40l-5.32-1.77c-.40464661-.1411508-.67686288-.5214529-.68-.95v-2.8c-.0000231-.3023629.13581948-.5887337.37-.78l13.63-11.07 2-1.63v-4.49c.0029551-.3214943.1589463-.6223345.42-.81l6.21-4.44h6.74l6.21 4.44c.2610537.1876655.4170449.4885057.42.81v4.49l2 1.63 13.63 11.07c.2341805.1912663.3700231.4776371.37.78z" fill="#e57e25"/><path id="Shape" d="m38 29.63v4.37c0 .5522847-.4477153 1-1 1s-1-.4477153-1-1v-6z" fill="#d25627"/><path id="Shape" d="m41 47 3.78 4.73c.1428013.1750202.2205447.3941151.22.62v1.93c-.0031371.4285471-.2753534.8088492-.68.95l-2.17.72c-.1002745.031979-.2047561.0488309-.31.05h-4.84l-4.32-5.76h-13.36l-4.32 5.76h-4.84c-.1052439-.0011691-.20972547-.018021-.31-.05l-2.17-.72c-.40464661-.1411508-.67686288-.5214529-.68-.95v-1.93c-.00054468-.2258849.07719869-.4449798.22-.62l3.78-4.73z" fill="#d25627"/><path id="Shape" d="m26 59c-.5522847 0-1-.4477153-1-1v-3c0-.5522847.4477153-1 1-1s1 .4477153 1 1v3c0 .5522847-.4477153 1-1 1z" fill="#e57e25"/><path id="Shape" d="m36.611 43.555c.2398999.2743534.3115473.6574949.187 1l-.878 2.415-1.86 5.11-.266.733c-.1361864.3760194-.4833071.6347398-.8825631.657803-.3992561.0230633-.7738588-.1939662-.9524369-.551803l-.683-1.366c-.1692635-.3387294-.5153343-.5527978-.894-.553h-1.382c-.5522847 0-1 .4477153-1 1v2c0 .5522847-.4477153 1-1 1h-2c-.5522847 0-1-.4477153-1-1v-2c0-.5522847-.4477153-1-1-1h-1.382c-.3786657.0002022-.7247365.2142706-.894.553l-.683 1.366c-.1785781.3578368-.5531808.5748663-.9524369.551803-.399256-.0230632-.7463767-.2817836-.8825631-.657803l-.266-.733-1.86-5.11-.88-2.415c-.1245473-.3425051-.0528999-.7256466.187-1l6.377-7.287c.150909-.1734599.2380517-.3932571.247-.623l.619-17.385.36-9.979.067-.433 2.007-7.2c.1466087-.38984584.519498-.648.936-.648s.7893913.25815416.936.648l2.007 7.2.067.433.36 9.979.617 17.385c.0089483.2297429.096091.4495401.247.623z" fill="#f29c1f"/><path id="Shape" d="m22.68 17h6.64l-.21-6.08c-1.8919292-1.22655827-4.3280708-1.22655827-6.22 0z" fill="#67b9cc"/><path id="Shape" d="m26 47c-.5522847 0-1-.4477153-1-1v-5c0-.5522847.4477153-1 1-1s1 .4477153 1 1v5c0 .5522847-.4477153 1-1 1z" fill="#f0c419"/><path id="Shape" d="m16 28v6c0 .5522847-.4477153 1-1 1s-1-.4477153-1-1v-4.37z" fill="#d25627"/><g fill="#f0c419"><circle id="Oval" cx="9" cy="41" r="2"/><circle id="Oval" cx="43" cy="41" r="2"/></g></g></g></svg>