<svg height="512" viewBox="0 0 58 54" width="512" xmlns="http://www.w3.org/2000/svg"><g id="Page-1" fill="none" fill-rule="evenodd"><g id="016---Propeller" fill-rule="nonzero"><path id="Shape" d="m48 33c.0009059 1.215157-.116312 2.4275247-.35 3.62l-1.78 3.71-2.39 4.96c-1.1880459 1.4053416-2.5762172 2.6284148-4.12 3.63h-.01c-.28.19-.56.36-.85.53s-.59.33-.89.47c-2.3615925 1.2178367-4.9562292 1.9167862-7.61 2.05-.33.02-.67.03-1 .03s-.67-.01-1-.03c-3.3087836-.1618326-6.5150142-1.2006651-9.29-3.01l-2.54-2.79-4-4.38c-1.2737359-2.4091988-2.0041931-5.0681994-2.14-7.79-.02-.33-.03-.66-.03-1s.01-.67.03-1c.1332138-2.6537708.8321633-5.2484075 2.05-7.61.14-.3.3-.6.47-.89s.34-.57.53-.85c2.1458766-3.3106684 5.2710223-5.8695125 8.94-7.32l4.12-.48 5.59-.65c2.0537711.2909792 4.0445035.9230114 5.89 1.87.3.15.59.31.88.48s.57.34.85.53c2.2306674 1.4406462 4.1293538 3.3393326 5.57 5.57.19.28.36.56.53.85s.33.59.47.89c1.3701048 2.6630329 2.0832842 5.6151844 2.08 8.61z" fill="#e64c3c"/><g fill="#c03a2b"><path id="Shape" d="m30 42v9.97c-.33.02-.67.03-1 .03s-.67-.01-1-.03v-9.97c-.0015762-.0205148.0018556-.0411053.01-.06.023804-.5294717.4599935-.9464916.99-.9464916s.966196.4170199.99.9464916c.0081444.0188947.0115762.0394852.01.06z"/><path id="Shape" d="m39.35 48.92c-.28.19-.56.36-.85.53s-.59.33-.89.47l-4.98-8.63c-.01-.02-.02-.03-.02-.05-.2111896-.4672916-.0346812-1.0186013.408637-1.2763444.4433181-.2577431 1.0097539-.1383777 1.311363.2763444.01.01.02.02.02.03s.02.01.02.02z"/><path id="Shape" d="m22.07 29c-.1761919.3088972-.5043864.499708-.86.5-.1569877.0028577-.3120337-.0350425-.45-.11-.02 0-.03-.01-.05-.02l-8.63-4.98c.14-.3.3-.6.47-.89s.34-.57.53-.85l8.63 4.98c.0189723.0101639.0359194.0237215.05.04.4370929.2927717.5726002.8741419.31 1.33z"/><path id="Shape" d="m21 33c.0006736.5278163-.4128568.963343-.94.99-.0188947.0081444-.0394852.0115762-.06.01h-9.97c-.02-.33-.03-.66-.03-1s.01-.67.03-1h9.97c.0205148-.0015762.0411053.0018556.06.01.5271432.026657.9406736.4621837.94.99z"/><path id="Shape" d="m45.92 24.39-8.63 4.98c-.02.01-.03.02-.05.02-.1379663.0749575-.2930123.1128577-.45.11-.4385565-.0033853-.8237305-.292132-.9499631-.7121422-.1262326-.4200103.0359373-.8732592.3999631-1.1178578.0140806-.0162785.0310277-.0298361.05-.04l8.63-4.98c.19.28.36.56.53.85s.33.59.47.89z"/><path id="Shape" d="m39.35 17.08-4.98 8.63c-.0101639.0189723-.0237215.0359194-.04.05-.1839835.2793852-.4954809.4482694-.83.45-.1759398-.0028448-.3481647-.0510678-.5-.14-.4580818-.2631575-.6295598-.8391477-.39-1.31 0-.02.01-.03.02-.05l4.99-8.64c.3.15.59.31.88.48s.57.34.85.53z"/></g><path id="Shape" d="m3.985 41.275c-.45098445-.0004817-.84584226-.3027691-.964-.738-3.72987793-13.0568631 2.76882208-26.8601378 15.209-32.304.3276125-.14290624.7065786-.10017784.9941453.11208983s.4400459.5618261.4.91700001c-.0400458.35517391-.2665327.66200393-.5941453.80491016-11.52689671 5.0509871-17.54295157 17.8471216-14.079 29.946.0816479.3007467.01842197.6223654-.17099577.8698242-.18941773.2474587-.48337169.3924663-.79500423.3921758z" fill="#2fa8cc"/><path id="Shape" d="m1.266 20.134c-.34672811-.0000116-.66870605-.1796295-.85085715-.4746573-.1821511-.2950277-.19847704-.6633561-.04314285-.9733427 4.06398521-8.1112699 11.3733811-14.12171013 20.117-16.542.5326786-.14690772 1.0835922.16582138 1.2305.69850001.1469077.53267863-.1658214 1.08359223-.6985 1.23049999-8.1979945 2.26804609-15.05110395 7.9035113-18.86 15.509-.1697038.3386631-.51619667.552366-.895.552z" fill="#2fa8cc"/><path id="Shape" d="m31.16 24.26c.29-3.61.29-8.52.88-13.04.32-2.41 1.21-6.35.89-8.6-.0431739-1.11087582-.7428695-2.08966342-1.78-2.49-1.42-.51-2.63.6-3.53 1.5-5.99 6-7.21 16.72-3.57 23.86z" fill="#35495e"/><path id="Shape" d="m25.22 41.16c-3.32 7.55-13.12 13.34-21.82 11.96-1.26-.2-2.87-.53-3.29-1.97-.28400238-1.0765829.09684837-2.2191351.97-2.91 1.63-1.58 5.35-3.17 7.48-4.33 4.46-2.42 8.88-5.71 12.1-7.54z" fill="#35495e"/><path id="Shape" d="m37.94 34c7.96.09 16.16 5.51 19.06 12.33.57 1.33 1.25 2.94.91 4.46-.1960616.940337-1.0510395 1.5953947-2.01 1.54-2.77-.05-9.15-5.4-15.63-8.91-1.61-.87-4.11-1.99-5.95-3.17z" fill="#35495e"/><path id="Shape" d="m31.62 2.63c-5.57 5.58-7.01 15.22-4.26 22.29l-3.31.57c-3.64-7.14-2.42-17.86 3.57-23.86.9-.9 2.11-2.01 3.53-1.5.7285668.24566542 1.2990553.81985838 1.54 1.55-.3814572.28759264-.7392678.60527498-1.07.95z" fill="#2c3e50"/><path id="Shape" d="m25.22 41.16c-3.32 7.55-13.12 13.34-21.82 11.96-1.26-.2-2.87-.53-3.29-1.97-.28448252-1.0483567.07625041-2.1658445.92-2.85v.01c.6 1.37 2.24 1.49 3.52 1.53 7.39.2 14.9-4.7 18.49-10.97z" fill="#2c3e50"/><path id="Shape" d="m57.91 50.79c-.1960616.940337-1.0510395 1.5953947-2.01 1.54-.3296883-.0183727-.6556698-.0788641-.97-.18-.1902051-.9753617-.5026709-1.9228388-.93-2.82-2.75-6.47-10.27-11.67-17.83-12.27l1.77-3.06c7.96.09 16.16 5.51 19.06 12.33.57 1.33 1.25 2.94.91 4.46z" fill="#2c3e50"/><circle id="Oval" cx="29" cy="33" fill="#bdc3c7" r="9"/><circle id="Oval" cx="27.5" cy="30.5" fill="#ecf0f1" r="2.5"/></g></g></svg>