<svg height="512" viewBox="0 0 38 58" width="512" xmlns="http://www.w3.org/2000/svg"><g id="Page-1" fill="none" fill-rule="evenodd"><g id="017---Flight-Attendant" fill-rule="nonzero"><path id="Shape" d="m31.74 41.98c3.34-.23 6.26-3.24 6.26-3.24-3-2.05-1-4.22-2-17.58s-11-14.39-11-14.39h-12s-10 1.03-11 14.39 1 15.53-2 17.58c0 0 2.92 3.01 6.26 3.24z" fill="#a56a43"/><path id="Shape" d="m34 47.03.0000183 10.97h-30.00003661l.00001831-10.97c-.00424796-1.8605757.73092807-3.6466052 2.04374103-4.9650445s3.0956821-2.0612466 4.95625897-2.0649555h3l.03.03.03.03 3.94 3.96 1 1 1-1 3.94-3.96.03-.03.03-.03h3c1.8605769.0037089 3.643446.7465162 4.956259 2.0649555 1.3128129 1.3184393 2.047989 3.1044688 2.043741 4.9650445z" fill="#c03a2b"/><path id="Shape" d="m23.94 40.06-4.94 4.96-4.94-4.96c2.62-2.01 2.16-4.89 1.55-6.58h6.78c-.61 1.69-1.07 4.57 1.55 6.58z" fill="#f9c795"/><g fill="#802f34"><path id="Shape" d="m10 49.11v8.89h-2v-8.89c0-.5522847.44771525-1 1-1s1 .4477153 1 1z"/><path id="Shape" d="m30 49.11v8.89h-2v-8.89c0-.5522847.4477153-1 1-1s1 .4477153 1 1z"/><path id="Shape" d="m19.576 10.594 5.424-3.825-1.283-3.391c-.4455372-1.2032028-1.3149456-2.20240022-2.445-2.81-1.4215791-.75099048-3.1224209-.75099048-4.544 0-1.1300544.60759978-1.9994628 1.6067972-2.445 2.81l-1.283 3.391 5.424 3.825c.3454298.2434004.8065702.2434004 1.152 0z"/></g><path id="Shape" d="m32 24.11c0 1.6568542-1.3431458 3-3 3-.1882886.0003363-.3760566-.0197817-.56-.06-1.2907064 4.1458075-5.0984306 6.9935334-9.44 7.06-4.3415694-.0664666-8.1492936-2.9141925-9.44-7.06-.18394343.0402183-.37171144.0603363-.56.06-1.65685425 0-3-1.3431458-3-3s1.34314575-3 3-3v-3.56c2.64.55 7.26.88 10-2.55 2.74 3.43 7.36 3.1 10 2.55v3.56c1.6568542 0 3 1.3431458 3 3z" fill="#fdd7ad"/><path id="Shape" d="m25.8 18.9c-2.495319.1060663-4.934009-.7628963-6.8-2.423-4.54 4.315-12.017 1.584-12.352 1.46-.5174908-.1932997-.78029963-.7695092-.58699998-1.287.19329966-.5174908.76950917-.7802996 1.28699998-.587.074.027 7.377 2.679 10.869-1.688.1967485-.2257433.4815505-.3553128.781-.3553128s.5842515.1295695.781.3553128c3.505 4.383 10.794 1.716 10.867 1.688.5174908-.1932997 1.0937003.0695092 1.287.587s-.0695092 1.0937003-.587 1.287c-1.7841471.6198808-3.6573195.9451359-5.546.963z" fill="#805333"/><path id="Shape" d="m25.62 47.11-1.35.98c-.7475519.5328232-1.032782 1.5083927-.69 2.36l.82 2.04c.3524744.8795694.0393422 1.8857677-.75 2.41l-4.65 3.1-4.65-3.1c-.7893422-.5242323-1.1024744-1.5304306-.75-2.41l.82-2.04c.342782-.8516073.0575519-1.8271768-.69-2.36l-1.35-.98c-.7975701-.5736974-1.0603418-1.641737-.62-2.52l2.27-4.56.03.03 3.94 3.96 1 1 1-1 3.94-3.96.03-.03 2.27 4.56c.4403418.878263.1775701 1.9463026-.62 2.52z" fill="#e64c3c"/><path id="Shape" d="m20 44.02v7.09c0 .5522847-.4477153 1-1 1s-1-.4477153-1-1v-7.09l1 1z" fill="#c03a2b"/></g></g></svg>