<svg height="512" viewBox="0 0 58 58" width="512" xmlns="http://www.w3.org/2000/svg"><g id="Page-1" fill="none" fill-rule="evenodd"><g id="018---Plane" fill-rule="nonzero"><path id="Shape" d="m41 4h-24c-.5522847 0-1-.44771525-1-1s.4477153-1 1-1h24c.5522847 0 1 .44771525 1 1s-.4477153 1-1 1z" fill="#7f8c8d"/><path id="Shape" d="m32.28 49h5.22c1.9329966 0 3.5 1.5670034 3.5 3.5-.0093024 1.9291303-1.5708697 3.4906976-3.5 3.5h-17c-.9282577 0-1.8184964-.3687489-2.4748737-1.0251263-.6563774-.6563773-1.0251263-1.546616-1.0251263-2.4748737.0093024-1.9291303 1.5708697-3.4906976 3.5-3.5z" fill="#26b99a"/><path id="Shape" d="m24 19h-19c-2.76142375 0-5 2.2385763-5 5v2c0 1.3260824.5267842 2.597852 1.46446609 3.5355339.9376819.9376819 2.20945146 1.4644661 3.53553391 1.4644661h48c2.7614237 0 5-2.2385763 5-5v-2c0-2.7614237-2.2385763-5-5-5z" fill="#26b99a"/><path id="Shape" d="m33.829 38.2-2.546 17.82c-.162249 1.1361611-1.1353125 1.9800795-2.283 1.98-1.1476875.0000795-2.120751-.8438389-2.283-1.98l-2.546-17.82c-.1137336-.7949442-.1708772-1.596961-.171-2.4v-16.8l.929-12.077c.040312-.5220085.4764396-.92455423 1-.923h6.148c.5235604-.00155423.959688.4009915 1 .923l.923 12.077v16.792c.0002566.805709-.0568881 1.6104127-.171 2.408z" fill="#81ccb8"/><g fill="#26b99a"><path id="Shape" d="m29 0c1.6568542 0 3 1.34314575 3 3v3h-6v-3c0-1.65685425 1.3431458-3 3-3z"/><path id="Shape" d="m29 16c-.5522847 0-1-.4477153-1-1v-2c0-.5522847.4477153-1 1-1s1 .4477153 1 1v2c0 .5522847-.4477153 1-1 1z"/><path id="Shape" d="m29 30c-.5522847 0-1-.4477153-1-1v-10c0-.5522847.4477153-1 1-1s1 .4477153 1 1v10c0 .5522847-.4477153 1-1 1z"/><path id="Shape" d="m29 52c-.5522847 0-1-.4477153-1-1v-3c0-.5522847.4477153-1 1-1s1 .4477153 1 1v3c0 .5522847-.4477153 1-1 1z"/></g><path id="Shape" d="m15 12c1.6568542 0 3 1.3431458 3 3v4h-6v-4c0-1.6568542 1.3431458-3 3-3z" fill="#14a085"/><path id="Shape" d="m15 45c-1.1269217.0002033-2.062218-.870906-2.142-1.995l-.858-12.005h6l-.858 12.005c-.079782 1.124094-1.0150783 1.9952033-2.142 1.995z" fill="#14a085"/><path id="Shape" d="m43 12c1.6568542 0 3 1.3431458 3 3v4h-6v-4c0-1.6568542 1.3431458-3 3-3z" fill="#14a085"/><path id="Shape" d="m43 45c-1.1269217.0002033-2.062218-.870906-2.142-1.995l-.858-12.005h6l-.858 12.005c-.079782 1.124094-1.0150783 1.9952033-2.142 1.995z" fill="#14a085"/><circle id="Oval" cx="7" cy="25" fill="#e64c3c" r="2"/><circle id="Oval" cx="51" cy="25" fill="#e64c3c" r="2"/><path id="Shape" d="m17.43 39-.29 4.01c-.0839169 1.1198542-1.0170061 1.9856379-2.14 1.9856379s-2.0560831-.8657837-2.14-1.9856379l-.29-4.01z" fill="#c03a2b"/><path id="Shape" d="m45.43 39-.29 4.01c-.0839169 1.1198542-1.0170061 1.9856379-2.14 1.9856379s-2.0560831-.8657837-2.14-1.9856379l-.29-4.01z" fill="#c03a2b"/></g></g></svg>