<svg height="512" viewBox="0 0 32 58" width="512" xmlns="http://www.w3.org/2000/svg"><g id="Page-1" fill="none" fill-rule="evenodd"><g id="019---Pilot" fill-rule="nonzero"><path id="Shape" d="m27 12c1.7266481-.6847082 3.240552-1.8155637 4.387-3.277.3569001-.43906034.2964126-1.083074-.136-1.448-3.9193568-3.09458263-8.3706306-5.44781026-13.135-6.944-1.3762003-.44100107-2.8557997-.44100107-4.232 0-4.76436941 1.49618974-9.21564317 3.84941737-13.135 6.944-.4324126.364926-.49290007 1.00893966-.136 1.448 1.14644797 1.4614363 2.66035185 2.5922918 4.387 3.277z" fill="#3b97d3"/><path id="Shape" d="m31 49 .0000023 9h-30.00000461l.00000231-9c-.00282902-3.50251 2.58839411-6.4657404 6.06-6.93.31094631-.0485282.62529563-.0719372.94-.07h3c.3798199-.2825191.7225201-.6117801 1.02-.98 1.1755084-1.6489335 1.399484-3.7937842.59-5.65h6.78c-.809484 1.8562158-.5855084 4.0010665.59 5.65.2974799.3682199.6401801.6974809 1.02.98h3c.3147044-.0019372.6290537.0214718.94.07 3.4716059.4642596 6.062829 3.42749 6.06 6.93z" fill="#ecf0f1"/><path id="Shape" d="m7 51v7h-2v-7c0-.5522847.44771525-1 1-1s1 .4477153 1 1z" fill="#bdc3c7"/><path id="Shape" d="m27 51v7h-2v-7c0-.5522847.4477153-1 1-1s1 .4477153 1 1z" fill="#bdc3c7"/><path id="Shape" d="m24.94 42.07-3.91 6.96-5.03-5.03 3.98-2.98c.2974799.3682199.6401801.6974809 1.02.98h3c.3147044-.0019372.6290537.0214718.94.07z" fill="#2c3e50"/><path id="Shape" d="m16 44-5.03 5.03-3.91-6.96c.31094631-.0485282.62529563-.0719372.94-.07h3c.3798199-.2825191.7225201-.6117801 1.02-.98z" fill="#35495e"/><path id="Shape" d="m16 44v14l-5.03-8.97z" fill="#3b97d3"/><path id="Shape" d="m21.03 49.03-5.03 8.97v-14z" fill="#2980ba"/><path id="Shape" d="m19.98 41.02-3.98 2.98-3.98-2.98c1.1755084-1.6489335 1.399484-3.7937842.59-5.65h6.78c-.809484 1.8562158-.5855084 4.0010665.59 5.65z" fill="#f9c795"/><path id="Shape" d="m6 18v5c-1.65685425 0-3 1.3431458-3 3s1.34314575 3 3 3c.18828856.0003363.37605657-.0197817.56-.06 1.29070637 4.1458075 5.0984306 6.9935334 9.44 7.06 4.3415694-.0664666 8.1492936-2.9141925 9.44-7.06.1839434.0402183.3717114.0603363.56.06 1.6568542 0 3-1.3431458 3-3s-1.3431458-3-3-3v-5z" fill="#fdd7ad"/><path id="Shape" d="m27 12.28c2.48.72 4 1.67 4 2.72 0 2.21-6.72 4-15 4s-15-1.79-15-4c0-1.05 1.52-2 4-2.72z" fill="#35495e"/><path id="Shape" d="m17.77 7.06c3.2818134.15049119 6.4657447 1.16465783 9.23 2.94v3c0 .5522847-.4477153 1-1 1h-20c-.55228475 0-1-.4477153-1-1v-3c2.76425526-1.77534217 5.9481866-2.78950881 9.23-2.94z" fill="#4482c3"/><circle id="Oval" cx="16" cy="8" fill="#f0c419" r="2"/></g></g></svg>