<svg height="512" viewBox="0 0 60 56" width="512" xmlns="http://www.w3.org/2000/svg"><g id="Page-1" fill="none" fill-rule="evenodd"><g id="020---Hangar" fill-rule="nonzero"><path id="Shape" d="m52 56h-36c-.5522847 0-1-.4477153-1-1s.4477153-1 1-1h36c.5522847 0 1 .4477153 1 1s-.4477153 1-1 1z" fill="#a56a43"/><path id="Rectangle-path" d="m3 17h54v34h-54z" fill="#547580"/><path id="Shape" d="m30 25c11.045695 0 20 8.954305 20 20v6h-40v-6c0-11.045695 8.954305-20 20-20z" fill="#35495e"/><path id="Shape" d="m12 56h-4c-.55228475 0-1-.4477153-1-1s.44771525-1 1-1h4c.5522847 0 1 .4477153 1 1s-.4477153 1-1 1z" fill="#a56a43"/><path id="Shape" d="m55.75 10.49-8.75-3.62-10-4.13-6.25-2.59c-.48-.2-1.02-.2-1.5 0l-6.25 2.59-10 4.13-8.75 3.62c-.7541333.30506-1.24835215 1.0365039-1.25 1.85v4.66h54v-4.66c-.0016479-.8134961-.4958667-1.54494-1.25-1.85z" fill="#e64c3c"/><path id="Shape" d="m23 2.74v14.26h-10v-10.13z" fill="#c03a2b"/><path id="Shape" d="m47 6.87v10.13h-10v-14.26z" fill="#c03a2b"/><path id="Shape" d="m9 21c0 .5522847-.44771525 1-1 1h-5v-2h5c.55228475 0 1 .4477153 1 1z" fill="#3f5c6c"/><path id="Shape" d="m57 20v2h-44c-.5522847 0-1-.4477153-1-1s.4477153-1 1-1z" fill="#3f5c6c"/><g fill="#95a5a5"><path id="Shape" d="m33.46 40h11.54s-3.81 4.76-12.35 4.99h-5.3c-8.54-.23-12.35-4.99-12.35-4.99z"/><path id="Shape" d="m23 52c-.5522847 0-1-.4477153-1-1v-3c0-.5522847.4477153-1 1-1s1 .4477153 1 1v3c0 .5522847-.4477153 1-1 1z"/><path id="Shape" d="m37 52c-.5522847 0-1-.4477153-1-1v-3c0-.5522847.4477153-1 1-1s1 .4477153 1 1v3c0 .5522847-.4477153 1-1 1z"/></g><path id="Shape" d="m32 38.54v-2.54c0-1.1045695-.8954305-2-2-2s-2 .8954305-2 2v2.54z" fill="#67b9cc"/><circle id="Oval" cx="30" cy="42" fill="#bdc3c7" r="4"/><path id="Shape" d="m59 52h-58c-.55228475 0-1-.4477153-1-1s.44771525-1 1-1h58c.5522847 0 1 .4477153 1 1s-.4477153 1-1 1z" fill="#2c3e50"/></g></g></svg>